<svg width="500" height="333" viewBox="0 0 500 333" fill="none" xmlns="http://www.w3.org/2000/svg">
<path d="M444.633 100.08L438.253 130.949L434.147 126.946L427.16 131.928L421.82 125.301L409.847 133.999L399.613 116.903L388.2 123.583L383.673 117.349L369.18 125.508L364.82 116.177L374.98 67.0196L429.447 78.255L444.633 100.08Z" fill="#EBEBEB"/>
<path d="M429.447 78.255L444.633 100.08L425.74 96.1837L429.447 78.255Z" fill="#DBDBDB"/>
<path d="M436.893 137.116L427.54 182.404L354.173 167.273L363.46 122.351L367.82 131.675L382.32 123.516L386.84 129.75L398.26 123.077L408.487 140.173L420.467 131.475L425.8 138.095L432.793 133.12L436.893 137.116Z" fill="#EBEBEB"/>
<path d="M331.887 131.808L257.12 136.43L251.18 40.5527L306.7 37.1162L327.08 54.1991L331.887 131.808Z" fill="#EBEBEB"/>
<path d="M306.7 37.1162L327.08 54.1991L307.827 55.3912L306.7 37.1162Z" fill="#DBDBDB"/>
<path d="M286 101.632L285.707 99.4671C284.953 94.9849 286.18 89.9699 290.08 84.7285C293.6 80.0665 295.507 76.7365 295.293 72.9536C295.053 68.6912 292.22 66.0006 286.947 66.2137C283.933 66.3701 281.038 67.4386 278.647 69.2773L276.347 64.1291C279.013 61.9646 283.68 60.3662 288.113 60.1331C297.733 59.6003 302.413 65.288 302.78 71.635C303.1 77.3159 300.153 81.585 296.407 86.5733C292.967 91.1221 291.84 94.8717 292.327 99.1141L292.533 101.285L286 101.632ZM284.813 113.426C284.64 110.336 286.607 108.045 289.533 107.885C292.46 107.726 294.593 109.777 294.767 112.874C294.927 115.797 293.133 118.155 290.04 118.328C287.087 118.495 284.953 116.35 284.787 113.426H284.813Z" fill="#DBDBDB"/>
<path d="M98.9867 85.3213L91.4667 81.918L90.42 84.2157C90.2655 84.5441 90.0243 84.8242 89.7225 85.026C89.4206 85.2278 89.0695 85.3437 88.7067 85.3612C88.2934 85.3748 87.8815 85.4148 87.4733 85.4811C87.1151 85.5343 86.7491 85.4892 86.4145 85.3508C86.0799 85.2124 85.7891 84.9858 85.5733 84.6952L84.1 82.6373L77.3867 87.4458L78.86 89.5038C79.0649 89.8008 79.1855 90.1477 79.209 90.5077C79.2325 90.8677 79.158 91.2273 78.9933 91.5484C78.8033 91.9146 78.6319 92.2903 78.48 92.6739C78.3479 93.0122 78.1261 93.3081 77.8383 93.5299C77.5506 93.7517 77.2077 93.8909 76.8467 93.9326L74.3333 94.1791L75.14 102.391L77.6667 102.138C78.029 102.109 78.3924 102.179 78.7178 102.341C79.0432 102.503 79.3182 102.75 79.5133 103.057C79.62 103.23 79.7333 103.397 79.8533 103.563C79.9733 103.73 80.0933 103.889 80.22 104.049C80.4501 104.329 80.598 104.667 80.6475 105.025C80.6969 105.384 80.6458 105.749 80.5 106.08L79.4467 108.398L86.9733 111.808L88.02 109.497C88.176 109.169 88.4186 108.89 88.7216 108.689C89.0247 108.488 89.3768 108.374 89.74 108.358C90.1486 108.341 90.5559 108.301 90.96 108.238C91.3183 108.185 91.6842 108.23 92.0189 108.369C92.3535 108.507 92.6442 108.734 92.86 109.024L94.3333 111.082L101.053 106.274L99.58 104.216C99.3688 103.921 99.2443 103.574 99.2208 103.212C99.1972 102.851 99.2755 102.49 99.4467 102.171C99.6324 101.807 99.7993 101.433 99.9467 101.052C100.075 100.711 100.296 100.413 100.584 100.191C100.873 99.9684 101.218 99.8308 101.58 99.7934L104.107 99.5404L103.293 91.3286L100.767 91.575C100.407 91.6066 100.045 91.5381 99.7212 91.3771C99.3977 91.2161 99.125 90.9688 98.9333 90.6626C98.82 90.4894 98.7067 90.3229 98.5867 90.1564C98.4667 89.9899 98.3467 89.8234 98.22 89.6703C97.9915 89.3872 97.8447 89.0472 97.7953 88.6869C97.746 88.3265 97.796 87.9596 97.94 87.6256L98.9867 85.3213ZM94.72 92.9203C95.4996 94.0072 95.9391 95.3005 95.9828 96.6369C96.0266 97.9733 95.6726 99.2926 94.9658 100.428C94.2589 101.563 93.2309 102.464 92.0117 103.016C90.7926 103.567 89.437 103.745 88.1165 103.527C86.796 103.309 85.5699 102.705 84.5932 101.791C83.6165 100.877 82.9331 99.6936 82.6295 98.3914C82.3259 97.0892 82.4157 95.7262 82.8874 94.475C83.3592 93.2237 84.1919 92.1404 85.28 91.3619C86.7388 90.3183 88.5528 89.8962 90.323 90.1884C92.0933 90.4807 93.6749 91.4633 94.72 92.9203Z" fill="#EBEBEB"/>
<path d="M438.92 194.279L433.907 197.169L434.793 198.701C434.926 198.921 434.992 199.174 434.983 199.431C434.975 199.687 434.893 199.935 434.747 200.146C434.593 200.386 434.447 200.633 434.313 200.892C434.204 201.122 434.031 201.316 433.815 201.45C433.598 201.585 433.348 201.655 433.093 201.651H431.333V207.439H433.107C433.361 207.436 433.612 207.506 433.828 207.64C434.044 207.775 434.217 207.969 434.327 208.198C434.46 208.458 434.607 208.704 434.76 208.944C434.906 209.155 434.988 209.404 434.997 209.66C435.005 209.916 434.939 210.17 434.807 210.389L433.92 211.921L438.933 214.812L439.827 213.273C439.956 213.055 440.144 212.877 440.369 212.759C440.594 212.642 440.847 212.589 441.1 212.607H441.953C442.206 212.59 442.459 212.643 442.684 212.76C442.909 212.878 443.097 213.056 443.227 213.273L444.12 214.818L449.127 211.928L448.24 210.389C448.114 210.168 448.052 209.917 448.061 209.663C448.071 209.408 448.151 209.162 448.293 208.951C448.447 208.711 448.593 208.458 448.727 208.205C448.836 207.975 449.009 207.782 449.226 207.647C449.442 207.512 449.692 207.443 449.947 207.446H451.72V201.658H449.933C449.679 201.661 449.428 201.591 449.212 201.457C448.996 201.322 448.823 201.129 448.713 200.899C448.58 200.646 448.433 200.393 448.28 200.153C448.138 199.942 448.058 199.695 448.048 199.441C448.039 199.187 448.101 198.935 448.227 198.714L449.113 197.176L444.107 194.286L443.213 195.804C443.084 196.022 442.896 196.2 442.671 196.318C442.447 196.435 442.193 196.488 441.94 196.47H441.513H441.087C440.833 196.487 440.579 196.434 440.353 196.316C440.127 196.199 439.938 196.022 439.807 195.804L438.92 194.279ZM441.513 199.807C442.453 199.805 443.371 200.083 444.153 200.603C444.935 201.124 445.544 201.864 445.904 202.731C446.264 203.598 446.359 204.552 446.176 205.472C445.993 206.393 445.541 207.238 444.876 207.902C444.212 208.565 443.366 209.017 442.444 209.2C441.523 209.382 440.568 209.288 439.7 208.928C438.833 208.569 438.092 207.96 437.571 207.179C437.049 206.398 436.772 205.48 436.773 204.542C436.772 203.92 436.894 203.303 437.132 202.728C437.37 202.153 437.719 201.63 438.159 201.189C438.6 200.749 439.122 200.399 439.698 200.161C440.273 199.923 440.89 199.8 441.513 199.8V199.807Z" fill="#EBEBEB"/>
<path d="M114.2 60.7126L109.607 64.229L110.667 65.6343C110.825 65.8345 110.922 66.0759 110.947 66.3297C110.972 66.5836 110.923 66.8392 110.807 67.0662C110.679 67.3254 110.568 67.5924 110.473 67.8654C110.391 68.1059 110.243 68.3188 110.047 68.48C109.85 68.6412 109.612 68.7443 109.36 68.7778L107.6 69.0043L108.347 74.7385L110.107 74.5121C110.363 74.4764 110.624 74.5137 110.86 74.6198C111.096 74.7258 111.297 74.8963 111.44 75.1115C111.601 75.3432 111.774 75.5655 111.96 75.7775C112.132 75.9662 112.246 76.2002 112.288 76.4516C112.331 76.7031 112.3 76.9615 112.2 77.1961L111.533 78.8344L116.867 81.0522L117.533 79.4138C117.633 79.1788 117.796 78.9763 118.004 78.8291C118.213 78.682 118.458 78.5961 118.713 78.5813L119.14 78.5347L119.56 78.4681C119.807 78.4217 120.061 78.4437 120.297 78.5317C120.532 78.6198 120.738 78.7706 120.893 78.9676L121.98 80.3862L126.573 76.8697L125.5 75.4645C125.345 75.2614 125.25 75.0192 125.225 74.7651C125.2 74.5109 125.247 74.255 125.36 74.0259C125.486 73.7684 125.598 73.5038 125.693 73.2334C125.776 72.9928 125.923 72.78 126.12 72.6188C126.317 72.4576 126.554 72.3544 126.807 72.3209L128.567 72.0945L127.82 66.3602L126.06 66.5867C125.804 66.623 125.544 66.5867 125.308 66.4819C125.072 66.377 124.871 66.2079 124.727 65.9939C124.56 65.7542 124.387 65.5277 124.2 65.3279C124.045 65.1352 123.944 64.9043 123.909 64.6594C123.874 64.4145 123.905 64.1646 124 63.936L124.667 62.2976L119.333 60.0799L118.667 61.7182C118.566 61.9524 118.403 62.1541 118.194 62.301C117.986 62.448 117.741 62.5344 117.487 62.5507L117.06 62.5907L116.667 62.604C116.42 62.6505 116.165 62.6284 115.93 62.5404C115.695 62.4523 115.489 62.3016 115.333 62.1045L114.2 60.7126ZM117.487 65.8607C118.415 65.7415 119.359 65.8997 120.197 66.3153C121.036 66.7309 121.733 67.3854 122.2 68.1962C122.667 69.007 122.883 69.9378 122.821 70.8711C122.759 71.8044 122.421 72.6984 121.851 73.4404C121.281 74.1824 120.504 74.7391 119.617 75.0404C118.731 75.3416 117.775 75.3738 116.87 75.1329C115.966 74.8921 115.153 74.3889 114.534 73.687C113.915 72.9851 113.518 72.1158 113.393 71.1887C113.31 70.5701 113.35 69.9412 113.511 69.338C113.672 68.7349 113.95 68.1695 114.331 67.6743C114.711 67.1791 115.186 66.764 115.728 66.4528C116.269 66.1415 116.867 65.9403 117.487 65.8607Z" fill="#EBEBEB"/>
<path d="M79.88 210.975C80.1305 204.537 80.0414 198.09 79.6133 191.661C78.6595 178.386 76.6329 165.21 73.5533 152.261C71.86 144.975 69.78 137.809 67.6067 130.649C67.54 130.429 67.1933 130.489 67.2533 130.716C73.9667 155.957 79.4733 181.998 79.0933 208.238C78.9867 215.564 78.1334 222.79 77.44 230.09C77.44 230.283 77.74 230.363 77.7867 230.163C79.1667 223.896 79.62 217.356 79.88 210.975Z" fill="#EBEBEB"/>
<path d="M67.2533 130.696C67.2533 130.696 57.0933 156.47 59.3667 162.504C61.64 168.538 66.3333 169.83 66.3333 169.83C66.3333 169.83 60.1133 178.701 64.46 187.019C68.8067 195.338 78.46 194.945 79.1267 204.375C79.1067 204.422 79.64 164.988 67.2533 130.696Z" fill="#EBEBEB"/>
<path d="M78 188.138C78.0164 188.095 78.0164 188.048 78 188.005C76.6665 170.409 73.3614 153.017 68.1467 136.157C68.1467 136.11 68.0467 136.124 68.06 136.157C70.0733 143.705 71.8511 151.284 73.3933 158.894C72.0274 157.602 70.3587 156.672 68.54 156.19C68.54 156.19 68.4867 156.23 68.54 156.244C70.4506 156.943 72.1685 158.084 73.5533 159.574C73.8467 161.072 74.14 162.564 74.4133 164.062C72.14 161.525 68.9933 160.266 65.84 159.067C65.8329 159.071 65.8268 159.076 65.8225 159.082C65.8183 159.089 65.816 159.096 65.816 159.104C65.816 159.112 65.8183 159.119 65.8225 159.126C65.8268 159.132 65.8329 159.138 65.84 159.141C69.1267 160.473 72.3933 162.191 74.62 165.021C75.3933 169.297 76.0733 173.588 76.66 177.895C75.0186 176.177 72.9135 174.972 70.6 174.425C70.5267 174.425 70.4867 174.512 70.56 174.532C72.9365 175.231 75.0582 176.606 76.6667 178.488H76.7067C76.9067 179.998 77.0978 181.514 77.28 183.037C76.0102 181.963 74.5765 181.1 73.0333 180.479C72.9933 180.479 72.9667 180.526 73.0333 180.539C74.6081 181.221 76.0502 182.174 77.2933 183.356C77.2933 183.356 77.3267 183.356 77.3467 183.356C77.5133 184.802 77.68 186.247 77.8267 187.692C75.5374 184.927 72.5664 182.806 69.2067 181.538C69.1925 181.538 69.179 181.544 69.169 181.554C69.1589 181.564 69.1533 181.577 69.1533 181.592C69.1533 181.606 69.1589 181.619 69.169 181.629C69.179 181.639 69.1925 181.645 69.2067 181.645C72.5243 183.106 75.4384 185.347 77.7 188.178C77.7249 188.209 77.7585 188.232 77.7965 188.244C77.8345 188.256 77.8752 188.256 77.9133 188.245C78.1333 190.463 78.3333 192.68 78.4933 194.905C78.4933 194.938 78.5467 194.938 78.5467 194.905C78.3733 192.672 78.1911 190.416 78 188.138Z" fill="white"/>
<path d="M69.8334 153.653C67.9933 152.509 65.8914 151.853 63.7267 151.748C63.7161 151.748 63.7059 151.752 63.6984 151.76C63.6909 151.767 63.6867 151.777 63.6867 151.788C63.6867 151.799 63.6909 151.809 63.6984 151.816C63.7059 151.824 63.7161 151.828 63.7267 151.828C65.8195 152.225 67.8506 152.896 69.7667 153.826C69.8467 153.846 69.9067 153.706 69.8334 153.653Z" fill="white"/>
<path d="M71.0667 180.939C69.6525 180.128 68.0953 179.597 66.48 179.374C66.4267 179.374 66.42 179.447 66.48 179.46C68.0573 179.776 69.583 180.31 71.0133 181.045C71.0733 181.079 71.1267 180.972 71.0667 180.939Z" fill="white"/>
<path d="M106.6 162.95C102.302 165.918 98.3545 169.364 94.8333 173.22C91.202 177.303 88.401 182.054 86.5867 187.206C82.7252 197.941 80.6489 209.234 80.44 220.639C80.3105 226.955 80.9168 233.264 82.2467 239.44C82.2574 239.485 82.2851 239.524 82.3239 239.549C82.3627 239.574 82.4096 239.584 82.4551 239.575C82.5005 239.567 82.5408 239.541 82.5678 239.503C82.5948 239.466 82.6063 239.419 82.6 239.374C80.9452 228.475 81.0081 217.386 82.7867 206.507C84.5333 195.851 87.2733 184.249 94.06 175.584C97.7533 170.862 102.36 167.153 106.913 163.317C107.153 163.103 106.847 162.777 106.6 162.95Z" fill="#EBEBEB"/>
<path d="M81.9333 212.954C84.3799 209 87.255 205.328 90.5067 202.004C95.5933 196.923 99.8733 193.313 100.54 189.957C101.207 186.6 95.4467 184.122 95.4467 184.122C95.4467 184.122 102.48 185.388 104.407 182.437C106.333 179.487 107.26 162.397 107.26 162.397C107.26 162.397 94.46 171.528 88.4934 184.329C82.5267 197.129 81.9333 212.954 81.9333 212.954Z" fill="#EBEBEB"/>
<path d="M102.667 178.428C101.824 178.303 100.969 178.274 100.12 178.342C100.02 178.342 100.027 178.515 100.12 178.522C100.96 178.522 101.807 178.482 102.647 178.522C102.656 178.519 102.665 178.514 102.672 178.507C102.679 178.5 102.683 178.491 102.686 178.481C102.688 178.471 102.687 178.461 102.684 178.452C102.68 178.443 102.674 178.434 102.667 178.428Z" fill="white"/>
<path d="M93.4734 195.005C92.1217 195.032 90.7856 195.299 89.5267 195.791C89.5267 195.791 89.5267 195.858 89.5267 195.851C90.86 195.538 92.1467 195.411 93.4667 195.185C93.4839 195.177 93.4987 195.165 93.5093 195.149C93.5198 195.134 93.5258 195.116 93.5265 195.097C93.5272 195.078 93.5226 195.059 93.5132 195.043C93.5038 195.027 93.49 195.014 93.4734 195.005Z" fill="white"/>
<path d="M90.7134 189.277C90.1522 189.273 89.5919 189.322 89.04 189.424C89.0298 189.428 89.021 189.434 89.0148 189.443C89.0086 189.452 89.0052 189.463 89.0052 189.474C89.0052 189.485 89.0086 189.495 89.0148 189.504C89.021 189.513 89.0298 189.52 89.04 189.524C89.5988 189.556 90.1595 189.532 90.7134 189.451C90.7363 189.451 90.7584 189.441 90.7746 189.425C90.7909 189.409 90.8 189.387 90.8 189.364C90.8 189.341 90.7909 189.319 90.7746 189.303C90.7584 189.286 90.7363 189.277 90.7134 189.277Z" fill="white"/>
<path d="M44.4067 181.079C48.5728 182.49 52.5651 184.369 56.3067 186.68C60.1889 189.144 63.5556 192.338 66.22 196.084C71.826 203.879 76.1182 212.538 78.9267 221.718C80.493 226.801 81.4596 232.049 81.8067 237.356C81.7994 237.39 81.7805 237.421 81.7532 237.443C81.7259 237.465 81.6918 237.477 81.6567 237.477C81.6215 237.477 81.5875 237.465 81.5602 237.443C81.5329 237.421 81.514 237.39 81.5067 237.356C80.3299 228.154 77.7159 219.194 73.76 210.802C69.8734 202.577 64.9734 193.826 57.48 188.378C53.4 185.414 48.8134 183.47 44.24 181.418C44 181.338 44.1667 180.999 44.4067 181.079Z" fill="#EBEBEB"/>
<path d="M75.94 215.851C73.0437 213.218 69.8669 210.911 66.4667 208.971C61.1733 206.034 56.8733 204.102 55.56 201.538C54.2467 198.974 58.3333 195.644 58.3333 195.644C58.3333 195.644 52.9333 198.308 50.6933 196.343C48.4533 194.379 43.7467 180.792 43.7467 180.792C43.7467 180.792 56.22 185.221 64 194.206C71.78 203.19 75.94 215.851 75.94 215.851Z" fill="#EBEBEB"/>
<path d="M65.5867 203.343C64.3603 203.258 63.129 203.409 61.96 203.79C61.96 203.79 61.96 203.85 61.96 203.843C63.1526 203.639 64.3575 203.514 65.5667 203.47C65.6533 203.47 65.6733 203.35 65.5867 203.343Z" fill="white"/>
<path d="M54.7067 189.091C54.1473 189.045 53.5842 189.076 53.0334 189.184C52.9734 189.184 52.9934 189.291 53.0334 189.284C53.5867 189.224 54.1267 189.244 54.6733 189.231C54.6903 189.231 54.707 189.226 54.7206 189.216C54.7341 189.206 54.7437 189.191 54.7476 189.174C54.7515 189.158 54.7496 189.141 54.7421 189.125C54.7347 189.11 54.7221 189.098 54.7067 189.091Z" fill="white"/>
<path d="M92.0267 254.532H63.8734L67.8867 225.155L68.9134 217.622H86.9867L88.0134 225.155L92.0267 254.532Z" fill="#DBDBDB"/>
<path d="M88.0133 225.155H67.8867L68.9133 217.622H86.9867L88.0133 225.155Z" fill="#C7C7C7"/>
<path d="M89.5667 215.011H66.3267V221.392H89.5667V215.011Z" fill="#DBDBDB"/>
<path d="M45.9733 254.532L96.6467 254.372L147.32 254.312L248.667 254.199L350.013 254.312L400.687 254.372L451.36 254.532L400.687 254.699L350.013 254.752L248.667 254.866L147.32 254.752L96.6467 254.692L45.9733 254.532Z" fill="#263238"/>
<path d="M250 304.169C355.575 304.169 441.16 294.8 441.16 283.243C441.16 271.686 355.575 262.317 250 262.317C144.425 262.317 58.84 271.686 58.84 283.243C58.84 294.8 144.425 304.169 250 304.169Z" fill="#EBEBEB"/>
<path d="M205.5 279.78C203.947 280.306 159.407 280.446 157.7 279.394C157.033 278.994 156.653 272.514 156.367 264.668C156.307 262.977 156.26 261.225 156.22 259.454L152.667 235.717L182.447 235.524L185.253 259.267L185.14 264.489C185.14 264.489 202.22 272.048 203.967 273.42C205.713 274.792 207.053 279.254 205.5 279.78Z" fill="#FFC4C0"/>
<path d="M205.5 279.78C203.947 280.306 159.407 280.446 157.7 279.394C156.913 278.901 156.487 269.437 156.247 259.454L185.22 259.267L185.107 264.489C185.107 264.489 202.187 272.048 203.933 273.42C205.68 274.792 207.053 279.254 205.5 279.78Z" fill="white"/>
<path d="M205.5 279.78C203.947 280.306 159.407 280.446 157.7 279.394C157.033 278.994 156.653 272.514 156.367 264.668L185.08 264.489C185.08 264.489 202.16 272.048 203.907 273.42C205.653 274.792 207.053 279.254 205.5 279.78Z" fill="#A6A6A6"/>
<path d="M204.853 278.002C197.387 277.842 167.253 277.915 159.86 278.328C159.8 278.328 159.8 278.368 159.86 278.375C167.26 278.688 197.393 278.375 204.853 278.122C205.013 278.115 205.013 278.002 204.853 278.002Z" fill="#263238"/>
<path d="M201.06 271.828C200.23 271.809 199.405 271.963 198.637 272.279C197.869 272.596 197.176 273.068 196.6 273.666C195.551 274.733 194.958 276.166 194.947 277.662C194.947 277.709 195.027 277.709 195.033 277.662C195.281 276.189 195.999 274.835 197.081 273.802C198.162 272.77 199.549 272.115 201.033 271.934C201.047 271.938 201.062 271.936 201.075 271.928C201.087 271.921 201.096 271.909 201.1 271.895C201.104 271.88 201.101 271.865 201.094 271.853C201.086 271.84 201.074 271.831 201.06 271.828Z" fill="#263238"/>
<path d="M188 265.221C185.013 265.188 181.553 266.253 179.7 268.704C179.633 268.798 179.767 268.897 179.853 268.851C182.463 267.475 185.212 266.381 188.053 265.587C188.097 265.575 188.135 265.548 188.16 265.51C188.185 265.472 188.195 265.426 188.189 265.381C188.182 265.336 188.159 265.295 188.125 265.265C188.09 265.236 188.046 265.22 188 265.221Z" fill="#263238"/>
<path d="M190.32 266.107C187.327 266.107 183.867 267.146 182.02 269.59C181.947 269.69 182.08 269.79 182.173 269.743C184.779 268.362 187.526 267.266 190.367 266.473C190.41 266.461 190.448 266.434 190.473 266.397C190.498 266.36 190.508 266.314 190.502 266.27C190.497 266.225 190.475 266.184 190.442 266.154C190.408 266.124 190.365 266.108 190.32 266.107Z" fill="#263238"/>
<path d="M192.627 266.999C189.64 266.999 186.18 268.032 184.327 270.483C184.26 270.576 184.393 270.676 184.48 270.629C187.089 269.253 189.838 268.159 192.68 267.366C192.724 267.354 192.762 267.326 192.787 267.288C192.812 267.25 192.822 267.204 192.815 267.159C192.809 267.114 192.786 267.073 192.751 267.044C192.717 267.014 192.672 266.998 192.627 266.999Z" fill="#263238"/>
<path d="M194.94 267.892C191.947 267.859 188.487 268.924 186.64 271.375C186.567 271.468 186.707 271.568 186.793 271.521C189.402 270.144 192.151 269.05 194.993 268.258C195.037 268.246 195.075 268.218 195.1 268.18C195.125 268.142 195.135 268.096 195.129 268.051C195.122 268.006 195.099 267.965 195.065 267.936C195.03 267.906 194.986 267.891 194.94 267.892Z" fill="#263238"/>
<path d="M161.74 271.235C158.407 271.235 158.407 276.463 161.74 276.443C165.073 276.423 165.1 271.215 161.74 271.235Z" fill="#263238"/>
<path d="M191.207 257.242C189.693 255.99 187.787 257.242 186.86 258.528C185.317 260.8 184.398 263.436 184.193 266.174C184.193 266.233 184.24 266.26 184.287 266.26C184.299 266.317 184.324 266.369 184.36 266.414C184.397 266.458 184.443 266.494 184.496 266.516C184.549 266.539 184.607 266.549 184.664 266.545C184.722 266.541 184.777 266.523 184.827 266.493C186.947 265.021 189.4 263.703 191.007 261.618C191.92 260.406 192.667 258.408 191.207 257.242ZM187.567 263.596C186.54 264.349 185.48 265.048 184.48 265.841C185.013 264.349 185.473 262.844 186.153 261.405C186.468 260.715 186.828 260.048 187.233 259.407C187.9 258.415 190.807 255.91 191.113 259.154C191.287 260.932 188.787 262.704 187.567 263.596Z" fill="#263238"/>
<path d="M176.753 267.306C179.353 267.692 182.04 266.946 184.593 266.54C184.649 266.525 184.7 266.498 184.743 266.46C184.786 266.423 184.82 266.375 184.841 266.322C184.862 266.269 184.871 266.212 184.866 266.155C184.861 266.098 184.843 266.043 184.813 265.994C184.823 265.986 184.831 265.977 184.836 265.966C184.842 265.955 184.844 265.943 184.844 265.931C184.844 265.918 184.842 265.906 184.836 265.895C184.831 265.884 184.823 265.875 184.813 265.867C182.762 264.039 180.265 262.783 177.573 262.224C176 261.925 173.773 262.357 173.573 264.309C173.333 266.147 175.233 267.066 176.753 267.306ZM174.94 265.614C172.94 263.057 176.76 262.837 177.907 263.103C178.651 263.289 179.381 263.525 180.093 263.809C181.551 264.413 182.978 265.091 184.367 265.841C183.1 265.967 181.853 266.194 180.593 266.367C179.087 266.567 176.06 267.019 174.94 265.614Z" fill="#263238"/>
<path d="M108.88 126.007C108.88 126.007 143.46 184.775 144.387 188.904C145.807 195.245 153.333 257.855 153.333 257.855L189.333 257.189C189.333 257.189 183.133 201.984 177.26 183.796C173.033 170.696 142.513 127.246 142.513 127.246L108.88 126.007Z" fill="#37474F"/>
<path d="M186.06 251.701C180.893 251.661 162.58 251.455 155.7 252.095C155.647 252.095 155.653 252.188 155.7 252.195C158.067 252.535 180.887 252.008 186.053 251.841C186.064 251.845 186.076 251.847 186.087 251.845C186.099 251.844 186.109 251.84 186.119 251.833C186.129 251.827 186.136 251.819 186.142 251.809C186.148 251.799 186.151 251.787 186.152 251.776C186.152 251.764 186.15 251.753 186.145 251.743C186.141 251.732 186.133 251.723 186.125 251.716C186.116 251.708 186.105 251.703 186.094 251.701C186.083 251.698 186.071 251.699 186.06 251.701Z" fill="#263238"/>
<path d="M114.78 131.402C117.047 134.952 119.447 138.428 121.753 141.951C124.06 145.474 126.38 148.998 128.667 152.514C133.227 159.618 137.671 166.769 142 173.966C144.113 177.302 145.92 180.822 147.4 184.482C148.751 188.143 149.766 191.919 150.433 195.764C151.14 199.62 151.607 203.516 152.04 207.412C152.484 211.555 152.949 215.7 153.433 219.847C154.38 228.331 155.329 236.816 156.28 245.301C156.393 246.34 156.507 247.379 156.613 248.425C156.613 248.578 156.353 248.604 156.333 248.425C155.273 240 154.393 231.542 153.433 223.117C152.953 218.912 152.476 214.71 152 210.509C151.553 206.6 151.127 202.684 150.52 198.801C149.963 194.968 149.116 191.184 147.987 187.479C146.742 183.643 145.074 179.957 143.013 176.49C138.847 169.304 134.433 162.244 130.02 155.178C125.607 148.112 121.073 140.986 116.42 134.006C115.847 133.147 115.267 132.288 114.667 131.442C114.62 131.395 114.74 131.335 114.78 131.402Z" fill="#263238"/>
<path d="M120.213 283.243C118.573 283.143 76.2133 266 75.04 264.375C74.9877 264.28 74.9646 264.171 74.9733 264.062C74.9733 262.604 77.9133 257.516 80.3667 250.829C80.52 250.403 81.6133 248.418 83.1267 245.747C87.3333 238.428 94.6667 225.821 94.6667 225.821L122.353 236.81L109.1 256.623L107.04 261.418C107.04 261.418 120.033 274.838 121.127 276.736C122.22 278.634 121.847 283.336 120.213 283.243Z" fill="#FFC4C0"/>
<path d="M120.213 283.243C118.573 283.143 76.2133 266 75.04 264.375C74.9877 264.28 74.9646 264.171 74.9733 264.062C74.9733 262.604 77.9133 257.516 80.3667 250.829C80.52 250.403 81.6133 248.418 83.1267 245.747L109.127 256.623L107.067 261.418C107.067 261.418 120.06 274.838 121.153 276.736C122.247 278.634 121.847 283.336 120.213 283.243Z" fill="white"/>
<path d="M120.213 283.243C118.573 283.143 76.2133 266 75.04 264.375C74.5867 263.756 76.48 257.982 80.3733 250.829L107.04 261.425C107.04 261.425 120.033 274.832 121.133 276.743C122.233 278.654 121.847 283.336 120.213 283.243Z" fill="#A6A6A6"/>
<path d="M120.28 281.352C113.42 278.408 85.46 267.179 78.4533 264.795C78.3933 264.795 78.38 264.795 78.4533 264.835C85.1933 267.898 113.24 278.901 120.253 281.485C120.387 281.518 120.427 281.412 120.28 281.352Z" fill="#263238"/>
<path d="M119.08 274.206C118.319 273.872 117.498 273.699 116.667 273.699C115.836 273.699 115.014 273.872 114.253 274.206C112.886 274.804 111.802 275.906 111.227 277.282C111.227 277.322 111.287 277.356 111.307 277.316C112.093 276.039 113.272 275.051 114.667 274.5C116.062 273.948 117.599 273.864 119.047 274.259C119.058 274.256 119.067 274.248 119.074 274.239C119.08 274.229 119.082 274.217 119.08 274.206Z" fill="#263238"/>
<path d="M109.46 263.19C106.707 262.038 103.093 261.731 100.46 263.31C100.36 263.37 100.46 263.51 100.547 263.503C103.482 263.205 106.441 263.221 109.373 263.55C109.418 263.554 109.464 263.543 109.501 263.517C109.538 263.491 109.564 263.452 109.575 263.408C109.586 263.364 109.58 263.317 109.559 263.277C109.537 263.237 109.502 263.206 109.46 263.19Z" fill="#263238"/>
<path d="M111.267 264.882C108.513 263.729 104.9 263.423 102.267 265.001C102.167 265.061 102.267 265.201 102.353 265.195C105.289 264.894 108.248 264.909 111.18 265.241C111.225 265.246 111.27 265.234 111.308 265.208C111.345 265.182 111.371 265.144 111.382 265.099C111.392 265.055 111.386 265.009 111.365 264.969C111.344 264.929 111.309 264.898 111.267 264.882Z" fill="#263238"/>
<path d="M113.08 266.573C110.32 265.421 106.707 265.115 104.08 266.693C103.973 266.753 104.08 266.893 104.16 266.886C107.095 266.585 110.055 266.601 112.987 266.933C113.033 266.94 113.08 266.931 113.119 266.905C113.158 266.88 113.187 266.841 113.198 266.796C113.21 266.751 113.204 266.703 113.182 266.661C113.161 266.62 113.124 266.589 113.08 266.573Z" fill="#263238"/>
<path d="M114.887 268.265C112.127 267.113 108.52 266.806 105.887 268.378C105.78 268.445 105.887 268.584 105.967 268.578C108.902 268.277 111.861 268.293 114.793 268.624C114.839 268.632 114.887 268.622 114.926 268.597C114.965 268.572 114.993 268.532 115.005 268.487C115.017 268.442 115.011 268.394 114.989 268.353C114.967 268.312 114.931 268.28 114.887 268.265Z" fill="#263238"/>
<path d="M82.8533 258.921C79.74 257.682 77.8067 262.524 80.9333 263.763C84.06 265.001 86 260.16 82.8533 258.921Z" fill="#263238"/>
<path d="M115.427 256.996C114.487 255.271 112.267 255.697 110.913 256.557C108.634 258.082 106.795 260.179 105.58 262.637C105.575 262.648 105.572 262.66 105.572 262.672C105.572 262.684 105.574 262.696 105.579 262.707C105.584 262.717 105.592 262.727 105.601 262.735C105.611 262.742 105.622 262.748 105.633 262.75C105.633 262.97 105.78 263.23 106.04 263.177C108.567 262.597 111.333 262.297 113.6 260.965C114.9 260.193 116.313 258.628 115.427 256.996ZM109.66 261.518C108.427 261.831 107.187 262.084 105.967 262.444C106.976 261.229 108.046 260.067 109.173 258.961C109.728 258.433 110.319 257.943 110.94 257.496C111.907 256.83 115.56 255.597 114.627 258.721C114.113 260.446 111.133 261.145 109.66 261.518Z" fill="#263238"/>
<path d="M98.2466 260.906C100.513 262.238 103.28 262.551 105.8 263.137C106.06 263.197 106.233 262.937 106.213 262.71C106.226 262.709 106.238 262.704 106.248 262.697C106.258 262.69 106.266 262.68 106.272 262.669C106.277 262.657 106.28 262.645 106.279 262.632C106.278 262.62 106.274 262.608 106.267 262.597C105.054 260.134 103.215 258.033 100.933 256.503C99.6 255.637 97.3667 255.205 96.42 256.923C95.4733 258.641 96.92 260.126 98.2466 260.906ZM97.2067 258.654C96.28 255.531 99.9266 256.77 100.893 257.442C101.514 257.891 102.102 258.383 102.653 258.914C103.778 260.023 104.846 261.187 105.853 262.404C104.633 262.044 103.393 261.785 102.16 261.472C100.667 261.072 97.7133 260.406 97.2067 258.654Z" fill="#263238"/>
<path d="M111.253 255.518L80.26 243.017C80.26 243.017 118.687 186.573 118.967 182.371C119.22 178.654 102.34 146.274 101.68 136.836C100.96 126.647 105.867 118.768 111.267 113.873L143.233 127.452C143.233 127.452 139.86 132.84 134.567 135.844C134.567 135.844 150.96 173.273 150.027 184.782C149.093 196.29 111.253 255.518 111.253 255.518Z" fill="#37474F"/>
<path d="M112.627 249.63C108.147 247.705 109.46 248.192 104.953 246.3C102.753 245.381 88.2867 239.367 86.06 238.868C86.0133 238.868 85.98 238.934 86.0267 238.961C87.9533 240.14 102.54 245.901 104.76 246.78C109.3 248.565 108.013 248.005 112.573 249.737C112.58 249.746 112.589 249.753 112.6 249.758C112.61 249.762 112.621 249.764 112.633 249.763C112.644 249.762 112.655 249.758 112.664 249.752C112.674 249.745 112.681 249.737 112.686 249.727C112.691 249.716 112.694 249.705 112.693 249.694C112.693 249.682 112.689 249.671 112.683 249.662C112.677 249.652 112.669 249.644 112.659 249.639C112.649 249.633 112.638 249.63 112.627 249.63Z" fill="#263238"/>
<path d="M139.807 135.158C136.479 135.933 133.222 136.989 130.073 138.315C130.061 138.319 130.049 138.326 130.039 138.335C130.029 138.344 130.021 138.355 130.015 138.367C130.009 138.379 130.005 138.392 130.005 138.405C130.004 138.419 130.006 138.432 130.01 138.445C130.014 138.457 130.021 138.469 130.03 138.479C130.039 138.489 130.05 138.497 130.062 138.503C130.074 138.509 130.087 138.513 130.1 138.513C130.114 138.514 130.127 138.512 130.14 138.508C133.407 137.556 136.727 136.663 139.94 135.538C140.187 135.451 140.06 135.105 139.807 135.158Z" fill="#263238"/>
<path d="M136 133.866C135.689 134.418 135.415 134.99 135.18 135.578C134.95 136.024 134.807 136.51 134.76 137.01C134.76 137.109 134.893 137.129 134.953 137.069C135.288 136.67 135.558 136.22 135.753 135.737C136.027 135.211 136.307 134.692 136.567 134.152C136.747 133.759 136.207 133.506 136 133.866Z" fill="#263238"/>
<path d="M136.4 130.842C136.6 130.35 136.793 129.863 137 129.37C137.207 128.878 137.467 128.371 137.667 127.852C137.667 127.772 137.827 127.852 137.793 127.912C137.593 128.405 137.467 128.924 137.313 129.43C137.16 129.937 136.987 130.443 136.82 130.949C136.507 131.888 136.153 132.82 135.72 133.733C136.245 133.759 136.768 133.668 137.253 133.466C137.749 133.15 138.129 132.683 138.34 132.134C138.62 131.588 138.88 131.029 139.167 130.483C139.52 129.892 139.816 129.27 140.053 128.625C140.053 128.545 140.213 128.625 140.18 128.685C139.745 130.05 139.176 131.368 138.48 132.621C138.18 133.107 137.947 133.62 137.4 133.806C136.808 133.971 136.189 134.014 135.58 133.933C135.5 133.933 135.407 133.933 135.433 133.813C135.706 132.807 136.029 131.816 136.4 130.842Z" fill="#263238"/>
<path d="M135.04 137.063C136.18 139.467 137.18 141.865 138.24 144.262C139.3 146.66 140.24 148.978 141.193 151.362C143.1 156.17 144.807 161.072 146.307 166.014C147.047 168.465 147.733 170.936 148.347 173.426C149.022 175.909 149.517 178.438 149.827 180.992C150.094 183.542 149.868 186.12 149.16 188.585C148.425 191.021 147.481 193.389 146.34 195.664C145.64 197.103 145.407 196.91 145.74 196.184C146.693 194.119 149.193 187.865 149.013 182.611C148.867 180.095 148.479 177.599 147.853 175.158C147.271 172.641 146.616 170.143 145.887 167.666C144.467 162.777 142.78 157.989 141.047 153.207C140.073 150.543 139.047 147.879 138.047 145.215C137.047 142.551 136.047 140.1 134.927 137.156C134.893 137.036 135.007 136.99 135.04 137.063Z" fill="#263238"/>
<path d="M111.513 129.117C112.067 128.911 112.847 129.251 113.407 129.344C114.132 129.467 114.865 129.54 115.6 129.564C116.328 129.589 117.056 129.565 117.78 129.49C118.509 129.472 119.224 129.282 119.867 128.938C120.921 128.17 121.825 127.215 122.533 126.12C123.377 125.002 124.074 123.78 124.607 122.484C124.607 122.404 124.747 122.484 124.72 122.537C124.487 123.277 124.313 124.023 124.053 124.748C123.766 125.431 123.423 126.088 123.027 126.713C122.385 127.972 121.436 129.048 120.267 129.843C118.98 130.576 117.327 130.509 115.893 130.449C115.062 130.401 114.235 130.292 113.42 130.123C112.833 129.997 111.847 129.903 111.473 129.39C111.456 129.371 111.443 129.348 111.435 129.322C111.428 129.297 111.426 129.271 111.429 129.245C111.433 129.219 111.443 129.194 111.457 129.172C111.472 129.15 111.491 129.131 111.513 129.117Z" fill="#263238"/>
<path d="M89.1067 237.096C94.2 229.388 99.2 221.618 104.107 213.786C109.013 205.954 113.853 198.062 118.627 190.11C119.767 188.212 121.08 186.32 121.813 184.216C122.613 181.931 122.16 179.713 121.44 177.476C120.08 173.393 118.491 169.391 116.68 165.488C114.893 161.552 112.967 157.682 111.073 153.799C109.18 149.917 107.2 146.08 105.74 142.031C104.407 138.162 103.867 134.152 104.907 130.143C105.947 126.134 108.187 122.591 110.527 119.254C111.14 118.375 111.773 117.502 112.393 116.59C112.44 116.523 112.54 116.59 112.493 116.67C109.913 120.146 107.4 123.829 105.887 127.912C105.113 129.924 104.681 132.051 104.607 134.206C104.594 136.392 104.934 138.567 105.613 140.646C106.867 144.695 108.847 148.525 110.693 152.334C112.54 156.144 114.513 160.086 116.333 164.009C118.211 167.957 119.88 172.001 121.333 176.124C121.953 177.955 122.667 179.873 122.613 181.838C122.567 183.989 121.54 185.927 120.473 187.739C115.807 195.631 111.027 203.43 106.16 211.182C101.293 218.934 96.2867 226.686 91.22 234.359L89.3 237.256C89.2 237.376 89.0267 237.236 89.1067 237.096Z" fill="#263238"/>
<path d="M145.007 91.555C147.893 97.882 162.473 106.6 169.3 107.539C174.207 108.205 189.127 108.445 194.24 107.666C200.24 106.746 195.653 90.596 192.113 91.0156C182.38 92.1478 174.113 93.4132 171.513 93.4132C168.34 93.4132 151.173 87.912 149.107 87.1328C144.04 85.248 143.373 87.9653 145.007 91.555Z" fill="#FFC4C0"/>
<path d="M145.1 93.24C148.753 98.6413 160.893 107.472 160.893 107.472L162.58 103.743L168.16 91.4085C168.16 91.4085 157.007 87.912 149.667 86.3136C148.803 86.1172 147.924 85.9925 147.04 85.9406C142.353 85.6876 141.947 88.578 145.1 93.24Z" fill="#0554F2"/>
<path d="M145.1 93.24C148.753 98.6412 160.893 107.472 160.893 107.472L162.58 103.743C158.053 98.4881 151.06 90.5294 147.04 85.9539C142.353 85.6875 141.947 88.578 145.1 93.24Z" fill="#263238"/>
<path d="M158.707 104.968C159.633 102.697 163.753 93.553 164.78 91.6483C164.847 91.5151 164.953 91.5284 164.893 91.6483C163.106 96.1956 161.072 100.642 158.8 104.968C158.773 105.048 158.667 105.022 158.707 104.968Z" fill="#263238"/>
<path d="M190.327 91.1821C196.247 90.4095 203.573 89.0842 209.78 91.7149C210.477 91.988 211.062 92.4877 211.44 93.1334C214.24 94.2656 214.547 95.924 214.547 95.924C216.833 97.7754 216.913 99.5204 216.913 99.5204C216.913 99.5204 220.193 100.852 219.693 102.997C219.147 105.368 214.653 102.997 211.387 103.19C203.887 103.656 193.387 106.407 191.22 106.753L190.327 91.1821Z" fill="#FFC4C0"/>
<path d="M203.187 98.1617C205.38 98.0119 207.58 98.0119 209.773 98.1617C212.162 98.4611 214.524 98.9397 216.84 99.5936C216.855 99.5989 216.872 99.598 216.886 99.5912C216.9 99.5843 216.911 99.572 216.917 99.557C216.922 99.542 216.921 99.5255 216.914 99.5111C216.907 99.4968 216.895 99.4857 216.88 99.4804C212.529 97.7749 207.792 97.2957 203.187 98.0951C203.08 98.0818 203.08 98.1684 203.187 98.1617Z" fill="#263238"/>
<path d="M201.793 91.242C205.453 91.4285 207.74 92.0146 211.42 93.1201V93.0801C207.367 91.3885 205.707 91.2287 201.773 91.0822C201.647 91.1354 201.653 91.242 201.793 91.242Z" fill="#263238"/>
<path d="M202.387 104.322C201.433 104.768 201.667 105.268 203.487 105.688C205.307 106.107 212.873 106.234 212.607 108.871C212.34 111.508 201.667 111.175 198.687 110.243C195.707 109.311 191.22 106.753 191.22 106.753C193.333 106.4 198.293 105.061 202.387 104.322Z" fill="#FFC4C0"/>
<path d="M152.933 101.638C152.887 102.777 152.78 103.936 152.62 105.088C152.62 105.042 152.62 105.002 152.667 104.962C152.887 104.362 153.107 103.749 153.373 103.17C153.373 103.17 153.44 103.17 153.433 103.17C153.305 103.805 153.113 104.425 152.86 105.022C152.74 105.308 152.627 105.588 152.5 105.867C152.42 106.38 152.327 106.886 152.227 107.392C152.027 108.345 151.127 112.394 150.893 113.08C150.853 113.22 150.68 113.187 150.693 113.027C150.74 112.281 151.493 108.065 151.647 107.106C151.945 105.254 152.343 103.42 152.84 101.612C152.873 101.578 152.94 101.605 152.933 101.638Z" fill="#263238"/>
<path d="M146 131.921C144.22 132.834 141.927 134.252 131.593 132.221C130.927 132.088 130.3 131.928 129.647 131.735C119.96 128.831 108.313 117.449 107.68 116.643C107.68 116.643 123.073 91.7149 142.76 83.876C145.193 82.9103 149.22 84.7751 151.427 87.0995C152.22 87.932 153.947 94.0525 153.287 99.0076C152.627 103.963 147.773 131.009 146 131.921Z" fill="#0554F2"/>
<path d="M144.613 98.7811C144.688 99.8345 144.54 100.892 144.18 101.885C144.095 100.831 144.243 99.7715 144.613 98.7811Z" fill="white"/>
<path d="M137.9 115.757C137.942 116.282 137.925 116.809 137.847 117.329C137.783 117.853 137.655 118.368 137.467 118.861C137.421 118.335 137.439 117.805 137.52 117.283C137.588 116.761 137.716 116.25 137.9 115.757Z" fill="white"/>
<path d="M126.493 102.924C126.568 103.979 126.421 105.039 126.06 106.034C125.976 104.978 126.124 103.917 126.493 102.924Z" fill="white"/>
<path d="M149.007 114.892C149.049 115.418 149.031 115.948 148.953 116.47C148.889 116.994 148.762 117.509 148.573 118.002C148.527 117.476 148.545 116.946 148.627 116.423C148.694 115.9 148.822 115.386 149.007 114.892Z" fill="white"/>
<path d="M134.36 100.726C134.884 100.681 135.412 100.697 135.933 100.773C136.458 100.839 136.973 100.969 137.467 101.159C136.412 101.235 135.354 101.087 134.36 100.726Z" fill="white"/>
<path d="M121.413 112.987C122.468 112.913 123.526 113.06 124.52 113.42C123.465 113.505 122.405 113.357 121.413 112.987Z" fill="white"/>
<path d="M136.667 126.26C137.721 126.185 138.78 126.332 139.773 126.694C138.719 126.777 137.658 126.629 136.667 126.26Z" fill="white"/>
<path d="M117.42 121.438C118.474 121.364 119.533 121.512 120.527 121.872C119.472 121.955 118.412 121.807 117.42 121.438Z" fill="white"/>
<path d="M144.513 86.8464C145.568 86.7721 146.626 86.9197 147.62 87.2798C146.566 87.3541 145.507 87.2065 144.513 86.8464Z" fill="white"/>
<path d="M140.747 91.0955C140.41 91.5002 140.025 91.8625 139.6 92.1744C139.187 92.4935 138.74 92.766 138.267 92.9869C138.601 92.5847 138.982 92.2227 139.4 91.908C139.817 91.5876 140.269 91.3151 140.747 91.0955Z" fill="white"/>
<path d="M120.22 103.17C119.879 103.571 119.492 103.931 119.067 104.242C118.658 104.567 118.21 104.84 117.733 105.055C118.076 104.655 118.463 104.296 118.887 103.983C119.297 103.659 119.744 103.386 120.22 103.17Z" fill="white"/>
<path d="M145.853 108.618C145.512 109.021 145.125 109.383 144.7 109.697C144.29 110.021 143.842 110.293 143.367 110.509C143.708 110.106 144.095 109.744 144.52 109.43C144.932 109.11 145.379 108.837 145.853 108.618Z" fill="white"/>
<path d="M129.253 119.061C128.912 119.464 128.525 119.826 128.1 120.14C127.689 120.463 127.242 120.735 126.767 120.952C127.108 120.549 127.495 120.187 127.92 119.873C128.332 119.553 128.779 119.28 129.253 119.061Z" fill="white"/>
<path d="M152.213 94.3522C151.872 94.7555 151.485 95.1176 151.06 95.4311C150.647 95.7503 150.2 96.0228 149.727 96.2436C150.068 95.8403 150.455 95.4782 150.88 95.1647C151.291 94.8419 151.738 94.5691 152.213 94.3522Z" fill="white"/>
<path d="M151.867 106.453C151.463 106.113 151.1 105.726 150.787 105.301C150.462 104.892 150.189 104.445 149.973 103.969C150.378 104.306 150.741 104.691 151.053 105.115C151.372 105.53 151.645 105.979 151.867 106.453Z" fill="white"/>
<path d="M114.867 114.792C114.463 114.451 114.1 114.064 113.787 113.64C113.466 113.228 113.193 112.781 112.973 112.308C113.377 112.648 113.74 113.035 114.053 113.46C114.376 113.87 114.649 114.317 114.867 114.792Z" fill="white"/>
<path d="M147.367 124.708C146.962 124.372 146.599 123.987 146.287 123.563C145.967 123.15 145.694 122.704 145.473 122.231C145.877 122.572 146.24 122.958 146.553 123.383C146.875 123.792 147.148 124.237 147.367 124.708Z" fill="white"/>
<path d="M131.08 96.4368C130.676 96.0984 130.314 95.714 130 95.2913C129.682 94.8777 129.409 94.4311 129.187 93.9593C129.592 94.296 129.954 94.6806 130.267 95.1048C130.585 95.5184 130.857 95.965 131.08 96.4368Z" fill="white"/>
<path d="M131.367 130.356C130.963 130.015 130.6 129.629 130.287 129.204C129.967 128.792 129.694 128.345 129.473 127.872C129.878 128.209 130.241 128.593 130.553 129.018C130.874 129.432 131.147 129.881 131.367 130.356Z" fill="white"/>
<path d="M134.133 110.35C133.733 110.007 133.373 109.62 133.06 109.197C132.735 108.789 132.461 108.341 132.247 107.865C132.648 108.206 133.009 108.593 133.32 109.018C133.644 109.427 133.917 109.874 134.133 110.35Z" fill="white"/>
<path d="M147.82 93.7395C145.307 93.2733 142.947 88.0852 142.647 84.5953C142.647 84.3556 143.82 82.4575 145.16 80.0798C145.973 78.6346 146.833 77.0029 147.52 75.4578C147.66 75.1448 148.48 76.2037 148.48 76.2037L150.267 77.5357L156.167 82.0579C154.762 83.7421 153.568 85.5918 152.613 87.5657C152.519 87.7796 152.448 88.0028 152.4 88.2317C152.397 88.2694 152.397 88.3072 152.4 88.3449C152.033 89.6636 150.24 94.1857 147.82 93.7395Z" fill="#FFC4C0"/>
<path d="M152.4 88.265C152.397 88.3027 152.397 88.3405 152.4 88.3782C152.05 88.2756 151.709 88.1441 151.38 87.9852C144.92 84.9616 147.767 76.3169 147.767 76.3169L150.3 77.569L156.2 82.0911C154.795 83.7754 153.602 85.6251 152.647 87.599C152.541 87.8115 152.458 88.0348 152.4 88.265Z" fill="#263238"/>
<path d="M162.947 63.6563C162.947 63.6563 165.9 65.5277 165.913 68.8577C165.927 72.1877 164.58 75.4445 164.3 75.5644C164.02 75.6842 162.947 63.6563 162.947 63.6563Z" fill="#263238"/>
<path d="M148.293 65.3879C146.52 68.8844 146.613 79.9067 148.827 82.7438C152.04 86.8597 158.227 88.2783 161.967 84.209C165.587 80.2663 165.213 65.9073 162.633 63.23C158.88 59.274 150.92 60.2131 148.293 65.3879Z" fill="#FFC4C0"/>
<path d="M157.707 74.2124C157.707 74.2124 157.647 74.2523 157.653 74.279C157.693 75.0315 157.613 75.8973 156.94 76.1637C156.94 76.1637 156.94 76.2104 156.94 76.2037C157.773 76.0705 157.867 74.9183 157.707 74.2124Z" fill="#263238"/>
<path d="M157.02 73.4465C155.807 73.3799 155.767 75.8041 156.893 75.8641C158.02 75.924 158.033 73.4998 157.02 73.4465Z" fill="#263238"/>
<path d="M161.82 74.1857C161.82 74.1857 161.88 74.1857 161.88 74.2523C161.84 75.0049 161.927 75.8707 162.607 76.1305C162.607 76.1305 162.607 76.1771 162.607 76.1704C161.767 76.0439 161.667 74.8917 161.82 74.1857Z" fill="#263238"/>
<path d="M162.507 73.4132C163.713 73.3399 163.773 75.7642 162.653 75.8308C161.533 75.8974 161.493 73.4731 162.507 73.4132Z" fill="#263238"/>
<path d="M156.26 71.6017C156.579 71.5111 156.892 71.4044 157.2 71.282C157.55 71.2187 157.869 71.0406 158.107 70.7758C158.164 70.6789 158.188 70.5657 158.175 70.4537C158.162 70.3417 158.112 70.2373 158.033 70.1564C157.853 70.0194 157.639 69.933 157.414 69.9061C157.189 69.8791 156.961 69.9127 156.753 70.0033C156.303 70.1236 155.914 70.4059 155.66 70.7958C155.609 70.8886 155.586 70.9939 155.594 71.0993C155.601 71.2048 155.638 71.3059 155.702 71.3907C155.765 71.4755 155.851 71.5405 155.95 71.5779C156.049 71.6153 156.157 71.6235 156.26 71.6017Z" fill="#263238"/>
<path d="M163.333 72.6739C163.009 72.6015 162.689 72.5126 162.373 72.4075C162.022 72.3611 161.696 72.1994 161.447 71.948C161.382 71.8554 161.351 71.7438 161.359 71.6313C161.366 71.5189 161.411 71.4122 161.487 71.3286C161.659 71.1817 161.867 71.0839 162.09 71.0452C162.313 71.0065 162.542 71.0285 162.753 71.1088C163.209 71.2032 163.614 71.4645 163.887 71.8414C163.944 71.9306 163.974 72.0345 163.973 72.1404C163.972 72.2463 163.94 72.3496 163.882 72.4378C163.823 72.526 163.74 72.5953 163.643 72.6372C163.545 72.6792 163.438 72.6919 163.333 72.6739Z" fill="#263238"/>
<path d="M156 81.3319C156.18 81.5119 156.353 81.7519 156.627 81.7786C156.907 81.7785 157.184 81.7194 157.44 81.6053C157.44 81.6053 157.487 81.6053 157.44 81.6453C157.331 81.7918 157.184 81.9058 157.015 81.9751C156.845 82.0444 156.661 82.0664 156.48 82.0386C156.328 81.9971 156.191 81.9118 156.087 81.7933C155.982 81.6748 155.915 81.5283 155.893 81.3719C155.888 81.3578 155.889 81.3421 155.895 81.3284C155.901 81.3146 155.913 81.3039 155.927 81.2986C155.941 81.2933 155.956 81.2938 155.97 81.3001C155.984 81.3063 155.995 81.3178 156 81.3319Z" fill="#263238"/>
<path d="M160.36 78.1218C160.36 78.1218 160.393 79.2407 160.36 79.7668C159.336 79.6582 158.301 79.6941 157.287 79.8734C157.047 79.9267 157.073 79.7335 157.347 79.607C158.164 79.2339 159.074 79.1133 159.96 79.2607C160.013 79.1208 159.873 77.529 159.96 77.5357C160.363 77.6148 160.754 77.7493 161.12 77.9353C161.12 75.591 160.747 73.2733 160.78 70.929C160.78 70.8491 160.907 70.8357 160.92 70.929C161.394 73.409 161.617 75.9302 161.587 78.4548C161.593 78.7412 160.56 78.2284 160.36 78.1218Z" fill="#263238"/>
<path d="M158.86 79.3672C158.594 80.0656 158.101 80.6543 157.46 81.0389C156.453 81.4451 156.127 80.5327 157.14 79.7069C157.671 79.4386 158.266 79.3211 158.86 79.3672Z" fill="#263238"/>
<path d="M157.813 80.8324C157.707 80.919 157.588 80.9886 157.46 81.0389C156.533 81.4118 156.167 80.6726 156.913 79.9267C157.42 79.9666 158 80.1531 157.813 80.8324Z" fill="#FF99BA"/>
<path d="M147.787 74.8118C149.007 75.1847 150.407 71.5217 150.807 70.1498C151.153 68.911 151.553 64.975 151.613 64.7019C151.673 64.4288 156.947 68.1851 160 67.2926C163.053 66.4002 165.127 63.6363 165.173 62.3509C165.22 61.0655 161.4 57.8021 158.1 57.6356C154.8 57.4691 150.327 61.6316 150.327 61.6316C150.867 61.019 151.357 60.3643 151.793 59.6736C151.74 59.5271 149.607 60.3796 149.213 61.898C149.213 61.898 149.64 59.9866 149.48 59.9533C149.32 59.92 147.66 61.5517 148.033 62.7905C148.033 62.7905 146.113 64.4488 145.94 66.267C145.767 68.0852 146.353 74.3722 147.787 74.8118Z" fill="#263238"/>
<path d="M162.187 66.6C161.279 67.0918 160.301 67.4422 159.287 67.6389C158.148 67.7404 157.003 67.5573 155.953 67.1062C154.896 66.6981 153.914 66.1174 153.047 65.3879C152.28 64.7618 151.593 63.9959 150.773 63.4365C150.567 63.29 150.333 63.5897 150.46 63.7762C151.828 65.7066 153.782 67.1452 156.033 67.8787C157.079 68.2192 158.195 68.2829 159.272 68.0634C160.35 67.8439 161.351 67.3489 162.18 66.6266C162.18 66.6266 162.2 66.6 162.187 66.6Z" fill="#263238"/>
<path d="M149.06 74.4854C149.06 74.4854 147.167 70.6493 145.46 71.2687C143.753 71.888 144.793 77.1961 146.547 78.1684C146.761 78.3072 147.002 78.4013 147.254 78.445C147.506 78.4886 147.764 78.481 148.013 78.4225C148.262 78.3641 148.497 78.256 148.703 78.1047C148.909 77.9535 149.083 77.7622 149.213 77.5424L149.06 74.4854Z" fill="#FFC4C0"/>
<path d="M145.8 72.7805C145.8 72.7805 145.76 72.7805 145.8 72.8338C147.013 73.553 147.507 74.8318 147.8 76.1638C147.745 76.0227 147.66 75.8954 147.55 75.7905C147.441 75.6857 147.31 75.6058 147.167 75.5564C147.024 75.507 146.871 75.4892 146.72 75.5044C146.57 75.5196 146.424 75.5673 146.293 75.6443C146.253 75.6443 146.293 75.7175 146.293 75.7175C146.532 75.6805 146.776 75.7182 146.992 75.8256C147.208 75.9329 147.386 76.1046 147.5 76.3169C147.691 76.6726 147.843 77.0477 147.953 77.4358C147.993 77.5623 148.213 77.5291 148.193 77.3892C148.48 75.7309 147.547 73.22 145.8 72.7805Z" fill="#263238"/>
<path d="M136.56 91.6149C135.227 99.1607 143.413 124.582 148.66 129.331C156.467 136.39 170.9 141.032 176.133 142.544C178.413 143.21 184.72 127.179 182.413 126.12C177.473 123.876 162.127 119.081 160.667 117.882C159.207 116.683 150.407 103.983 146.487 96.6699C141.24 86.8264 137.22 87.7988 136.56 91.6149Z" fill="#FFC4C0"/>
<path d="M178.527 124.708C178.527 124.708 185.34 126.447 189.733 127.785C192.187 128.538 196.28 130.196 197.833 131.568C200.153 133.626 208.54 143.696 206.14 145.781C203.967 147.672 197.86 138.102 197.86 138.102C197.86 138.102 204.873 147.213 201.86 149.004C198.847 150.796 193.333 139.067 193.333 139.067C193.333 139.067 200.327 148.591 196.907 149.943C194.32 150.962 188.773 140.619 188.773 140.619C188.773 140.619 194.733 148.844 192.107 150.01C189.213 151.302 183.5 142.071 183.5 142.071C176.353 143.916 172.167 141.871 169.413 140.073C168.767 139.634 178.527 124.708 178.527 124.708Z" fill="#FFC4C0"/>
<path d="M195.633 134.792C196.5 135.831 197.38 136.883 198.147 137.995C198.913 139.107 199.64 140.253 200.3 141.432C201.194 142.956 201.91 144.579 202.433 146.267C201.287 143.337 198.6 139.307 197.833 138.195C197.067 137.083 196.353 135.931 195.593 134.818C195.573 134.792 195.613 134.765 195.633 134.792Z" fill="#263238"/>
<path d="M191.56 137.489C193.04 138.661 196.14 143.017 197.333 145.941C197.387 146.06 197.333 146.054 197.247 145.941C196.313 144.495 192.527 138.901 191.527 137.509C191.507 137.489 191.54 137.469 191.56 137.489Z" fill="#263238"/>
<path d="M187.647 139.194C189.486 141.121 190.938 143.382 191.927 145.854C191.973 145.974 191.88 145.954 191.807 145.854C190.427 143.61 189.36 141.858 187.573 139.254C187.547 139.194 187.607 139.134 187.647 139.194Z" fill="#263238"/>
<path d="M144 92.1677C137.913 83.5697 134.273 86.7532 135.493 96.0905C136.64 104.822 139.7 115.225 139.7 115.225L155.033 107.792C155.033 107.792 147.873 97.6756 144 92.1677Z" fill="#0554F2"/>
<path d="M147.7 95.551C147.902 96.0367 148.047 96.544 148.133 97.0628C148.227 97.5834 148.26 98.113 148.233 98.6413C148.033 98.1531 147.89 97.6436 147.807 97.1228C147.708 96.6051 147.672 96.0773 147.7 95.551Z" fill="white"/>
<path d="M138.613 100.78C139.592 100.382 140.645 100.2 141.7 100.246C141.214 100.446 140.706 100.589 140.187 100.673C139.668 100.772 139.14 100.808 138.613 100.78Z" fill="white"/>
<path d="M139.007 87.4058C138.594 88.3792 137.978 89.2533 137.2 89.9699C137.613 88.9966 138.229 88.1225 139.007 87.4058Z" fill="white"/>
<path d="M152 104.795C151.798 105.282 151.54 105.745 151.233 106.174C150.934 106.608 150.585 107.006 150.193 107.359C150.606 106.386 151.222 105.512 152 104.795Z" fill="white"/>
<path d="M141.333 110.01C140.845 109.81 140.381 109.553 139.953 109.244C139.518 108.946 139.12 108.597 138.767 108.205C139.741 108.617 140.616 109.233 141.333 110.01Z" fill="white"/>
<path d="M146 94.7585C146.82 95.884 147.667 96.9829 148.507 98.0885C148.293 97.529 148.107 96.9629 147.947 96.3902H147.987C148.153 96.8297 148.347 97.2626 148.507 97.7222L148.747 98.3882C148.767 98.4336 148.785 98.4803 148.8 98.528C149.467 99.3872 150.133 100.246 150.747 101.125C151.5 102.178 152.227 103.243 152.96 104.309C153.693 105.375 154.433 106.7 155.227 107.772C155.3 107.865 153.893 108.438 153.74 108.511C153.587 108.585 153.507 108.458 153.653 108.411C153.8 108.365 154.92 107.679 154.933 107.666C154.2 106.587 153.353 105.594 152.587 104.549C151.82 103.503 151.06 102.457 150.32 101.398C148.82 99.2406 147.447 97.0029 145.953 94.8384L146 94.7585Z" fill="#263238"/>
<path d="M135.853 102.271C136.087 102.724 136.34 103.17 136.52 103.636L136.773 104.216C136.42 102.557 136.107 100.886 135.74 99.2273C136.447 101.891 137.16 104.615 137.813 107.319C138.433 109.903 139.187 112.514 139.547 115.151C140.012 114.948 140.493 114.785 140.987 114.665C140.492 114.985 139.959 115.243 139.4 115.431C138.596 112.749 137.929 110.028 137.4 107.279C137.233 106.533 137.08 105.787 136.92 105.042C136.747 104.589 136.54 104.156 136.333 103.71C136.127 103.263 135.94 102.764 135.753 102.291C135.793 102.264 135.84 102.238 135.853 102.271Z" fill="#263238"/>
<path d="M139.927 112.654C142.06 111.455 150.973 106.846 152.967 105.994C153.107 105.934 153.18 105.994 153.04 106.087C148.809 108.543 144.447 110.766 139.973 112.747C139.92 112.76 139.867 112.687 139.927 112.654Z" fill="#263238"/>
<path d="M384.213 287.745H181.093L210.46 121.345H413.58L384.213 287.745Z" fill="#0554F2"/>
<path d="M279.98 104.109H213.507L210.46 121.345H281.6L279.98 104.109Z" fill="#0554F2"/>
<g opacity="0.1">
<path opacity="0.1" d="M384.213 287.745H181.093L210.46 121.345H413.58L384.213 287.745Z" fill="black"/>
<path opacity="0.1" d="M279.98 104.109H213.507L210.46 121.345H281.6L279.98 104.109Z" fill="black"/>
</g>
<path d="M206.333 111.142C205.889 109.236 205.889 107.254 206.333 105.348C206.778 107.254 206.778 109.236 206.333 111.142Z" fill="#263238"/>
<path d="M200.427 112.847C199.748 112.144 199.163 111.356 198.687 110.503C198.187 109.667 197.795 108.772 197.52 107.839C198.201 108.538 198.786 109.324 199.26 110.176C199.759 111.015 200.15 111.912 200.427 112.847Z" fill="#263238"/>
<path d="M196.16 117.276C194.287 116.707 192.569 115.716 191.14 114.379C192.075 114.65 192.971 115.04 193.807 115.538C194.661 116.017 195.451 116.601 196.16 117.276Z" fill="#263238"/>
<path d="M194.667 123.244C192.759 123.688 190.774 123.688 188.867 123.244C190.774 122.799 192.759 122.799 194.667 123.244Z" fill="#263238"/>
<path d="M196.4 129.144C195.693 129.819 194.905 130.403 194.053 130.882C193.217 131.38 192.321 131.77 191.387 132.041C192.091 131.363 192.879 130.779 193.733 130.303C194.568 129.802 195.465 129.413 196.4 129.144Z" fill="#263238"/>
<path d="M200.827 133.4C200.259 135.274 199.267 136.992 197.927 138.421C198.198 137.487 198.59 136.591 199.093 135.757C199.569 134.901 200.151 134.109 200.827 133.4Z" fill="#263238"/>
<path d="M206.8 134.872C207.032 135.82 207.144 136.793 207.133 137.769C207.148 138.745 207.036 139.719 206.8 140.666C206.561 139.719 206.449 138.745 206.467 137.769C206.456 136.793 206.568 135.82 206.8 134.872Z" fill="#263238"/>
<path d="M212.707 133.2C213.385 133.903 213.97 134.691 214.447 135.544C214.948 136.378 215.338 137.274 215.607 138.208C214.267 136.779 213.274 135.061 212.707 133.187V133.2Z" fill="#263238"/>
<path d="M216.967 128.738C217.902 129.007 218.799 129.396 219.633 129.897C220.487 130.373 221.276 130.957 221.98 131.635C221.044 131.366 220.148 130.976 219.313 130.476C218.459 130 217.671 129.416 216.967 128.738Z" fill="#263238"/>
<path d="M218.44 122.771C220.35 122.326 222.337 122.326 224.247 122.771C222.337 123.215 220.35 123.215 218.44 122.771Z" fill="#263238"/>
<path d="M216.733 116.87C217.439 116.196 218.228 115.614 219.08 115.138C219.913 114.633 220.81 114.241 221.747 113.973C220.316 115.311 218.596 116.303 216.72 116.87H216.733Z" fill="#263238"/>
<path d="M212.3 112.614C212.575 111.681 212.964 110.786 213.46 109.95C213.936 109.097 214.521 108.309 215.2 107.606C214.931 108.54 214.541 109.436 214.04 110.27C213.564 111.123 212.979 111.911 212.3 112.614Z" fill="#263238"/>
<path d="M383.913 287.745H180.36L151.453 127.386H355.013L383.913 287.745Z" fill="#0554F2"/>
<path d="M238.793 213.32H232.841V221H218.185V213.32H194.953V203.72L213.961 176.2H229.449L212.553 201.608H218.633V194.76H232.841V201.608H238.793V213.32ZM273.988 222.024C270.02 222.024 266.5 221.107 263.428 219.272C260.398 217.395 258.009 214.707 256.26 211.208C254.553 207.667 253.7 203.464 253.7 198.6C253.7 193.736 254.553 189.555 256.26 186.056C258.009 182.515 260.398 179.827 263.428 177.992C266.5 176.115 270.02 175.176 273.988 175.176C277.956 175.176 281.454 176.115 284.484 177.992C287.556 179.827 289.945 182.515 291.652 186.056C293.401 189.555 294.276 193.736 294.276 198.6C294.276 203.464 293.401 207.667 291.652 211.208C289.945 214.707 287.556 217.395 284.484 219.272C281.454 221.107 277.956 222.024 273.988 222.024ZM273.988 209.928C277.401 209.928 279.108 206.152 279.108 198.6C279.108 191.048 277.401 187.272 273.988 187.272C270.574 187.272 268.868 191.048 268.868 198.6C268.868 206.152 270.574 209.928 273.988 209.928ZM354.268 213.32H348.316V221H333.66V213.32H310.428V203.72L329.436 176.2H344.924L328.028 201.608H334.108V194.76H348.316V201.608H354.268V213.32Z" fill="white"/>
<path d="M370.473 216.318L370.333 215.651C370.767 215.558 371.193 215.458 371.62 215.344L371.787 216.011C371.333 216.124 370.913 216.224 370.473 216.318Z" fill="#263238"/>
<path d="M374.367 215.245L374.153 214.618C374.987 214.332 375.82 214.019 376.627 213.679L376.887 214.292C376.067 214.638 375.22 214.958 374.367 215.245ZM379.333 213.12L379.033 212.534C379.813 212.128 380.593 211.688 381.333 211.202L381.68 211.768C380.92 212.294 380.127 212.74 379.333 213.12ZM383.92 210.303L383.527 209.763C384.247 209.237 384.94 208.684 385.593 208.118L386.033 208.618C385.333 209.224 384.667 209.79 383.913 210.329L383.92 210.303ZM387.987 206.76L387.5 206.3C388.113 205.634 388.693 204.968 389.227 204.302L389.753 204.708C389.2 205.441 388.607 206.127 388 206.786L387.987 206.76ZM391.287 202.497L390.72 202.144C391.181 201.4 391.591 200.626 391.947 199.827L392.56 200.1C392.183 200.933 391.756 201.743 391.28 202.524L391.287 202.497ZM393.493 197.556L392.827 197.369C393.07 196.534 393.251 195.681 393.367 194.818L394.033 194.905C393.923 195.81 393.74 196.706 393.487 197.582L393.493 197.556ZM394.233 192.228H393.567V192.034C393.567 191.229 393.52 190.409 393.44 189.604L394.107 189.537C394.194 190.367 394.239 191.2 394.24 192.034L394.233 192.228ZM393.033 187.013C392.854 186.154 392.631 185.305 392.367 184.469L393.033 184.269C393.307 185.135 393.54 186.014 393.7 186.873L393.033 187.013ZM391.453 181.998C391.133 181.212 390.787 180.406 390.36 179.594L390.96 179.294C391.367 180.12 391.74 180.946 392.067 181.745L391.453 181.998ZM389.12 177.249C388.707 176.523 388.253 175.757 387.787 174.972L388.353 174.619C388.84 175.411 389.3 176.184 389.687 176.923L389.12 177.249ZM386.333 172.727C385.847 171.995 385.353 171.255 384.847 170.516L385.4 170.143C385.907 170.882 386.4 171.622 386.887 172.367L386.333 172.727ZM383.333 168.318C382.833 167.586 382.327 166.846 381.833 166.114L382.387 165.741C382.88 166.473 383.38 167.213 383.88 167.939L383.333 168.318ZM380.353 163.883C379.867 163.137 379.393 162.377 378.927 161.618L379.493 161.272C379.96 162.031 380.433 162.777 380.913 163.523L380.353 163.883ZM377.573 159.307C377.12 158.501 376.7 157.702 376.32 156.936L376.92 156.637C377.293 157.396 377.713 158.182 378.153 158.981L377.573 159.307ZM375.207 154.512C374.853 153.68 374.54 152.834 374.247 152.008L374.913 151.795C375.193 152.601 375.507 153.433 375.853 154.252L375.207 154.512ZM373.473 149.43C373.253 148.565 373.06 147.679 372.913 146.766L373.58 146.66C373.727 147.512 373.907 148.378 374.127 149.231L373.473 149.43ZM372.58 144.102C372.513 143.283 372.48 142.457 372.48 141.632V141.412H373.147V141.625C373.147 142.431 373.147 143.243 373.247 144.042L372.58 144.102ZM373.247 138.774L372.58 138.708C372.58 138.528 372.613 138.342 372.633 138.148C372.713 137.436 372.813 136.723 372.933 136.044L373.6 136.157C373.487 136.823 373.387 137.522 373.307 138.222C373.333 138.428 373.333 138.608 373.28 138.794L373.247 138.774ZM374.173 133.593L373.507 133.413C373.753 132.534 374.04 131.675 374.36 130.856L374.98 131.095C374.677 131.92 374.419 132.76 374.207 133.613L374.173 133.593ZM407.393 129.71C407.02 129.71 406.633 129.657 406.253 129.604C405.733 129.53 405.213 129.444 404.7 129.344L404.833 128.678C405.327 128.771 405.84 128.858 406.347 128.931C406.707 128.978 407.073 129.011 407.427 129.031L407.393 129.71ZM410.133 129.504L409.993 128.838C410.83 128.665 411.632 128.355 412.367 127.919L412.713 128.485C411.928 128.97 411.068 129.321 410.167 129.524L410.133 129.504ZM376.093 128.711L375.5 128.398C375.925 127.604 376.394 126.834 376.907 126.094L377.453 126.473C376.966 127.199 376.523 127.953 376.127 128.731L376.093 128.711ZM402.093 128.671C401.233 128.398 400.387 128.081 399.56 127.719L399.833 127.106C400.635 127.462 401.456 127.771 402.293 128.032L402.093 128.671ZM414.76 126.593L414.207 126.22C414.681 125.532 414.962 124.73 415.02 123.896L415.687 123.943C415.63 124.898 415.317 125.821 414.78 126.613L414.76 126.593ZM397.16 126.493C396.38 126.04 395.625 125.545 394.9 125.008L395.293 124.475C395.999 124.996 396.734 125.476 397.493 125.914L397.16 126.493ZM379.093 124.415L378.6 123.969C379.204 123.299 379.847 122.665 380.527 122.071L380.967 122.571C380.313 123.155 379.694 123.778 379.113 124.435L379.093 124.415ZM392.82 123.29C392.156 122.679 391.526 122.032 390.933 121.352L391.433 120.912C392.01 121.573 392.622 122.202 393.267 122.797L392.82 123.29ZM414.52 121.485C414.138 120.724 413.61 120.045 412.967 119.487L413.407 118.988C414.115 119.6 414.697 120.344 415.12 121.179L414.52 121.485ZM383.04 120.959L382.66 120.413C383.406 119.904 384.178 119.435 384.973 119.008L385.287 119.594C384.521 120.016 383.778 120.479 383.06 120.979L383.04 120.959ZM389.267 119.227C389.013 118.868 388.767 118.501 388.533 118.122L387.667 118.461L387.413 117.849L388.18 117.542C388.06 117.343 387.94 117.143 387.827 116.943L388.407 116.617C388.54 116.85 388.673 117.083 388.813 117.283C389.187 117.149 389.567 117.023 389.953 116.903L390.147 117.569C389.82 117.669 389.48 117.775 389.173 117.889C389.38 118.215 389.593 118.555 389.84 118.841L389.267 119.227ZM410.82 118.082C410.175 117.761 409.506 117.489 408.82 117.269L408.38 117.129L408.573 116.463L409.027 116.61C409.741 116.837 410.436 117.12 411.107 117.456L410.82 118.082ZM392.7 116.89L392.56 116.224C393.42 116.031 394.313 115.871 395.227 115.744L395.327 116.41C394.447 116.55 393.573 116.717 392.72 116.91L392.7 116.89ZM405.833 116.53C405 116.384 404.12 116.27 403.22 116.19L403.273 115.524C404.2 115.604 405.1 115.718 405.94 115.871L405.833 116.53ZM397.933 116.144L397.887 115.478C398.68 115.431 399.473 115.404 400.26 115.404H400.587V116.07H400.267C399.513 116.09 398.727 116.11 397.953 116.164L397.933 116.144ZM386.667 114.552C386.307 113.739 386 112.894 385.7 112.035L386.367 111.828C386.647 112.667 386.96 113.493 387.307 114.286L386.667 114.552ZM384.98 109.437C384.78 108.578 384.613 107.686 384.487 106.773L385.153 106.68C385.28 107.559 385.44 108.431 385.633 109.277L384.98 109.437ZM384.233 104.109C384.2 103.51 384.18 102.897 384.18 102.284C384.18 101.998 384.18 101.705 384.18 101.418H384.847C384.847 101.705 384.847 101.985 384.847 102.271C384.847 102.87 384.847 103.476 384.893 104.056L384.233 104.109ZM385.027 98.7811L384.36 98.7145C384.453 97.8354 384.58 96.9363 384.733 96.0505L385.4 96.1638C385.22 97.0495 385.093 97.902 385.007 98.7945L385.027 98.7811ZM385.94 93.5797L385.273 93.4198C385.487 92.5607 385.733 91.6949 386.007 90.8291L386.673 91.0356C386.373 91.908 386.127 92.7538 385.92 93.593L385.94 93.5797ZM387.54 88.5381L386.92 88.2983C387.247 87.4658 387.587 86.6333 387.993 85.8274L388.593 86.1205C388.193 86.9197 387.84 87.7322 387.52 88.578L387.54 88.5381ZM389.833 83.7895L389.253 83.4498C389.707 82.6839 390.193 81.918 390.7 81.1854L391.247 81.565C390.727 82.2976 390.253 83.0436 389.813 83.8028L389.833 83.7895ZM392.84 79.4538L392.32 79.0342C392.88 78.3682 393.48 77.6623 394.1 77.0362L394.58 77.4958C393.953 78.1218 393.367 78.7878 392.82 79.4671L392.84 79.4538ZM396.467 75.6177L396.02 75.1248C396.687 74.5321 397.353 73.946 398.067 73.3799L398.48 73.906C397.767 74.4721 397.087 75.0516 396.447 75.631L396.467 75.6177ZM400.607 72.3276L400.227 71.7748C400.953 71.2753 401.713 70.7825 402.487 70.3163L402.827 70.8824C402.053 71.3553 401.333 71.8414 400.587 72.3409L400.607 72.3276ZM405.133 69.577L404.82 68.991C405.607 68.5714 406.42 68.1718 407.233 67.7988L407.513 68.4049C406.667 68.7845 405.887 69.1841 405.113 69.5904L405.133 69.577ZM409.953 67.3659L409.707 66.7399C410.547 66.4135 411.393 66.0739 412.233 65.8275L412.447 66.4935C411.6 66.7465 410.76 67.0529 409.933 67.3792L409.953 67.3659Z" fill="#263238"/>
<path d="M415.093 65.6819L414.927 65.0152C415.753 64.8019 416.26 64.7086 416.26 64.7086L416.38 65.3752C416.38 65.3752 415.9 65.4752 415.093 65.6819Z" fill="#263238"/>
<path d="M426.88 61.3786C425.18 56.1172 413.793 58.0086 416.013 64.8884C418.233 71.7682 428.58 66.6466 426.88 61.3786Z" fill="#263238"/>
<path d="M409.82 59.274C409.907 56.963 413.12 55.1848 417.667 56.0039C422.213 56.8231 426.487 59.8867 426.487 59.8867C426.487 59.8867 422 62.604 417.407 63.1035C412.813 63.603 409.733 61.5784 409.82 59.274Z" fill="#EBEBEB"/>
<path d="M426.487 59.8739C424.127 59.8739 421.773 59.8073 419.42 59.7339C417.067 59.6606 414.707 59.5406 412.353 59.3539C414.713 59.3539 417.073 59.4139 419.427 59.4873C421.78 59.5606 424.14 59.6806 426.487 59.8739Z" fill="#263238"/>
<path d="M414.387 57.2161C415.726 57.8564 416.99 58.645 418.153 59.567C417.483 59.2527 416.833 58.8968 416.207 58.5014C415.575 58.1088 414.968 57.6796 414.387 57.2161Z" fill="#263238"/>
<path d="M420.567 59.6536C419.361 60.63 418.053 61.4741 416.667 62.1711C417.879 61.1935 419.193 60.3494 420.587 59.6536H420.567Z" fill="#263238"/>
<path d="M421.253 58.3549C421.926 58.6776 422.515 59.1518 422.973 59.7402C422.637 59.5816 422.321 59.3826 422.033 59.1475C421.744 58.9139 421.482 58.648 421.253 58.3549Z" fill="#263238"/>
<path d="M414.153 72.9603C415.573 74.7852 419.22 74.3456 422.427 71.0289C425.633 67.7122 427.333 62.7239 427.333 62.7239C427.333 62.7239 422.08 63.1235 418.073 65.3879C414.067 67.6523 412.727 71.1288 414.153 72.9603Z" fill="#EBEBEB"/>
<path d="M427.333 62.7239C425.413 64.0559 423.547 65.5344 421.673 66.9663C419.8 68.3982 417.967 69.8767 416.173 71.4019C418.093 70.0699 419.96 68.598 421.827 67.1661C423.693 65.7342 425.513 64.2557 427.333 62.7239Z" fill="#263238"/>
<path d="M419.053 71.928C419.41 71.2811 419.728 70.6139 420.007 69.93C420.29 69.2442 420.531 68.5413 420.727 67.8254C420.369 68.4718 420.051 69.139 419.773 69.8234C419.492 70.5103 419.252 71.213 419.053 71.928Z" fill="#263238"/>
<path d="M422.667 66.3603C421.107 66.2769 419.542 66.3596 418 66.6069C418.777 66.6536 419.556 66.6536 420.333 66.6069C421.115 66.5688 421.894 66.4865 422.667 66.3603Z" fill="#263238"/>
<path d="M423.953 67.0196C424.132 66.6907 424.27 66.342 424.367 65.9806C424.465 65.6219 424.524 65.2533 424.54 64.8817C424.186 65.541 423.985 66.2719 423.953 67.0196Z" fill="#263238"/>
<path d="M426.88 61.3786C426.504 61.5007 426.099 61.5085 425.718 61.4009C425.337 61.2933 424.997 61.0752 424.74 60.7742C424.483 60.4733 424.322 60.1029 424.276 59.7101C424.23 59.3174 424.302 58.9198 424.482 58.5678C424.662 58.2158 424.943 57.9251 425.289 57.7327C425.635 57.5403 426.03 57.4547 426.425 57.4868C426.819 57.519 427.195 57.6673 427.506 57.9132C427.816 58.159 428.046 58.4912 428.167 58.8677C428.328 59.3712 428.284 59.9181 428.043 60.3887C427.801 60.8593 427.383 61.2153 426.88 61.3786Z" fill="#455A64"/>
<path d="M428.107 65.1814C427.73 65.3031 427.327 65.3105 426.946 65.2029C426.565 65.0952 426.225 64.8772 425.969 64.5765C425.712 64.2758 425.551 63.9059 425.505 63.5135C425.458 63.1211 425.53 62.7238 425.71 62.3719C425.89 62.02 426.17 61.7293 426.515 61.5365C426.86 61.3437 427.255 61.2575 427.649 61.2887C428.043 61.32 428.42 61.4673 428.73 61.7121C429.041 61.9569 429.271 62.2881 429.393 62.6639C429.475 62.9136 429.506 63.1769 429.485 63.4385C429.464 63.7002 429.392 63.9552 429.272 64.189C429.153 64.4228 428.988 64.6308 428.788 64.8011C428.588 64.9714 428.357 65.1006 428.107 65.1814Z" fill="#455A64"/>
<path d="M209.54 63.4833C209.221 66.5423 208.057 69.4525 206.178 71.8891C204.299 74.3257 201.78 76.1928 198.9 77.2821C196.021 78.3714 192.896 78.6401 189.873 78.0581C186.849 77.4761 184.048 76.0663 181.78 73.9861L173.467 75.2049L177.627 68.0254C176.675 65.6893 176.269 63.1674 176.44 60.6512C176.61 58.1349 177.352 55.6906 178.61 53.5038C179.868 51.3169 181.607 49.4452 183.697 48.0307C185.788 46.6162 188.173 45.6962 190.672 45.3404C193.171 44.9847 195.719 45.2027 198.121 45.9778C200.524 46.7529 202.717 48.0648 204.536 49.8137C206.355 51.5627 207.751 53.7027 208.618 56.0713C209.485 58.4399 209.8 60.9748 209.54 63.4833Z" fill="white"/>
<path d="M209.54 63.4831C209.227 66.5406 208.074 69.4519 206.207 71.8947C205.295 73.1302 204.195 74.2155 202.947 75.1115C201.726 76.041 200.379 76.7922 198.947 77.3426C197.513 77.9065 196.007 78.2652 194.473 78.4082C193.706 78.4769 192.936 78.4925 192.167 78.4548C191.395 78.435 190.626 78.3548 189.867 78.215C186.803 77.6519 183.956 76.2474 181.647 74.1591L181.84 74.219L173.54 75.4911L172.933 75.5843L173.24 75.0515L177.373 67.8587V68.1451C176.398 65.7659 175.983 63.1945 176.161 60.6297C176.339 58.0648 177.105 55.5752 178.4 53.3533C179.693 51.1383 181.471 49.244 183.6 47.8121C185.726 46.3993 188.144 45.4856 190.674 45.1395C193.204 44.7935 195.779 45.0241 198.207 45.8141C200.609 46.6305 202.798 47.9731 204.613 49.7435C206.425 51.5096 207.81 53.6647 208.664 56.0453C209.518 58.426 209.817 60.9696 209.54 63.4831ZM209.54 63.4831C209.809 60.9819 209.5 58.4524 208.635 56.0897C207.771 53.727 206.374 51.5945 204.553 49.8567C202.733 48.1189 200.536 46.8223 198.134 46.0671C195.732 45.3119 193.189 45.1183 190.7 45.5011C188.236 45.8654 185.889 46.7906 183.84 48.2051C181.809 49.6307 180.112 51.4805 178.867 53.6263C177.641 55.7769 176.919 58.1767 176.753 60.646C176.591 63.1319 176.992 65.6224 177.927 67.932L177.987 68.0785L177.907 68.2184L173.72 75.3845L173.427 74.945L181.747 73.7795H181.86L181.94 73.8527C184.164 75.9207 186.92 77.3297 189.9 77.922C190.643 78.0731 191.396 78.1645 192.153 78.1951C192.91 78.2483 193.67 78.2483 194.427 78.1951C195.945 78.0729 197.438 77.7435 198.867 77.216C200.298 76.6954 201.646 75.9684 202.867 75.0582C204.109 74.1695 205.211 73.0985 206.133 71.8814C208.024 69.4504 209.203 66.5433 209.54 63.4831Z" fill="#263238"/>
<path d="M184.893 69.4971C184.881 69.2766 184.913 69.0558 184.989 68.8485C185.066 68.6412 185.184 68.4517 185.336 68.2918C185.489 68.1319 185.672 68.0051 185.876 67.9191C186.08 67.8332 186.299 67.7899 186.52 67.7921C186.973 67.7921 187.407 67.9718 187.727 68.2915C188.047 68.6113 188.227 69.0449 188.227 69.4971C188.227 69.9493 188.047 70.3829 187.727 70.7027C187.407 71.0224 186.973 71.2021 186.52 71.2021C186.299 71.2043 186.08 71.161 185.876 71.0751C185.672 70.9891 185.489 70.8623 185.336 70.7024C185.184 70.5425 185.066 70.353 184.989 70.1457C184.913 69.9384 184.881 69.7176 184.893 69.4971ZM185.56 65.561L185.173 52.3476H187.84L187.453 65.561H185.56Z" fill="#0554F2"/>
<path d="M191.233 69.4971C191.221 69.2772 191.253 69.057 191.329 68.8501C191.405 68.6432 191.522 68.454 191.674 68.2942C191.826 68.1345 192.009 68.0075 192.212 67.9211C192.414 67.8347 192.633 67.7908 192.853 67.7921C193.306 67.7921 193.74 67.9718 194.06 68.2915C194.38 68.6112 194.56 69.0449 194.56 69.4971C194.56 69.9493 194.38 70.3829 194.06 70.7027C193.74 71.0224 193.306 71.202 192.853 71.202C192.633 71.2033 192.414 71.1594 192.212 71.0731C192.009 70.9867 191.826 70.8597 191.674 70.6999C191.522 70.5402 191.405 70.351 191.329 70.1441C191.253 69.9372 191.221 69.717 191.233 69.4971ZM191.9 65.561L191.533 52.3476H194.2L193.813 65.561H191.9Z" fill="#0554F2"/>
<path d="M197.567 69.4971C197.554 69.2766 197.587 69.0558 197.663 68.8485C197.739 68.6412 197.857 68.4517 198.009 68.2918C198.162 68.1319 198.346 68.0051 198.549 67.9191C198.753 67.8332 198.972 67.7899 199.193 67.7921C199.646 67.7921 200.08 67.9718 200.4 68.2915C200.72 68.6113 200.9 69.0449 200.9 69.4971C200.9 69.9493 200.72 70.3829 200.4 70.7027C200.08 71.0224 199.646 71.2021 199.193 71.2021C198.972 71.2043 198.753 71.161 198.549 71.0751C198.346 70.9891 198.162 70.8623 198.009 70.7024C197.857 70.5425 197.739 70.353 197.663 70.1457C197.587 69.9384 197.554 69.7176 197.567 69.4971ZM198.233 65.561L197.847 52.3476H200.513L200.133 65.561H198.233Z" fill="#0554F2"/>
</svg>
