<svg width="40" height="40" viewBox="0 0 40 40" fill="none" xmlns="http://www.w3.org/2000/svg">
<path d="M39.0705 29.5021C39.2814 29.5807 39.5157 29.5493 39.7032 29.4156C39.8906 29.282 40 29.0777 40 28.8498V25.3602C40 25.1244 39.8828 24.9044 39.6798 24.7786L22.7534 13.8856V2.78031C22.7534 1.99438 22.4253 1.24774 21.8473 0.721163C21.2693 0.194587 20.496 -0.064772 19.7227 0.0138215C18.2855 0.194586 17.2076 1.43636 17.231 2.89034V13.8699L0.32025 24.7786C0.124976 24.9044 0 25.1244 0 25.3602V28.8498C0 29.0777 0.109353 29.2899 0.296816 29.4156C0.484279 29.5493 0.718609 29.5807 0.929506 29.5021L17.2466 23.5919V32.9759C17.2466 33.1803 17.1529 33.3768 16.9967 33.5104L13.3568 36.5598C13.2005 36.6934 13.1068 36.8899 13.1068 37.0942V39.3027C13.1068 39.5228 13.2084 39.7271 13.388 39.8607C13.5599 39.9943 13.7864 40.0336 13.9973 39.9707L19.8086 38.2181C19.9414 38.1788 20.0742 38.1788 20.207 38.2181L26.0184 39.9707C26.2293 40.0336 26.4558 39.9943 26.6276 39.8607C26.7995 39.7271 26.9088 39.5228 26.9088 39.3027V37.1021C26.9088 36.8977 26.8151 36.7013 26.6589 36.5677L23.0189 33.5182C22.8627 33.3846 22.769 33.1881 22.769 32.9838V23.5919L39.0705 29.5021Z" fill="#A489BF"/>
</svg>
