<svg width="20" height="20" viewBox="0 0 20 20" fill="none" xmlns="http://www.w3.org/2000/svg">
<path d="M10 12.5V12.5083M10 7.5V9.16667V7.5Z" stroke="#DB1802" stroke-width="1.5" stroke-linecap="round" stroke-linejoin="round"/>
<path d="M4.16666 15.8334H15.8333C16.1053 15.8315 16.3726 15.7631 16.612 15.6342C16.8514 15.5052 17.0556 15.3196 17.2068 15.0936C17.3581 14.8676 17.4517 14.608 17.4795 14.3375C17.5074 14.067 17.4686 13.7938 17.3667 13.5418L11.45 3.33343C11.3059 3.07293 11.0946 2.85579 10.8381 2.70458C10.5817 2.55338 10.2894 2.47363 9.99166 2.47363C9.69395 2.47363 9.40166 2.55338 9.1452 2.70458C8.88874 2.85579 8.67746 3.07293 8.53333 3.33343L2.61666 13.5418C2.51661 13.7881 2.47694 14.0547 2.50095 14.3195C2.52497 14.5843 2.61197 14.8395 2.75471 15.0638C2.89744 15.2881 3.09175 15.475 3.32143 15.6088C3.55111 15.7427 3.80949 15.8197 4.075 15.8334" stroke="#DB1802" stroke-width="1.5" stroke-linecap="round" stroke-linejoin="round"/>
</svg>
