<svg width="32" height="32" viewBox="0 0 32 32" fill="none" xmlns="http://www.w3.org/2000/svg">
<rect width="32" height="32" rx="4" fill="#F6F7F7"/>
<path d="M15.4609 6.93274L4.771 24.3305L8.00478 27.5643L12.6549 24.7046L13.1359 25.1856C13.7773 25.827 14.6058 26.1477 15.4342 26.1477C16.0221 26.1477 16.6101 25.9874 17.1446 25.6667C17.9998 25.1323 18.561 24.277 18.668 23.2616C18.7481 22.5668 18.5878 21.8719 18.2672 21.2573L25.4294 16.8478L15.4609 6.93274ZM15.7548 9.36473L22.9705 16.5804L21.8214 17.302L15.0334 10.5139L15.7548 9.36473ZM6.69518 24.09L14.2315 11.8234L20.4851 18.077L8.21849 25.6401L6.69518 24.09ZM17.1445 23.0744C17.091 23.6089 16.7704 24.0632 16.3161 24.3572C15.6213 24.7848 14.7394 24.6778 14.1781 24.1167L13.9643 23.9029L16.9307 22.0588C17.1179 22.3796 17.198 22.7271 17.1445 23.0744V23.0744Z" fill="#CFD0D0"/>
<path d="M22.1934 9.11798L25.9349 5.37643L27.012 6.45353L23.2705 10.1951L22.1934 9.11798Z" fill="#CFD0D0"/>
<path d="M23.2646 11.3423H27.3801V12.8657H23.2646V11.3423Z" fill="#CFD0D0"/>
<path d="M19.5229 5.00858H21.0464V9.12408H19.5229V5.00858Z" fill="#CFD0D0"/>
</svg>
