<svg width="20" height="20" viewBox="0 0 20 20" fill="none" xmlns="http://www.w3.org/2000/svg">
<path d="M9.99984 1.66667C5.39984 1.66667 1.6665 5.40001 1.6665 10C1.6665 14.6 5.39984 18.3333 9.99984 18.3333C14.5998 18.3333 18.3332 14.6 18.3332 10C18.3332 5.40001 14.5998 1.66667 9.99984 1.66667ZM12.9415 10.8583L10.4415 13.3583C10.3165 13.4833 10.1582 13.5417 9.99984 13.5417C9.8415 13.5417 9.68317 13.4833 9.55817 13.3583L7.05817 10.8583C6.8165 10.6167 6.8165 10.2167 7.05817 9.97501C7.29984 9.73334 7.69984 9.73334 7.9415 9.97501L9.37484 11.4083V7.08334C9.37484 6.74167 9.65817 6.45834 9.99984 6.45834C10.3415 6.45834 10.6248 6.74167 10.6248 7.08334V11.4083L12.0582 9.97501C12.2998 9.73334 12.6998 9.73334 12.9415 9.97501C13.1832 10.2167 13.1832 10.6167 12.9415 10.8583Z" fill="white"/>
</svg>
