<svg width="32" height="32" viewBox="0 0 32 32" fill="none" xmlns="http://www.w3.org/2000/svg">
<circle cx="16" cy="16" r="16" fill="#CFD0D0"/>
<mask id="mask0_2012_28283" style="mask-type:alpha" maskUnits="userSpaceOnUse" x="0" y="0" width="32" height="32">
<circle cx="16" cy="16" r="16" fill="#E1E2E2"/>
</mask>
<g mask="url(#mask0_2012_28283)">
<path d="M5.5 10L39.5 24.5L8 37.5L5.5 10Z" fill="#E1E2E2"/>
</g>
<path d="M16 16C17.8409 16 19.3333 14.5076 19.3333 12.6667C19.3333 10.8257 17.8409 9.33334 16 9.33334C14.159 9.33334 12.6666 10.8257 12.6666 12.6667C12.6666 14.5076 14.159 16 16 16Z" stroke="white" stroke-width="1.5" stroke-linecap="round" stroke-linejoin="round"/>
<path d="M21.7266 22.6667C21.7266 20.0867 19.16 18 16 18C12.84 18 10.2733 20.0867 10.2733 22.6667" stroke="white" stroke-width="1.5" stroke-linecap="round" stroke-linejoin="round"/>
</svg>
