<svg width="32" height="32" viewBox="0 0 32 32" fill="none" xmlns="http://www.w3.org/2000/svg">
<circle cx="16" cy="16" r="16" fill="white"/>
<path opacity="0.2" d="M22.6666 23.5V21.8333C22.6666 20.9493 22.3154 20.1014 21.6903 19.4763C21.0652 18.8512 20.2173 18.5 19.3333 18.5H12.6666C11.7825 18.5 10.9347 18.8512 10.3096 19.4763C9.68444 20.1014 9.33325 20.9493 9.33325 21.8333V23.5" stroke="black" stroke-width="1.5" stroke-linecap="round" stroke-linejoin="round"/>
<path opacity="0.2" d="M16.0001 15.1667C17.841 15.1667 19.3334 13.6743 19.3334 11.8333C19.3334 9.99238 17.841 8.5 16.0001 8.5C14.1591 8.5 12.6667 9.99238 12.6667 11.8333C12.6667 13.6743 14.1591 15.1667 16.0001 15.1667Z" stroke="black" stroke-width="1.5" stroke-linecap="round" stroke-linejoin="round"/>
</svg>
