<svg width="40" height="40" viewBox="0 0 40 40" fill="none" xmlns="http://www.w3.org/2000/svg">
<rect width="40" height="40" rx="20" fill="#DDF3F4"/>
<path d="M25.74 30.75H14.26C11.77 30.75 9.75 28.73 9.75 26.24V19.51C9.75 17.02 11.77 15 14.26 15H25.74C28.23 15 30.25 17.02 30.25 19.51V20.95C30.25 21.36 29.91 21.7 29.5 21.7H27.48C27.13 21.7 26.81 21.83 26.58 22.07L26.57 22.08C26.29 22.35 26.16 22.72 26.19 23.1C26.25 23.76 26.88 24.29 27.6 24.29H29.5C29.91 24.29 30.25 24.63 30.25 25.04V26.23C30.25 28.73 28.23 30.75 25.74 30.75ZM14.26 16.5C12.6 16.5 11.25 17.85 11.25 19.51V26.24C11.25 27.9 12.6 29.25 14.26 29.25H25.74C27.4 29.25 28.75 27.9 28.75 26.24V25.8H27.6C26.09 25.8 24.81 24.68 24.69 23.24C24.61 22.42 24.91 21.61 25.51 21.02C26.03 20.49 26.73 20.2 27.48 20.2H28.75V19.51C28.75 17.85 27.4 16.5 25.74 16.5H14.26Z" fill="#02BABA"/>
<path d="M10.5 21.16C10.09 21.16 9.75 20.82 9.75 20.41V15.8401C9.75 14.3501 10.69 13 12.08 12.47L20.02 9.47002C20.84 9.16002 21.75 9.27007 22.46 9.77007C23.18 10.2701 23.6 11.0801 23.6 11.9501V15.75C23.6 16.16 23.26 16.5 22.85 16.5C22.44 16.5 22.1 16.16 22.1 15.75V11.9501C22.1 11.5701 21.92 11.22 21.6 11C21.28 10.78 20.9 10.73 20.54 10.87L12.6 13.87C11.79 14.18 11.24 14.9701 11.24 15.8401V20.41C11.25 20.83 10.91 21.16 10.5 21.16Z" fill="#02BABA"/>
<path d="M27.6 25.7999C26.09 25.7999 24.81 24.6799 24.69 23.2399C24.61 22.4099 24.91 21.5999 25.51 21.0099C26.02 20.4899 26.72 20.1999 27.47 20.1999H29.55C30.54 20.2299 31.3 21.0099 31.3 21.9699V24.0299C31.3 24.9899 30.54 25.7699 29.58 25.7999H27.6ZM29.53 21.6999H27.48C27.13 21.6999 26.81 21.8299 26.58 22.0699C26.29 22.3499 26.15 22.7299 26.19 23.1099C26.25 23.7699 26.88 24.2999 27.6 24.2999H29.56C29.69 24.2999 29.81 24.1799 29.81 24.0299V21.9699C29.81 21.8199 29.69 21.7099 29.53 21.6999Z" fill="#02BABA"/>
<path d="M22 20.75H15C14.59 20.75 14.25 20.41 14.25 20C14.25 19.59 14.59 19.25 15 19.25H22C22.41 19.25 22.75 19.59 22.75 20C22.75 20.41 22.41 20.75 22 20.75Z" fill="#02BABA"/>
</svg>
