<svg width="24" height="24" viewBox="0 0 24 24" fill="none" xmlns="http://www.w3.org/2000/svg">
<path d="M3.76876 4.55841H0.489726C0.219233 4.55841 0 4.7777 0 5.04814V18.9518C0 19.2223 0.219233 19.4416 0.489726 19.4416H3.76876C4.03926 19.4416 4.25849 19.2223 4.25849 18.9518V5.04814C4.25849 4.77764 4.0392 4.55841 3.76876 4.55841Z" fill="#111212"/>
<path d="M18.0426 4.55841H14.7636C14.4931 4.55841 14.2738 4.7777 14.2738 5.04814V18.9518C14.2738 19.2223 14.4931 19.4416 14.7636 19.4416H18.0426C18.3131 19.4416 18.5323 19.2223 18.5323 18.9518V5.04814C18.5323 4.77764 18.313 4.55841 18.0426 4.55841Z" fill="#111212"/>
<path d="M7.00207 4.55841H5.85228C5.58178 4.55841 5.36255 4.7777 5.36255 5.04814V18.9518C5.36255 19.2223 5.58183 19.4416 5.85228 19.4416H7.00207C7.27256 19.4416 7.49179 19.2223 7.49179 18.9518V5.04814C7.49179 4.77764 7.27251 4.55841 7.00207 4.55841Z" fill="#111212"/>
<path d="M12.6669 4.55841H11.5171C11.2466 4.55841 11.0274 4.7777 11.0274 5.04814V18.9518C11.0274 19.2223 11.2467 19.4416 11.5171 19.4416H12.6669C12.9374 19.4416 13.1566 19.2223 13.1566 18.9518V5.04814C13.1566 4.77764 12.9373 4.55841 12.6669 4.55841Z" fill="#111212"/>
<path d="M23.5103 4.55841H22.3605C22.09 4.55841 21.8708 4.7777 21.8708 5.04814V18.9518C21.8708 19.2223 22.09 19.4416 22.3605 19.4416H23.5103C23.7808 19.4416 24 19.2223 24 18.9518V5.04814C24 4.77764 23.7807 4.55841 23.5103 4.55841Z" fill="#111212"/>
<path d="M9.40732 4.55841H9.32215C9.05166 4.55841 8.83243 4.7777 8.83243 5.04814V18.9518C8.83243 19.2223 9.05171 19.4416 9.32215 19.4416H9.40732C9.67782 19.4416 9.89705 19.2223 9.89705 18.9518V5.04814C9.89705 4.77764 9.67776 4.55841 9.40732 4.55841Z" fill="#111212"/>
<path d="M20.4479 4.55841H20.3627C20.0922 4.55841 19.873 4.7777 19.873 5.04814V18.9518C19.873 19.2223 20.0922 19.4416 20.3627 19.4416H20.4479C20.7183 19.4416 20.9376 19.2223 20.9376 18.9518V5.04814C20.9376 4.77764 20.7183 4.55841 20.4479 4.55841Z" fill="#111212"/>
</svg>
