<svg width="20" height="20" viewBox="0 0 20 20" fill="none" xmlns="http://www.w3.org/2000/svg">
<path d="M16.781 11.4798L14.6635 11.4798" stroke="#CFD0D0" stroke-width="2" stroke-linecap="round" stroke-linejoin="round"/>
<path d="M4.9599 11.4798L3.1889 11.4798" stroke="#CFD0D0" stroke-width="2" stroke-linecap="round" stroke-linejoin="round"/>
<path d="M7.96596 11.4798L12.1843 11.4798" stroke="#CFD0D0" stroke-width="2" stroke-linecap="round" stroke-linejoin="round"/>
<path fill-rule="evenodd" clip-rule="evenodd" d="M2.99999 15.3617C2.99999 16.8194 4.27526 18 5.84974 18L8.11819 18C8.11819 17.0355 8.95725 16.2587 9.99909 16.2587C11.0409 16.2587 11.8809 17.0355 11.8809 18L14.1502 17.9992C15.7247 17.9992 17 16.8177 17 15.3609L17 4.63913C17 3.18231 15.7247 2.00083 14.1502 2.00083L11.807 2C11.807 2.96454 11.0409 3.74134 9.99909 3.74134C8.95725 3.74134 8.11819 2.96454 8.11819 2L5.84974 2C4.27526 2 2.99999 3.18064 2.99999 4.6383L2.99999 15.3617Z" stroke="#CFD0D0" stroke-width="2" stroke-linecap="round" stroke-linejoin="round"/>
</svg>
