<svg width="40" height="40" viewBox="0 0 40 40" fill="none" xmlns="http://www.w3.org/2000/svg">
<path d="M26 38H8C6.4087 38 4.88258 37.3679 3.75736 36.2426C2.63214 35.1174 2 33.5913 2 32V30H22M26 38C24.9391 38 23.9217 37.5786 23.1716 36.8284C22.4214 36.0783 22 35.0609 22 34V30M26 38C27.0609 38 28.0783 37.5786 28.8284 36.8284C29.5786 36.0783 30 35.0609 30 34M22 30H6V8C6 6.4087 6.63214 4.88258 7.75736 3.75736C8.88258 2.63214 10.4087 2 12 2L21 2H30M30 34V6C30 5.20888 30.2346 4.43552 30.6741 3.77772C31.1136 3.11992 31.7384 2.60723 32.4693 2.30448C33.2002 2.00173 34.0044 1.92252 34.7804 2.07686C35.5563 2.2312 36.269 2.61216 36.8284 3.17157C37.3878 3.73098 37.7688 4.44372 37.9231 5.21964C38.0775 5.99556 37.9983 6.79983 37.6955 7.53074C37.3928 8.26164 36.8801 8.88635 36.2223 9.32588C35.5645 9.76541 34.7911 10 34 10H30M30 34V2M34 2L30 2" stroke="#DFE3E8" stroke-width="4" stroke-linecap="round" stroke-linejoin="round"/>
<path d="M14 10H22" stroke="#DFE3E8" stroke-width="4" stroke-linecap="round" stroke-linejoin="round"/>
<path d="M14 18H22" stroke="#DFE3E8" stroke-width="4" stroke-linecap="round" stroke-linejoin="round"/>
</svg>
