<svg width="20" height="20" viewBox="0 0 20 20" fill="none" xmlns="http://www.w3.org/2000/svg">
<g id="Bold/Bill">
<g id="Ticket">
<path id="Ticket_2" fill-rule="evenodd" clip-rule="evenodd" d="M11.461 18.8085C11.3294 18.6867 11.2543 18.5213 11.2543 18.3472C11.2543 17.7031 10.6905 17.1809 10.0047 17.1809C9.31415 17.1809 8.75326 17.697 8.74574 18.335C8.74198 18.6945 8.4714 19 8.08338 19L5.67352 19C3.6451 19 2 17.4768 2 15.5967L2 12.7592C2 12.4659 2.25649 12.2282 2.57311 12.2282L4.60247 12.2282C4.99706 12.2282 5.3071 11.941 5.3071 11.5754C5.3071 11.2186 4.99706 10.9226 4.60247 10.9226L2.57311 10.9226C2.25649 10.9226 2 10.685 2 10.3926L2 4.40329C2 2.53191 3.64416 0.999999 5.67352 0.999999L8.08338 1C8.4714 1 8.74198 1.30551 8.74574 1.66499C8.75326 2.30387 9.31415 2.81915 10.0047 2.81915C10.6718 2.81915 11.1791 2.31431 11.1791 1.6528C11.1791 1.47872 11.2543 1.31335 11.3858 1.19149C11.5173 1.06963 11.6958 1 11.8837 1L14.3171 1C16.3427 1 18 2.5354 18 4.41199L18 10.3926C18 10.685 17.7435 10.9226 17.4269 10.9226L15.0217 10.9226C14.6365 10.9226 14.3171 11.2186 14.3171 11.5754C14.3171 11.941 14.6365 12.2282 15.0217 12.2282L17.4269 12.2282C17.7435 12.2282 18 12.4659 18 12.7592L18 15.5967C18 17.4768 16.3558 19 14.3265 19L11.9589 19C11.771 19 11.5925 18.9304 11.461 18.8085ZM7.12977 11.5754C7.12977 11.941 7.4492 12.2282 7.8344 12.2282L11.5925 12.2282C11.9777 12.2282 12.2971 11.941 12.2971 11.5754C12.2971 11.2186 11.9777 10.9226 11.5925 10.9226L7.8344 10.9226C7.4492 10.9226 7.12977 11.2186 7.12977 11.5754Z" fill="#111212"/>
</g>
</g>
</svg>
