<svg width="40" height="40" viewBox="0 0 40 40" fill="none" xmlns="http://www.w3.org/2000/svg">
<path d="M38.3333 29.85C38.3666 31.1 38.0333 32.2833 37.4333 33.3C37.0999 33.9 36.65 34.45 36.15 34.9C35 35.9667 33.4833 36.6167 31.7999 36.6667C29.3666 36.7167 27.2166 35.4667 26.0333 33.55C25.4 32.5667 25.0166 31.3834 25 30.1334C24.95 28.0334 25.8833 26.1333 27.3833 24.8833C28.5166 23.95 29.95 23.3667 31.5166 23.3333C35.2 23.25 38.25 26.1666 38.3333 29.85Z" stroke="#48BE78" stroke-width="1.5" stroke-miterlimit="10" stroke-linecap="round" stroke-linejoin="round"/>
<path d="M29.0667 30.0501L30.75 31.65L34.2333 28.2833" stroke="#48BE78" stroke-width="1.5" stroke-linecap="round" stroke-linejoin="round"/>
<path d="M5.28333 12.4L20 20.9167L34.6166 12.45" stroke="#48BE78" stroke-width="1.5" stroke-linecap="round" stroke-linejoin="round"/>
<path d="M19.9999 36.0167V20.9" stroke="#48BE78" stroke-width="1.5" stroke-linecap="round" stroke-linejoin="round"/>
<path d="M36.0166 15.2833V24.7167C36.0166 24.8001 36.0167 24.8667 36 24.95C34.8333 23.9333 33.3333 23.3334 31.6666 23.3334C30.1 23.3334 28.65 23.8834 27.5 24.8C25.9666 26.0167 25 27.9 25 30C25 31.25 25.35 32.4334 25.9666 33.4334C26.1166 33.7 26.3 33.9501 26.5 34.1834L23.45 35.8667C21.55 36.9334 18.45 36.9334 16.55 35.8667L7.64997 30.9334C5.63331 29.8167 3.98334 27.0167 3.98334 24.7167V15.2833C3.98334 12.9833 5.63331 10.1834 7.64997 9.06671L16.55 4.13334C18.45 3.06668 21.55 3.06668 23.45 4.13334L32.35 9.06671C34.3667 10.1834 36.0166 12.9833 36.0166 15.2833Z" stroke="#48BE78" stroke-width="1.5" stroke-linecap="round" stroke-linejoin="round"/>
</svg>
