<svg width="64" height="64" viewBox="0 0 64 64" fill="none" xmlns="http://www.w3.org/2000/svg">
<circle cx="32" cy="32" r="32" fill="#0554F2"/>
<path d="M34.7453 44.212C34.7453 42.8562 33.5164 41.7573 32.0001 41.7573C30.4839 41.7573 29.255 42.8562 29.255 44.212C29.255 45.5678 30.4839 46.6666 32.0001 46.6666C33.5164 46.6666 34.7453 45.5678 34.7453 44.212ZM34.7453 35.6206V33.9043C34.7453 33.7653 34.8343 33.6334 34.9528 33.5979C38.8624 32.4329 41.4832 29.0438 41.3266 25.3566C41.1427 21.0254 37.2046 17.504 32.361 17.3396C29.7992 17.2523 27.3714 18.0789 25.5276 19.6662C23.6827 21.2546 22.6666 23.39 22.6666 25.6792C22.6666 27.035 23.8955 28.1339 25.4118 28.1339C26.928 28.1339 28.1569 27.035 28.1569 25.6792C28.1569 24.7367 28.5757 23.8569 29.3354 23.203C30.0941 22.5495 31.0951 22.2091 32.1524 22.2451C34.1448 22.3127 35.7645 23.7615 35.8406 25.5431C35.905 27.0638 34.8262 28.4609 33.2167 28.9408C30.8474 29.647 29.255 31.6414 29.255 33.9043V35.6206C29.255 36.9765 30.4839 38.0753 32.0001 38.0753C33.5164 38.0753 34.7453 36.9765 34.7453 35.6206Z" fill="white" stroke="white" stroke-width="0.5"/>
</svg>
