<svg width="26" height="24" viewBox="0 0 26 24" fill="none" xmlns="http://www.w3.org/2000/svg">
<path d="M23.4821 4.62251L7.01689 0.160133C6.14746 -0.0769294 5.22085 0.0458772 4.44116 0.50144C3.66147 0.957008 3.09311 1.708 2.86127 2.58838L0.159374 12.7278V12.7275C-0.0485767 13.5185 0.0291022 14.3586 0.378904 15.0964C0.728706 15.8344 1.32719 16.4218 2.06687 16.7526L3.30443 21.4118C3.53482 22.2932 4.1032 23.0449 4.88308 23.5007C5.66326 23.9565 6.59055 24.0786 7.46004 23.84L17.7273 21.051L19.008 21.3955H19.0077C19.8769 21.6296 20.8024 21.5053 21.5813 21.0503C22.3603 20.5952 22.9291 19.8461 23.1634 18.9675L25.8653 8.82813C26.0985 7.9507 25.9786 7.01538 25.5321 6.22732C25.0853 5.43901 24.3483 4.86207 23.4823 4.62257L23.4821 4.62251ZM5.25494 1.92107C5.66216 1.68206 6.14703 1.61907 6.60058 1.74602L23.0658 6.2084C23.5162 6.33413 23.9 6.63369 24.1345 7.0429C24.369 7.4521 24.4353 7.9379 24.3195 8.3959L23.963 9.72477L4.07702 4.34365L4.42826 3.01477C4.54912 2.55335 4.84657 2.15977 5.25501 1.92102L5.25494 1.92107ZM7.05437 22.2536H7.05462C6.60108 22.3813 6.11571 22.318 5.70898 22.0785C5.30345 21.8378 5.00815 21.4447 4.88754 20.9848L3.90954 17.2934L14.6523 20.2028L7.05437 22.2536ZM21.6446 18.5402H21.6449C21.5218 18.997 21.2261 19.3864 20.8215 19.6237C20.4167 19.8612 19.9359 19.9279 19.4834 19.809L2.99652 15.3466C2.54612 15.2209 2.16229 14.9213 1.9278 14.5121C1.69331 14.1032 1.62697 13.6171 1.74277 13.1591L3.65584 5.94037L23.5474 11.3324L21.6446 18.5402Z" fill="#CFD0D0"/>
<path d="M23.4821 4.62251L7.01689 0.160133C6.14746 -0.0769294 5.22085 0.0458772 4.44116 0.50144C3.66147 0.957008 3.09311 1.708 2.86127 2.58838L0.159374 12.7278C-0.0485768 13.5188 0.0291022 14.3586 0.378904 15.0964C0.728706 15.8344 1.32719 16.4218 2.06687 16.7526L3.30443 21.4118C3.53482 22.2932 4.1032 23.0449 4.88308 23.5007C5.66326 23.9565 6.59055 24.0786 7.46004 23.84L17.7273 21.051L19.008 21.3955C19.8772 21.6296 20.8024 21.5053 21.5813 21.0503C22.3603 20.5952 22.9291 19.8461 23.1634 18.9675L25.8653 8.82813C26.0985 7.9507 25.9786 7.01538 25.5321 6.22732C25.0853 5.43901 24.3481 4.86201 23.4821 4.62251ZM7.05437 22.2536C6.60084 22.3813 6.11571 22.318 5.70898 22.0785C5.30345 21.8378 5.00815 21.4447 4.88754 20.9848L3.90954 17.2934L14.6523 20.2028L7.05437 22.2536Z" fill="#CFD0D0"/>
<path d="M23.963 9.72478L4.07706 4.34366L3.65588 5.94038L23.5474 11.3324L23.963 9.72478Z" fill="white"/>
<path d="M7.87527 13.2962L4.54665 12.3939C4.11387 12.2777 3.67 12.5384 3.55513 12.9761C3.44006 13.4141 3.69771 13.8636 4.13049 13.9798L7.4538 14.8822C7.88659 14.9999 8.33169 14.7404 8.44822 14.3024C8.5645 13.8646 8.30806 13.4139 7.87528 13.2962L7.87527 13.2962Z" fill="white"/>
<path d="M16.0786 15.1444C15.7619 15.0587 15.4256 15.1742 15.2258 15.4371C15.0263 15.7 15.0029 16.0589 15.1665 16.3463C15.33 16.6336 15.6485 16.7931 15.9734 16.7501C16.2984 16.7074 16.5659 16.4708 16.6513 16.1507C16.7075 15.9403 16.6786 15.7162 16.5712 15.5272C16.4636 15.3385 16.2866 15.2008 16.0786 15.1444L16.0786 15.1444Z" fill="white"/>
<path d="M19.4722 16.0688C19.1548 15.9865 18.8197 16.1056 18.6231 16.3708C18.4265 16.6359 18.4067 16.9948 18.5731 17.2802C18.7396 17.5658 19.0597 17.7218 19.3839 17.6757C19.7084 17.6296 19.9735 17.3903 20.0558 17.0695C20.1098 16.8583 20.0787 16.6342 19.9692 16.4465C19.8597 16.2587 19.6809 16.1227 19.4722 16.0688L19.4722 16.0688Z" fill="white"/>
</svg>
