<svg width="26" height="24" viewBox="0 0 26 24" fill="none" xmlns="http://www.w3.org/2000/svg">
<path d="M23.4821 4.62251L7.01692 0.160133C6.14749 -0.0769294 5.22088 0.0458772 4.44119 0.50144C3.6615 0.957008 3.09314 1.708 2.8613 2.58838L0.159404 12.7278V12.7275C-0.0485462 13.5185 0.0291327 14.3586 0.378935 15.0964C0.728736 15.8344 1.32722 16.4218 2.0669 16.7526L3.30446 21.4118C3.53485 22.2932 4.10323 23.0449 4.88311 23.5007C5.66329 23.9565 6.59058 24.0786 7.46007 23.84L17.7273 21.051L19.008 21.3955H19.0078C19.877 21.6296 20.8024 21.5053 21.5813 21.0503C22.3603 20.5952 22.9291 19.8461 23.1634 18.9675L25.8653 8.82813C26.0986 7.9507 25.9787 7.01538 25.5321 6.22732C25.0854 5.43901 24.3484 4.86207 23.4823 4.62257L23.4821 4.62251ZM5.25497 1.92107C5.66219 1.68206 6.14706 1.61907 6.60061 1.74602L23.0658 6.2084C23.5162 6.33413 23.9001 6.63369 24.1345 7.0429C24.369 7.4521 24.4354 7.9379 24.3196 8.3959L23.963 9.72477L4.07705 4.34365L4.42829 3.01477C4.54915 2.55335 4.8466 2.15977 5.25504 1.92102L5.25497 1.92107ZM7.05441 22.2536H7.05465C6.60111 22.3813 6.11574 22.318 5.70901 22.0785C5.30348 21.8378 5.00818 21.4447 4.88757 20.9848L3.90957 17.2934L14.6523 20.2028L7.05441 22.2536ZM21.6447 18.5402H21.6449C21.5219 18.997 21.2261 19.3864 20.8215 19.6237C20.4167 19.8612 19.9359 19.9279 19.4834 19.809L2.99655 15.3466C2.54615 15.2209 2.16232 14.9213 1.92783 14.5121C1.69334 14.1032 1.627 13.6171 1.7428 13.1591L3.65587 5.94037L23.5474 11.3324L21.6447 18.5402Z" fill="#00B7B0"/>
<path d="M23.4821 4.62251L7.01692 0.160133C6.14749 -0.0769294 5.22088 0.0458772 4.44119 0.50144C3.6615 0.957008 3.09314 1.708 2.8613 2.58838L0.159404 12.7278C-0.0485462 13.5188 0.0291327 14.3586 0.378935 15.0964C0.728736 15.8344 1.32722 16.4218 2.0669 16.7526L3.30446 21.4118C3.53485 22.2932 4.10323 23.0449 4.88311 23.5007C5.66329 23.9565 6.59058 24.0786 7.46007 23.84L17.7273 21.051L19.008 21.3955C19.8772 21.6296 20.8024 21.5053 21.5813 21.0503C22.3603 20.5952 22.9291 19.8461 23.1634 18.9675L25.8653 8.82813C26.0986 7.9507 25.9787 7.01538 25.5321 6.22732C25.0854 5.43901 24.3482 4.86201 23.4821 4.62251ZM7.0544 22.2536C6.60087 22.3813 6.11574 22.318 5.70901 22.0785C5.30348 21.8378 5.00818 21.4447 4.88757 20.9848L3.90957 17.2934L14.6523 20.2028L7.0544 22.2536Z" fill="#00B7B0"/>
<path d="M23.963 9.72478L4.07706 4.34366L3.65588 5.94038L23.5474 11.3324L23.963 9.72478Z" fill="white"/>
<path d="M7.87536 13.2962L4.54674 12.3939C4.11396 12.2777 3.67009 12.5384 3.55522 12.9761C3.44015 13.4141 3.6978 13.8636 4.13058 13.9798L7.45389 14.8822C7.88668 14.9999 8.33178 14.7404 8.44831 14.3024C8.56459 13.8646 8.30816 13.4139 7.87537 13.2962L7.87536 13.2962Z" fill="white"/>
<path d="M16.0786 15.1444C15.7619 15.0587 15.4256 15.1742 15.2258 15.4371C15.0263 15.7 15.0029 16.0589 15.1665 16.3463C15.33 16.6336 15.6485 16.7931 15.9734 16.7501C16.2984 16.7074 16.5659 16.4708 16.6513 16.1507C16.7075 15.9403 16.6786 15.7162 16.5712 15.5272C16.4636 15.3385 16.2866 15.2008 16.0786 15.1444L16.0786 15.1444Z" fill="white"/>
<path d="M19.4722 16.0688C19.1548 15.9865 18.8197 16.1056 18.6231 16.3708C18.4265 16.6359 18.4067 16.9948 18.5731 17.2802C18.7396 17.5658 19.0597 17.7218 19.3839 17.6757C19.7084 17.6296 19.9735 17.3903 20.0558 17.0695C20.1098 16.8583 20.0787 16.6342 19.9692 16.4465C19.8597 16.2587 19.6809 16.1227 19.4722 16.0688L19.4722 16.0688Z" fill="white"/>
</svg>
