<svg width="40" height="40" viewBox="0 0 40 40" fill="none" xmlns="http://www.w3.org/2000/svg">
<path d="M16 2.39949C12.8714 3.12477 9.99379 4.67389 7.66572 6.88617C5.33764 9.09844 3.64384 11.8933 2.76001 14.9808C1.87619 18.0684 1.83452 21.3362 2.63934 24.4453C3.44415 27.5543 5.06614 30.3915 7.33705 32.6624C9.60796 34.9333 12.4451 36.5553 15.5542 37.3601C18.6633 38.1649 21.9311 38.1233 25.0186 37.2394C28.1062 36.3556 30.901 34.6618 33.1133 32.3337C35.3256 30.0057 36.8747 27.1281 37.6 23.9995C37.6 23.4691 37.3892 22.9604 37.0142 22.5853C36.6391 22.2102 36.1304 21.9995 35.6 21.9995H22C20.9391 21.9995 19.9217 21.5781 19.1715 20.8279C18.4214 20.0778 18 19.0604 18 17.9995V3.99949C17.9751 3.76254 17.9035 3.53288 17.7892 3.32383C17.6749 3.11478 17.5203 2.93049 17.3342 2.78166C17.1482 2.63283 16.9344 2.52241 16.7054 2.4568C16.4764 2.3912 16.2366 2.37172 16 2.39949Z" stroke="#DFE3E8" stroke-width="4" stroke-linecap="round" stroke-linejoin="round"/>
<path d="M26 3C28.5394 3.89417 30.846 5.3466 32.7497 7.25032C34.6534 9.15404 36.1058 11.4606 37 14H28C27.4696 14 26.9609 13.7893 26.5858 13.4142C26.2107 13.0391 26 12.5304 26 12V3Z" stroke="#DFE3E8" stroke-width="4" stroke-linecap="round" stroke-linejoin="round"/>
</svg>
