<svg width="16" height="16" viewBox="0 0 16 16" fill="none" xmlns="http://www.w3.org/2000/svg">
<path fill-rule="evenodd" clip-rule="evenodd" d="M1.8335 8C1.8335 11.4053 4.59416 14.1667 8.00016 14.1667C11.4055 14.1667 14.1668 11.4053 14.1668 8C14.1668 4.59467 11.4055 1.83334 8.00016 1.83334C4.59416 1.83334 1.8335 4.59467 1.8335 8Z" stroke="#313232" stroke-width="1.5" stroke-linecap="round" stroke-linejoin="round"/>
<path d="M6 6.06663C6 5.69533 6.18426 5.33924 6.51225 5.07668C6.84025 4.81413 7.2851 4.66663 7.74895 4.66663H8.24865C8.7125 4.66663 9.15735 4.81413 9.48534 5.07668C9.81333 5.33924 9.99759 5.69533 9.99759 6.06663C10.016 6.36962 9.92848 6.66998 9.74823 6.92249C9.56797 7.17499 9.30475 7.36596 8.9982 7.46663C8.69164 7.60086 8.42842 7.85549 8.24816 8.19216C8.06791 8.52883 7.9804 8.92932 7.9988 9.3333" stroke="#313232" stroke-width="1.5" stroke-linecap="round" stroke-linejoin="round"/>
<path d="M8 11.3333V11.34" stroke="#313232" stroke-width="1.5" stroke-linecap="round" stroke-linejoin="round"/>
</svg>
