<svg width="20" height="20" viewBox="0 0 20 20" fill="none" xmlns="http://www.w3.org/2000/svg">
<path fill-rule="evenodd" clip-rule="evenodd" d="M1.66667 10.0125C1.66667 5.62259 5.175 1.66666 10.0167 1.66666C14.75 1.66666 18.3333 5.54748 18.3333 9.98747C18.3333 15.1369 14.1333 18.3333 10 18.3333C8.63333 18.3333 7.11667 17.9661 5.9 17.2484C5.475 16.9896 5.11667 16.7977 4.65833 16.9479L2.975 17.4487C2.55 17.5822 2.16667 17.2484 2.29167 16.7977L2.85 14.9282C2.94167 14.6695 2.925 14.3941 2.79167 14.1771C2.075 12.8584 1.66667 11.4146 1.66667 10.0125ZM8.91666 10.0125C8.91666 10.6051 9.39166 11.0808 9.98333 11.0891C10.575 11.0891 11.05 10.6051 11.05 10.0209C11.05 9.4283 10.575 8.95259 9.98333 8.95259C9.4 8.94424 8.91666 9.4283 8.91666 10.0125ZM12.7583 10.0209C12.7583 10.6051 13.2333 11.0891 13.825 11.0891C14.4167 11.0891 14.8917 10.6051 14.8917 10.0209C14.8917 9.4283 14.4167 8.95259 13.825 8.95259C13.2333 8.95259 12.7583 9.4283 12.7583 10.0209ZM6.14166 11.0891C5.55833 11.0891 5.075 10.6051 5.075 10.0209C5.075 9.4283 5.55 8.95258 6.14166 8.95258C6.73333 8.95258 7.20833 9.4283 7.20833 10.0209C7.20833 10.6051 6.73333 11.0808 6.14166 11.0891Z" fill="#111212"/>
</svg>
