<svg width="20" height="20" viewBox="0 0 20 20" fill="none" xmlns="http://www.w3.org/2000/svg">
<path d="M2.5 16.6667L3.58333 13.4167C2.64704 12.0319 2.30833 10.392 2.63018 8.80191C2.95204 7.21182 3.91255 5.77972 5.33314 4.77189C6.75373 3.76406 8.53772 3.24908 10.3534 3.32269C12.1691 3.39631 13.8929 4.05352 15.2044 5.17213C16.5159 6.29073 17.3257 7.79461 17.4834 9.40415C17.6411 11.0137 17.1358 12.6194 16.0616 13.9226C14.9873 15.2259 13.4172 16.138 11.6432 16.4895C9.86911 16.8409 8.01184 16.6078 6.41667 15.8333L2.5 16.6667" stroke="white" stroke-width="2" stroke-linecap="round" stroke-linejoin="round"/>
<path d="M8 9.66666H11.3333" stroke="white" stroke-width="2" stroke-linecap="round" stroke-linejoin="round"/>
<path d="M9.66669 8V11.3333" stroke="white" stroke-width="2" stroke-linecap="round" stroke-linejoin="round"/>
</svg>
