<svg width="22" height="21" viewBox="0 0 22 21" fill="none" xmlns="http://www.w3.org/2000/svg">
<path d="M6.23605 20C6.07477 20 5.91196 19.9687 5.75632 19.9045C5.28741 19.7109 4.98438 19.2589 4.98438 18.7531V17.4293C4.98438 16.9569 4.59894 16.5728 4.125 16.5728C2.40182 16.5728 1 15.1756 1 13.4582V4.11455C1 2.39714 2.40182 1 4.125 1H17.875C19.5982 1 21 2.39714 21 4.11455V9.56503C21 9.9951 20.6503 10.3437 20.2188 10.3437C19.7872 10.3437 19.4375 9.9951 19.4375 9.56503V4.11455C19.4375 3.25592 18.7365 2.55728 17.875 2.55728H4.125C3.26349 2.55728 2.5625 3.25592 2.5625 4.11455V13.4582C2.5625 14.3169 3.26349 15.0155 4.125 15.0155C5.46045 15.0155 6.54688 16.0983 6.54688 17.4293V18.0022L8.24808 16.3066C9.0835 15.474 10.1942 15.0155 11.3757 15.0155H17.875C18.7365 15.0155 19.4375 14.3169 19.4375 13.4582C19.4375 13.0281 19.7872 12.6796 20.2188 12.6796C20.6503 12.6796 21 13.0281 21 13.4582C21 15.1755 19.5982 16.5728 17.875 16.5728H11.3757C10.6117 16.5728 9.89328 16.8693 9.35297 17.4077L7.11893 19.6343C6.87921 19.8733 6.56076 20 6.23605 20ZM11.7812 12.7185C11.7812 12.2884 11.4315 11.9399 11 11.9399C10.5685 11.9399 10.2188 12.2884 10.2188 12.7185C10.2188 13.1486 10.5685 13.4972 11 13.4972C11.4315 13.4972 11.7812 13.1486 11.7812 12.7185ZM11.7812 9.99328V9.44884C11.7812 9.40474 11.8066 9.36291 11.8403 9.35166C12.953 8.98211 13.6988 7.90707 13.6543 6.73744C13.6019 5.36357 12.4812 4.24656 11.1027 4.1944C10.3736 4.16672 9.68271 4.4289 9.15796 4.93243C8.6329 5.43626 8.34375 6.11362 8.34375 6.83979C8.34375 7.26987 8.69348 7.61843 9.125 7.61843C9.55652 7.61843 9.90625 7.26987 9.90625 6.83979C9.90625 6.5408 10.0254 6.26174 10.2416 6.05431C10.4576 5.84703 10.7424 5.73905 11.0433 5.75046C11.6104 5.7719 12.0713 6.23148 12.093 6.7966C12.1113 7.27899 11.8043 7.72215 11.3462 7.87438C10.6719 8.09839 10.2188 8.73103 10.2188 9.44884V9.99328C10.2188 10.4234 10.5685 10.7719 11 10.7719C11.4315 10.7719 11.7812 10.4234 11.7812 9.99328Z" fill="#0554F2" stroke="#0554F2" stroke-width="0.5"/>
</svg>
