<svg width="20" height="20" viewBox="0 0 20 20" fill="none" xmlns="http://www.w3.org/2000/svg">
<path d="M10.0003 1.66663C5.40866 1.66663 1.66699 5.40829 1.66699 9.99996C1.66699 14.5916 5.40866 18.3333 10.0003 18.3333C14.592 18.3333 18.3337 14.5916 18.3337 9.99996C18.3337 5.40829 14.592 1.66663 10.0003 1.66663ZM13.6253 12.975C13.5087 13.175 13.3003 13.2833 13.0837 13.2833C12.9753 13.2833 12.867 13.2583 12.767 13.1916L10.1837 11.65C9.54199 11.2666 9.06699 10.425 9.06699 9.68329V6.26663C9.06699 5.92496 9.35033 5.64163 9.69199 5.64163C10.0337 5.64163 10.317 5.92496 10.317 6.26663V9.68329C10.317 9.98329 10.567 10.425 10.8253 10.575L13.4087 12.1166C13.7087 12.2916 13.8087 12.675 13.6253 12.975Z" fill="#00ABFB"/>
</svg>
