<svg width="16" height="16" viewBox="0 0 16 16" fill="none" xmlns="http://www.w3.org/2000/svg">
<path d="M7.99968 1.33333C4.32634 1.33333 1.33301 4.32666 1.33301 8C1.33301 11.6733 4.32634 14.6667 7.99968 14.6667C11.673 14.6667 14.6663 11.6733 14.6663 8C14.6663 4.32666 11.673 1.33333 7.99968 1.33333ZM10.2397 9.53333C10.433 9.72666 10.433 10.0467 10.2397 10.24C10.1397 10.34 10.013 10.3867 9.88634 10.3867C9.75968 10.3867 9.63301 10.34 9.53301 10.24L7.99968 8.70666L6.46634 10.24C6.36634 10.34 6.23968 10.3867 6.11301 10.3867C5.98634 10.3867 5.85968 10.34 5.75968 10.24C5.56634 10.0467 5.56634 9.72666 5.75968 9.53333L7.29301 8L5.75968 6.46666C5.56634 6.27333 5.56634 5.95333 5.75968 5.76C5.95301 5.56666 6.27301 5.56666 6.46634 5.76L7.99968 7.29333L9.53301 5.76C9.72634 5.56666 10.0463 5.56666 10.2397 5.76C10.433 5.95333 10.433 6.27333 10.2397 6.46666L8.70634 8L10.2397 9.53333Z" fill="#CFD0D0"/>
</svg>
