<svg width="36" height="36" viewBox="0 0 36 36" fill="none" xmlns="http://www.w3.org/2000/svg">
<rect width="36" height="36" rx="4" fill="#F6F7F7"/>
<path d="M21.3333 18.75V22.25C21.3333 25.1666 20.1666 26.3333 17.25 26.3333H13.75C10.8333 26.3333 9.66663 25.1666 9.66663 22.25V18.75C9.66663 15.8333 10.8333 14.6666 13.75 14.6666H17.25C20.1666 14.6666 21.3333 15.8333 21.3333 18.75Z" stroke="#626363" stroke-width="2" stroke-linecap="round" stroke-linejoin="round"/>
<path d="M26.3333 13.75V17.25C26.3333 20.1666 25.1666 21.3333 22.25 21.3333H21.3333V18.75C21.3333 15.8333 20.1666 14.6666 17.25 14.6666H14.6666V13.75C14.6666 10.8333 15.8333 9.66663 18.75 9.66663H22.25C25.1666 9.66663 26.3333 10.8333 26.3333 13.75Z" stroke="#626363" stroke-width="2" stroke-linecap="round" stroke-linejoin="round"/>
</svg>
