<svg width="16" height="16" viewBox="0 0 16 16" fill="none" xmlns="http://www.w3.org/2000/svg">
<path d="M10.6666 8.60001V11.4C10.6666 13.7333 9.73331 14.6667 7.39998 14.6667H4.59998C2.26665 14.6667 1.33331 13.7333 1.33331 11.4V8.60001C1.33331 6.26668 2.26665 5.33334 4.59998 5.33334H7.39998C9.73331 5.33334 10.6666 6.26668 10.6666 8.60001Z" stroke="#006A5E" stroke-width="1.5" stroke-linecap="round" stroke-linejoin="round"/>
<path d="M14.6666 4.60001V7.40001C14.6666 9.73334 13.7333 10.6667 11.4 10.6667H10.6666V8.60001C10.6666 6.26668 9.73331 5.33334 7.39998 5.33334H5.33331V4.60001C5.33331 2.26668 6.26665 1.33334 8.59998 1.33334H11.4C13.7333 1.33334 14.6666 2.26668 14.6666 4.60001Z" stroke="#006A5E" stroke-width="1.5" stroke-linecap="round" stroke-linejoin="round"/>
</svg>
