<svg width="16" height="16" viewBox="0 0 16 16" fill="none" xmlns="http://www.w3.org/2000/svg">
<path d="M12 5.33334H6.66671C5.93033 5.33334 5.33337 5.9303 5.33337 6.66668V12C5.33337 12.7364 5.93033 13.3333 6.66671 13.3333H12C12.7364 13.3333 13.3334 12.7364 13.3334 12V6.66668C13.3334 5.9303 12.7364 5.33334 12 5.33334Z" stroke="#007E78" stroke-width="1.5" stroke-linecap="round" stroke-linejoin="round"/>
<path d="M10.6666 5.33332V3.99999C10.6666 3.64637 10.5262 3.30723 10.2761 3.05718C10.0261 2.80713 9.68691 2.66666 9.33329 2.66666H3.99996C3.64634 2.66666 3.3072 2.80713 3.05715 3.05718C2.8071 3.30723 2.66663 3.64637 2.66663 3.99999V9.33332C2.66663 9.68695 2.8071 10.0261 3.05715 10.2761C3.3072 10.5262 3.64634 10.6667 3.99996 10.6667H5.33329" stroke="#007E78" stroke-width="1.5" stroke-linecap="round" stroke-linejoin="round"/>
</svg>
