<svg width="16" height="16" viewBox="0 0 16 16" fill="none" xmlns="http://www.w3.org/2000/svg">
<path d="M6.66602 9.3333C6.88327 9.55503 7.14258 9.73118 7.42877 9.85144C7.71495 9.9717 8.02226 10.0336 8.33268 10.0336C8.64311 10.0336 8.95041 9.9717 9.2366 9.85144C9.52278 9.73118 9.7821 9.55503 9.99935 9.3333L12.666 6.66663C13.108 6.22461 13.3564 5.62509 13.3564 4.99997C13.3564 4.37485 13.108 3.77533 12.666 3.3333C12.224 2.89127 11.6245 2.64294 10.9993 2.64294C10.3742 2.64294 9.77471 2.89127 9.33268 3.3333L8.99935 3.66663" stroke="#313232" stroke-width="1.5" stroke-linecap="round" stroke-linejoin="round"/>
<path d="M9.33293 6.66665C9.11568 6.44492 8.85637 6.26876 8.57018 6.14851C8.284 6.02825 7.97669 5.96631 7.66627 5.96631C7.35584 5.96631 7.04854 6.02825 6.76235 6.14851C6.47617 6.26876 6.21685 6.44492 5.9996 6.66665L3.33293 9.33332C2.89091 9.77534 2.64258 10.3749 2.64258 11C2.64258 11.6251 2.89091 12.2246 3.33293 12.6666C3.77496 13.1087 4.37448 13.357 4.9996 13.357C5.62472 13.357 6.22424 13.1087 6.66627 12.6666L6.9996 12.3333" stroke="#313232" stroke-width="1.5" stroke-linecap="round" stroke-linejoin="round"/>
</svg>
