<svg width="32" height="32" viewBox="0 0 32 32" fill="none" xmlns="http://www.w3.org/2000/svg">
<circle cx="16" cy="16" r="16" fill="none"/>
<path fill-rule="evenodd" clip-rule="evenodd" d="M13.9823 3.39823H12.6372V2.0531C12.6372 0.920354 11.7168 0 10.6195 0H2.0531C0.920354 0 0 0.920354 0 2.0531V10.6195C0 11.7168 0.920354 12.6372 2.0531 12.6372H3.39823V13.9823C3.39823 15.115 4.28319 16 5.41593 16H13.9823C15.115 16 16 15.115 16 13.9823V5.41593C16 4.28319 15.115 3.39823 13.9823 3.39823ZM10.9735 3.39823H5.41593C4.28319 3.39823 3.39823 4.28319 3.39823 5.41593V10.9735H2.0531C1.9469 10.9735 1.84071 10.9381 1.80531 10.8673C1.73451 10.7965 1.69912 10.7257 1.69912 10.6195V2.0531C1.69912 1.9469 1.73451 1.84071 1.80531 1.80531C1.84071 1.73451 1.9469 1.69912 2.0531 1.69912H10.6195C10.7257 1.69912 10.7965 1.73451 10.8673 1.80531C10.9381 1.84071 10.9735 1.9469 10.9735 2.0531V3.39823Z" fill="#313232"/>
</svg>
