<svg width="16" height="16" viewBox="0 0 16 16" fill="none" xmlns="http://www.w3.org/2000/svg">
<path d="M10.6673 8.60004V11.4C10.6673 13.7334 9.73398 14.6667 7.40065 14.6667H4.60065C2.26732 14.6667 1.33398 13.7334 1.33398 11.4V8.60004C1.33398 6.26671 2.26732 5.33337 4.60065 5.33337H7.40065C9.73398 5.33337 10.6673 6.26671 10.6673 8.60004Z" stroke="#313232" stroke-width="1.5" stroke-linecap="round" stroke-linejoin="round"/>
<path d="M14.6673 4.60004V7.40004C14.6673 9.73337 13.734 10.6667 11.4007 10.6667H10.6673V8.60004C10.6673 6.26671 9.73398 5.33337 7.40065 5.33337H5.33398V4.60004C5.33398 2.26671 6.26732 1.33337 8.60065 1.33337H11.4007C13.734 1.33337 14.6673 2.26671 14.6673 4.60004Z" stroke="#313232" stroke-width="1.5" stroke-linecap="round" stroke-linejoin="round"/>
</svg>
