<svg width="608" height="132" viewBox="0 0 608 132" fill="none" xmlns="http://www.w3.org/2000/svg">
<rect width="608" height="132" rx="4" fill="#F6F7F7"/>
<g clip-path="url(#clip0_10635_25882)">
<path d="M377 80H304H231C231 80 263.683 62.5455 304 62.5455C344.317 62.5455 377 80 377 80Z" fill="url(#paint0_linear_10635_25882)"/>
<g clip-path="url(#clip1_10635_25882)">
<path d="M298.89 73.4545V48L325.535 38.1818L327.36 53.0909V62.5454L325.535 64.7272L301.81 73.4545H298.89Z" fill="#E1E2E2"/>
<path d="M278.085 62.9091V52.3636L279.18 37.8182L299.255 47.6364V73.8182L280.275 65.4545L278.085 62.9091Z" fill="#CFD0D0"/>
<path d="M299.255 47.6364L278.815 37.8182L275.53 49.4545L276.625 51.2727L295.24 60L296.335 59.2727L299.255 47.6364Z" fill="#EDEEEE"/>
<path d="M326.995 38.5454L326.265 37.8182L298.89 47.6364L304.365 60L306.92 60.3636L331.375 51.6364L332.47 50.9091V49.8182L326.995 38.5454Z" fill="#EDEEEE"/>
<path d="M333.019 49.5063L327.515 38.0492C327.396 37.8014 327.195 37.6141 326.959 37.5043C326.953 37.5013 326.948 37.4962 326.943 37.4932L306.206 27.8598C306.048 27.7853 305.877 27.7495 305.706 27.7495C305.622 27.7495 305.537 27.7611 305.455 27.7793C305.448 27.7808 305.442 27.7823 305.435 27.7838C305.403 27.7908 305.372 27.7989 305.342 27.81C305.33 27.813 305.317 27.815 305.305 27.8201L278.366 37.4519C278.337 37.4629 278.31 37.4781 278.282 37.4901C278.27 37.4952 278.254 37.4982 278.241 37.5037C278.233 37.5073 278.226 37.5148 278.216 37.5189C278.177 37.539 278.141 37.5637 278.106 37.5868C277.858 37.7485 277.676 37.9928 277.609 38.2799L274.952 49.5073C274.744 50.3836 275.359 51.3829 276.415 51.8785L277.595 52.435V62.4249C277.595 63.607 278.308 64.793 279.292 65.2504L297.977 73.9318C298.255 74.0612 298.541 74.1267 298.828 74.1267H300.378C300.66 74.1267 300.948 74.0753 301.233 73.9721L325.51 65.2927C326.708 64.8636 327.611 63.6311 327.611 62.4255V53.5078L331.33 52.1822C332.164 51.8856 332.786 51.3684 333.04 50.7655C333.215 50.3455 333.208 49.8977 333.02 49.5064L333.019 49.5063ZM324.968 37.8477L305.706 44.7119V28.8994L324.968 37.8477ZM304.537 45.1285L299.484 46.9301L283.679 39.5869L280.287 37.9888L304.538 29.3169L304.538 45.1281L304.537 45.1285ZM276.093 49.7672L278.748 38.5398L298.472 47.7949C298.43 47.9243 298.33 48.3227 298.33 48.3227L295.794 59.0455C295.746 59.2484 295.55 59.3537 295.285 59.3537C295.104 59.3537 294.892 59.3059 294.675 59.2026L276.922 50.843C276.384 50.5886 276.012 50.1072 276.094 49.7672L276.093 49.7672ZM298.475 72.893L279.793 64.212C279.268 63.9678 278.84 63.2642 278.779 62.5868V62.5299C278.774 62.4816 278.767 62.4347 278.767 62.3833V52.9867L294.169 60.2403C294.538 60.4131 294.923 60.5062 295.286 60.5062C296.102 60.5062 296.765 60.0232 296.934 59.307L298.331 53.4038V72.0593C298.331 72.3636 298.39 72.6456 298.495 72.9004C298.49 72.8979 298.483 72.8964 298.476 72.8934L298.475 72.893ZM326.44 62.3827C326.44 62.4225 326.437 62.4608 326.434 62.4996V62.5026C326.394 63.2037 325.819 63.9581 325.108 64.2115L300.833 72.8929C300.674 72.9498 300.52 72.9765 300.377 72.9765C299.867 72.9765 299.501 72.627 299.501 72.0589L299.502 50.8439L303.946 60.096C304.244 60.7155 304.911 61.0686 305.777 61.0686C306.184 61.0686 306.62 60.9905 307.039 60.842L326.441 53.9263L326.441 62.3831L326.44 62.3827ZM330.93 51.1035L306.64 59.7593C306.338 59.8661 306.038 59.9209 305.776 59.9209C305.4 59.9209 305.103 59.8111 305.005 59.6062L299.549 48.2498L299.524 48.202L326.439 38.5768V38.5455L326.455 38.5405L331.96 49.9991C332.128 50.3461 331.666 50.8407 330.929 51.1036L330.93 51.1035Z" fill="#CFD0D0"/>
<path d="M285.588 16.0162C291.129 16.0162 295.628 19.5868 295.628 23.9929C295.628 26.6518 293.976 29.0321 291.46 30.4755C291.358 30.5262 291.307 30.6781 291.358 30.7793L292.451 33.109C292.553 33.2863 292.349 33.4887 292.171 33.4382L287.672 31.8176C287.647 31.7923 287.596 31.7923 287.571 31.8176C286.935 31.9188 286.275 31.9695 285.588 31.9695C280.047 31.9695 275.548 28.3989 275.548 23.9928C275.548 19.5867 280.047 16.0162 285.588 16.0162L285.588 16.0162ZM290.468 25.6895C291.282 25.6895 291.943 25.0311 291.943 24.2208C291.943 23.4104 291.282 22.7521 290.468 22.7521C289.655 22.7521 288.994 23.4104 288.994 24.2208C288.969 25.031 289.63 25.6895 290.468 25.6895ZM285.588 25.6895C286.402 25.6895 287.062 25.0311 287.062 24.2208C287.062 23.4104 286.402 22.7521 285.588 22.7521C284.775 22.7521 284.114 23.4104 284.114 24.2208C284.114 25.031 284.775 25.6895 285.588 25.6895ZM280.708 25.6895C281.521 25.6895 282.182 25.0311 282.182 24.2208C282.182 23.4104 281.521 22.7521 280.708 22.7521C279.895 22.7521 279.234 23.4104 279.234 24.2208C279.234 25.031 279.895 25.6895 280.708 25.6895Z" fill="#E1E2E2" stroke="white"/>
</g>
</g>
<path d="M217.42 102V91.64H221.41C222.072 91.64 222.637 91.7613 223.104 92.004C223.58 92.2373 223.944 92.5547 224.196 92.956C224.448 93.348 224.574 93.7773 224.574 94.244C224.574 94.7573 224.48 95.1727 224.294 95.49C224.107 95.8073 223.897 96.05 223.664 96.218C223.43 96.3767 223.244 96.484 223.104 96.54V96.624C223.328 96.6893 223.584 96.8153 223.874 97.002C224.172 97.1793 224.429 97.436 224.644 97.772C224.858 98.108 224.966 98.5467 224.966 99.088C224.966 99.564 224.849 100.026 224.616 100.474C224.382 100.922 224.014 101.291 223.51 101.58C223.006 101.86 222.338 102 221.508 102H217.42ZM221.354 92.83H218.792V96.134H221.354C221.802 96.134 222.161 96.0547 222.432 95.896C222.712 95.7373 222.912 95.532 223.034 95.28C223.164 95.0187 223.23 94.7527 223.23 94.482C223.23 94.202 223.164 93.936 223.034 93.684C222.912 93.432 222.712 93.2267 222.432 93.068C222.161 92.9093 221.802 92.83 221.354 92.83ZM221.466 97.24H218.792V100.81H221.466C221.979 100.81 222.39 100.726 222.698 100.558C223.006 100.381 223.23 100.157 223.37 99.886C223.519 99.606 223.594 99.3167 223.594 99.018C223.594 98.7193 223.519 98.4347 223.37 98.164C223.23 97.8933 223.006 97.674 222.698 97.506C222.39 97.3287 221.979 97.24 221.466 97.24ZM230.163 94.44C230.63 94.44 231.022 94.5147 231.339 94.664C231.656 94.8133 231.913 94.9907 232.109 95.196C232.305 95.392 232.454 95.5787 232.557 95.756H232.641V94.58H233.971V102H232.641V100.824H232.557C232.454 101.001 232.305 101.193 232.109 101.398C231.913 101.603 231.656 101.781 231.339 101.93C231.022 102.07 230.63 102.14 230.163 102.14C229.603 102.14 229.113 102.033 228.693 101.818C228.273 101.594 227.923 101.3 227.643 100.936C227.363 100.563 227.153 100.147 227.013 99.69C226.873 99.2327 226.803 98.766 226.803 98.29C226.803 97.814 226.873 97.3473 227.013 96.89C227.153 96.4327 227.363 96.022 227.643 95.658C227.923 95.2847 228.273 94.9907 228.693 94.776C229.113 94.552 229.603 94.44 230.163 94.44ZM230.387 95.574C229.892 95.574 229.477 95.7093 229.141 95.98C228.805 96.2413 228.553 96.5773 228.385 96.988C228.226 97.3987 228.147 97.8327 228.147 98.29C228.147 98.738 228.226 99.172 228.385 99.592C228.553 100.003 228.805 100.343 229.141 100.614C229.477 100.875 229.892 101.006 230.387 101.006C230.882 101.006 231.292 100.875 231.619 100.614C231.955 100.343 232.202 100.003 232.361 99.592C232.529 99.172 232.613 98.738 232.613 98.29C232.613 97.8327 232.529 97.3987 232.361 96.988C232.202 96.5773 231.955 96.2413 231.619 95.98C231.292 95.7093 230.882 95.574 230.387 95.574ZM230.471 105.178C230.21 105.178 229.99 105.085 229.813 104.898C229.645 104.721 229.561 104.511 229.561 104.268C229.561 104.016 229.645 103.801 229.813 103.624C229.99 103.447 230.21 103.358 230.471 103.358C230.732 103.358 230.947 103.447 231.115 103.624C231.292 103.801 231.381 104.016 231.381 104.268C231.381 104.52 231.292 104.735 231.115 104.912C230.947 105.089 230.732 105.178 230.471 105.178ZM236.18 102V94.58H237.51V95.658H237.594C237.659 95.546 237.766 95.392 237.916 95.196C238.074 95 238.298 94.8273 238.588 94.678C238.877 94.5193 239.241 94.44 239.68 94.44C240.221 94.44 240.683 94.566 241.066 94.818C241.448 95.0607 241.738 95.392 241.934 95.812C242.139 96.232 242.242 96.7033 242.242 97.226V102H240.912V97.31C240.912 96.8153 240.772 96.4047 240.492 96.078C240.221 95.7513 239.824 95.588 239.302 95.588C238.882 95.588 238.541 95.6953 238.28 95.91C238.018 96.1153 237.822 96.3907 237.692 96.736C237.57 97.072 237.51 97.4313 237.51 97.814V102H236.18ZM251.266 102.14C250.659 102.14 250.127 102.033 249.67 101.818C249.212 101.594 248.83 101.3 248.522 100.936C248.223 100.563 247.994 100.147 247.836 99.69C247.686 99.2327 247.612 98.766 247.612 98.29C247.612 97.814 247.686 97.352 247.836 96.904C247.985 96.4467 248.209 96.0313 248.508 95.658C248.816 95.2847 249.198 94.9907 249.656 94.776C250.113 94.552 250.65 94.44 251.266 94.44C251.863 94.44 252.358 94.5287 252.75 94.706C253.142 94.8833 253.454 95.1073 253.688 95.378C253.93 95.6393 254.108 95.9053 254.22 96.176C254.341 96.4373 254.42 96.6567 254.458 96.834C254.495 97.0113 254.514 97.1 254.514 97.1H253.226C253.226 97.1 253.202 97.0253 253.156 96.876C253.109 96.7173 253.02 96.54 252.89 96.344C252.759 96.148 252.563 95.9753 252.302 95.826C252.04 95.6673 251.695 95.588 251.266 95.588C250.752 95.588 250.318 95.7187 249.964 95.98C249.618 96.232 249.357 96.5633 249.18 96.974C249.012 97.3847 248.928 97.8233 248.928 98.29C248.928 98.7567 249.012 99.1953 249.18 99.606C249.357 100.017 249.618 100.353 249.964 100.614C250.318 100.866 250.752 100.992 251.266 100.992C251.695 100.992 252.04 100.917 252.302 100.768C252.563 100.609 252.759 100.432 252.89 100.236C253.02 100.04 253.109 99.8673 253.156 99.718C253.202 99.5593 253.226 99.48 253.226 99.48H254.514C254.514 99.48 254.495 99.5687 254.458 99.746C254.42 99.9233 254.341 100.147 254.22 100.418C254.108 100.679 253.93 100.945 253.688 101.216C253.454 101.477 253.142 101.697 252.75 101.874C252.358 102.051 251.863 102.14 251.266 102.14ZM256.638 102V91.36H257.968V95.658H258.052C258.117 95.546 258.224 95.392 258.374 95.196C258.532 95 258.756 94.8273 259.046 94.678C259.335 94.5193 259.699 94.44 260.138 94.44C260.679 94.44 261.141 94.566 261.524 94.818C261.906 95.0607 262.196 95.392 262.392 95.812C262.597 96.232 262.7 96.7033 262.7 97.226V102H261.37V97.31C261.37 96.8153 261.23 96.4047 260.95 96.078C260.679 95.7513 260.282 95.588 259.76 95.588C259.34 95.588 258.999 95.6953 258.738 95.91C258.476 96.1153 258.28 96.3907 258.15 96.736C258.028 97.072 257.968 97.4313 257.968 97.814V102H256.638ZM267.242 102.14C266.504 102.14 265.916 101.911 265.478 101.454C265.039 100.997 264.82 100.362 264.82 99.55V94.58H266.15V99.48C266.15 99.9653 266.28 100.339 266.542 100.6C266.812 100.861 267.167 100.992 267.606 100.992C268.054 100.992 268.413 100.875 268.684 100.642C268.954 100.409 269.15 100.11 269.272 99.746C269.393 99.382 269.454 99.0087 269.454 98.626V94.58H270.588C270.952 94.58 271.134 94.3887 271.134 94.006V93.166H272.31V94.006C272.31 94.4353 272.198 94.7807 271.974 95.042C271.75 95.3033 271.409 95.434 270.952 95.434H270.784V102H269.454V100.936H269.37C269.314 101.048 269.206 101.202 269.048 101.398C268.889 101.585 268.665 101.757 268.376 101.916C268.086 102.065 267.708 102.14 267.242 102.14ZM276.471 94.44C276.938 94.44 277.33 94.5147 277.647 94.664C277.964 94.8133 278.221 94.9907 278.417 95.196C278.613 95.392 278.762 95.5787 278.865 95.756H278.949V94.58H280.279V102H278.949V100.824H278.865C278.762 101.001 278.613 101.193 278.417 101.398C278.221 101.603 277.964 101.781 277.647 101.93C277.33 102.07 276.938 102.14 276.471 102.14C275.911 102.14 275.421 102.033 275.001 101.818C274.581 101.594 274.231 101.3 273.951 100.936C273.671 100.563 273.461 100.147 273.321 99.69C273.181 99.2327 273.111 98.766 273.111 98.29C273.111 97.814 273.181 97.3473 273.321 96.89C273.461 96.4327 273.671 96.022 273.951 95.658C274.231 95.2847 274.581 94.9907 275.001 94.776C275.421 94.552 275.911 94.44 276.471 94.44ZM276.695 95.574C276.2 95.574 275.785 95.7093 275.449 95.98C275.113 96.2413 274.861 96.5773 274.693 96.988C274.534 97.3987 274.455 97.8327 274.455 98.29C274.455 98.738 274.534 99.172 274.693 99.592C274.861 100.003 275.113 100.343 275.449 100.614C275.785 100.875 276.2 101.006 276.695 101.006C277.19 101.006 277.6 100.875 277.927 100.614C278.263 100.343 278.51 100.003 278.669 99.592C278.837 99.172 278.921 98.738 278.921 98.29C278.921 97.8327 278.837 97.3987 278.669 96.988C278.51 96.5773 278.263 96.2413 277.927 95.98C277.6 95.7093 277.19 95.574 276.695 95.574ZM289.294 102.14C288.687 102.14 288.155 102.033 287.698 101.818C287.241 101.594 286.858 101.3 286.55 100.936C286.251 100.563 286.023 100.147 285.864 99.69C285.715 99.2327 285.64 98.766 285.64 98.29C285.64 97.814 285.715 97.352 285.864 96.904C286.013 96.4467 286.237 96.0313 286.536 95.658C286.844 95.2847 287.227 94.9907 287.684 94.776C288.141 94.552 288.678 94.44 289.294 94.44C289.891 94.44 290.386 94.5287 290.778 94.706C291.17 94.8833 291.483 95.1073 291.716 95.378C291.959 95.6393 292.136 95.9053 292.248 96.176C292.369 96.4373 292.449 96.6567 292.486 96.834C292.523 97.0113 292.542 97.1 292.542 97.1H291.254C291.254 97.1 291.231 97.0253 291.184 96.876C291.137 96.7173 291.049 96.54 290.918 96.344C290.787 96.148 290.591 95.9753 290.33 95.826C290.069 95.6673 289.723 95.588 289.294 95.588C288.781 95.588 288.347 95.7187 287.992 95.98C287.647 96.232 287.385 96.5633 287.208 96.974C287.04 97.3847 286.956 97.8233 286.956 98.29C286.956 98.7567 287.04 99.1953 287.208 99.606C287.385 100.017 287.647 100.353 287.992 100.614C288.347 100.866 288.781 100.992 289.294 100.992C289.723 100.992 290.069 100.917 290.33 100.768C290.591 100.609 290.787 100.432 290.918 100.236C291.049 100.04 291.137 99.8673 291.184 99.718C291.231 99.5593 291.254 99.48 291.254 99.48H292.542C292.542 99.48 292.523 99.5687 292.486 99.746C292.449 99.9233 292.369 100.147 292.248 100.418C292.136 100.679 291.959 100.945 291.716 101.216C291.483 101.477 291.17 101.697 290.778 101.874C290.386 102.051 289.891 102.14 289.294 102.14ZM298.656 93.446L297.522 93.432L298.726 90.912H300.098L298.656 93.446ZM298.11 102.14C297.317 102.14 296.649 101.958 296.108 101.594C295.567 101.221 295.156 100.74 294.876 100.152C294.596 99.564 294.456 98.9433 294.456 98.29C294.456 97.6273 294.596 97.0067 294.876 96.428C295.156 95.84 295.567 95.364 296.108 95C296.649 94.6267 297.317 94.44 298.11 94.44C298.903 94.44 299.571 94.6267 300.112 95C300.653 95.364 301.064 95.84 301.344 96.428C301.624 97.0067 301.764 97.6273 301.764 98.29C301.764 98.9433 301.624 99.564 301.344 100.152C301.064 100.74 300.653 101.221 300.112 101.594C299.571 101.958 298.903 102.14 298.11 102.14ZM298.11 100.978C298.614 100.978 299.034 100.852 299.37 100.6C299.715 100.339 299.972 100.003 300.14 99.592C300.317 99.1813 300.406 98.7473 300.406 98.29C300.406 97.8233 300.317 97.3893 300.14 96.988C299.972 96.5773 299.715 96.246 299.37 95.994C299.034 95.7327 298.614 95.602 298.11 95.602C297.615 95.602 297.195 95.7327 296.85 95.994C296.505 96.246 296.243 96.5773 296.066 96.988C295.898 97.3893 295.814 97.8233 295.814 98.29C295.814 98.7473 295.898 99.1813 296.066 99.592C296.243 100.003 296.505 100.339 296.85 100.6C297.195 100.852 297.615 100.978 298.11 100.978ZM310.719 102.14C310.113 102.14 309.581 102.033 309.123 101.818C308.666 101.594 308.283 101.3 307.975 100.936C307.677 100.563 307.448 100.147 307.289 99.69C307.14 99.2327 307.065 98.766 307.065 98.29C307.065 97.814 307.14 97.352 307.289 96.904C307.439 96.4467 307.663 96.0313 307.961 95.658C308.269 95.2847 308.652 94.9907 309.109 94.776C309.567 94.552 310.103 94.44 310.719 94.44C311.317 94.44 311.811 94.5287 312.203 94.706C312.595 94.8833 312.908 95.1073 313.141 95.378C313.384 95.6393 313.561 95.9053 313.673 96.176C313.795 96.4373 313.874 96.6567 313.911 96.834C313.949 97.0113 313.967 97.1 313.967 97.1H312.679C312.679 97.1 312.656 97.0253 312.609 96.876C312.563 96.7173 312.474 96.54 312.343 96.344C312.213 96.148 312.017 95.9753 311.755 95.826C311.494 95.6673 311.149 95.588 310.719 95.588C310.206 95.588 309.772 95.7187 309.417 95.98C309.072 96.232 308.811 96.5633 308.633 96.974C308.465 97.3847 308.381 97.8233 308.381 98.29C308.381 98.7567 308.465 99.1953 308.633 99.606C308.811 100.017 309.072 100.353 309.417 100.614C309.772 100.866 310.206 100.992 310.719 100.992C311.149 100.992 311.494 100.917 311.755 100.768C312.017 100.609 312.213 100.432 312.343 100.236C312.474 100.04 312.563 99.8673 312.609 99.718C312.656 99.5593 312.679 99.48 312.679 99.48H313.967C313.967 99.48 313.949 99.5687 313.911 99.746C313.874 99.9233 313.795 100.147 313.673 100.418C313.561 100.679 313.384 100.945 313.141 101.216C312.908 101.477 312.595 101.697 312.203 101.874C311.811 102.051 311.317 102.14 310.719 102.14ZM319.465 102.14C318.672 102.14 318.005 101.958 317.463 101.594C316.922 101.221 316.511 100.74 316.231 100.152C315.951 99.564 315.811 98.9433 315.811 98.29C315.811 97.6273 315.951 97.0067 316.231 96.428C316.511 95.84 316.922 95.364 317.463 95C318.005 94.6267 318.672 94.44 319.465 94.44C320.259 94.44 320.926 94.6267 321.467 95C322.009 95.364 322.419 95.84 322.699 96.428C322.979 97.0067 323.119 97.6273 323.119 98.29C323.119 98.9433 322.979 99.564 322.699 100.152C322.419 100.74 322.009 101.221 321.467 101.594C320.926 101.958 320.259 102.14 319.465 102.14ZM319.465 100.978C319.969 100.978 320.389 100.852 320.725 100.6C321.071 100.339 321.327 100.003 321.495 99.592C321.673 99.1813 321.761 98.7473 321.761 98.29C321.761 97.8233 321.673 97.3893 321.495 96.988C321.327 96.5773 321.071 96.246 320.725 95.994C320.389 95.7327 319.969 95.602 319.465 95.602C318.971 95.602 318.551 95.7327 318.205 95.994C317.86 96.246 317.599 96.5773 317.421 96.988C317.253 97.3893 317.169 97.8233 317.169 98.29C317.169 98.7473 317.253 99.1813 317.421 99.592C317.599 100.003 317.86 100.339 318.205 100.6C318.551 100.852 318.971 100.978 319.465 100.978ZM327.516 102.14C326.778 102.14 326.19 101.911 325.752 101.454C325.313 100.997 325.094 100.362 325.094 99.55V94.58H326.424V99.48C326.424 99.9653 326.554 100.339 326.816 100.6C327.086 100.861 327.441 100.992 327.88 100.992C328.328 100.992 328.687 100.875 328.958 100.642C329.228 100.409 329.424 100.11 329.546 99.746C329.667 99.382 329.728 99.0087 329.728 98.626V94.58H331.058V102H329.728V100.936H329.644C329.588 101.048 329.48 101.202 329.322 101.398C329.163 101.585 328.939 101.757 328.65 101.916C328.36 102.065 327.982 102.14 327.516 102.14ZM333.323 104.744V94.58H334.653V95.756H334.737C334.849 95.5787 334.999 95.3873 335.185 95.182C335.381 94.9767 335.638 94.804 335.955 94.664C336.273 94.5147 336.665 94.44 337.131 94.44C337.691 94.44 338.181 94.552 338.601 94.776C339.021 94.9907 339.371 95.2847 339.651 95.658C339.931 96.022 340.141 96.4327 340.281 96.89C340.421 97.3473 340.491 97.814 340.491 98.29C340.491 98.766 340.421 99.2327 340.281 99.69C340.141 100.147 339.931 100.563 339.651 100.936C339.371 101.3 339.021 101.594 338.601 101.818C338.181 102.033 337.691 102.14 337.131 102.14C336.665 102.14 336.273 102.065 335.955 101.916C335.638 101.767 335.381 101.589 335.185 101.384C334.999 101.179 334.849 100.992 334.737 100.824H334.653V104.744H333.323ZM334.681 98.29C334.681 98.738 334.761 99.172 334.919 99.592C335.087 100.003 335.335 100.343 335.661 100.614C335.997 100.875 336.413 101.006 336.907 101.006C337.411 101.006 337.827 100.875 338.153 100.614C338.489 100.343 338.737 100.003 338.895 99.592C339.063 99.172 339.147 98.738 339.147 98.29C339.147 97.8327 339.063 97.3987 338.895 96.988C338.737 96.5773 338.489 96.2413 338.153 95.98C337.827 95.7093 337.411 95.574 336.907 95.574C336.413 95.574 335.997 95.7093 335.661 95.98C335.335 96.2413 335.087 96.5773 334.919 96.988C334.761 97.3987 334.681 97.8327 334.681 98.29ZM345.922 102.14C345.129 102.14 344.461 101.958 343.92 101.594C343.379 101.221 342.968 100.74 342.688 100.152C342.408 99.564 342.268 98.9433 342.268 98.29C342.268 97.6273 342.408 97.0067 342.688 96.428C342.968 95.84 343.379 95.364 343.92 95C344.461 94.6267 345.129 94.44 345.922 94.44C346.715 94.44 347.383 94.6267 347.924 95C348.465 95.364 348.876 95.84 349.156 96.428C349.436 97.0067 349.576 97.6273 349.576 98.29C349.576 98.9433 349.436 99.564 349.156 100.152C348.876 100.74 348.465 101.221 347.924 101.594C347.383 101.958 346.715 102.14 345.922 102.14ZM345.922 100.978C346.426 100.978 346.846 100.852 347.182 100.6C347.527 100.339 347.784 100.003 347.952 99.592C348.129 99.1813 348.218 98.7473 348.218 98.29C348.218 97.8233 348.129 97.3893 347.952 96.988C347.784 96.5773 347.527 96.246 347.182 95.994C346.846 95.7327 346.426 95.602 345.922 95.602C345.427 95.602 345.007 95.7327 344.662 95.994C344.317 96.246 344.055 96.5773 343.878 96.988C343.71 97.3893 343.626 97.8233 343.626 98.29C343.626 98.7473 343.71 99.1813 343.878 99.592C344.055 100.003 344.317 100.339 344.662 100.6C345.007 100.852 345.427 100.978 345.922 100.978ZM351.55 102V94.58H352.88V95.658H352.964C353.03 95.546 353.137 95.392 353.286 95.196C353.445 95 353.669 94.8273 353.958 94.678C354.248 94.5193 354.612 94.44 355.05 94.44C355.592 94.44 356.054 94.566 356.436 94.818C356.819 95.0607 357.108 95.392 357.304 95.812C357.51 96.232 357.612 96.7033 357.612 97.226V102H356.282V97.31C356.282 96.8153 356.142 96.4047 355.862 96.078C355.592 95.7513 355.195 95.588 354.672 95.588C354.252 95.588 353.912 95.6953 353.65 95.91C353.389 96.1153 353.193 96.3907 353.062 96.736C352.941 97.072 352.88 97.4313 352.88 97.814V102H351.55ZM363.122 102V94.58H364.452V95.658H364.536C364.602 95.546 364.709 95.392 364.858 95.196C365.017 95 365.241 94.8273 365.53 94.678C365.82 94.5193 366.184 94.44 366.622 94.44C367.164 94.44 367.626 94.566 368.008 94.818C368.391 95.0607 368.68 95.392 368.876 95.812C369.082 96.232 369.184 96.7033 369.184 97.226V102H367.854V97.31C367.854 96.8153 367.714 96.4047 367.434 96.078C367.164 95.7513 366.767 95.588 366.244 95.588C365.824 95.588 365.484 95.6953 365.222 95.91C364.961 96.1153 364.765 96.3907 364.634 96.736C364.513 97.072 364.452 97.4313 364.452 97.814V102H363.122ZM374.402 93.46L372.96 90.926H374.332L375.536 93.446L374.402 93.46ZM374.598 94.44C375.064 94.44 375.456 94.5147 375.774 94.664C376.091 94.8133 376.348 94.9907 376.544 95.196C376.74 95.392 376.889 95.5787 376.992 95.756H377.076V94.58H378.406V102H377.076V100.824H376.992C376.889 101.001 376.74 101.193 376.544 101.398C376.348 101.603 376.091 101.781 375.774 101.93C375.456 102.07 375.064 102.14 374.598 102.14C374.038 102.14 373.548 102.033 373.128 101.818C372.708 101.594 372.358 101.3 372.078 100.936C371.798 100.563 371.588 100.147 371.448 99.69C371.308 99.2327 371.238 98.766 371.238 98.29C371.238 97.814 371.308 97.3473 371.448 96.89C371.588 96.4327 371.798 96.022 372.078 95.658C372.358 95.2847 372.708 94.9907 373.128 94.776C373.548 94.552 374.038 94.44 374.598 94.44ZM374.822 95.574C374.327 95.574 373.912 95.7093 373.576 95.98C373.24 96.2413 372.988 96.5773 372.82 96.988C372.661 97.3987 372.582 97.8327 372.582 98.29C372.582 98.738 372.661 99.172 372.82 99.592C372.988 100.003 373.24 100.343 373.576 100.614C373.912 100.875 374.327 101.006 374.822 101.006C375.316 101.006 375.727 100.875 376.054 100.614C376.39 100.343 376.637 100.003 376.796 99.592C376.964 99.172 377.048 98.738 377.048 98.29C377.048 97.8327 376.964 97.3987 376.796 96.988C376.637 96.5773 376.39 96.2413 376.054 95.98C375.727 95.7093 375.316 95.574 374.822 95.574ZM384.128 102.14C383.335 102.14 382.668 101.958 382.126 101.594C381.585 101.221 381.174 100.74 380.894 100.152C380.614 99.564 380.474 98.9433 380.474 98.29C380.474 97.6273 380.614 97.0067 380.894 96.428C381.174 95.84 381.585 95.364 382.126 95C382.668 94.6267 383.335 94.44 384.128 94.44C384.922 94.44 385.589 94.6267 386.13 95C386.672 95.364 387.082 95.84 387.362 96.428C387.642 97.0067 387.782 97.6273 387.782 98.29C387.782 98.9433 387.642 99.564 387.362 100.152C387.082 100.74 386.672 101.221 386.13 101.594C385.589 101.958 384.922 102.14 384.128 102.14ZM384.128 100.978C384.632 100.978 385.052 100.852 385.388 100.6C385.734 100.339 385.99 100.003 386.158 99.592C386.336 99.1813 386.424 98.7473 386.424 98.29C386.424 97.8233 386.336 97.3893 386.158 96.988C385.99 96.5773 385.734 96.246 385.388 95.994C385.052 95.7327 384.632 95.602 384.128 95.602C383.634 95.602 383.214 95.7327 382.868 95.994C382.523 96.246 382.262 96.5773 382.084 96.988C381.916 97.3893 381.832 97.8233 381.832 98.29C381.832 98.7473 381.916 99.1813 382.084 99.592C382.262 100.003 382.523 100.339 382.868 100.6C383.214 100.852 383.634 100.978 384.128 100.978ZM390.121 99.312L390.065 91.64H391.395L391.311 99.312H390.121ZM390.737 102.126C390.485 102.126 390.275 102.042 390.107 101.874C389.948 101.706 389.869 101.505 389.869 101.272C389.869 101.029 389.948 100.824 390.107 100.656C390.275 100.488 390.485 100.404 390.737 100.404C390.979 100.404 391.185 100.488 391.353 100.656C391.521 100.824 391.605 101.029 391.605 101.272C391.605 101.505 391.521 101.706 391.353 101.874C391.185 102.042 390.979 102.126 390.737 102.126Z" fill="#898A8A"/>
<defs>
<linearGradient id="paint0_linear_10635_25882" x1="304" y1="62.5455" x2="304" y2="80" gradientUnits="userSpaceOnUse">
<stop stop-color="#E1E2E2"/>
<stop offset="1" stop-color="#E1E2E2" stop-opacity="0"/>
</linearGradient>
<clipPath id="clip0_10635_25882">
<rect width="210" height="64" fill="white" transform="translate(199 16)"/>
</clipPath>
<clipPath id="clip1_10635_25882">
<rect width="58.4" height="58.1818" fill="white" transform="translate(274.8 16)"/>
</clipPath>
</defs>
</svg>
