<svg width="24" height="24" viewBox="0 0 24 24" fill="none" xmlns="http://www.w3.org/2000/svg">
<path d="M16.5573 10.4533V6.24226C16.5573 5.38742 15.8632 4.69484 15.0099 4.69484H1.96197C1.10713 4.69484 0.414551 5.38742 0.414551 6.24226V10.4533C0.414551 11.3082 1.10713 12.0008 1.96197 12.0008H15.0084C15.8632 12.0008 16.5573 11.3082 16.5573 10.4533ZM4.80441 9.61052C5.13793 9.61052 5.39784 9.55493 5.61117 9.4708L5.77793 10.5104C5.52704 10.6216 5.0553 10.7147 4.51596 10.7147C3.04967 10.7147 2.1122 9.82385 2.1122 8.39512C2.1122 7.06855 3.02112 5.98235 4.70976 5.98235C5.08084 5.98235 5.48948 6.04695 5.78695 6.15963L5.5646 7.20676C5.39784 7.13165 5.14694 7.06705 4.77587 7.06705C4.03371 7.06705 3.55145 7.59587 3.56047 8.33803C3.56047 9.17334 4.11784 9.61052 4.80441 9.61052ZM7.76554 10.7147C7.17211 10.7147 6.64328 10.5855 6.29925 10.3993L6.55014 9.38817C6.81004 9.54442 7.34788 9.73221 7.76554 9.73221C8.1922 9.73221 8.36948 9.58348 8.36948 9.35061C8.36948 9.11925 8.22976 9.00808 7.70094 8.8323C6.76497 8.51681 6.40291 8.00601 6.41192 7.46667C6.41192 6.62235 7.13455 5.98235 8.25831 5.98235C8.78864 5.98235 9.26037 6.10404 9.53981 6.24226L9.28892 7.21728C9.0831 7.1046 8.69399 6.95737 8.30488 6.95737C7.96084 6.95737 7.76704 7.09709 7.76704 7.32845C7.76704 7.54179 7.94432 7.65296 8.50019 7.84827C9.36403 8.14423 9.7246 8.58141 9.73361 9.24846C9.73361 10.0928 9.06507 10.7147 7.76554 10.7147ZM13.1695 10.6216H11.7588L10.1062 6.08301H11.6371L12.25 8.1893C12.3612 8.56939 12.4453 8.93296 12.5099 9.29352H12.5385C12.6136 8.92245 12.6872 8.57841 12.7894 8.1893L13.3738 6.08301H14.8581L13.1695 10.6216Z" fill="#686B70"/>
<path d="M22.941 0H6.09666C5.7421 0 5.45215 0.288451 5.45215 0.644507V3.72432H7.38717V1.61502H21.5543V16.7722L17.7113 16.7692C17.5205 16.7692 17.3402 16.8458 17.205 16.981C17.0713 17.1132 16.9962 17.295 16.9962 17.4858L17.0097 22.2948H7.38717V12.9427H5.45215V23.357C5.45215 23.7115 5.7406 24 6.09666 24H18.6593C18.8441 24 19.0168 23.9204 19.14 23.7852L23.4217 18.9912C23.5269 18.874 23.584 18.7208 23.584 18.563V0.644507C23.5855 0.288451 23.2955 0 22.941 0Z" fill="#686B70"/>
</svg>
