<svg width="24" height="24" viewBox="0 0 24 24" fill="none" xmlns="http://www.w3.org/2000/svg">
<path d="M21.6657 4.66745H12.9995V2.66754C12.9995 2.46888 12.9115 2.28089 12.7581 2.15422C12.6061 2.02756 12.4022 1.9729 12.2102 2.0129L1.54398 4.01281C1.22799 4.07147 1 4.34613 1 4.66745V19.3335C1 19.6534 1.22799 19.9294 1.54398 19.9881L12.2102 21.988C12.2502 21.996 12.2915 22 12.3328 22C12.4875 22 12.6381 21.9467 12.7581 21.8467C12.9115 21.72 12.9995 21.5307 12.9995 21.3334V19.3335H21.6657C22.0337 19.3335 22.3324 19.0348 22.3324 18.6668V5.33408C22.3324 4.9661 22.0337 4.66745 21.6657 4.66745ZM10.1676 14.2283C10.4102 14.5043 10.3822 14.9257 10.1049 15.1683C9.97826 15.279 9.82227 15.3336 9.66628 15.3336C9.48095 15.3336 9.29696 15.2563 9.16497 15.1056L7.22639 12.8911L5.52646 15.0776C5.39447 15.2456 5.19714 15.3336 4.99982 15.3336C4.85716 15.3336 4.71317 15.2883 4.59051 15.1936C4.29985 14.967 4.24785 14.5483 4.47318 14.2577L6.33176 11.8685L4.49851 9.77255C4.25585 9.49656 4.28385 9.07525 4.56117 8.83259C4.83716 8.58994 5.25714 8.6166 5.50246 8.89526L7.16639 10.7965L9.14097 8.25795C9.36762 7.96863 9.78627 7.9153 10.0769 8.14196C10.3676 8.36728 10.4196 8.78593 10.1929 9.07791L8.05968 11.8191L10.1676 14.2283ZM20.9991 18.0002H12.9995V16.6669H14.9994C15.3674 16.6669 15.666 16.3683 15.666 16.0003C15.666 15.6323 15.3674 15.3336 14.9994 15.3336H12.9995V14.0004H14.9994C15.3674 14.0004 15.666 13.7017 15.666 13.3337C15.666 12.9657 15.3674 12.6671 14.9994 12.6671H12.9995V11.3338H14.9994C15.3674 11.3338 15.666 11.0352 15.666 10.6672C15.666 10.2992 15.3674 10.0005 14.9994 10.0005H12.9995V8.66727H14.9994C15.3674 8.66727 15.666 8.36861 15.666 8.00063C15.666 7.63265 15.3674 7.33399 14.9994 7.33399H12.9995V6.00072H20.9991V18.0002Z" fill="#37393E"/>
<path d="M18.9992 7.33399H17.6659C17.2979 7.33399 16.9993 7.63265 16.9993 8.00063C16.9993 8.36861 17.2979 8.66727 17.6659 8.66727H18.9992C19.3672 8.66727 19.6658 8.36861 19.6658 8.00063C19.6658 7.63265 19.3672 7.33399 18.9992 7.33399Z" fill="#37393E"/>
<path d="M18.9992 10.0005H17.6659C17.2979 10.0005 16.9993 10.2992 16.9993 10.6672C16.9993 11.0352 17.2979 11.3338 17.6659 11.3338H18.9992C19.3672 11.3338 19.6658 11.0352 19.6658 10.6672C19.6658 10.2992 19.3672 10.0005 18.9992 10.0005Z" fill="#37393E"/>
<path d="M18.9992 12.6671H17.6659C17.2979 12.6671 16.9993 12.9657 16.9993 13.3337C16.9993 13.7017 17.2979 14.0004 17.6659 14.0004H18.9992C19.3672 14.0004 19.6658 13.7017 19.6658 13.3337C19.6658 12.9657 19.3672 12.6671 18.9992 12.6671Z" fill="#37393E"/>
<path d="M18.9992 15.3336H17.6659C17.2979 15.3336 16.9993 15.6323 16.9993 16.0003C16.9993 16.3683 17.2979 16.6669 17.6659 16.6669H18.9992C19.3672 16.6669 19.6658 16.3683 19.6658 16.0003C19.6658 15.6323 19.3672 15.3336 18.9992 15.3336Z" fill="#37393E"/>
</svg>
