<svg width="32" height="32" viewBox="0 0 32 32" fill="none" xmlns="http://www.w3.org/2000/svg">
<circle cx="16" cy="16" r="16" fill="white"/>
<path d="M9.3335 11.8333H22.6668" stroke="#37393E" stroke-width="1.5" stroke-linecap="round" stroke-linejoin="round"/>
<path d="M14.3335 15.1667V20.1667" stroke="#37393E" stroke-width="1.5" stroke-linecap="round" stroke-linejoin="round"/>
<path d="M17.6665 15.1667V20.1667" stroke="#37393E" stroke-width="1.5" stroke-linecap="round" stroke-linejoin="round"/>
<path d="M10.1665 11.8333L10.9998 21.8333C10.9998 22.2754 11.1754 22.6993 11.488 23.0119C11.8006 23.3244 12.2245 23.5 12.6665 23.5H19.3332C19.7752 23.5 20.1991 23.3244 20.5117 23.0119C20.8242 22.6993 20.9998 22.2754 20.9998 21.8333L21.8332 11.8333" stroke="#37393E" stroke-width="1.5" stroke-linecap="round" stroke-linejoin="round"/>
<path d="M13.5 11.8333V9.33333C13.5 9.11232 13.5878 8.90036 13.7441 8.74408C13.9004 8.5878 14.1123 8.5 14.3333 8.5H17.6667C17.8877 8.5 18.0996 8.5878 18.2559 8.74408C18.4122 8.90036 18.5 9.11232 18.5 9.33333V11.8333" stroke="#37393E" stroke-width="1.5" stroke-linecap="round" stroke-linejoin="round"/>
</svg>
