<svg width="60" height="60" viewBox="0 0 60 60" fill="none" xmlns="http://www.w3.org/2000/svg">
<rect width="60" height="60" rx="4" fill="#F4F5F6"/>
<path d="M33 26H33.01" stroke="#C4CDD5" stroke-width="1.5" stroke-linecap="round" stroke-linejoin="round"/>
<path d="M35 22H25C23.3431 22 22 23.3431 22 25V35C22 36.6569 23.3431 38 25 38H35C36.6569 38 38 36.6569 38 35V25C38 23.3431 36.6569 22 35 22Z" stroke="#C4CDD5" stroke-width="1.5" stroke-linecap="round" stroke-linejoin="round"/>
<path d="M22 33L26 29C26.4561 28.5612 26.9734 28.3301 27.5 28.3301C28.0266 28.3301 28.5439 28.5612 29 29L34 34" stroke="#C4CDD5" stroke-width="1.5" stroke-linecap="round" stroke-linejoin="round"/>
<path d="M32 32L33 31C33.4561 30.5612 33.9734 30.3301 34.5 30.3301C35.0266 30.3301 35.5439 30.5612 36 31L38 33" stroke="#C4CDD5" stroke-width="1.5" stroke-linecap="round" stroke-linejoin="round"/>
</svg>
