<svg width="24" height="24" viewBox="0 0 24 24" fill="none" xmlns="http://www.w3.org/2000/svg">
<path d="M9 10.5L4 15.5V18L7 20H17.5L20 18V15L17.5 12.5H16L14 14L10.5 10.5H9Z" fill="#C6CDFC"/>
<path d="M15 8H15.01" stroke="#0554F2" stroke-width="2" stroke-linecap="round" stroke-linejoin="round"/>
<path d="M17 4H7C5.34315 4 4 5.34315 4 7V17C4 18.6569 5.34315 20 7 20H17C18.6569 20 20 18.6569 20 17V7C20 5.34315 18.6569 4 17 4Z" stroke="#0554F2" stroke-width="2" stroke-linecap="round" stroke-linejoin="round"/>
<path d="M4 15L8 11C8.45606 10.5612 8.97339 10.3301 9.5 10.3301C10.0266 10.3301 10.5439 10.5612 11 11L16 16" stroke="#0554F2" stroke-width="2" stroke-linecap="round" stroke-linejoin="round"/>
<path d="M14 14L15 13C15.4561 12.5612 15.9734 12.3301 16.5 12.3301C17.0266 12.3301 17.5439 12.5612 18 13L20 15" stroke="#0554F2" stroke-width="2" stroke-linecap="round" stroke-linejoin="round"/>
</svg>
