<svg width="40" height="40" viewBox="0 0 40 40" fill="none" xmlns="http://www.w3.org/2000/svg">
<path d="M26.6667 11.1111H26.6889" stroke="#DFE3E8" stroke-width="4" stroke-linecap="round" stroke-linejoin="round"/>
<path d="M31.1111 2.22222H8.8889C5.207 2.22222 2.22223 5.20699 2.22223 8.88889V31.1111C2.22223 34.793 5.207 37.7778 8.8889 37.7778H31.1111C34.793 37.7778 37.7778 34.793 37.7778 31.1111V8.88889C37.7778 5.20699 34.793 2.22222 31.1111 2.22222Z" stroke="#DFE3E8" stroke-width="4" stroke-linecap="round" stroke-linejoin="round"/>
<path d="M2.22223 26.6666L11.1111 17.7777C12.1246 16.8025 13.2742 16.2891 14.4445 16.2891C15.6147 16.2891 16.7643 16.8025 17.7778 17.7777L28.8889 28.8888" stroke="#DFE3E8" stroke-width="4" stroke-linecap="round" stroke-linejoin="round"/>
<path d="M24.4445 24.4444L26.6667 22.2222C27.6801 21.247 28.8298 20.7336 30 20.7336C31.1703 20.7336 32.3199 21.247 33.3333 22.2222L37.7778 26.6666" stroke="#DFE3E8" stroke-width="4" stroke-linecap="round" stroke-linejoin="round"/>
</svg>
