<svg width="16" height="16" viewBox="0 0 16 16" fill="none" xmlns="http://www.w3.org/2000/svg">
<path d="M6 3.33334H4.66667C4.29848 3.33334 4 3.63182 4 4.00001V12C4 12.3682 4.29848 12.6667 4.66667 12.6667H6C6.36819 12.6667 6.66667 12.3682 6.66667 12V4.00001C6.66667 3.63182 6.36819 3.33334 6 3.33334Z" fill="#002CA6"/>
<path d="M11.3333 3.33334H9.99992C9.63173 3.33334 9.33325 3.63182 9.33325 4.00001V12C9.33325 12.3682 9.63173 12.6667 9.99992 12.6667H11.3333C11.7014 12.6667 11.9999 12.3682 11.9999 12V4.00001C11.9999 3.63182 11.7014 3.33334 11.3333 3.33334Z" fill="#002CA6"/>
</svg>
