<svg width="16" height="16" viewBox="0 0 16 16" fill="none" xmlns="http://www.w3.org/2000/svg">
<path d="M6 3.33334H4.66667C4.29848 3.33334 4 3.63182 4 4.00001V12C4 12.3682 4.29848 12.6667 4.66667 12.6667H6C6.36819 12.6667 6.66667 12.3682 6.66667 12V4.00001C6.66667 3.63182 6.36819 3.33334 6 3.33334Z" fill="#B0B3B9"/>
<path d="M11.3335 3.33334H10.0002C9.63197 3.33334 9.3335 3.63182 9.3335 4.00001V12C9.3335 12.3682 9.63197 12.6667 10.0002 12.6667H11.3335C11.7017 12.6667 12.0002 12.3682 12.0002 12V4.00001C12.0002 3.63182 11.7017 3.33334 11.3335 3.33334Z" fill="#B0B3B9"/>
</svg>
