<svg width="112" height="112" viewBox="0 0 112 112" fill="none" xmlns="http://www.w3.org/2000/svg">
<path d="M74.1671 52.7044C73.628 52.0426 73.1189 51.4171 72.9293 50.8325C72.7253 50.2042 72.7674 49.3709 72.8121 48.4885C72.8811 47.1248 72.9523 45.7147 72.1432 44.6031C71.3264 43.4801 69.8937 43.0962 68.6298 42.7574C67.7834 42.5304 66.9835 42.316 66.4605 41.9351C65.9483 41.5625 65.5039 40.8748 65.033 40.1467C64.3173 39.0404 63.5065 37.7863 62.1675 37.3514C60.8811 36.9336 59.5751 37.4332 58.3125 37.9154C57.474 38.2355 56.6823 38.5378 56 38.5378C55.3175 38.5378 54.5256 38.2355 53.6875 37.9152C52.4238 37.4325 51.1165 36.9338 49.8327 37.3514C48.4937 37.7863 47.6827 39.0402 46.9674 40.1465C46.4965 40.8746 46.0519 41.5623 45.5397 41.9349C45.0165 42.3158 44.2168 42.5302 43.3702 42.7572C42.1063 43.0959 40.674 43.4798 39.8568 44.6029C39.0477 45.7147 39.1191 47.1246 39.1879 48.4883C39.2326 49.3707 39.2747 50.2042 39.0707 50.8325C38.8811 51.4173 38.372 52.0426 37.8329 52.7047C36.9954 53.7337 36.046 54.9 36.046 56.3334C36.046 57.7665 36.9954 58.9332 37.8331 59.9623C38.372 60.6242 38.8811 61.2496 39.0707 61.8338C39.2747 62.4623 39.2326 63.296 39.1879 64.1784C39.1189 65.5421 39.0475 66.9523 39.8566 68.0638C40.6738 69.1867 42.1061 69.5708 43.3698 69.9093C44.2166 70.1363 45.0163 70.3512 45.5395 70.7318C46.0516 71.1046 46.4963 71.7921 46.9672 72.5204C47.6825 73.6268 48.4935 74.8807 49.8329 75.3156C50.1706 75.4254 50.51 75.4714 50.8496 75.4714C51.8016 75.4714 52.7561 75.1072 53.6871 74.7513C54.5256 74.4314 55.3173 74.1289 56 74.1289C56.6827 74.1289 57.4744 74.4314 58.3125 74.7513C59.576 75.234 60.8819 75.7327 62.1675 75.3156C63.5065 74.8807 64.3177 73.6263 65.033 72.52C65.5035 71.7917 65.9483 71.1042 66.4601 70.7318C66.9835 70.3512 67.783 70.1363 68.6298 69.9093C69.8937 69.5708 71.326 69.1867 72.1432 68.0638C72.9523 66.9523 72.8811 65.5417 72.8121 64.178C72.7674 63.2956 72.7253 62.4623 72.9293 61.8342C73.1189 61.2496 73.628 60.6242 74.1667 59.9623C75.0043 58.9332 75.954 57.7669 75.954 56.3334C75.954 54.9 75.0048 53.7335 74.1671 52.7044ZM72.7882 58.8399C72.1701 59.5994 71.5308 60.3846 71.2383 61.2852C70.9332 62.2248 70.9857 63.2635 71.0365 64.2678C71.0924 65.3715 71.145 66.4141 70.7057 67.0178C70.2582 67.6324 69.2439 67.9045 68.1693 68.1923C67.2031 68.4514 66.204 68.7192 65.4141 69.2943C64.635 69.8616 64.0781 70.7222 63.5399 71.5547C62.9314 72.4957 62.3568 73.385 61.6185 73.6246C60.9297 73.8472 59.9666 73.4805 58.9466 73.0907C57.9948 72.727 57.0104 72.3512 56 72.3512C54.9894 72.3512 54.005 72.727 53.0529 73.0907C52.0332 73.4805 51.0707 73.8481 50.3817 73.6246C49.6434 73.385 49.0686 72.4961 48.4601 71.5547C47.9217 70.7222 47.365 69.8616 46.5855 69.2943C45.7956 68.7192 44.7964 68.4514 43.8303 68.1923C42.7561 67.9045 41.7413 67.6324 41.2941 67.0178C40.8548 66.4141 40.9076 65.372 40.9635 64.2682C41.0143 63.2639 41.0668 62.2253 40.7617 61.2852C40.4694 60.3846 39.8301 59.5994 39.2118 58.8399C38.498 57.9631 37.8238 57.1346 37.8238 56.3334C37.8238 55.5321 38.498 54.7038 39.2118 53.8271C39.8301 53.0675 40.4694 52.2819 40.7617 51.3815C41.0668 50.4416 41.0143 49.4028 40.9635 48.3985C40.9078 47.2949 40.855 46.2524 41.2943 45.6489C41.7415 45.0343 42.7563 44.7622 43.8305 44.4742C44.7967 44.2153 45.7958 43.9473 46.5857 43.3724C47.3652 42.8054 47.9219 41.9445 48.4603 41.1118C49.0688 40.1708 49.6434 39.2819 50.3817 39.0423C50.5265 38.9952 50.6834 38.9744 50.8505 38.9744C51.4779 38.9744 52.2478 39.2685 53.0532 39.576C54.0052 39.9397 54.9896 40.3156 56 40.3156C57.0104 40.3156 57.9948 39.9397 58.9466 39.576C59.9661 39.1864 60.9297 38.8179 61.6185 39.0423C62.3568 39.2821 62.9314 40.171 63.5399 41.112C64.0786 41.9445 64.635 42.8054 65.4145 43.3726C66.2044 43.9475 67.2036 44.2155 68.1697 44.4744C69.2439 44.7624 70.2587 45.0345 70.7057 45.6493C71.145 46.2528 71.0924 47.2952 71.0365 48.3989C70.9857 49.403 70.9332 50.4416 71.2383 51.3815C71.5308 52.2819 72.1701 53.0673 72.7882 53.8268C73.5022 54.7038 74.1762 55.5319 74.1762 56.3334C74.1762 57.1346 73.5017 57.9631 72.7882 58.8399Z" fill="#313232"/>
<path d="M63.7713 47.3049L46.9716 64.1046C46.6243 64.4518 46.6243 65.0143 46.9716 65.3616C47.145 65.5352 47.3726 65.622 47.6 65.622C47.8275 65.622 48.0551 65.5352 48.2285 65.3616L65.0282 48.5619C65.3754 48.2149 65.3754 47.6519 65.0282 47.3049C64.681 46.9577 64.1185 46.9577 63.7713 47.3049Z" fill="#313232"/>
<path d="M50.6283 54.8787C52.7882 54.8787 54.5454 53.1216 54.5454 50.9616C54.5454 48.8017 52.7882 47.0445 50.6283 47.0445C48.4683 47.0445 46.7112 48.8017 46.7112 50.9616C46.7112 53.1216 48.4683 54.8787 50.6283 54.8787ZM50.6283 48.8223C51.8079 48.8223 52.7676 49.7819 52.7676 50.9616C52.7676 52.1413 51.8079 53.1009 50.6283 53.1009C49.4486 53.1009 48.4889 52.1413 48.4889 50.9616C48.4889 49.7819 49.4486 48.8223 50.6283 48.8223Z" fill="#313232"/>
<path d="M61.3715 57.7878C59.2118 57.7878 57.4544 59.5452 57.4544 61.7049C57.4544 63.8646 59.2118 65.622 61.3715 65.622C63.5312 65.622 65.2886 63.8646 65.2886 61.7049C65.2886 59.5452 63.5312 57.7878 61.3715 57.7878ZM61.3715 63.8442C60.1918 63.8442 59.2322 62.8846 59.2322 61.7049C59.2322 60.5252 60.1918 59.5656 61.3715 59.5656C62.5512 59.5656 63.5108 60.5252 63.5108 61.7049C63.5108 62.8846 62.5512 63.8442 61.3715 63.8442Z" fill="#313232"/>
</svg>
