<svg xmlns="http://www.w3.org/2000/svg" width="40" height="40" viewBox="0 0 40 40" fill="none">
<path d="M38.1671 16.7044C37.628 16.0426 37.1189 15.4171 36.9293 14.8325C36.7253 14.2042 36.7674 13.3709 36.8121 12.4885C36.8811 11.1248 36.9523 9.71465 36.1432 8.60311C35.3264 7.48006 33.8937 7.09616 32.6298 6.7574C31.7834 6.53041 30.9835 6.316 30.4605 5.93514C29.9483 5.56252 29.5039 4.87481 29.033 4.14672C28.3173 3.04039 27.5065 1.78626 26.1675 1.35137C24.8811 0.933617 23.5751 1.43318 22.3125 1.91539C21.474 2.23548 20.6823 2.53778 20 2.53778C19.3175 2.53778 18.5256 2.23548 17.6875 1.91517C16.4238 1.43253 15.1165 0.933834 13.8327 1.35137C12.4937 1.78626 11.6827 3.04017 10.9674 4.14651C10.4965 4.87459 10.0519 5.56231 9.53971 5.93492C9.01649 6.31578 8.21679 6.53019 7.37022 6.75718C6.10634 7.09594 4.67404 7.47984 3.85677 8.60289C3.04774 9.71465 3.11914 11.1246 3.18793 12.4883C3.23264 13.3707 3.27474 14.2042 3.07074 14.8325C2.88107 15.4173 2.37196 16.0426 1.8329 16.7047C0.995441 17.7337 0.0460052 18.9 0.0460052 20.3334C0.0460052 21.7665 0.995441 22.9332 1.83311 23.9623C2.37196 24.6242 2.88107 25.2496 3.07074 25.8338C3.27474 26.4623 3.23264 27.296 3.18793 28.1784C3.11892 29.5421 3.04752 30.9523 3.85655 32.0638C4.67383 33.1867 6.10612 33.5708 7.36979 33.9093C8.21658 34.1363 9.01627 34.3512 9.53949 34.7318C10.0516 35.1046 10.4963 35.7921 10.9672 36.5204C11.6825 37.6268 12.4935 38.8807 13.8329 39.3156C14.1706 39.4254 14.51 39.4714 14.8496 39.4714C15.8016 39.4714 16.7561 39.1072 17.6871 38.7513C18.5256 38.4314 19.3173 38.1289 20 38.1289C20.6827 38.1289 21.4744 38.4314 22.3125 38.7513C23.576 39.234 24.8819 39.7327 26.1675 39.3156C27.5065 38.8807 28.3177 37.6263 29.033 36.52C29.5035 35.7917 29.9483 35.1042 30.4601 34.7318C30.9835 34.3512 31.783 34.1363 32.6298 33.9093C33.8937 33.5708 35.326 33.1867 36.1432 32.0638C36.9523 30.9523 36.8811 29.5417 36.8121 28.178C36.7674 27.2956 36.7253 26.4623 36.9293 25.8342C37.1189 25.2496 37.628 24.6242 38.1667 23.9623C39.0043 22.9332 39.954 21.7669 39.954 20.3334C39.954 18.9 39.0048 17.7335 38.1671 16.7044ZM36.7882 22.8399C36.1701 23.5994 35.5308 24.3846 35.2383 25.2852C34.9332 26.2248 34.9857 27.2635 35.0365 28.2678C35.0924 29.3715 35.145 30.4141 34.7057 31.0178C34.2582 31.6324 33.2439 31.9045 32.1693 32.1923C31.2031 32.4514 30.204 32.7192 29.4141 33.2943C28.635 33.8616 28.0781 34.7222 27.5399 35.5547C26.9314 36.4957 26.3568 37.385 25.6185 37.6246C24.9297 37.8472 23.9666 37.4805 22.9466 37.0907C21.9948 36.727 21.0104 36.3512 20 36.3512C18.9894 36.3512 18.005 36.727 17.0529 37.0907C16.0332 37.4805 15.0707 37.8481 14.3817 37.6246C13.6434 37.385 13.0686 36.4961 12.4601 35.5547C11.9217 34.7222 11.365 33.8616 10.5855 33.2943C9.79557 32.7192 8.79644 32.4514 7.83029 32.1923C6.75607 31.9045 5.74132 31.6324 5.29405 31.0178C4.85482 30.4141 4.90755 29.372 4.96354 28.2682C5.01432 27.2639 5.06684 26.2253 4.76172 25.2852C4.4694 24.3846 3.83008 23.5994 3.2118 22.8399C2.49805 21.9631 1.82378 21.1346 1.82378 20.3334C1.82378 19.5321 2.49805 18.7038 3.2118 17.8271C3.83008 17.0675 4.4694 16.2819 4.76172 15.3815C5.06684 14.4416 5.01432 13.4028 4.96354 12.3985C4.90777 11.2949 4.85503 10.2524 5.29427 9.64889C5.74153 9.03431 6.75629 8.76218 7.83051 8.4742C8.79666 8.2153 9.79579 7.94729 10.5857 7.37242C11.3652 6.80536 11.9219 5.94447 12.4603 5.11179C13.0688 4.17081 13.6434 3.28192 14.3817 3.04234C14.5265 2.99525 14.6834 2.97442 14.8505 2.97442C15.4779 2.97442 16.2478 3.26847 17.0532 3.57598C18.0052 3.93969 18.9896 4.31556 20 4.31556C21.0104 4.31556 21.9948 3.93969 22.9466 3.57598C23.9661 3.18644 24.9297 2.81795 25.6185 3.04234C26.3568 3.28214 26.9314 4.17103 27.5399 5.112C28.0786 5.94447 28.635 6.80536 29.4145 7.37264C30.2044 7.94751 31.2036 8.21552 32.1697 8.47442C33.2439 8.76239 34.2587 9.03453 34.7057 9.64933C35.145 10.2528 35.0924 11.2952 35.0365 12.3989C34.9857 13.403 34.9332 14.4416 35.2383 15.3815C35.5308 16.2819 36.1701 17.0673 36.7882 17.8268C37.5022 18.7038 38.1762 19.5319 38.1762 20.3334C38.1762 21.1346 37.5017 21.9631 36.7882 22.8399Z" fill="#313232"/>
<path d="M27.7713 11.3049L10.9716 28.1046C10.6243 28.4518 10.6243 29.0143 10.9716 29.3616C11.145 29.5352 11.3726 29.622 11.6 29.622C11.8275 29.622 12.0551 29.5352 12.2285 29.3616L29.0282 12.5619C29.3754 12.2149 29.3754 11.6519 29.0282 11.3049C28.681 10.9577 28.1185 10.9577 27.7713 11.3049Z" fill="#313232"/>
<path d="M14.6283 18.8787C16.7882 18.8787 18.5454 17.1215 18.5454 14.9616C18.5454 12.8017 16.7882 11.0445 14.6283 11.0445C12.4683 11.0445 10.7112 12.8017 10.7112 14.9616C10.7112 17.1215 12.4683 18.8787 14.6283 18.8787ZM14.6283 12.8223C15.8079 12.8223 16.7676 13.7819 16.7676 14.9616C16.7676 16.1413 15.8079 17.1009 14.6283 17.1009C13.4486 17.1009 12.4889 16.1413 12.4889 14.9616C12.4889 13.7819 13.4486 12.8223 14.6283 12.8223Z" fill="#313232"/>
<path d="M25.3715 21.7878C23.2118 21.7878 21.4544 23.5452 21.4544 25.7049C21.4544 27.8646 23.2118 29.622 25.3715 29.622C27.5312 29.622 29.2886 27.8646 29.2886 25.7049C29.2886 23.5452 27.5312 21.7878 25.3715 21.7878ZM25.3715 27.8442C24.1918 27.8442 23.2322 26.8846 23.2322 25.7049C23.2322 24.5252 24.1918 23.5656 25.3715 23.5656C26.5512 23.5656 27.5108 24.5252 27.5108 25.7049C27.5108 26.8846 26.5512 27.8442 25.3715 27.8442Z" fill="#313232"/>
</svg>