<svg width="24" height="24" viewBox="0 0 24 24" fill="none" xmlns="http://www.w3.org/2000/svg">
<path fill-rule="evenodd" clip-rule="evenodd" d="M1.99988 16.08V7.91C1.99988 4.38 4.27088 2 7.65988 2H16.3299C19.7199 2 21.9999 4.38 21.9999 7.91V16.08C21.9999 19.62 19.7199 22 16.3299 22H7.65988C4.27088 22 1.99988 19.62 1.99988 16.08ZM12.7499 14.27V7.92C12.7499 7.5 12.4099 7.17 11.9999 7.17C11.5799 7.17 11.2499 7.5 11.2499 7.92V14.27L8.77988 11.79C8.63988 11.65 8.43988 11.57 8.24988 11.57C8.06088 11.57 7.86988 11.65 7.71988 11.79C7.42988 12.08 7.42988 12.56 7.71988 12.85L11.4699 16.62C11.7499 16.9 12.2499 16.9 12.5299 16.62L16.2799 12.85C16.5699 12.56 16.5699 12.08 16.2799 11.79C15.9799 11.5 15.5099 11.5 15.2099 11.79L12.7499 14.27Z" fill="#626363"/>
</svg>
