<svg width="80" height="80" viewBox="0 0 80 80" fill="none" xmlns="http://www.w3.org/2000/svg">
    <g clip-path="url(#clip0_7446_63771)">
        <path d="M63.1192 54.6737V39.977C63.1192 38.817 62.1796 37.8776 61.0197 37.8776C59.8599 37.8776 58.9203 38.8171 58.9203 39.977V54.6737H12.7294V35.7774C12.7411 29.6556 15.1774 23.7871 19.5065 19.4585C23.8351 15.1292 29.7036 12.693 35.8254 12.6813C41.051 12.6506 46.1256 14.4315 50.186 17.7209C51.1021 18.451 52.4371 18.3009 53.1678 17.3848C53.8979 16.4687 53.7478 15.1337 52.8317 14.4038C49.6801 11.9242 46.0259 10.1617 42.1236 9.23821V6.38314C42.1236 4.13283 40.9234 2.05311 38.9741 0.928332C37.0254 -0.19718 34.6243 -0.19718 32.6757 0.928332C30.7264 2.05311 29.5261 4.13283 29.5261 6.38314V9.23821C23.5573 10.6669 18.2425 14.0603 14.4345 18.8734C10.6268 23.6868 8.54705 29.6402 8.53018 35.7774V54.6737C5.53002 54.6737 2.75687 56.2745 1.25716 58.8733C-0.243274 61.4713 -0.243274 64.673 1.25716 67.2718C2.75687 69.8699 5.53002 71.4706 8.53018 71.4706H22.6398C24.2091 74.8339 27.0041 77.4709 30.454 78.8409C33.9037 80.211 37.746 80.211 41.1959 78.8409C44.6458 77.4708 47.4406 74.8339 49.0108 71.4706H63.1197C66.1206 71.4706 68.893 69.8699 70.3927 67.2718C71.8932 64.673 71.8932 61.4715 70.3927 58.8733C68.893 56.2745 66.1201 54.6737 63.1192 54.6737ZM33.7249 6.38314C33.7249 5.22321 34.6651 4.28374 35.825 4.28374C36.9842 4.28374 37.9244 5.22325 37.9244 6.38314V8.56671C37.2105 8.52497 36.539 8.4825 35.825 8.4825C35.1111 8.4825 34.3971 8.52424 33.7256 8.56671L33.7249 6.38314ZM35.825 75.6696C32.5187 75.6762 29.4052 74.1187 27.4265 71.4708H44.2236C42.2449 74.1187 39.1306 75.6764 35.825 75.6696ZM63.1197 67.2718H8.53037C7.02993 67.2718 5.64381 66.4714 4.89395 65.1717C4.1441 63.8726 4.1441 62.2718 4.89395 60.9729C5.64381 59.6739 7.0301 58.8735 8.53037 58.8735H63.1197C64.6201 58.8735 66.0063 59.6738 66.7561 60.9729C67.5067 62.2719 67.5067 63.8727 66.7561 65.1717C66.0063 66.4715 64.62 67.2718 63.1197 67.2718Z" fill="#CFD0D0"/>
        <path d="M54.7213 23.1804C54.7213 22.0212 55.6615 21.081 56.8214 21.081H65.22C66.0709 21.0796 66.8376 21.5914 67.1627 22.3764C67.4885 23.1622 67.3084 24.0665 66.7057 24.6671L61.8896 29.4796H65.2193C66.3792 29.4796 67.3195 30.4199 67.3195 31.579C67.3195 32.7389 66.3792 33.6784 65.2193 33.6784H56.8208C55.9699 33.6799 55.2032 33.1687 54.8781 32.383C54.5522 31.5973 54.7323 30.6929 55.335 30.0924L60.1511 25.2806H56.8214C55.6615 25.2806 54.7213 24.3403 54.7213 23.1804ZM79.9171 14.7826C79.9171 15.3392 79.6959 15.873 79.302 16.267C78.908 16.6609 78.3742 16.8821 77.8176 16.8821H65.2195C64.3693 16.8835 63.6019 16.3717 63.2768 15.5867C62.951 14.8009 63.1311 13.8966 63.7331 13.296L72.7489 4.28467H65.2196C64.0604 4.28467 63.1202 3.34443 63.1202 2.18452C63.1202 1.02532 64.0605 0.0851167 65.2196 0.0851167H77.8177C78.6679 0.083652 79.4353 0.595524 79.7604 1.38053C80.0863 2.16626 79.9061 3.07062 79.3042 3.67114L70.2883 12.6825H77.8176C78.3742 12.6825 78.908 12.9037 79.302 13.2976C79.6959 13.6916 79.9171 14.2253 79.9171 14.7826Z" fill="#898A8A"/>
    </g>
    <defs>
        <clipPath id="clip0_7446_63771">
            <rect width="80" height="80" fill="white"/>
        </clipPath>
    </defs>
</svg>
