<svg width="200" height="88" viewBox="0 0 200 88" fill="none" xmlns="http://www.w3.org/2000/svg">
<path d="M200 88H100H0C0 88 44.7715 64 100 64C155.228 64 200 88 200 88Z" fill="url(#paint0_linear_2410_27425)"/>
<g clip-path="url(#clip0_2410_27425)">
<path d="M93 79V44L129.5 30.5L132 51V64L129.5 67L97 79H93Z" fill="#A9E0DE"/>
<path d="M64.5 64.5V50L66 30L93.5 43.5V79.5L67.5 68L64.5 64.5Z" fill="#6CCCC8"/>
<path d="M93.5 43.5L65.5 30L61 46L62.5 48.5L88 60.5L89.5 59.5L93.5 43.5Z" fill="#DDF2F2"/>
<path d="M131.5 31L130.5 30L93 43.5L100.5 60.5L104 61L137.5 49L139 48V46.5L131.5 31Z" fill="#DDF2F2"/>
<path d="M139.752 46.0711L132.213 30.3177C132.05 29.977 131.774 29.7194 131.451 29.5684C131.442 29.5643 131.436 29.5573 131.428 29.5532L103.022 16.3073C102.806 16.2048 102.571 16.1556 102.337 16.1556C102.221 16.1556 102.105 16.1716 101.994 16.1965C101.984 16.1986 101.975 16.2007 101.966 16.2027C101.922 16.2124 101.88 16.2235 101.839 16.2387C101.822 16.2429 101.803 16.2457 101.788 16.2526L64.8855 29.4963C64.8455 29.5116 64.8083 29.5323 64.7696 29.549C64.7528 29.5559 64.7317 29.5601 64.7142 29.5677C64.7029 29.5725 64.6931 29.5829 64.6797 29.5884C64.6264 29.6161 64.5772 29.6501 64.5281 29.6819C64.1889 29.9042 63.9403 30.2401 63.8476 30.6348L60.2086 46.0725C59.9228 47.2775 60.7662 48.6515 62.2127 49.3329L63.8293 50.0982V63.8342C63.8293 65.4596 64.8061 67.0905 66.1531 67.7193L91.7495 79.6563C92.1301 79.8342 92.5219 79.9243 92.9152 79.9243H95.0382C95.4251 79.9243 95.8191 79.8536 96.2102 79.7117L129.465 67.7775C131.107 67.1875 132.344 65.4928 132.344 63.835V51.5733L137.438 49.7506C138.58 49.3427 139.433 48.6315 139.78 47.8026C140.021 47.225 140.011 46.6094 139.753 46.0713L139.752 46.0711ZM128.723 30.0406L102.337 39.4789V17.7367L128.723 30.0406ZM100.736 40.0518L93.8136 42.529L72.1633 32.432L67.5165 30.2346L100.737 18.3107L100.736 40.0512L100.736 40.0518ZM61.7712 46.4299L65.4075 30.9923L92.4277 43.718C92.3694 43.896 92.2325 44.4438 92.2325 44.4438L88.7593 59.1875C88.6925 59.4666 88.4243 59.6114 88.0619 59.6114C87.8133 59.6114 87.5233 59.5456 87.2256 59.4036L62.9074 47.9091C62.1693 47.5594 61.6609 46.8974 61.7725 46.4299L61.7712 46.4299ZM92.4319 78.2278L66.8391 66.2916C66.12 65.9557 65.5343 64.9882 65.4507 64.0569V63.9786C65.4437 63.9122 65.4339 63.8478 65.4339 63.7771V50.8567L86.5323 60.8305C87.0386 61.068 87.566 61.1961 88.0625 61.1961C89.1812 61.1961 90.0891 60.532 90.3208 59.5472L92.2338 51.4302V77.0816C92.2338 77.4999 92.3153 77.8877 92.4592 78.2381C92.4522 78.2347 92.4431 78.2326 92.4325 78.2284L92.4319 78.2278ZM130.74 63.7762C130.74 63.831 130.735 63.8836 130.731 63.9369V63.9411C130.677 64.9051 129.888 65.9424 128.915 66.2908L95.6619 78.2278C95.4442 78.306 95.2329 78.3427 95.0376 78.3427C94.3382 78.3427 93.8375 77.8621 93.8375 77.081L93.8382 47.9104L99.9266 60.6321C100.335 61.4839 101.248 61.9693 102.434 61.9693C102.992 61.9693 103.589 61.862 104.163 61.6577L130.741 52.1487L130.741 63.7768L130.74 63.7762ZM136.89 48.2673L103.616 60.169C103.202 60.3158 102.791 60.3913 102.433 60.3913C101.917 60.3913 101.511 60.2404 101.376 59.9585L93.9031 44.3436L93.8687 44.2778L130.739 31.0431V31.0001L130.76 30.9932L138.301 46.7487C138.531 47.2259 137.898 47.9059 136.889 48.2674L136.89 48.2673Z" fill="#6CCCC8"/>
<path d="M74.7783 0.0223153C82.3687 0.0223153 88.5316 4.93181 88.5316 10.9902C88.5316 14.6462 86.2683 17.9191 82.8214 19.9038C82.6822 19.9735 82.6125 20.1823 82.6822 20.3215L84.1793 23.5248C84.3184 23.7687 84.0401 24.047 83.7962 23.9776L77.6333 21.7492C77.5986 21.7144 77.5289 21.7144 77.4941 21.7492C76.6237 21.8883 75.7184 21.958 74.7783 21.958C67.1878 21.958 61.0249 17.0485 61.0249 10.9902C61.0247 4.93165 67.1876 0.0222778 74.7783 0.0222778L74.7783 0.0223153ZM81.4634 13.323C82.5778 13.323 83.4829 12.4178 83.4829 11.3036C83.4829 10.1893 82.5777 9.28408 81.4634 9.28408C80.3492 9.28408 79.444 10.1893 79.444 11.3036C79.409 12.4176 80.3144 13.323 81.4634 13.323ZM74.7783 13.323C75.8926 13.323 76.7977 12.4178 76.7977 11.3036C76.7977 10.1893 75.8925 9.28408 74.7783 9.28408C73.6639 9.28408 72.7588 10.1893 72.7588 11.3036C72.7588 12.4176 73.664 13.323 74.7783 13.323ZM68.0931 13.323C69.2074 13.323 70.1126 12.4178 70.1126 11.3036C70.1126 10.1893 69.2073 9.28408 68.0931 9.28408C66.9788 9.28408 66.0736 10.1893 66.0736 11.3036C66.0738 12.4176 66.979 13.323 68.0931 13.323Z" fill="#A9E0DE" stroke="white"/>
</g>
<defs>
<linearGradient id="paint0_linear_2410_27425" x1="100" y1="64" x2="100" y2="88" gradientUnits="userSpaceOnUse">
<stop stop-color="#DDF2F2"/>
<stop offset="1" stop-color="#DDF2F2" stop-opacity="0"/>
</linearGradient>
<clipPath id="clip0_2410_27425">
<rect width="80" height="80" fill="white" transform="translate(60)"/>
</clipPath>
</defs>
</svg>
