<svg width="146" height="64" viewBox="0 0 146 64" fill="none" xmlns="http://www.w3.org/2000/svg">
<path d="M146 64H73H0C0 64 32.6832 46.5455 73 46.5455C113.317 46.5455 146 64 146 64Z" fill="url(#paint0_linear_5310_36097)"/>
<g clip-path="url(#clip0_5310_36097)">
<path d="M67.89 57.4546V32L94.535 22.1818L96.36 37.0909V46.5455L94.535 48.7273L70.81 57.4546H67.89Z" fill="#E1E2E2"/>
<path d="M47.085 46.9091V36.3636L48.18 21.8182L68.255 31.6364V57.8182L49.275 49.4545L47.085 46.9091Z" fill="#CFD0D0"/>
<path d="M68.255 31.6364L47.815 21.8182L44.53 33.4545L45.625 35.2727L64.24 44L65.335 43.2727L68.255 31.6364Z" fill="#EDEEEE"/>
<path d="M95.995 22.5454L95.265 21.8182L67.89 31.6364L73.365 44L75.92 44.3636L100.375 35.6364L101.47 34.9091V33.8182L95.995 22.5454Z" fill="#EDEEEE"/>
<path d="M102.019 33.5063L96.5152 22.0493C96.3962 21.8015 96.1948 21.6141 95.9594 21.5043C95.9528 21.5013 95.9482 21.4963 95.9425 21.4932L75.2059 11.8599C75.048 11.7853 74.8768 11.7496 74.7061 11.7496C74.6215 11.7496 74.5369 11.7612 74.4554 11.7793C74.4483 11.7808 74.4416 11.7823 74.4349 11.7838C74.4031 11.7909 74.3724 11.7989 74.3421 11.81C74.3298 11.813 74.3165 11.815 74.3052 11.8201L47.3664 21.4519C47.3372 21.463 47.31 21.4781 47.2818 21.4902C47.2695 21.4952 47.2542 21.4982 47.2413 21.5038C47.2331 21.5073 47.226 21.5149 47.2162 21.5189C47.1773 21.539 47.1414 21.5637 47.1055 21.5869C46.8579 21.7485 46.6764 21.9928 46.6087 22.2799L43.9523 33.5073C43.7436 34.3836 44.3593 35.3829 45.4153 35.8785L46.5954 36.4351V46.4249C46.5954 47.607 47.3085 48.7931 48.2917 49.2504L66.9771 57.9318C67.255 58.0613 67.541 58.1267 67.8281 58.1267H69.3779C69.6603 58.1267 69.9479 58.0754 70.2334 57.9721L94.5095 49.2928C95.708 48.8636 96.6113 47.6312 96.6113 46.4255V37.5079L100.33 36.1823C101.164 35.8856 101.786 35.3684 102.04 34.7655C102.215 34.3455 102.208 33.8977 102.02 33.5064L102.019 33.5063ZM93.9679 21.8477L74.7064 28.712V12.8994L93.9679 21.8477ZM73.5371 29.1286L68.4839 30.9302L52.6792 23.5869L49.287 21.9888L73.5381 13.3169L73.5376 29.1282L73.5371 29.1286ZM45.093 33.7673L47.7475 22.5399L67.4722 31.7949C67.4297 31.9244 67.3297 32.3228 67.3297 32.3228L64.7943 43.0455C64.7456 43.2485 64.5497 43.3537 64.2852 43.3537C64.1037 43.3537 63.892 43.3059 63.6747 43.2026L45.9224 34.843C45.3836 34.5887 45.0124 34.1072 45.0939 33.7672L45.093 33.7673ZM67.4753 56.893L48.7925 48.2121C48.2676 47.9678 47.84 47.2642 47.779 46.5868V46.5299C47.7739 46.4816 47.7667 46.4347 47.7667 46.3834V36.9867L63.1686 44.2403C63.5382 44.4131 63.9232 44.5063 64.2856 44.5063C65.1022 44.5063 65.765 44.0233 65.9342 43.3071L67.3307 37.4038V56.0594C67.3307 56.3636 67.3901 56.6456 67.4952 56.9005C67.4901 56.8979 67.4834 56.8964 67.4757 56.8934L67.4753 56.893ZM95.4403 46.3827C95.4403 46.4225 95.4367 46.4608 95.4337 46.4996V46.5026C95.3942 47.2037 94.8185 47.9582 94.1079 48.2115L69.8332 56.8929C69.6743 56.9499 69.52 56.9766 69.3775 56.9766C68.8669 56.9766 68.5014 56.627 68.5014 56.0589L68.5019 34.844L72.9464 44.0961C73.2443 44.7156 73.9112 45.0686 74.7771 45.0686C75.1841 45.0686 75.6198 44.9906 76.0387 44.842L95.4406 37.9263L95.4411 46.3831L95.4403 46.3827ZM99.93 35.1035L75.6396 43.7593C75.3376 43.8661 75.0377 43.921 74.7763 43.921C74.3995 43.921 74.1032 43.8112 74.0048 43.6062L68.5493 32.2499L68.5242 32.202L95.4394 22.5768V22.5456L95.4547 22.5405L100.96 33.9991C101.128 34.3461 100.666 34.8407 99.929 35.1036L99.93 35.1035Z" fill="#CFD0D0"/>
<path d="M54.5881 0.0162016C60.1291 0.0162016 64.6281 3.58674 64.6281 7.99284C64.6281 10.6518 62.9758 13.032 60.4596 14.4754C60.358 14.5261 60.3071 14.678 60.358 14.7793L61.4508 17.1089C61.5524 17.2863 61.3492 17.4887 61.1712 17.4382L56.6723 15.8175C56.6469 15.7923 56.596 15.7923 56.5707 15.8175C55.9352 15.9188 55.2744 15.9694 54.5881 15.9694C49.0471 15.9694 44.5482 12.3989 44.5482 7.99281C44.548 3.58662 49.0469 0.0161743 54.5881 0.0161743L54.5881 0.0162016ZM59.4683 9.68946C60.2817 9.68946 60.9425 9.03111 60.9425 8.22074C60.9425 7.41037 60.2817 6.75203 59.4683 6.75203C58.6549 6.75203 57.9941 7.41037 57.9941 8.22074C57.9685 9.03098 58.6295 9.68946 59.4683 9.68946V9.68946ZM54.5881 9.68946C55.4016 9.68946 56.0623 9.03111 56.0623 8.22074C56.0623 7.41037 55.4015 6.75203 54.5881 6.75203C53.7746 6.75203 53.1139 7.41037 53.1139 8.22074C53.1139 9.03098 53.7747 9.68946 54.5881 9.68946ZM49.7079 9.68946C50.5214 9.68946 51.1821 9.03111 51.1821 8.22074C51.1821 7.41037 50.5213 6.75203 49.7079 6.75203C48.8945 6.75203 48.2337 7.41037 48.2337 8.22074C48.2339 9.03098 48.8946 9.68946 49.7079 9.68946Z" fill="#E1E2E2" stroke="white"/>
</g>
<defs>
<linearGradient id="paint0_linear_5310_36097" x1="73" y1="46.5455" x2="73" y2="64" gradientUnits="userSpaceOnUse">
<stop stop-color="#E1E2E2"/>
<stop offset="1" stop-color="#E1E2E2" stop-opacity="0"/>
</linearGradient>
<clipPath id="clip0_5310_36097">
<rect width="58.4" height="58.1818" fill="white" transform="translate(43.8)"/>
</clipPath>
</defs>
</svg>
