<svg width="64" height="64" viewBox="0 0 64 64" fill="none" xmlns="http://www.w3.org/2000/svg">
<rect width="64" height="64" rx="4" fill="#F6F7F7"/>
<path d="M34.2523 42.8966V17.0432H32.1648C26.8033 18.0118 21.456 18.9078 16.0757 19.8378V44.291C21.3693 45.2258 26.7308 46.1605 32.0584 47.1291H34.2378V42.8964L34.2523 42.8966ZM26.3675 37.53C25.6999 36.1023 25.1145 34.6372 24.6144 33.1422C24.1299 34.5611 23.4617 35.898 22.9144 37.2882C22.1492 37.2882 21.384 37.2446 20.6188 37.2156C21.5147 35.4575 22.3817 33.6849 23.3066 31.9413C22.5222 30.1396 21.6549 28.3768 20.8462 26.5896L23.1614 26.4585C23.6797 27.8244 24.2513 29.1754 24.6824 30.5755C25.1668 29.0887 25.8303 27.6693 26.4212 26.2552C27.2124 26.2005 28.0049 26.1518 28.7992 26.1099C27.8688 28.0215 26.9309 29.9376 25.985 31.8589C26.9536 33.7961 27.9222 35.7576 28.8912 37.7143C28.0483 37.6464 27.2104 37.5934 26.3675 37.5302V37.53Z" fill="#AAABAB"/>
<path d="M35.1338 20.3945V22.2496H38.8389V24.9861H35.1338V26.4874H38.8389V29.2239H35.1338V30.7253H38.8389V33.457H35.1338V34.9583H38.8389V37.6705H35.1338V39.259H38.8389V41.9083H35.1338V43.7634H47.9295V20.3947L35.1338 20.3945ZM45.1057 41.9279H39.7202V39.2789H45.1057V41.9279ZM45.1057 37.6901H39.7202V34.9539H45.1057V37.6901ZM45.1057 33.4523H39.7202V30.7208H45.1057V33.4523ZM45.1057 29.2144H39.7202V26.483H45.1057V29.2144ZM45.1057 24.9766H39.7202V22.2499H45.1057V24.9766Z" fill="#AAABAB"/>
</svg>
