<svg width="20" height="20" viewBox="0 0 20 20" fill="none" xmlns="http://www.w3.org/2000/svg">
<g id="Light/Hide">
<g id="Hide">
<path id="Stroke 1" d="M8.13387 11.9722C7.6547 11.4938 7.36304 10.8438 7.36304 10.1147C7.36304 8.65382 8.5397 7.47632 9.9997 7.47632C10.7222 7.47632 11.3872 7.76882 11.858 8.24715" stroke="#CFD0D0" stroke-width="1.5" stroke-linecap="round" stroke-linejoin="round"/>
<path id="Stroke 3" d="M12.5873 10.5823C12.394 11.6573 11.5473 12.5056 10.4731 12.7006" stroke="#CFD0D0" stroke-width="1.5" stroke-linecap="round" stroke-linejoin="round"/>
<path id="Stroke 5" d="M5.54543 14.5602C4.22293 13.5219 3.10293 12.0052 2.29126 10.1144C3.11126 8.21523 4.23876 6.69023 5.56959 5.64356C6.89209 4.5969 8.41793 4.02856 9.99959 4.02856C11.5904 4.02856 13.1154 4.60523 14.4463 5.6594" stroke="#CFD0D0" stroke-width="1.5" stroke-linecap="round" stroke-linejoin="round"/>
<path id="Stroke 7" d="M16.2063 7.49219C16.7796 8.25385 17.2838 9.13302 17.708 10.1139C16.0688 13.9114 13.1721 16.1989 9.99965 16.1989C9.28048 16.1989 8.57132 16.0822 7.88965 15.8547" stroke="#CFD0D0" stroke-width="1.5" stroke-linecap="round" stroke-linejoin="round"/>
<path id="Stroke 9" d="M16.5725 3.54126L3.42749 16.6863" stroke="#CFD0D0" stroke-width="1.5" stroke-linecap="round" stroke-linejoin="round"/>
</g>
</g>
</svg>
