<svg width="40" height="40" viewBox="0 0 40 40" fill="none" xmlns="http://www.w3.org/2000/svg">
<path d="M4 8V38H29.1358L36 31.8597L36 8H4ZM33.9372 30.556H27.6785V36.1562H6.06223L6.06223 9.97545H33.9372L33.9372 30.556Z" fill="#00B7B0" stroke="#00B7B0" stroke-miterlimit="10"/>
<path d="M32 5V4H8V5H32Z" fill="#D0FFFD" stroke="#D0FFFD" stroke-miterlimit="10"/>
<path d="M29 1.5V0.5H11V1.5H29Z" fill="#D0FFFD" stroke="#D0FFFD" stroke-miterlimit="10"/>
<path d="M21.032 20.5428H20.9752C20.3212 20.5437 19.6691 20.6147 19.0301 20.7543C18.7428 20.8082 18.4598 20.8828 18.1832 20.9778C17.6787 21.1714 17.2418 21.5088 16.9264 21.9486C16.3279 22.7468 16.1783 23.6184 16.5419 24.5561C16.7276 25.0801 17.1098 25.5107 17.6072 25.7564C18.149 26.0228 18.764 26.1004 19.3547 25.9769C19.8549 25.8974 20.3288 25.6993 20.7373 25.3993C20.9392 25.2388 21.1278 25.0588 21.3357 24.8832C21.3475 24.8966 21.3585 24.9106 21.3687 24.9251C21.6048 25.2634 21.8718 25.5788 22.1662 25.8673C22.28 25.982 22.4621 25.9912 22.5866 25.8884C22.9856 25.5533 23.3846 25.2178 23.7836 24.8817C23.8046 24.8584 23.8191 24.8299 23.8254 24.7991C23.8619 24.6979 23.845 24.5851 23.7806 24.4991C23.6878 24.3641 23.6011 24.2246 23.5007 24.094H23.5009C23.3443 23.879 23.2417 23.6294 23.2015 23.3663C23.1792 23.2416 23.1677 23.1151 23.1672 22.9883V19.6472V19.6471C23.1758 19.3596 23.1369 19.0726 23.052 18.7979C22.9208 18.3601 22.6508 17.9772 22.2829 17.7072C21.6779 17.2868 20.9681 17.0438 20.2332 17.0054C19.4982 16.967 18.7671 17.1346 18.1219 17.4896C17.3678 17.8795 16.8328 18.5934 16.669 19.428C16.6464 19.5131 16.6642 19.6039 16.7171 19.6742C16.7699 19.7445 16.852 19.7865 16.9398 19.7882L17.6954 19.8557C17.8839 19.8722 18.0725 19.8902 18.261 19.9052C18.4078 19.9243 18.5481 19.8381 18.5976 19.6981C18.6522 19.4326 18.7896 19.1915 18.99 19.0097C19.1905 18.8278 19.4435 18.7148 19.7124 18.6869C19.9646 18.6363 20.2264 18.6668 20.4605 18.7739C20.6355 18.8486 20.7841 18.9745 20.8868 19.135C20.9896 19.2956 21.0418 19.4834 21.0365 19.6741V20.4617C21.035 20.4873 21.0335 20.5143 21.032 20.5428L21.032 20.5428ZM20.7432 23.7489C20.6149 23.9562 20.4536 24.1412 20.266 24.2966C20.0414 24.4894 19.7363 24.559 19.4505 24.4825C19.3325 24.4531 19.2187 24.4082 19.1124 24.349C18.872 24.2144 18.7066 23.9766 18.6635 23.7039C18.5834 23.398 18.5939 23.0753 18.6934 22.7752C18.8137 22.4511 19.0449 22.1805 19.3457 22.0115C19.5574 21.8754 19.7997 21.7949 20.0505 21.7774C20.3603 21.758 20.6714 21.7429 20.9812 21.7265H21.0351V21.815V22.7287C21.0402 23.0901 20.9386 23.4451 20.7432 23.7489Z" fill="#00B7B0"/>
<path d="M15.3867 26.8997C15.237 26.8187 15.0875 26.7347 14.9378 26.6492C14.8391 26.5907 14.7418 26.5322 14.6386 26.4692C14.4889 26.3716 14.3394 26.2696 14.1897 26.1691L14.1898 26.169C14.1693 26.1486 14.141 26.1381 14.1121 26.1404C14.0834 26.1428 14.057 26.1576 14.0401 26.1811C13.9998 26.2229 13.9998 26.2892 14.0401 26.331C14.1568 26.4631 14.2765 26.5936 14.4007 26.7211C14.4725 26.7961 14.5504 26.8622 14.6267 26.9342C14.8712 27.1751 15.1355 27.3948 15.4166 27.5913C15.5663 27.6993 15.7234 27.8028 15.8819 27.9003C16.0839 28.0234 16.2874 28.1478 16.4999 28.2544C16.7124 28.3609 16.9174 28.4464 17.1283 28.5364L17.1284 28.5365C17.2564 28.5931 17.3872 28.6433 17.5204 28.6866C17.7777 28.7823 18.0438 28.8521 18.3149 28.8951C18.5588 28.919 18.8011 28.9685 19.0465 28.9926C19.1962 29.0076 19.3592 28.9926 19.5164 28.9926V29.0001C19.7767 28.9852 20.0385 28.9791 20.2973 28.9521C20.5128 28.9296 20.7253 28.8891 20.9378 28.8455C21.1502 28.802 21.3716 28.748 21.5871 28.6865C21.7473 28.64 21.9029 28.5769 22.0585 28.5169V28.517C22.1943 28.4694 22.3276 28.4148 22.4579 28.3535C22.6329 28.2665 22.8036 28.169 22.9727 28.0698C23.1417 27.9708 23.2719 27.8913 23.4065 27.7938V27.7939C23.5156 27.7187 23.6201 27.637 23.7193 27.5493C23.869 27.4217 24.0066 27.2897 24.1472 27.1562C24.1917 27.1063 24.1978 27.0328 24.1622 26.9762C24.1155 26.9296 24.048 26.9109 23.9841 26.9267C23.9168 26.9507 23.8539 26.9867 23.7881 27.0152C23.4889 27.1443 23.1897 27.2703 22.8903 27.4023V27.4022C22.5921 27.5273 22.2857 27.6315 21.9731 27.7143C21.8234 27.7578 21.6739 27.8013 21.5242 27.8403C21.4269 27.8643 21.3297 27.8838 21.225 27.9048C21.0753 27.9377 20.9258 27.9782 20.7761 28.0008C20.6264 28.0233 20.4663 28.0248 20.3108 28.0338C20.2016 28.0338 20.0938 28.0503 19.9847 28.0518C19.7318 28.0518 19.4775 28.0518 19.2246 28.0443C19.051 28.0443 18.8774 28.0187 18.7024 28.0038C18.6006 27.9948 18.4989 27.9888 18.4032 27.9723C18.1727 27.9318 17.9439 27.8837 17.7149 27.8402V27.8403C17.4564 27.7912 17.2029 27.7184 16.9578 27.6228C16.7543 27.5418 16.5523 27.4593 16.3518 27.3738C16.1932 27.3063 16.0346 27.2387 15.8805 27.1637C15.7399 27.0782 15.5648 26.9866 15.3867 26.8997L15.3867 26.8997Z" fill="#00B7B0"/>
<path d="M25.953 26.4193C25.9846 26.2524 26.0036 26.0835 26.0099 25.9138C26.0103 25.723 25.8706 25.5611 25.6822 25.5342C25.5291 25.5077 25.3739 25.4946 25.2184 25.4951C24.9556 25.4972 24.6936 25.528 24.4374 25.5867C24.1126 25.6638 23.8027 25.7941 23.5202 25.9723C23.4933 25.9903 23.4843 26.0353 23.4664 26.0683V26.0682C23.4999 26.0816 23.5351 26.0897 23.571 26.0923C23.6803 26.0773 23.7865 26.0458 23.8957 26.0368C24.1291 26.0158 24.364 26.0053 24.6155 25.9904L25.1168 26.0323L25.1167 26.0322C25.2171 26.0464 25.3068 26.1023 25.3638 26.1864C25.4208 26.2703 25.4397 26.3746 25.416 26.4733C25.3711 26.6009 25.3517 26.7374 25.3112 26.8679C25.2364 27.108 25.1615 27.3465 25.0778 27.5851C25.0389 27.6976 24.985 27.8042 24.9432 27.9152H24.9431C24.9373 27.9444 24.9373 27.9745 24.9431 28.0037C24.9719 28.0054 25.0007 28.0024 25.0285 27.9947C25.0647 27.9779 25.0972 27.9539 25.1242 27.9242C25.2733 27.7618 25.4137 27.5915 25.5447 27.4141C25.6617 27.2342 25.7619 27.0438 25.8439 26.8455C25.8969 26.7082 25.9335 26.5652 25.9531 26.4194L25.953 26.4193Z" fill="#00B7B0"/>
</svg>
