<svg width="32" height="32" viewBox="0 0 32 32" fill="none" xmlns="http://www.w3.org/2000/svg">
<rect width="32" height="32" rx="4" fill="#AAABAB"/>
<path d="M10.5829 10.1666H21.4163C21.5363 10.2087 21.6451 10.2777 21.7343 10.3683C21.8235 10.459 21.8908 10.5688 21.931 10.6895C21.9713 10.8101 21.9833 10.9384 21.9663 11.0644C21.9493 11.1905 21.9037 11.3109 21.8329 11.4166L17.6663 16V21.8333L14.3329 19.3333V16L10.1663 11.4166C10.0955 11.3109 10.0499 11.1905 10.0329 11.0644C10.0159 10.9384 10.0279 10.8101 10.0682 10.6895C10.1084 10.5688 10.1757 10.459 10.2649 10.3683C10.3541 10.2777 10.4629 10.2087 10.5829 10.1666Z" stroke="white" stroke-width="2" stroke-linecap="round" stroke-linejoin="round"/>
</svg>
