<svg width="20" height="20" viewBox="0 0 20 20" fill="none" xmlns="http://www.w3.org/2000/svg">
<path d="M12.5 6.66675H12.5083" stroke="#37393E" stroke-width="2" stroke-linecap="round" stroke-linejoin="round"/>
<path d="M14.1668 3.33325H5.8335C4.45278 3.33325 3.3335 4.45254 3.3335 5.83325V14.1666C3.3335 15.5473 4.45278 16.6666 5.8335 16.6666H14.1668C15.5475 16.6666 16.6668 15.5473 16.6668 14.1666V5.83325C16.6668 4.45254 15.5475 3.33325 14.1668 3.33325Z" stroke="#37393E" stroke-width="2" stroke-linecap="round" stroke-linejoin="round"/>
<path d="M3.3335 12.5L6.66683 9.16663C7.04688 8.80092 7.47799 8.6084 7.91683 8.6084C8.35567 8.6084 8.78678 8.80092 9.16683 9.16663L13.3335 13.3333" stroke="#37393E" stroke-width="2" stroke-linecap="round" stroke-linejoin="round"/>
<path d="M11.6665 11.6667L12.4998 10.8334C12.8799 10.4677 13.311 10.2751 13.7498 10.2751C14.1887 10.2751 14.6198 10.4677 14.9998 10.8334L16.6665 12.5" stroke="#37393E" stroke-width="2" stroke-linecap="round" stroke-linejoin="round"/>
</svg>
