<svg width="20" height="20" viewBox="0 0 20 20" fill="none" xmlns="http://www.w3.org/2000/svg">
<path d="M10 1.66666C5.40002 1.66666 1.66669 5.39999 1.66669 9.99999C1.66669 14.6 5.40002 18.3333 10 18.3333C14.6 18.3333 18.3334 14.6 18.3334 9.99999C18.3334 5.39999 14.6 1.66666 10 1.66666ZM12.9417 10.8583L10.4417 13.3583C10.3167 13.4833 10.1584 13.5417 10 13.5417C9.84169 13.5417 9.68335 13.4833 9.55835 13.3583L7.05835 10.8583C6.81669 10.6167 6.81669 10.2167 7.05835 9.97499C7.30002 9.73332 7.70002 9.73332 7.94169 9.97499L9.37502 11.4083V7.08332C9.37502 6.74166 9.65835 6.45832 10 6.45832C10.3417 6.45832 10.625 6.74166 10.625 7.08332V11.4083L12.0584 9.97499C12.3 9.73332 12.7 9.73332 12.9417 9.97499C13.1834 10.2167 13.1834 10.6167 12.9417 10.8583Z" fill="#313232"/>
</svg>
