<svg width="16" height="16" viewBox="0 0 16 16" fill="none" xmlns="http://www.w3.org/2000/svg">
<path fill-rule="evenodd" clip-rule="evenodd" d="M0 11.264V4.728C0 1.904 1.8168 0 4.528 0H11.464C14.176 0 16 1.904 16 4.728V11.264C16 14.096 14.176 16 11.464 16H4.528C1.8168 16 0 14.096 0 11.264ZM8.59996 9.81599V4.73599C8.59996 4.39999 8.32796 4.13599 7.99996 4.13599C7.66396 4.13599 7.39996 4.39999 7.39996 4.73599V9.81599L5.42395 7.83199C5.31195 7.71999 5.15195 7.65599 4.99995 7.65599C4.84875 7.65599 4.69595 7.71999 4.57595 7.83199C4.34395 8.06399 4.34395 8.44799 4.57595 8.67999L7.57596 11.696C7.79996 11.92 8.19996 11.92 8.42396 11.696L11.424 8.67999C11.656 8.44799 11.656 8.06399 11.424 7.83199C11.184 7.59999 10.808 7.59999 10.568 7.83199L8.59996 9.81599Z" fill="#313232"/>
</svg>
