<svg width="16" height="16" viewBox="0 0 16 16" fill="none" xmlns="http://www.w3.org/2000/svg">
<path d="M9.68661 6.31333L6.31328 9.68666C5.87995 9.25333 5.61328 8.65999 5.61328 7.99999C5.61328 6.67999 6.67995 5.61333 7.99995 5.61333C8.65995 5.61333 9.25328 5.87999 9.68661 6.31333Z" stroke="#626363" stroke-width="1.5" stroke-linecap="round" stroke-linejoin="round"/>
<path d="M11.8799 3.84666C10.7132 2.96666 9.3799 2.48666 7.9999 2.48666C5.64656 2.48666 3.45323 3.87333 1.92656 6.27333C1.32656 7.21333 1.32656 8.79333 1.92656 9.73333C2.45323 10.56 3.06656 11.2733 3.73323 11.8467" stroke="#626363" stroke-width="1.5" stroke-linecap="round" stroke-linejoin="round"/>
<path d="M5.61328 13.02C6.37328 13.34 7.17995 13.5133 7.99995 13.5133C10.3533 13.5133 12.5466 12.1267 14.0733 9.72667C14.6733 8.78667 14.6733 7.20667 14.0733 6.26667C13.8533 5.92 13.6133 5.59333 13.3666 5.28667" stroke="#626363" stroke-width="1.5" stroke-linecap="round" stroke-linejoin="round"/>
<path d="M10.34 8.46667C10.1666 9.40667 9.39996 10.1733 8.45996 10.3467" stroke="#626363" stroke-width="1.5" stroke-linecap="round" stroke-linejoin="round"/>
<path d="M6.3135 9.68666L1.3335 14.6667" stroke="#626363" stroke-width="1.5" stroke-linecap="round" stroke-linejoin="round"/>
<path d="M14.6665 1.33333L9.68652 6.31333" stroke="#626363" stroke-width="1.5" stroke-linecap="round" stroke-linejoin="round"/>
</svg>
