<svg width="20" height="20" viewBox="0 0 20 20" fill="none" xmlns="http://www.w3.org/2000/svg">
<path d="M7.60608 17.0171V14.5637C7.60606 13.9397 8.14157 13.4327 8.80506 13.4285H11.2354C11.9021 13.4285 12.4425 13.9367 12.4425 14.5637V14.5637V17.0247C12.4424 17.5546 12.892 17.9876 13.4552 18H15.0754C16.6906 18 18 16.7685 18 15.2495V15.2495V8.27027C17.9914 7.67266 17.693 7.11148 17.1899 6.74643L11.6486 2.54824C10.6778 1.81725 9.29786 1.81725 8.32709 2.54824L2.81013 6.75405C2.30506 7.11762 2.00622 7.67973 2 8.27789V15.2495C2 16.7685 3.30937 18 4.92456 18H6.54481C7.12198 18 7.58987 17.56 7.58987 17.0171V17.0171" stroke="#CFD0D0" stroke-width="2" stroke-linecap="round" stroke-linejoin="round"/>
</svg>
