<svg width="20" height="20" viewBox="0 0 20 20" fill="none" xmlns="http://www.w3.org/2000/svg">
<path d="M7.28558 17.896V15.1441C7.28558 14.4416 7.88943 13.8721 8.63431 13.8721H11.3572C11.7149 13.8721 12.058 14.0061 12.3109 14.2446C12.5638 14.4832 12.7059 14.8067 12.7059 15.1441V17.896C12.7037 18.1881 12.8251 18.4689 13.0433 18.6762C13.2615 18.8834 13.5584 19 13.868 19H15.7257C16.5933 19.0021 17.4262 18.6786 18.0405 18.1007C18.6548 17.5229 19 16.7383 19 15.92V8.08017C19 7.41921 18.6893 6.79226 18.1517 6.3682L11.8322 1.60828C10.7329 0.773706 9.1579 0.800652 8.09142 1.67228L1.91612 6.3682C1.35312 6.77976 1.01663 7.40857 1 8.08017V15.912C1 17.6175 2.46594 19 4.27427 19H6.08954C6.73274 19 7.25547 18.5106 7.26013 17.904L7.28558 17.896Z" fill="#111212"/>
</svg>
