<svg width="16" height="16" viewBox="0 0 16 16" fill="none" xmlns="http://www.w3.org/2000/svg">
<path d="M8 14C11.3137 14 14 11.3137 14 8C14 4.68629 11.3137 2 8 2C4.68629 2 2 4.68629 2 8C2 11.3137 4.68629 14 8 14Z" stroke="#B0B3B9" stroke-width="1.5" stroke-linecap="round" stroke-linejoin="round"/>
<path d="M8 11.3333V11.3399" stroke="#B0B3B9" stroke-width="1.5" stroke-linecap="round" stroke-linejoin="round"/>
<path d="M8 9.00003C7.98773 8.78361 8.04611 8.56906 8.16635 8.3887C8.28659 8.20834 8.46218 8.07194 8.66667 8.00003C8.91725 7.9042 9.14217 7.75152 9.32371 7.554C9.50526 7.35648 9.63848 7.11951 9.71288 6.86175C9.78729 6.604 9.80084 6.33249 9.75249 6.06861C9.70413 5.80472 9.59518 5.55566 9.43421 5.34104C9.27324 5.12642 9.06465 4.95209 8.82486 4.83177C8.58507 4.71146 8.32063 4.64846 8.05235 4.64771C7.78407 4.64697 7.51928 4.70851 7.27883 4.82749C7.03838 4.94647 6.82882 5.11963 6.66667 5.33336" stroke="#B0B3B9" stroke-width="1.5" stroke-linecap="round" stroke-linejoin="round"/>
</svg>
