<svg width="16" height="16" viewBox="0 0 16 16" fill="none" xmlns="http://www.w3.org/2000/svg">
<g id="Bold/Info Circle">
<g id="Info Circle">
<path id="Info Circle_2" fill-rule="evenodd" clip-rule="evenodd" d="M1.3335 7.99955C1.3335 4.32022 4.32016 1.33289 8.00016 1.33289C11.6868 1.33289 14.6668 4.32022 14.6668 7.99955C14.6668 11.6802 11.6868 14.6662 8.00016 14.6662C4.32016 14.6662 1.3335 11.6802 1.3335 7.99955ZM7.74904 5.41667C7.43673 5.41667 7.16202 5.51736 6.98104 5.66223C6.80441 5.80362 6.7501 5.95498 6.7501 6.06667C6.7501 6.48088 6.41431 6.81667 6.0001 6.81667C5.58588 6.81667 5.2501 6.48088 5.2501 6.06667C5.2501 5.43575 5.56431 4.87491 6.04366 4.4912C6.51866 4.11097 7.13366 3.91667 7.74904 3.91667H8.24874C8.86413 3.91667 9.47912 4.11097 9.95413 4.4912C10.4276 4.87025 10.74 5.42213 10.7476 6.04368C10.771 6.51445 10.6321 6.97538 10.3587 7.35828C10.0908 7.73356 9.70995 8.01216 9.27638 8.16426C9.15136 8.22571 9.01562 8.3479 8.90946 8.54619C8.79677 8.75668 8.73548 9.02189 8.74812 9.29921C8.76696 9.71299 8.4468 10.0637 8.03302 10.0826C7.61923 10.1014 7.26852 9.78124 7.24967 9.36746C7.2255 8.83682 7.33925 8.30105 7.58706 7.83819C7.83493 7.37523 8.21546 6.99069 8.69747 6.77964C8.71932 6.77007 8.74162 6.76155 8.76429 6.75411C8.92559 6.70114 9.05434 6.60382 9.1379 6.48677C9.22072 6.37075 9.25681 6.23955 9.24907 6.11213C9.24815 6.09699 9.24769 6.08183 9.24769 6.06667C9.24769 5.95498 9.19338 5.80362 9.01674 5.66223C8.83577 5.51736 8.56106 5.41667 8.24874 5.41667H7.74904ZM8.0001 10.5833C8.41431 10.5833 8.7501 10.9191 8.7501 11.3333V11.34C8.7501 11.7542 8.41431 12.09 8.0001 12.09C7.58588 12.09 7.2501 11.7542 7.2501 11.34V11.3333C7.2501 10.9191 7.58588 10.5833 8.0001 10.5833Z" fill="#AAABAB"/>
</g>
</g>
</svg>
