<svg width="20" height="20" viewBox="0 0 20 20" fill="none" xmlns="http://www.w3.org/2000/svg">
<path d="M9.99996 13.3333C11.8409 13.3333 13.3333 11.8409 13.3333 10C13.3333 8.15905 11.8409 6.66666 9.99996 6.66666C8.15901 6.66666 6.66663 8.15905 6.66663 10C6.66663 11.8409 8.15901 13.3333 9.99996 13.3333Z" stroke="#313232" stroke-width="1.5" stroke-linecap="round" stroke-linejoin="round"/>
<path d="M10 17.5C14.1421 17.5 17.5 14.1421 17.5 10C17.5 5.85786 14.1421 2.5 10 2.5C5.85786 2.5 2.5 5.85786 2.5 10C2.5 14.1421 5.85786 17.5 10 17.5Z" stroke="#313232" stroke-width="1.5" stroke-linecap="round" stroke-linejoin="round"/>
<path d="M12.5 12.5L15.2917 15.2917" stroke="#313232" stroke-width="1.5" stroke-linecap="round" stroke-linejoin="round"/>
<path d="M7.50004 12.5L4.70837 15.2917" stroke="#313232" stroke-width="1.5" stroke-linecap="round" stroke-linejoin="round"/>
<path d="M4.70837 4.70834L7.50004 7.5" stroke="#313232" stroke-width="1.5" stroke-linecap="round" stroke-linejoin="round"/>
<path d="M15.2917 4.70834L12.5 7.5" stroke="#313232" stroke-width="1.5" stroke-linecap="round" stroke-linejoin="round"/>
</svg>
