<svg width="20" height="20" viewBox="0 0 20 20" fill="none" xmlns="http://www.w3.org/2000/svg">
<path d="M8.33325 11.6667C8.60482 11.9438 8.92896 12.164 9.28669 12.3143C9.64442 12.4647 10.0286 12.5421 10.4166 12.5421C10.8046 12.5421 11.1887 12.4647 11.5465 12.3143C11.9042 12.164 12.2284 11.9438 12.4999 11.6667L15.8333 8.33334C16.3858 7.7808 16.6962 7.03141 16.6962 6.25C16.6962 5.4686 16.3858 4.71921 15.8333 4.16667C15.2807 3.61414 14.5313 3.30373 13.7499 3.30373C12.9685 3.30373 12.2191 3.61414 11.6666 4.16667L11.2499 4.58334" stroke="#2A46B2" stroke-width="2" stroke-linecap="round" stroke-linejoin="round"/>
<path d="M11.6667 8.33333C11.3951 8.05616 11.0709 7.83597 10.7132 7.68565C10.3555 7.53533 9.97135 7.4579 9.58332 7.4579C9.19529 7.4579 8.81116 7.53533 8.45343 7.68565C8.0957 7.83597 7.77155 8.05616 7.49999 8.33333L4.16666 11.6667C3.61412 12.2192 3.30371 12.9686 3.30371 13.75C3.30371 14.5314 3.61412 15.2808 4.16666 15.8333C4.71919 16.3859 5.46859 16.6963 6.24999 16.6963C7.03139 16.6963 7.78079 16.3859 8.33332 15.8333L8.74999 15.4167" stroke="#2A46B2" stroke-width="2" stroke-linecap="round" stroke-linejoin="round"/>
</svg>
