<svg width="20" height="20" viewBox="0 0 20 20" fill="none" xmlns="http://www.w3.org/2000/svg">
<path d="M13.4917 1.66675H6.50832C3.47499 1.66675 1.66666 3.47508 1.66666 6.50841V13.4834C1.66666 16.5251 3.47499 18.3334 6.50832 18.3334H13.4833C16.5167 18.3334 18.325 16.5251 18.325 13.4917V6.50841C18.3333 3.47508 16.525 1.66675 13.4917 1.66675ZM14.4583 7.54175L12.5083 13.8251C12.0417 15.3167 9.94999 15.3417 9.45832 13.8584L8.87499 12.1334C8.71666 11.6584 8.34166 11.2751 7.86666 11.1251L6.13332 10.5417C4.66666 10.0501 4.68332 7.94175 6.17499 7.49175L12.4583 5.53341C13.6917 5.15841 14.85 6.31675 14.4583 7.54175Z" fill="#E1E2E2"/>
</svg>
