<svg width="24" height="24" viewBox="0 0 24 24" fill="none" xmlns="http://www.w3.org/2000/svg">
<path d="M9 8V6C9 5.46957 9.21071 4.96086 9.58579 4.58579C9.96086 4.21071 10.4696 4 11 4H18C18.5304 4 19.0391 4.21071 19.4142 4.58579C19.7893 4.96086 20 5.46957 20 6V18C20 18.5304 19.7893 19.0391 19.4142 19.4142C19.0391 19.7893 18.5304 20 18 20H11C10.4696 20 9.96086 19.7893 9.58579 19.4142C9.21071 19.0391 9 18.5304 9 18V16" stroke="#37393E" stroke-width="2" stroke-linecap="round" stroke-linejoin="round"/>
<path d="M4 12H16M16 12L13.2308 9M16 12L13.2308 15" stroke="#37393E" stroke-width="2" stroke-linecap="round" stroke-linejoin="round"/>
</svg>
