<svg width="82" height="16" viewBox="0 0 82 16" fill="none" xmlns="http://www.w3.org/2000/svg">
<path d="M0.107983 0.735996C0.107983 0.522662 0.279585 0.330664 0.515537 0.330664H3.06811C3.28262 0.330664 3.47567 0.522662 3.47567 0.735996V12.128H8.58082C8.81677 12.128 8.98837 12.32 8.98837 12.5333V14.8587C8.98837 15.072 8.81677 15.264 8.58082 15.264H0.515537C0.279585 15.264 0.107983 15.072 0.107983 14.8587V0.735996Z" fill="#111212"/>
<path d="M9.9958 0.735996C9.9958 0.522662 10.1888 0.330664 10.4034 0.330664H12.9774C13.1919 0.330664 13.3849 0.522662 13.3849 0.735996V14.8587C13.3849 15.072 13.1919 15.264 12.9774 15.264H10.4034C10.1888 15.264 9.9958 15.072 9.9958 14.8587V0.735996Z" fill="#111212"/>
<path d="M22.6085 0.117334C26.8986 0.117334 30.3306 3.552 30.3306 7.81867C30.3306 12.0853 26.8986 15.4773 22.6085 15.4773C18.3185 15.4773 14.9079 12.0853 14.9079 7.81867C14.9079 3.552 18.3185 0.117334 22.6085 0.117334ZM22.6085 12.064C24.968 12.064 26.8986 10.144 26.8986 7.81867C26.8986 5.472 24.968 3.53067 22.6085 3.53067C20.2704 3.53067 18.3399 5.472 18.3399 7.81867C18.3399 10.144 20.2704 12.064 22.6085 12.064Z" fill="#111212"/>
<path d="M31.8321 0.501335C31.8321 0.288002 32.0252 0.117334 32.2397 0.117334H32.7759L41.3346 8.30934H41.356V0.736C41.356 0.522666 41.5276 0.330668 41.7636 0.330668H44.3376C44.5521 0.330668 44.7452 0.522666 44.7452 0.736V15.0933C44.7452 15.3067 44.5521 15.4773 44.3376 15.4773H43.9944C43.9301 15.4773 43.7585 15.4133 43.7156 15.3707L35.2427 6.90133H35.2213V14.8587C35.2213 15.072 35.0497 15.264 34.8137 15.264H32.2611C32.0466 15.264 31.8536 15.072 31.8536 14.8587L31.8321 0.501335Z" fill="#111212"/>
<path d="M46.5679 0.735996C46.5679 0.522662 46.7395 0.330664 46.9755 0.330664H51.9734C54.5045 0.330664 56.5852 2.05866 56.5852 4.29866C56.5852 5.94133 55.1051 7.136 54.0969 7.66933C55.2338 8.13867 56.9713 9.184 56.9713 11.1467C56.9713 13.536 54.8477 15.264 52.2951 15.264H46.9755C46.7395 15.264 46.5679 15.072 46.5679 14.8587V0.735996ZM51.5873 6.38933C52.4024 6.38933 53.0888 5.70667 53.0888 4.85333C53.0888 4 52.4024 3.40266 51.5873 3.40266H49.9141V6.38933H51.5873ZM51.8661 12.2133C52.7027 12.2133 53.4105 11.5307 53.4105 10.656C53.4105 9.80267 52.4882 9.16267 51.6516 9.16267H49.9141V12.2133H51.8661Z" fill="#111212"/>
<path d="M73.6473 8.07467L68.9068 0.949329C68.7352 0.671996 68.9068 0.330664 69.25 0.330664H72.0386C72.2102 0.330664 72.3174 0.437329 72.3818 0.522662L75.3633 4.896L78.3449 0.522662C78.4093 0.437329 78.4951 0.330664 78.6881 0.330664H81.4767C81.8199 0.330664 81.9915 0.671996 81.8199 0.949329L77.015 8.05333V14.8587C77.015 15.072 76.822 15.264 76.6075 15.264H74.0549C73.8189 15.264 73.6473 15.072 73.6473 14.8587V8.07467Z" fill="#111212"/>
<path d="M65.1269 0.629313L71.6585 14.528C71.8377 14.9227 71.5091 15.3707 71.1009 15.2533L66.6199 13.792C66.4307 13.7387 66.1699 13.2027 66.15 13L64.649 7L63.3306 13C63.3007 13.2027 63.0498 13.4467 62.8606 13.5L58.1373 15.3493C57.739 15.4667 57.4005 15.0187 57.5897 14.624L64.2706 0.63998C64.4498 0.266647 64.9477 0.25598 65.1269 0.629313Z" fill="#02BABA"/>
</svg>
