<svg width="147" height="24" viewBox="0 0 147 24" fill="none" xmlns="http://www.w3.org/2000/svg">
<g clip-path="url(#clip0_1187_27506)">
<path d="M36.5749 21.0977H30.7646L35.5535 6.35721H41.3526L36.5749 21.0977Z" fill="#02524B"/>
<path d="M49.2781 21.5609C46.0335 21.5609 43.7358 20.5767 42.3851 18.6084C41.0344 16.64 40.8875 14.0353 41.9442 10.7944C42.9124 7.65532 44.8508 4.90398 47.4809 2.93582C50.0175 1.02317 53.1116 -0.0042808 56.2884 0.0111637C59.5144 0.0111637 61.8158 0.98605 63.1926 2.93582C64.5693 4.88559 64.7126 7.50512 63.6223 10.7944C62.6617 13.9221 60.7255 16.6603 58.0968 18.6084C55.5661 20.5434 52.4638 21.5821 49.2781 21.5609ZM47.8995 15.014C48.4354 16.0372 49.4381 16.5488 50.9079 16.5488C52.3863 16.5435 53.8117 15.9976 54.9154 15.014C56.1896 13.8847 57.1184 12.418 57.5944 10.7833C58.1675 9.00465 58.1898 7.59814 57.6614 6.56372C57.133 5.52931 56.1321 5.01209 54.6586 5.01209C53.1756 5.01804 51.7469 5.57047 50.6456 6.56372C49.377 7.69227 48.4507 9.15423 47.9721 10.7833C47.3805 12.5991 47.3563 14.0093 47.8995 15.014Z" fill="#02524B"/>
<path d="M81.1033 3.82325L82.2195 0.474418H87.7284L81.0307 21.1256H74.8912L72.8874 13.7916C72.3293 11.8047 71.9609 10.1023 71.7042 8.69023C70.8781 11.533 69.9479 14.5581 68.9135 17.7656L67.8251 21.1144H62.3163L69.014 0.463257H75.1535L77.1461 7.79721C77.6149 9.57209 78.0056 11.2856 78.3237 12.9265C79.1423 10.0874 80.0688 7.05302 81.1033 3.82325Z" fill="#02524B"/>
<path d="M102.184 10.0298C102.628 10.2003 103.03 10.4646 103.362 10.8046C103.694 11.1447 103.949 11.5524 104.11 12C104.459 12.9743 104.459 14.0397 104.11 15.014C103.537 16.8678 102.327 18.4593 100.694 19.507C99.0419 20.5674 96.9321 21.0977 94.3647 21.0977H83.894L90.5916 0.44651H100.856C103.367 0.44651 105.02 0.948838 105.812 1.95349C106.61 2.95814 106.761 4.18605 106.281 5.69302C105.98 6.6833 105.453 7.59026 104.742 8.34272C104.031 9.09517 103.156 9.67263 102.184 10.0298ZM98.986 5.00651H94.9284L93.7786 8.53953H97.8363C98.187 8.57005 98.5395 8.50894 98.8595 8.36217C99.1794 8.21541 99.4558 7.98803 99.6614 7.70232C99.8886 7.45455 100.06 7.16091 100.164 6.84124C100.268 6.52157 100.302 6.18331 100.264 5.8493C100.164 5.20744 99.7395 4.92837 98.986 4.98419V5.00651ZM91.1721 16.5712H95.52C96.1186 16.6236 96.7166 16.4639 97.2093 16.1201C97.7021 15.7762 98.0584 15.2701 98.2158 14.6902C98.6233 13.4288 98.1321 12.8037 96.7423 12.8037H92.3888L91.1721 16.5712Z" fill="#02524B"/>
<path d="M124.007 21.0977H117.868V18.4019H109.786L108.017 21.0977H102.1L116.143 0.44651H123.098L124.007 21.0977ZM115.898 8.86884L112.845 13.6186H117.868V8.86884C117.868 7.19442 117.868 6.11163 117.946 5.59256L115.898 8.86884Z" fill="#02524B"/>
<path d="M138.089 2.75163L140.11 0.463257H146.456L134.768 13.1553L132.184 21.0977H126.391L128.969 13.1553L125.414 0.463257H131.933L132.491 2.77953C133.116 5.31349 133.516 6.9879 133.691 7.80279C135.18 6.07628 136.646 4.39256 138.089 2.75163Z" fill="#02524B"/>
<path d="M22.3479 13.5516L26.6009 0.463257H20.8019L16.0912 14.9749C17.2856 14.6456 18.5191 14.3442 19.7916 14.0819L22.3479 13.5516Z" fill="#02524B"/>
<path d="M18.7535 17.3414L19.6242 15.667C18.2567 15.946 16.8893 16.2753 15.533 16.666C10.0697 18.2595 4.84534 20.5798 0 23.5646C3.32817 22.2179 6.77601 21.1882 10.2977 20.4893C11.6986 20.2102 13.0884 20.0037 14.5005 19.8474L14.0986 21.0921H29.0233L29.1516 20.707L30.8986 15.3321C26.7839 15.5085 22.7058 16.1832 18.7535 17.3414Z" fill="#00ABA9"/>
<path d="M43.2614 0.463255L41.9107 4.62139H36.1172L37.4679 0.463255H43.2614Z" fill="#02524B"/>
</g>
<defs>
<clipPath id="clip0_1187_27506">
<rect width="146.791" height="24" fill="white"/>
</clipPath>
</defs>
</svg>
