<svg width="146" height="24" viewBox="0 0 146 24" fill="none" xmlns="http://www.w3.org/2000/svg">
<path d="M36.3057 21.0977H30.5323L35.3065 6.3628H41.0799L36.3057 21.0977Z" fill="white"/>
<path d="M48.9628 21.5442C45.743 21.5442 43.4669 20.5395 42.0791 18.5861C40.7468 16.6326 40.5802 14.0651 41.635 10.7721C42.6898 7.47908 44.5217 4.91163 47.1308 2.90233C49.7399 0.948844 52.6821 0 55.9019 0C59.1217 0 61.3978 0.948844 62.7856 2.90233C64.1179 4.85582 64.2845 7.47908 63.2297 10.7721C62.1749 14.0651 60.343 16.6884 57.7339 18.5861C55.0692 20.5395 52.1825 21.5442 48.9628 21.5442ZM47.5749 14.9582C48.1301 15.9628 49.1293 16.5209 50.5727 16.5209C52.016 16.5209 53.3483 16.0186 54.5696 14.9582C55.7354 13.9535 56.6236 12.5581 57.2343 10.7163C57.7894 8.93024 57.8449 7.53489 57.2898 6.47442C56.7346 5.41396 55.7354 4.91164 54.292 4.91164C52.8487 4.91164 51.5164 5.41396 50.2951 6.47442C49.0738 7.53489 48.1856 8.93024 47.6304 10.7163C47.0753 12.5581 47.0198 13.9535 47.5749 14.9582Z" fill="white"/>
<path d="M80.6053 3.79536L81.7156 0.446522H87.2114L80.5498 21.0977H74.4434L72.4449 13.7861C71.8897 11.7768 71.5011 10.1023 71.2791 8.70698C70.4464 11.5535 69.5027 14.5675 68.5034 17.8047L67.3932 21.1535H61.8973L68.5589 0.502339H74.6654L76.6639 7.81395C77.108 9.6 77.4966 11.2744 77.8296 12.9488C78.6068 10.0465 79.5506 7.03257 80.6053 3.79536Z" fill="white"/>
<path d="M101.589 9.99071C102.533 10.3814 103.144 11.0512 103.477 11.9442C103.81 12.893 103.81 13.8977 103.477 14.9581C102.866 16.9116 101.7 18.3628 100.091 19.4233C98.4251 20.4837 96.3711 21.0419 93.8175 21.0419H83.4365L90.0981 0.390705H100.313C102.811 0.390705 104.476 0.893038 105.253 1.89769C106.03 2.90234 106.197 4.13024 105.697 5.63721C104.976 7.70233 103.643 9.1535 101.589 9.99071ZM98.3696 4.96746H94.3171L93.1514 8.48373H97.2038C97.9255 8.53954 98.5361 8.26047 99.0358 7.64652C99.5354 7.03257 99.7574 6.41862 99.6464 5.80467C99.5354 5.19071 99.1468 4.91164 98.3696 4.96746ZM90.5977 16.5209H94.9278C96.3156 16.5209 97.2038 15.907 97.5924 14.6233C97.981 13.3395 97.5369 12.7256 96.1491 12.7256H91.819L90.5977 16.5209Z" fill="white"/>
<path d="M123.295 21.0977H117.189V18.4186H109.139L107.418 21.0977H101.534L115.523 0.446522H122.462L123.295 21.0977ZM115.19 8.81862L112.137 13.5628H117.133V8.81862C117.133 7.1442 117.133 6.08373 117.189 5.5256C116.245 7.1442 115.579 8.26048 115.19 8.81862Z" fill="white"/>
<path d="M137.284 2.7349L139.283 0.446522H145.611L134.009 13.1163L131.456 21.0419H125.682L128.236 13.1163L124.683 0.446522H131.178L131.733 2.7907C132.344 5.30233 132.732 6.97674 132.954 7.81395C134.342 6.02791 135.841 4.3535 137.284 2.7349Z" fill="white"/>
<path d="M22.1498 13.507L26.3688 0.390705H20.5954L15.9323 14.9023C17.0981 14.5675 18.3749 14.2884 19.5962 14.0093L22.1498 13.507Z" fill="white"/>
<path d="M18.597 17.3023L19.4852 15.6279C18.1529 15.907 16.765 16.2419 15.4327 16.6326C10.1034 18.1395 4.88517 20.5395 0 23.5535C3.38631 22.214 6.77262 21.1535 10.2144 20.4837C11.6023 20.2047 12.9901 19.9814 14.3779 19.8698L13.9893 21.0977H16.654H28.8114L28.9224 20.707L30.6433 15.3488C26.6464 15.4605 22.5939 16.1302 18.597 17.3023Z" fill="#00ABA9"/>
<path d="M42.9673 0.446522L41.635 4.57675H35.8616L37.1939 0.446522H42.9673Z" fill="white"/>
</svg>
