<svg width="20" height="20" viewBox="0 0 20 20" fill="none" xmlns="http://www.w3.org/2000/svg">
<path d="M14.1666 15.3584H10.8333L7.12495 17.825C6.57495 18.1917 5.83329 17.8 5.83329 17.1334V15.3584C3.33329 15.3584 1.66663 13.6917 1.66663 11.1917V6.19166C1.66663 3.69166 3.33329 2.02499 5.83329 2.02499H14.1666C16.6666 2.02499 18.3333 3.69166 18.3333 6.19166V11.1917C18.3333 13.6917 16.6666 15.3584 14.1666 15.3584Z" stroke="#313232" stroke-width="1.5" stroke-miterlimit="10" stroke-linecap="round" stroke-linejoin="round"/>
<path d="M10 9.46665V9.29168C10 8.72502 10.35 8.425 10.7 8.18334C11.0417 7.95 11.3833 7.65001 11.3833 7.10001C11.3833 6.33335 10.7667 5.71665 10 5.71665C9.23334 5.71665 8.6167 6.33335 8.6167 7.10001" stroke="#313232" stroke-width="1.5" stroke-linecap="round" stroke-linejoin="round"/>
<path d="M9.99629 11.4583H10.0038" stroke="#313232" stroke-width="1.5" stroke-linecap="round" stroke-linejoin="round"/>
</svg>
