<svg width="20" height="20" viewBox="0 0 20 20" fill="none" xmlns="http://www.w3.org/2000/svg">
<g id="Bold/Chat">
<g id="Chat">
<path id="Chat_2" fill-rule="evenodd" clip-rule="evenodd" d="M1.66666 10.0124C1.66666 5.62244 5.17499 1.6665 10.0167 1.6665C14.75 1.6665 18.3333 5.54733 18.3333 9.98732C18.3333 15.1367 14.1333 18.3332 9.99999 18.3332C8.63332 18.3332 7.11666 17.966 5.89999 17.2482C5.47499 16.9895 5.11666 16.7975 4.65832 16.9478L2.97499 17.4485C2.54999 17.582 2.16666 17.2482 2.29166 16.7975L2.84999 14.9281C2.94166 14.6693 2.92499 14.3939 2.79166 14.1769C2.07499 12.8583 1.66666 11.4145 1.66666 10.0124ZM8.91666 10.0123C8.91666 10.6049 9.39166 11.0806 9.98332 11.0889C10.575 11.0889 11.05 10.6049 11.05 10.0207C11.05 9.42812 10.575 8.9524 9.98332 8.9524C9.39999 8.94406 8.91666 9.42812 8.91666 10.0123ZM12.7583 10.0207C12.7583 10.6049 13.2333 11.089 13.825 11.089C14.4167 11.089 14.8917 10.6049 14.8917 10.0207C14.8917 9.42814 14.4167 8.95242 13.825 8.95242C13.2333 8.95242 12.7583 9.42814 12.7583 10.0207ZM6.14166 11.089C5.55832 11.089 5.07499 10.6049 5.07499 10.0207C5.07499 9.42814 5.54999 8.95242 6.14166 8.95242C6.73332 8.95242 7.20832 9.42814 7.20832 10.0207C7.20832 10.6049 6.73332 11.0806 6.14166 11.089Z" fill="#626363"/>
</g>
</g>
</svg>
