<svg width="20" height="20" viewBox="0 0 20 20" fill="none" xmlns="http://www.w3.org/2000/svg">
<path d="M14.1667 2.02502H5.83333C3.33333 2.02502 1.66667 3.69169 1.66667 6.19169V11.1917C1.66667 13.6917 3.33333 15.3584 5.83333 15.3584V17.1334C5.83333 17.8 6.575 18.2 7.125 17.825L10.8333 15.3584H14.1667C16.6667 15.3584 18.3333 13.6917 18.3333 11.1917V6.19169C18.3333 3.69169 16.6667 2.02502 14.1667 2.02502ZM10 12.1667C9.65 12.1667 9.375 11.8834 9.375 11.5417C9.375 11.2 9.65 10.9167 10 10.9167C10.35 10.9167 10.625 11.2 10.625 11.5417C10.625 11.8834 10.35 12.1667 10 12.1667ZM11.05 8.70836C10.725 8.92502 10.625 9.06669 10.625 9.30002V9.47503C10.625 9.81669 10.3417 10.1 10 10.1C9.65833 10.1 9.375 9.81669 9.375 9.47503V9.30002C9.375 8.33336 10.0833 7.85836 10.35 7.67502C10.6583 7.46669 10.7583 7.32502 10.7583 7.10836C10.7583 6.69169 10.4167 6.35002 10 6.35002C9.58333 6.35002 9.24167 6.69169 9.24167 7.10836C9.24167 7.45002 8.95833 7.73336 8.61667 7.73336C8.275 7.73336 7.99167 7.45002 7.99167 7.10836C7.99167 6.00002 8.89167 5.10002 10 5.10002C11.1083 5.10002 12.0083 6.00002 12.0083 7.10836C12.0083 8.05836 11.3083 8.53336 11.05 8.70836Z" fill="#A9E0DE"/>
</svg>
