<svg width="40" height="40" viewBox="0 0 40 40" fill="none" xmlns="http://www.w3.org/2000/svg">
<path d="M29.2549 13.9216V7.33333V7.2549C29.098 3.88235 21.6471 2.07843 14.6667 2.07843C7.60784 2.07843 0.0784302 3.96078 0.0784302 7.41176V32.7451C0.0784302 36.1961 7.60784 38.0784 14.6667 38.0784C16.7059 38.0784 21.4902 37.9216 24.1569 36.5882C25.2549 36.9804 26.4314 37.1372 27.6863 37.1372C34.1176 37.1372 39.2941 31.9608 39.2941 25.5294C39.2941 19.5686 34.902 14.7059 29.2549 13.9216ZM27.6863 13.8431C24.549 13.8431 21.6471 15.098 19.5294 17.2157C18.0392 17.3725 16.3922 17.5294 14.6667 17.5294C6.58823 17.5294 1.64706 15.3333 1.64706 13.7647V9.84314C1.72549 9.92157 1.80392 9.92157 1.88235 10C1.96078 10.0784 2.03921 10.0784 2.11765 10.1569C2.35294 10.3137 2.5098 10.3922 2.7451 10.549C2.82353 10.549 2.90196 10.6274 2.98039 10.6274C3.13725 10.7059 3.37255 10.7843 3.52941 10.8627C3.60784 10.9412 3.7647 10.9412 3.84314 11.0196C4.07843 11.098 4.23529 11.1765 4.47059 11.2549C4.54902 11.2549 4.62745 11.3333 4.70588 11.3333C5.01961 11.4118 5.33333 11.4902 5.64706 11.5686C5.72549 11.5686 5.88235 11.6471 5.96078 11.6471C6.19608 11.7255 6.43137 11.7255 6.66667 11.8039C6.7451 11.8039 6.90196 11.8824 6.98039 11.8824C7.29412 11.9608 7.68627 12.0392 8 12.1176C8.07843 12.1176 8.15686 12.1176 8.23529 12.1176C8.54902 12.1961 8.86274 12.1961 9.17647 12.2745C9.33333 12.2745 9.41176 12.2745 9.56863 12.3529C9.88235 12.3529 10.1961 12.4314 10.5098 12.4314C10.5882 12.4314 10.6667 12.4314 10.7451 12.4314C11.1373 12.4314 11.5294 12.5098 11.9216 12.5098C12 12.5098 12.0784 12.5098 12.2353 12.5098C12.549 12.5098 12.8627 12.5098 13.1765 12.5882C13.2549 12.5882 13.4118 12.5882 13.4902 12.5882C13.8824 12.5882 14.2745 12.5882 14.6667 12.5882C15.0588 12.5882 15.451 12.5882 15.8431 12.5882C15.9216 12.5882 16 12.5882 16.0784 12.5882C16.3922 12.5882 16.7843 12.5882 17.098 12.5098C17.1765 12.5098 17.2549 12.5098 17.3333 12.5098C17.7255 12.5098 18.1176 12.4314 18.5882 12.4314H18.6667C19.0588 12.4314 19.3725 12.3529 19.7647 12.2745C19.8431 12.2745 19.9216 12.2745 20 12.2745C20.7843 12.1961 21.5686 12.0392 22.2745 11.8824C22.3529 11.8824 22.3529 11.8824 22.4314 11.8824C22.7451 11.8039 23.0588 11.7255 23.3725 11.6471C23.451 11.6471 23.451 11.6471 23.5294 11.6471C24.2353 11.4902 24.8627 11.2549 25.4902 11.0196C25.5686 11.0196 25.5686 11.0196 25.6471 10.9412C25.9608 10.8627 26.1961 10.7059 26.4314 10.549C26.6667 10.3922 26.9804 10.2353 27.2157 10.1569C27.2157 10.1569 27.2157 10.1569 27.2941 10.1569C27.451 10.0784 27.5294 10 27.6863 9.92157V13.8431ZM1.64706 22.549C4.15686 24.3529 9.41176 25.2941 14.6667 25.2941C15.1373 25.2941 15.6078 25.2941 16.0784 25.2941V25.3725C16.0784 27.0196 16.3922 28.5882 17.0196 30C16.3137 30.0784 15.5294 30.0784 14.6667 30.0784C6.58823 30.0784 1.64706 27.8823 1.64706 26.3137V22.549ZM16.1569 23.7255C15.6863 23.7255 15.2157 23.7255 14.5882 23.7255C6.58823 23.8039 1.64706 21.6078 1.64706 20.0392V16.1961C4.15686 18 9.41176 18.9412 14.6667 18.9412C15.8431 18.9412 17.0196 18.8627 18.1176 18.7843C17.098 20.2745 16.4706 21.9216 16.1569 23.7255ZM14.6667 3.64706C22.7451 3.64706 27.6863 5.84314 27.6863 7.41176C27.6863 8.98039 22.7451 11.1765 14.6667 11.1765C13.6471 11.1765 12.7059 11.1765 11.7647 11.098C5.41176 10.6274 1.64706 8.82353 1.64706 7.49019C1.64706 5.84314 6.58823 3.64706 14.6667 3.64706ZM14.6667 36.4314C6.58823 36.4314 1.64706 34.2353 1.64706 32.6667V28.8235C4.23529 30.6274 9.56863 31.6471 14.6667 31.6471C15.7647 31.6471 16.8627 31.5686 17.8039 31.4902C18.8235 33.2157 20.3137 34.549 22.0392 35.5686C20.3137 36.1176 17.6471 36.4314 14.6667 36.4314ZM27.6863 35.4902C22.1176 35.4902 17.6471 31.0196 17.6471 25.451C17.6471 19.8824 22.1176 15.4118 27.6863 15.4118C33.2549 15.4118 37.7255 19.8824 37.7255 25.451C37.7255 30.9412 33.1765 35.4902 27.6863 35.4902Z" fill="#313232"/>
<path d="M27.6863 21.2157C28.6274 21.2157 29.4118 22 29.4118 22.9412C29.4118 23.4118 29.7255 23.7255 30.1961 23.7255C30.6667 23.7255 30.9804 23.4118 30.9804 22.9412C30.9804 21.3725 29.8823 20.1176 28.4706 19.7255V19.0196C28.4706 18.549 28.1569 18.2353 27.6863 18.2353C27.2157 18.2353 26.902 18.549 26.902 19.0196V19.7255C25.4902 20.1176 24.3922 21.3725 24.3922 22.9412C24.3922 24.7451 25.8823 26.2353 27.6863 26.2353C28.6274 26.2353 29.4118 27.0196 29.4118 27.9608C29.4118 28.902 28.6274 29.6863 27.6863 29.6863C26.7451 29.6863 25.9608 28.902 25.9608 27.9608C25.9608 27.4902 25.6471 27.1765 25.1765 27.1765C24.7059 27.1765 24.3922 27.4902 24.3922 27.9608C24.3922 29.5294 25.4902 30.7843 26.902 31.1765V31.8039C26.902 32.2745 27.2157 32.5882 27.6863 32.5882C28.1569 32.5882 28.4706 32.2745 28.4706 31.8039V31.098C29.8823 30.7059 30.9804 29.451 30.9804 27.8823C30.9804 26.0784 29.4902 24.5882 27.6863 24.5882C26.7451 24.5882 25.9608 23.8039 25.9608 22.8627C25.9608 21.9216 26.6667 21.2157 27.6863 21.2157Z" fill="#313232"/>
</svg>
