<svg width="40" height="40" viewBox="0 0 40 40" fill="none" xmlns="http://www.w3.org/2000/svg">
<rect x="0.5" y="0.5" width="39" height="39" rx="3.5" fill="#F6F7F7"/>
<g clip-path="url(#clip0_9072_79411)">
<path d="M30.272 22.7452C30.5216 21.812 31.9882 21.0059 31.9882 19.9939C31.9882 18.9818 30.5217 18.1757 30.2724 17.2426C30.0144 16.2768 30.8736 14.8471 30.3846 14.0015C29.8883 13.1438 28.2158 13.1766 27.5198 12.4803C26.8238 11.7844 26.8566 10.1119 25.9986 9.61555C25.153 9.12633 23.7234 9.98572 22.7576 9.72774C21.8242 9.47829 21.0181 8.01172 20.0061 8.01172C18.994 8.01172 18.1879 9.4783 17.2548 9.72755C16.289 9.98553 14.8594 9.1263 14.0137 9.61536C13.156 10.1117 13.1888 11.7842 12.4925 12.4801C11.7966 13.1761 10.1241 13.1434 9.62776 14.0013C9.13853 14.847 9.99793 16.2766 9.73994 17.2424C9.4905 18.1757 8.02393 18.9818 8.02393 19.9939C8.02393 21.0059 9.49051 21.812 9.73975 22.7452C9.99774 23.711 9.13851 25.1406 9.62757 25.9862C10.1239 26.844 11.7964 26.8111 12.4924 27.5074C13.1883 28.2034 13.1556 29.8759 14.0135 30.3722C14.8592 30.8614 16.2888 30.002 17.2546 30.26C18.1879 30.5094 18.994 31.976 20.0061 31.976C21.0181 31.976 21.8242 30.5094 22.7574 30.2602C23.7232 30.0022 25.1528 30.8614 25.9984 30.3724C26.8562 29.8761 26.8233 28.2036 27.5196 27.5076C28.2156 26.8116 29.8881 26.8443 30.3844 25.9864C30.8736 25.1406 30.014 23.711 30.272 22.7452ZM18.4572 24.0708L15.0555 20.6475L16.7076 18.9849L18.5055 20.7933L23.3526 15.9172L24.9565 17.531L18.4572 24.0708Z" fill="#CFD0D0"/>
</g>
<rect x="0.5" y="0.5" width="39" height="39" rx="3.5" stroke="#EDEEEE"/>
<defs>
<clipPath id="clip0_9072_79411">
<rect width="24" height="24" fill="white" transform="translate(8 8)"/>
</clipPath>
</defs>
</svg>
