<svg width="314" height="200" viewBox="0 0 314 200" fill="none" xmlns="http://www.w3.org/2000/svg">
<path d="M231.046 55.817L214.249 56.013C214.249 56.013 211.896 52.6797 212.288 50.8496C212.68 49.0196 216.014 51.3072 218.824 51.9608C221.635 52.6144 223.203 53.3987 228.824 53.464C234.51 53.464 237.321 55.7516 231.046 55.817Z" fill="#F6F7F7"/>
<path d="M220.719 15.4902C220.719 15.4902 206.34 18.6928 212.157 20.2614C217.974 21.83 243.464 20.3921 250.327 20.7843C257.19 21.1765 258.497 17.5163 254.575 16.6013C250.654 15.6862 248.693 16.732 244.772 14.5751C240.85 12.4183 236.798 10.7843 233.791 12.549C230.719 14.3137 234.314 16.9934 229.739 16.9281C225.164 16.8627 226.471 13.9215 220.719 15.4902Z" fill="#F6F7F7"/>
<path d="M123.139 44.2484C123.139 44.2484 121.113 47.1895 114.184 46.2091C108.498 45.4248 105.884 50.5882 115.753 50.1961C122.093 49.9346 132.42 50.2614 139.217 50.1961C146.015 50.1307 148.629 46.4052 141.897 46.6667C130.59 46.9935 128.629 42.3529 123.139 44.2484Z" fill="#F6F7F7"/>
<path d="M256.144 170.458L254.706 168.954C254.706 168.954 254.51 167.32 253.203 166.667C251.896 166.013 252.027 168.17 251.046 168.301C250.066 168.431 250.72 165.686 250.523 164.706C250.327 163.725 248.889 163.725 248.367 165.882C248.105 167.124 246.994 168.301 246.144 169.15C231.308 167.386 215.36 166.601 200.327 166.471C200.066 166.013 199.739 165.556 199.543 165.229C199.02 164.575 197.582 164.575 197.582 164.575C197.582 164.575 197.059 162.745 196.406 162.941C195.752 163.137 195.556 164.248 194.772 165.098C193.988 165.948 193.661 166.471 193.595 164.771C193.53 163.072 191.373 160.85 191.046 164.706C190.981 165.359 190.785 165.948 190.458 166.405C163.791 166.536 141.635 168.366 136.537 169.02C112.55 172.157 90.5888 178.889 69.6738 182.092C43.9875 186.013 0.523438 199.608 0.523438 199.608H312.746C301.308 189.216 265.752 172.026 256.144 170.458Z" fill="#F6F7F7"/>
<path d="M168.234 20.5228C168.495 20.5228 168.757 20.4575 169.084 20.4575C170.522 20.3921 171.698 20.7189 171.633 20C171.633 19.281 170.391 17.8431 168.953 17.9085C168.561 17.9085 168.169 18.0392 167.842 18.3006L168.234 20.5228Z" fill="#B4EBF6"/>
<path d="M176.078 0.588218C176.078 0.588218 170.457 -0.0653775 168.301 4.57514C166.144 9.21567 167.255 12.3529 167.255 12.3529C167.255 12.3529 167.908 8.49671 169.085 7.18952C170.98 5.09802 169.739 8.16991 181.438 6.47057C183.725 6.14377 184.248 9.54246 184.837 13.0065C184.837 13.0065 184.51 15.9477 184.837 15.817C185.163 15.6863 185.882 14.9673 186.013 14.183C186.144 13.3987 186.013 12.6144 186.013 12.6144C186.013 12.6144 187.712 11.3072 188.039 10.915C188.039 10.915 187.712 8.56207 187.124 6.99344C186.536 5.42482 184.771 1.69933 182.157 1.04574C179.477 0.326783 176.078 0.588218 176.078 0.588218Z" fill="#1CACC8"/>
<path d="M178.104 30.3921C177.647 30.3921 177.189 30.3921 176.797 30.3268C176.47 30.3268 176.143 30.2614 176.013 30.3268C175.947 30.3268 172.156 30.5229 171.241 29.4771C170.588 28.6928 169.477 26.6666 168.758 24.6405C168.039 22.6144 167.254 17.9085 167.254 17.7124C167.189 17.451 167.385 17.2549 167.581 17.2549C167.777 17.1895 168.039 17.3856 168.039 17.5817C168.039 17.647 168.823 22.4183 169.477 24.3791C170.13 26.2745 171.176 28.2353 171.764 28.9542C172.156 29.4117 174.444 29.6078 175.816 29.5425C176.013 29.5425 176.339 29.5425 176.731 29.5425C177.908 29.6078 179.869 29.7385 180.588 28.8889C181.699 27.451 184.379 23.7908 185.032 20.3921C185.359 18.7581 185.424 17.8431 185.424 17.1895C185.49 16.4052 185.49 16.0131 185.947 15.5555C186.143 15.3595 186.47 15.1634 186.862 14.9019C187.777 14.3137 189.281 13.3333 189.281 12.4836V12.2222C189.281 11.83 189.346 11.4379 189.281 11.3725C189.281 11.3725 189.215 11.3725 189.019 11.3725C188.954 11.3725 188.954 11.3725 188.888 11.3725C188.104 11.3725 186.862 12.0915 186.274 12.8104C186.47 13.8562 186.405 15.6862 184.836 16.2745C184.705 16.3398 184.509 16.2745 184.379 16.2091C184.182 16.0784 183.921 15.8823 184.248 13.1372V13.0719C183.594 9.28102 183.071 6.79736 181.372 7.0588C174.64 8.03919 172.091 7.38559 170.849 7.12416C169.934 6.92808 169.934 6.92808 169.281 7.64703C168.431 8.62742 167.712 11.5686 167.581 12.6144C167.516 12.8758 167.32 13.0065 167.058 12.9412C166.797 12.8758 166.666 12.6797 166.731 12.4183C166.731 12.2876 167.45 8.43135 168.627 7.0588C169.542 6.01305 169.999 6.07841 171.045 6.27449C172.222 6.53593 174.705 7.12416 181.241 6.20913C183.921 5.81697 184.509 9.41174 185.098 12.9412V13.0719C185.098 13.1372 185.098 13.1372 185.098 13.2026C185.032 13.9215 184.967 14.7712 184.967 15.2941C185.816 14.5751 185.424 12.9412 185.424 12.8758C185.424 12.7451 185.424 12.6144 185.49 12.549C186.143 11.5686 187.777 10.6536 188.888 10.5882C189.281 10.5882 189.673 10.5882 189.934 10.8497C190.196 11.1765 190.196 11.5686 190.196 12.3529V12.6144C190.13 13.8562 188.562 14.9019 187.385 15.6863C187.058 15.8823 186.732 16.1438 186.601 16.2745C186.405 16.4706 186.405 16.6013 186.339 17.3202C186.274 17.9738 186.209 18.9542 185.947 20.5882C185.294 24.183 182.483 28.0392 181.372 29.4771C180.718 30.1961 179.346 30.3921 178.104 30.3921Z" fill="#1CACC8"/>
<path d="M187.973 14.9019C187.973 14.9019 188.43 17.1242 187.646 18.1699C186.862 19.2157 185.555 20.3268 185.555 20.3268C185.555 20.3268 185.881 16.3399 186.143 16.0131C186.404 15.7516 187.973 14.9019 187.973 14.9019Z" fill="#1CACC8"/>
<path d="M168.626 12.0915C168.234 12.0915 167.907 11.8301 167.842 11.5033C167.711 11.0457 167.973 10.2614 168.496 10.0653C168.953 9.86927 171.175 8.82353 172.221 9.21568C172.875 9.41176 173.332 9.99999 173.267 10.5882C173.201 11.0457 172.875 11.5686 171.96 11.6993C171.371 11.7647 170.848 11.8301 170.326 11.8954C169.672 11.9608 169.149 12.0915 168.692 12.0915C168.692 12.0915 168.692 12.0915 168.626 12.0915ZM171.698 9.93463C170.979 9.93463 169.672 10.3922 168.888 10.7843C168.822 10.7843 168.757 10.8497 168.757 10.9804C168.692 11.1111 168.692 11.2418 168.757 11.2418C169.149 11.1765 169.672 11.1111 170.326 10.9804C170.848 10.915 171.371 10.8497 171.96 10.7189C172.286 10.6536 172.548 10.5229 172.548 10.3921C172.548 10.2614 172.417 9.99999 172.09 9.93463C171.894 9.93463 171.829 9.93463 171.698 9.93463Z" fill="#1CACC8"/>
<path d="M181.045 11.0457H180.98C180.588 11.0457 179.999 10.915 179.346 10.8497C178.823 10.7843 178.3 10.7189 177.712 10.6536C176.797 10.5229 176.405 9.99998 176.405 9.54246C176.339 8.95423 176.797 8.43135 177.45 8.16991C178.562 7.77775 180.718 8.8235 181.176 9.01958C181.699 9.28102 181.96 9.99997 181.829 10.4575C181.764 10.8496 181.437 11.0457 181.045 11.0457ZM177.973 8.95422C177.843 8.95422 177.777 8.95422 177.646 9.01958C177.32 9.1503 177.189 9.34638 177.189 9.4771C177.189 9.60782 177.45 9.80389 177.777 9.80389C178.365 9.86925 178.888 9.93461 179.411 10.0653C180.065 10.1307 180.588 10.2614 180.98 10.2614C180.98 10.2614 180.98 10.196 180.914 10.0653C180.849 9.93461 180.784 9.86926 180.784 9.86926C179.999 9.41174 178.692 8.95422 177.973 8.95422Z" fill="#1CACC8"/>
<path d="M169.934 18.6274C168.561 18.6274 167.515 18.2353 166.796 17.3856C165.62 16.0784 165.685 14.1176 165.881 13.0719C165.947 12.6143 166.273 12.2875 166.666 12.1568C169.476 11.3725 172.156 11.7647 173.136 11.9607C173.594 12.0261 173.986 12.4836 173.986 12.9411C174.051 14.0523 173.986 16.1438 172.744 17.5163C172.09 18.2353 171.11 18.6274 169.934 18.6274ZM170.26 12.549C169.215 12.549 168.038 12.6797 166.862 13.0065C166.796 13.0065 166.731 13.1372 166.666 13.2026C166.535 13.9215 166.469 15.7516 167.384 16.8627C167.907 17.5163 168.757 17.7777 169.868 17.7777C170.783 17.7777 171.567 17.5163 172.09 16.9281C173.136 15.817 173.136 13.7908 173.071 13.0065C173.071 12.8758 173.005 12.8104 172.875 12.7451C172.417 12.6797 171.502 12.549 170.26 12.549Z" fill="#1CACC8"/>
<path d="M170.326 16.7974C170.195 16.7974 169.999 16.732 169.934 16.5359C169.803 16.3398 169.803 16.0131 169.868 15.6863C169.346 16.1438 169.084 16.4706 168.757 16.4706C168.561 16.4706 168.431 16.4052 168.3 16.2091C168.234 16.0784 168.038 15.7516 168.953 14.2483C169.084 14.0523 169.346 13.9869 169.542 14.1176C169.738 14.2483 169.803 14.5098 169.672 14.7059C169.672 14.7712 169.607 14.7712 169.607 14.8366C169.934 14.5098 170.195 14.3791 170.457 14.5098C170.522 14.5098 170.783 14.6405 170.783 15.0327C170.783 15.2287 170.783 15.4248 170.783 15.6209C170.783 15.817 170.718 16.1438 170.783 16.2745C170.914 16.4706 170.783 16.732 170.587 16.8627C170.457 16.732 170.391 16.7974 170.326 16.7974Z" fill="#1CACC8"/>
<path d="M179.543 16.5359C179.412 16.5359 179.216 16.4706 179.151 16.2745C179.02 16.0784 179.02 15.7516 179.085 15.4248C178.562 15.8823 178.301 16.2091 177.974 16.2091C177.778 16.2091 177.647 16.1438 177.517 15.9477C177.451 15.817 177.255 15.4902 178.17 13.9869C178.301 13.7908 178.562 13.7255 178.758 13.8562C178.955 13.9869 179.02 14.2483 178.889 14.4444C178.889 14.5098 178.824 14.5098 178.824 14.5751C179.151 14.2483 179.412 14.1176 179.673 14.2483C179.739 14.2483 180 14.3791 180 14.7712C180 14.9673 180 15.1634 180 15.3595C180 15.5555 179.935 15.8823 180 16.0131C180.131 16.2091 180 16.4706 179.804 16.6013C179.673 16.5359 179.608 16.5359 179.543 16.5359Z" fill="#1CACC8"/>
<path d="M182.745 14.6405C182.615 14.6405 182.484 14.5752 182.353 14.4444C182.222 14.2484 182.288 13.9869 182.484 13.8562L184.51 12.6144C184.706 12.4836 184.968 12.549 185.098 12.7451C185.229 12.9412 185.164 13.2026 184.968 13.3333L182.941 14.5751C182.941 14.6405 182.876 14.6405 182.745 14.6405Z" fill="#1CACC8"/>
<path d="M174.379 22.2222C173.268 22.2222 172.876 21.0457 172.811 20.3921L173.072 14.9019C173.072 14.8366 173.137 14.7059 173.203 14.6405C173.987 13.7908 175.163 14.183 175.752 14.5751C175.882 14.6405 175.948 14.7712 175.948 14.9019C175.948 14.9673 176.209 19.0196 176.405 20.3268C176.601 22.0261 175.556 22.2222 175.49 22.2222H174.379ZM173.66 20.3921C173.66 20.3921 173.791 21.3725 174.379 21.3725H175.294C175.425 21.3072 175.556 21.0457 175.49 20.4575C175.36 19.3464 175.098 16.1438 175.098 15.2287C174.837 15.098 174.248 14.9019 173.922 15.1634L173.66 20.3921Z" fill="#1CACC8"/>
<path d="M178.562 20.1307C178.627 20.8497 179.738 20.3268 181.176 20.1961C182.614 20.0653 183.79 20.3268 183.725 19.6078C183.66 18.8889 182.353 17.5163 180.915 17.7124C179.477 17.7778 178.496 19.4118 178.562 20.1307Z" fill="#B4EBF6"/>
<path d="M179.15 18.366C177.778 18.366 176.732 17.9738 176.013 17.1242C174.837 15.817 174.902 13.8562 175.098 12.8105C175.163 12.3529 175.49 12.0261 175.882 11.8954C178.693 11.1111 181.373 11.5033 182.353 11.6993C182.81 11.7647 183.203 12.2222 183.203 12.6797C183.268 13.7908 183.203 15.8823 181.961 17.2549C181.307 18.0392 180.327 18.366 179.15 18.366ZM179.477 12.2876C178.431 12.2876 177.255 12.4183 176.078 12.7451C176.013 12.7451 175.948 12.8758 175.882 12.9412C175.752 13.6601 175.686 15.4902 176.601 16.6013C177.124 17.2549 177.974 17.5163 179.085 17.5163C180 17.5163 180.784 17.2549 181.307 16.6667C182.353 15.5555 182.353 13.5294 182.288 12.7451C182.288 12.6144 182.222 12.549 182.091 12.4837C181.634 12.4837 180.719 12.2876 179.477 12.2876Z" fill="#1CACC8"/>
<path d="M175.686 23.6601C176.012 23.464 176.274 23.3333 176.535 23.2026C176.797 23.0719 177.058 22.9412 177.32 22.7451C177.581 22.6144 177.842 22.4836 178.104 22.2876C178.365 22.1569 178.627 21.9608 178.954 21.83C178.888 22.2222 178.757 22.549 178.561 22.8104C178.365 23.0719 178.039 23.3333 177.777 23.5294C177.45 23.7255 177.123 23.8562 176.797 23.8562C176.339 23.8562 176.012 23.7908 175.686 23.6601Z" fill="#1CACC8"/>
<path d="M180.064 36.6667C179.933 36.6667 179.541 36.6667 177.711 34.7712C177.384 34.4444 175.946 32.9412 175.619 32.2876C175.227 31.4379 175.554 29.9346 175.619 29.8039C175.685 29.6078 175.881 29.4118 176.142 29.4771C176.338 29.5425 176.534 29.7386 176.469 30C176.338 30.5229 176.208 31.5033 176.469 31.9608C176.731 32.549 179.41 35.3595 180.129 35.817C180.848 35.3595 183.724 32.9412 186.404 30.5882C185.946 29.6078 184.443 26.3399 184.116 23.6601C184.116 23.3987 184.247 23.2026 184.508 23.2026C184.704 23.2026 184.966 23.3333 184.966 23.5948C185.293 26.5359 187.253 30.4575 187.319 30.5229C187.384 30.7189 187.384 30.915 187.188 31.0457C180.652 36.6667 180.26 36.6667 180.064 36.6667Z" fill="#1CACC8"/>
<path d="M174.575 43.1372C174.51 43.1372 174.444 43.1372 174.379 43.0719C174.183 42.9411 174.117 42.6797 174.183 42.4836C175.359 40.3921 178.17 35.6209 179.477 35.4902C179.673 35.4902 179.934 35.6209 179.934 35.8823C179.934 36.1438 179.804 36.3398 179.542 36.3398C178.889 36.4706 176.666 39.8039 174.967 42.8758C174.902 43.0719 174.771 43.1372 174.575 43.1372Z" fill="#1CACC8"/>
<path d="M184.836 42.4837C184.705 42.4837 184.509 42.4183 184.444 42.2222C183.071 39.4771 181.176 36.4706 180.587 36.3399C180.326 36.3399 180.195 36.1438 180.195 35.9477C180.195 35.6863 180.391 35.5555 180.653 35.5555C181.829 35.5555 183.986 39.5425 185.228 41.8954C185.359 42.0915 185.228 42.3529 185.032 42.4837C184.967 42.4837 184.901 42.4837 184.836 42.4837Z" fill="#1CACC8"/>
<path d="M160.326 97.1242C160.195 97.1242 160.064 97.0588 159.999 96.9281C159.934 96.7974 157.777 93.4641 158.757 89.7386C159.28 87.8431 159.541 84.3791 159.737 81.3726C159.934 78.4314 160.064 76.6013 160.391 75.9477C160.914 74.7712 160.979 70.915 160.587 68.2353C160.26 65.5556 160.13 58.6928 160.849 56.9281C161.371 55.6863 160.979 50.915 160.849 49.1503C160.849 48.8889 160.979 48.6928 161.241 48.6928C161.502 48.6928 161.698 48.8235 161.698 49.085C161.764 49.7386 162.352 55.5556 161.698 57.2549C161.11 58.7582 161.175 65.4248 161.502 68.1699C161.829 70.6536 161.894 74.8366 161.175 76.3399C160.914 76.8628 160.783 79.2157 160.587 81.4379C160.391 84.5098 160.13 87.9739 159.607 90C158.692 93.3987 160.718 96.4706 160.718 96.536C160.849 96.732 160.783 96.9935 160.587 97.1242C160.456 97.1242 160.391 97.1242 160.326 97.1242Z" fill="#1CACC8"/>
<path d="M189.019 31.3725C188.888 31.3725 188.692 31.3072 188.627 31.1111C188.627 31.1111 187.973 29.8692 187.189 29.0196C186.535 28.366 185.882 28.5621 185.882 28.5621C185.686 28.6274 185.424 28.4967 185.359 28.3006C185.293 28.1045 185.424 27.8431 185.62 27.7777C185.686 27.7777 186.731 27.3856 187.777 28.4313C188.692 29.3464 189.346 30.6536 189.411 30.7189C189.542 30.915 189.411 31.1764 189.215 31.3072C189.15 31.3725 189.084 31.3725 189.019 31.3725Z" fill="#1CACC8"/>
<path d="M183.202 48.3006C182.613 50.6536 182.156 52.549 182.025 53.5294C181.698 56.013 180.718 69.281 182.94 79.8039L184.313 84.7059C179.411 85.6863 177.123 84.5098 177.123 84.5098L174.966 83.6601C175.228 82.3529 176.927 75.4902 177.058 73.7255C177.581 67.5163 175.358 54.3137 174.574 45.4902C174.509 44.8366 174.443 44.183 174.443 43.5294C174.443 43.5294 178.104 51.3725 180.064 52.6144L183.202 48.3006Z" fill="#B4EBF6"/>
<path d="M177.385 38.1699C177.385 38.1699 178.104 41.9608 178.561 42.3529C179.019 42.7451 178.953 42.8104 178.953 42.8104L177.254 49.085C177.254 49.085 179.541 52.8104 180.064 52.6797C180.587 52.549 183.332 48.3006 183.332 48.3006L182.156 42.6797C182.156 42.6797 183.594 41.0457 183.855 40.2614C183.855 40.2614 181.502 35.9477 180.457 36.0784C180.457 36.0784 180.26 36.4052 180.064 36.2745C179.868 36.2091 179.345 35.7516 179.345 35.7516L177.385 38.1699Z" fill="#1CACC8"/>
<path d="M165.294 122.68C163.006 122.68 158.235 119.15 157.451 116.993C156.993 115.686 157.777 110.457 159.215 101.895C160.196 95.8823 161.242 89.6732 161.438 86.0131C161.568 83.3333 161.568 81.6993 161.568 80.4575C161.568 78.0392 161.568 77.647 162.81 75.817C163.268 75.098 163.66 74.6405 163.856 74.3137C164.313 73.7255 164.313 73.7255 164.183 73.3333L164.052 73.0719C163.921 72.8104 163.856 72.549 163.725 72.3529C163.529 71.8954 163.268 71.5033 163.464 71.1111C163.66 70.7189 164.117 70.5229 164.575 70.3921C165.425 70.1307 165.621 69.8693 165.621 69.8039C165.686 69.6078 165.555 69.4117 165.425 69.2157C164.771 68.366 164.575 67.2549 164.836 66.2745C164.902 65.817 163.987 62.2876 163.137 59.0849C161.96 54.5751 160.653 49.4771 160.523 47.647C160.523 47.2549 160.457 46.8627 160.457 46.5359C160.261 44.0523 160.196 42.8104 161.634 41.2418C163.137 39.6732 168.562 35.0327 169.738 34.183C169.869 33.7908 170 33.5294 170.13 33.3333C170.849 32.2222 174.706 29.8693 175.163 29.6078C175.294 29.5425 175.49 29.5425 175.621 29.6078C175.751 29.7385 175.817 29.8693 175.817 30.0653C175.817 30.1307 174.509 35.8823 174.902 43.5294C174.967 44.183 174.967 44.8366 175.032 45.4902C175.294 48.366 175.686 51.5686 176.078 55.0327C176.928 62.1568 177.843 69.5425 177.516 73.7908C177.385 75.6863 177.189 77.0588 176.993 78.3006C176.405 81.6993 175.359 84.2484 172.745 88.6928C170.784 91.9608 169.477 102.222 168.366 110.523C167.124 120 166.732 122.353 165.882 122.68C165.686 122.68 165.49 122.68 165.294 122.68ZM169.346 35.6209C167.385 37.1895 163.464 40.5882 162.353 41.83C161.176 43.1372 161.242 44.0523 161.372 46.4706C161.372 46.7974 161.438 47.1895 161.438 47.647C161.568 49.4117 162.875 54.4444 163.987 58.9542C165.425 64.4444 165.817 66.0784 165.686 66.5359C165.49 67.2549 165.686 68.1046 166.143 68.8235C166.47 69.3464 166.601 69.8039 166.47 70.1961C166.274 70.7189 165.751 71.0457 164.836 71.3072C164.379 71.4379 164.313 71.5686 164.248 71.5686C164.248 71.634 164.379 71.8954 164.509 72.0915C164.64 72.2876 164.771 72.6144 164.902 72.9412L164.967 73.2026C165.294 73.9869 165.163 74.183 164.575 74.9673C164.313 75.2941 163.987 75.7516 163.529 76.4052C162.418 78.0392 162.418 78.2353 162.418 80.5882C162.418 81.7647 162.418 83.5294 162.287 86.2091C162.091 89.9346 161.045 96.1438 160.065 102.157C159.019 108.497 157.843 115.686 158.235 116.797C159.085 118.954 164.117 122.222 165.49 121.895C166.078 121.242 166.797 115.49 167.451 110.457C168.562 102.091 169.934 91.7647 171.96 88.3006C174.509 83.9216 175.555 81.5032 176.143 78.2353C176.34 77.0588 176.536 75.6863 176.666 73.7908C176.993 69.6078 176.143 62.2876 175.228 55.2287C174.836 51.7647 174.444 48.4967 174.183 45.6209C174.117 44.9673 174.052 44.3137 174.052 43.6601C173.725 37.7124 174.444 32.8758 174.836 30.915C173.464 31.7647 171.372 33.2026 170.915 33.8562C170.784 33.9869 170.719 34.2483 170.588 34.6405V34.7059C169.869 36.6667 168.889 41.1111 169.15 44.2483C169.215 45.4248 169.215 46.5359 169.215 47.451C169.215 49.5425 169.215 51.1111 170.261 52.4836C171.895 54.5751 172.353 55.2287 172.418 55.2941C172.483 55.4248 172.483 55.5555 172.483 55.6863C172.418 55.817 172.353 55.8823 172.222 55.9477C171.438 56.2091 169.869 56.9281 170 57.647C170.065 57.9085 170.196 58.4314 170.392 59.0849C171.045 61.1765 172.287 65.098 172.483 70C172.549 71.2418 172.614 72.3529 172.679 73.3333C172.941 77.3856 173.137 79.8039 171.438 83.6601C171.241 84.3137 170.196 88.0392 169.085 88.7581C168.889 88.8889 168.627 88.8235 168.496 88.6274C168.366 88.4314 168.431 88.1699 168.627 88.0392C169.215 87.647 170.13 85.098 170.653 83.3987C172.287 79.6732 172.157 77.451 171.83 73.3987C171.764 72.4183 171.699 71.3072 171.634 70C171.372 65.1634 170.196 61.3725 169.542 59.281C169.346 58.5621 169.15 58.0392 169.085 57.7124C168.889 56.4706 170.457 55.6209 171.372 55.2287C171.045 54.8366 170.523 54.1176 169.608 52.9412C168.366 51.3725 168.366 49.6078 168.366 47.3856C168.366 46.4706 168.366 45.4248 168.3 44.2483C167.974 41.4379 168.627 37.9085 169.346 35.6209Z" fill="#1CACC8"/>
<path d="M185.751 88.2353C185.621 88.2353 185.49 88.1699 185.359 88.0392C184.183 85.9477 183.202 83.2026 182.483 79.8693C180.196 69.085 181.242 55.6863 181.568 53.464C181.699 52.6144 182.091 50.7843 182.745 48.2353C184.117 42.7451 186.405 34.902 186.928 33.5294C187.647 31.8301 188.431 30.7843 189.608 30.0654C190.523 29.5425 191.307 29.8693 192.418 30.2614C192.68 30.3922 192.941 30.4575 193.268 30.5882C194.771 31.1111 196.405 32.7451 196.666 32.9412C196.928 33.1372 197.908 34.0523 196.732 36.0131C196.274 36.7974 195.425 39.4118 194.444 42.2222C192.81 47.0588 191.699 50.2614 190.98 50.9804C190.523 51.4379 189.738 52.0261 189.019 52.549C188.366 53.0065 187.516 53.6601 187.255 53.9869C187.385 54.0523 187.581 54.1176 187.778 54.2484C188.431 54.5098 189.477 54.9019 189.608 56.1438C189.673 56.6013 189.412 58.1046 189.019 61.1765C188.104 67.5817 186.666 78.2353 187.255 83.3987C187.255 83.6601 187.124 83.8562 186.863 83.8562C186.666 83.8562 186.405 83.7255 186.405 83.464C185.817 78.2353 187.32 67.451 188.17 61.0457C188.497 58.6274 188.758 56.6013 188.758 56.2091C188.693 55.6209 188.235 55.3595 187.451 55.0327C187.059 54.902 186.666 54.7059 186.47 54.4444C186.34 54.3137 186.34 54.1176 186.34 53.9869C186.405 53.464 187.189 52.8758 188.497 51.8954C189.215 51.3725 189.934 50.8497 190.327 50.3922C190.915 49.8039 192.483 45.2287 193.595 41.9608C194.575 39.0196 195.425 36.4706 195.947 35.6209C196.797 34.1176 196.144 33.6601 196.078 33.6601L196.013 33.5948C196.013 33.5948 194.313 31.8954 192.876 31.4379C192.549 31.3072 192.287 31.2418 192.026 31.1111C190.98 30.7189 190.523 30.5229 190 30.8497C189.346 31.2418 188.431 31.9608 187.647 33.9216C187.124 35.2287 184.836 43.1372 183.464 48.4967C182.81 51.0457 182.418 52.8105 182.287 53.6601C181.961 55.817 180.915 69.1503 183.202 79.8039C183.856 83.0065 184.836 85.6863 185.947 87.7124C186.078 87.9085 186.013 88.1699 185.817 88.3006C185.882 88.2353 185.817 88.2353 185.751 88.2353Z" fill="#1CACC8"/>
<path d="M197.451 90.5229C196.862 90.5229 196.143 90.2614 195.424 89.6078C195.228 89.4118 195.228 89.1503 195.424 89.0196C195.62 88.8235 195.882 88.8235 196.013 89.0196C196.797 89.8039 197.581 89.7386 197.908 89.6078C198.3 89.3464 200.326 86.5359 200.392 85.4902C200.457 85.098 200.457 84.7059 200.719 84.5098C200.98 84.3137 201.241 84.3791 201.503 84.3791C201.764 84.4444 202.026 84.4444 202.483 84.4444C203.333 84.1176 207.189 77.9085 209.673 73.7908C211.437 70.915 213.006 68.4314 213.79 67.3202C215.882 64.5098 214.705 60.9804 214.705 60.915V60.8497C213.986 54.7059 210.392 46.8627 203.986 37.647C203.79 37.3856 203.66 37.1895 203.594 37.0588C202.875 36.0131 199.019 34.9673 196.732 34.6405C196.47 34.5751 196.339 34.3791 196.405 34.183C196.47 33.9216 196.666 33.7908 196.862 33.8562C197.516 33.9869 203.137 34.9019 204.313 36.6667C204.379 36.7974 204.509 36.9934 204.705 37.2549C211.176 46.5359 214.836 54.4444 215.555 60.7843C215.686 61.2418 216.797 64.9019 214.509 67.9085C213.725 68.9542 212.091 71.5686 210.392 74.3137C205.424 82.4183 203.464 85.2941 202.549 85.3595C202.026 85.4248 201.634 85.3595 201.372 85.2941C201.307 85.2941 201.241 85.2941 201.241 85.2941C201.241 85.3595 201.241 85.4902 201.176 85.6209C201.045 86.9281 198.823 90.1307 198.235 90.4575C198.104 90.4575 197.777 90.5229 197.451 90.5229Z" fill="#1CACC8"/>
<path d="M196.142 87.7777C196.142 87.7777 197.319 87.9085 197.253 88.6928C197.188 89.5425 196.665 90.5228 195.75 88.9542L196.142 87.7777Z" fill="#1CACC8"/>
<path d="M196.6 90.1961C196.208 90.1961 195.751 89.8693 195.358 89.1503C195.293 89.0196 195.293 88.9542 195.293 88.8235L195.685 87.647C195.751 87.451 195.947 87.3203 196.143 87.3203C196.666 87.3856 197.711 87.7124 197.646 88.6928C197.581 89.281 197.384 90 196.796 90.1307C196.731 90.1961 196.666 90.1961 196.6 90.1961ZM196.208 88.9542C196.469 89.3464 196.6 89.4117 196.6 89.4117C196.6 89.3464 196.796 89.0849 196.796 88.7581C196.796 88.5621 196.6 88.4314 196.404 88.366L196.208 88.9542Z" fill="#1CACC8"/>
<path d="M192.679 79.4771C192.614 79.4771 192.614 79.4771 192.549 79.4771C192.353 79.4118 192.156 79.2157 192.222 78.9542C192.287 78.5621 194.575 69.6732 196.928 67.2549C199.411 64.7059 200.915 62.8104 201.111 62.0261C201.176 61.3725 198.366 57.8431 197.058 57.1895C196.732 57.0588 196.405 56.7974 196.274 56.4706C196.143 56.1438 196.339 55.817 196.47 55.4902C196.601 55.1634 196.797 54.8366 196.797 54.3137C196.797 53.9869 196.732 53.9215 196.666 53.8562C196.536 53.7908 196.209 53.9215 195.947 54.0523C195.751 54.183 195.49 54.1176 195.359 53.9216C195.228 53.7255 195.294 53.464 195.49 53.3333C195.62 53.2026 196.47 52.7451 197.058 53.0719C197.451 53.268 197.581 53.6601 197.581 54.2483C197.581 54.9673 197.32 55.4902 197.124 55.817C197.058 55.9477 196.993 56.0784 196.993 56.1438C196.993 56.1438 197.058 56.2091 197.32 56.3398C198.562 56.9934 202.156 60.8497 201.83 62.0915C201.568 63.268 199.281 65.7516 197.451 67.7124C195.294 70 193.006 78.9542 193.006 79.0196C193.006 79.4117 192.81 79.4771 192.679 79.4771Z" fill="#1CACC8"/>
<path d="M193.137 98.6274C186.339 98.2353 185.163 93.6601 185.097 93.464C185.097 93.3333 185.097 93.268 185.163 93.1372C185.489 92.6144 185.751 91.8954 185.751 91.6993C185.751 91.6993 185.62 91.4379 184.574 91.1111C184.64 91.5686 184.771 92.2876 184.771 93.3333C184.771 94.5098 184.182 95.2288 183.137 95.2288C182.222 95.2288 181.11 94.6405 181.11 93.9216C181.11 93.6601 181.045 93.268 181.045 92.7451C180.98 91.8301 180.849 90.6536 180.914 90C180.98 88.7582 181.503 88.366 183.137 87.8431C183.986 87.5817 185.097 87.3856 186.078 87.2549C186.862 87.1242 187.581 87.0588 187.973 86.9281C188.365 86.7974 188.888 86.0131 189.215 85.2941C189.15 85.2941 189.084 85.2287 189.019 85.1634C188.692 84.8366 188.823 84.3137 188.823 84.1176C188.954 83.5294 189.542 81.6993 189.934 80.5229C190.065 80.0654 190.195 79.7386 190.261 79.5425V79.4771C190.391 79.1503 190.457 78.6928 190.914 78.4967C191.306 78.3007 191.895 78.3007 192.875 78.6274C193.267 78.7582 193.725 78.8889 194.248 78.9542C195.751 79.3464 197.516 79.7386 198.757 80.915C198.954 81.0457 198.954 81.3725 198.757 81.5033C198.561 81.6993 198.3 81.6993 198.169 81.5033C197.123 80.4575 195.555 80.0654 194.052 79.7386C193.594 79.6078 193.071 79.4771 192.679 79.3464C191.764 79.085 191.503 79.1503 191.372 79.1503C191.306 79.2157 191.241 79.3464 191.176 79.6078V79.6732C191.11 79.8693 190.98 80.1961 190.849 80.6536C190.457 81.8301 189.934 83.5948 189.803 84.183C189.803 84.2484 189.803 84.3137 189.803 84.3137C190.522 84.3137 194.64 84.5752 196.666 87.3203C196.797 87.5163 196.797 87.7124 196.666 87.8431C196.405 88.1699 195.62 89.1503 195.62 89.8693C195.62 90.1961 195.686 90.6536 195.816 91.1765C196.012 92.0915 196.208 93.268 195.947 94.3791C195.555 95.9477 193.79 98.1699 193.659 98.2353C193.398 98.5621 193.267 98.6274 193.137 98.6274ZM185.947 93.3987C186.208 94.183 187.581 97.3856 192.94 97.7778C193.333 97.2549 194.574 95.6209 194.901 94.3791C195.097 93.464 194.901 92.4837 194.771 91.5686C194.64 91.0457 194.574 90.5229 194.574 90.1307C194.574 89.2157 195.228 88.2353 195.62 87.7778C194.052 85.9477 191.306 85.4902 190.065 85.4248C189.803 86.0784 189.084 87.5163 188.235 87.8431C187.777 88.0392 187.058 88.1046 186.143 88.2353C185.228 88.366 184.117 88.4967 183.333 88.7582C181.829 89.2157 181.764 89.4771 181.699 90.1307C181.633 90.7189 181.764 91.8301 181.829 92.7451C181.895 93.268 181.895 93.7255 181.895 93.9869C181.96 94.1176 182.614 94.5752 183.267 94.4444C183.398 94.4444 183.855 94.3137 183.855 93.3987C183.855 92.2222 183.725 91.5033 183.659 91.1111C183.594 90.7843 183.529 90.5229 183.725 90.3268C183.855 90.1961 184.052 90.1307 184.248 90.1961C185.555 90.5229 186.208 90.915 186.47 91.3725C186.731 91.9608 186.274 92.8758 185.947 93.3987Z" fill="#1CACC8"/>
<path d="M193.138 98.1699C193.138 98.1699 194.183 98.6928 193.53 100C192.876 101.307 191.7 102.68 191.7 102.68C191.7 102.68 184.445 103.203 182.157 98.2353C182.157 98.2353 179.674 96.8627 181.242 93.7255C181.242 93.7255 181.504 94.5098 182.745 94.902C183.922 95.2941 184.314 94.1176 184.314 93.464C184.314 92.8105 184.314 92.8105 184.314 92.8105C184.314 92.8105 185.36 92.8758 185.556 93.3987C185.687 93.8562 187.974 98.366 193.138 98.1699Z" fill="#1CACC8"/>
<path d="M201.961 124.379C201.896 124.379 201.831 124.379 201.765 124.379H201.569C199.412 124.379 197.778 121.83 196.471 119.739L196.144 119.281C194.772 117.19 189.608 103.333 189.412 102.745C189.347 102.549 189.412 102.288 189.674 102.222C189.87 102.157 190.131 102.222 190.197 102.484C190.262 102.614 195.556 116.863 196.863 118.824L197.19 119.281C198.367 121.176 199.87 123.529 201.569 123.529H201.765C201.831 123.529 201.896 123.529 201.961 123.529C208.105 123.529 218.955 122.418 223.922 115.229C229.085 107.712 227.125 105.686 224.902 103.268C224.576 102.941 224.249 102.614 223.987 102.222C221.504 99.281 213.072 83.268 209.674 74.3791C209.608 74.183 209.674 73.9216 209.935 73.8562C210.131 73.7909 210.393 73.8562 210.458 74.1176C213.857 82.9412 222.223 98.8235 224.641 101.699C224.968 102.026 225.229 102.353 225.556 102.68C227.844 105.098 230.262 107.647 224.641 115.686C219.412 123.268 208.301 124.379 201.961 124.379Z" fill="#1CACC8"/>
<path d="M196.077 118.693C195.946 118.693 195.881 118.627 195.75 118.562C195.554 118.366 190.718 113.529 189.41 111.438C188.169 109.412 183.986 104.248 183.986 104.183C183.855 103.987 183.855 103.725 184.051 103.595C184.247 103.464 184.509 103.464 184.639 103.66C184.835 103.856 188.888 108.954 190.129 110.98C191.371 113.007 196.273 117.908 196.339 117.974C196.535 118.17 196.535 118.431 196.339 118.562C196.273 118.627 196.142 118.693 196.077 118.693Z" fill="#1CACC8"/>
<path d="M233.464 162.81C231.372 162.81 230.065 162.484 229.346 161.765C229.085 161.503 227.516 159.281 224.248 154.706C217.189 144.837 204.052 126.471 201.307 124.314C201.111 124.183 201.111 123.922 201.242 123.725C201.372 123.529 201.634 123.529 201.83 123.66C204.64 125.948 217.385 143.66 224.967 154.248C227.516 157.843 229.738 160.915 230 161.176C230.719 161.895 232.483 162.157 235.359 161.895C237.974 161.699 238.039 157.32 238.039 157.32C237.974 157.059 237.255 155.621 236.405 153.922C235.163 151.438 233.268 147.647 231.111 142.876C227.255 134.314 218.366 120.85 218.3 120.719C218.17 120.523 218.235 120.261 218.431 120.131C218.627 120 218.889 120.065 219.019 120.261C219.085 120.392 228.039 133.922 231.895 142.549C234.052 147.32 235.947 151.046 237.189 153.529C238.496 156.078 238.889 156.928 238.889 157.32C238.889 157.516 238.823 162.484 235.425 162.745C234.64 162.81 233.987 162.81 233.464 162.81Z" fill="#1CACC8"/>
<path d="M231.568 159.673C231.437 159.673 231.241 159.608 231.176 159.412C229.672 156.34 207.058 124.248 206.797 123.922C206.666 123.725 206.731 123.464 206.927 123.333C207.123 123.203 207.385 123.268 207.515 123.464C208.431 124.771 230.457 155.948 231.96 159.085C232.091 159.281 231.96 159.542 231.764 159.673C231.698 159.673 231.633 159.673 231.568 159.673Z" fill="#1CACC8"/>
<path d="M154.51 162.941C153.137 162.941 152.941 162.876 152.81 162.68C152.614 162.418 152.68 162.092 152.745 161.569C152.81 160.98 152.941 160.131 152.745 159.477C152.484 158.758 153.791 153.66 157.908 138.693C160.065 130.719 162.353 122.418 162.353 121.438C162.353 121.176 162.549 121.046 162.81 121.046C163.072 121.046 163.203 121.242 163.203 121.503C163.203 122.484 161.503 128.758 158.758 138.954C156.405 147.582 153.529 158.301 153.595 159.281C153.856 160.131 153.725 161.111 153.66 161.765C153.66 161.895 153.595 162.092 153.595 162.157C154.314 162.222 156.471 162.157 157.843 162.092C159.15 162.026 159.869 162.026 160.261 162.026C160.523 161.83 162.091 160.327 169.216 148.431C172.81 142.418 174.902 131.699 175.948 126.536C176.209 125.163 176.405 124.248 176.536 123.922C177.059 122.157 184.967 106.078 185.359 105.425C185.49 105.229 185.686 105.098 185.948 105.229C186.144 105.359 186.274 105.556 186.144 105.817C186.078 106.013 177.908 122.549 177.386 124.248C177.255 124.575 177.124 125.49 176.863 126.797C175.817 132.026 173.725 142.81 170.065 148.954C161.634 163.137 160.784 163.007 160.392 162.941C160.131 162.941 159.085 162.941 158.039 163.007C156.274 162.876 155.229 162.941 154.51 162.941Z" fill="#1CACC8"/>
<path d="M155.36 159.673C155.295 159.673 155.295 159.673 155.229 159.673C155.033 159.608 154.902 159.346 154.902 159.15L164.249 125.621C164.314 125.425 164.576 125.294 164.772 125.294C164.968 125.359 165.098 125.621 165.098 125.817L155.752 159.346C155.687 159.542 155.556 159.673 155.36 159.673Z" fill="#1CACC8"/>
<path d="M168.628 111.503C168.563 111.503 168.563 111.503 168.497 111.503C168.301 111.438 168.17 111.176 168.236 110.98C168.366 110.523 171.7 98.9542 172.484 97.5163C172.615 97.3202 172.876 97.2549 173.072 97.3202C173.268 97.4509 173.334 97.7124 173.268 97.9085C172.68 99.0196 170.262 107.059 169.085 111.176C169.02 111.373 168.824 111.503 168.628 111.503Z" fill="#1CACC8"/>
<path d="M159.15 162.418C159.15 162.418 160.98 167.19 159.803 169.804C158.627 172.418 158.954 172.288 158.169 172.418C157.385 172.549 152.287 173.399 151.307 172.614C150.326 171.83 151.111 172.288 150.13 172.288C149.15 172.288 147.843 174.771 146.535 174.771C145.228 174.771 140.13 176.275 138.823 175.621C137.516 174.967 137.32 174.444 137.647 173.791C137.973 173.137 146.666 168.235 149.085 166.078C151.503 163.922 153.071 162.484 153.071 162.484L159.15 162.418Z" fill="#1CACC8"/>
<path d="M231.896 162.222C231.896 162.222 235.491 162.745 236.34 162.026C237.059 161.438 238.236 159.02 238.432 157.778C238.432 157.582 238.432 157.386 238.432 157.255C238.17 156.34 243.072 160.392 243.203 161.569C243.334 162.745 241.896 165.817 241.046 165.817C240.196 165.817 239.216 165.163 239.216 165.817C239.216 166.471 240.066 167.778 240.066 168.301C240.066 168.824 238.105 175.163 234.641 175.686C231.177 176.209 229.543 176.863 228.432 176.536C227.321 176.209 225.294 175.359 226.144 174.052C226.994 172.745 229.739 171.895 230.915 169.935C232.092 167.974 231.896 162.222 231.896 162.222Z" fill="#1CACC8"/>
<path d="M63.9226 180.261C63.7266 180.261 63.4651 180.261 63.269 180.196C61.1122 179.935 60.0664 177.647 60.0011 177.582C59.9357 177.386 60.0011 177.124 60.1972 176.993C60.3932 176.863 60.6547 176.993 60.7854 177.19C60.7854 177.19 61.7004 179.085 63.3998 179.346C65.2298 179.542 67.7789 178.562 69.2168 177.516C70.9161 176.275 75.4259 172.091 76.1449 170.784C76.2756 170.588 76.537 170.523 76.7331 170.588C76.9292 170.719 76.9946 170.98 76.9292 171.176C76.1449 172.68 71.439 176.993 69.805 178.17C68.2364 179.346 65.8834 180.261 63.9226 180.261Z" fill="#1CACC8"/>
<path d="M81.764 152.549C85.5549 155.621 85.5549 160.327 85.5549 162.484C85.5549 165.098 87.1235 167.974 88.0385 169.281C88.9536 170.588 90.3261 174.118 86.7967 176.209C83.2673 178.301 79.6725 175.621 77.6464 173.072C75.6202 170.523 76.7967 165.163 76.7967 163.268C76.7967 163.268 77.5157 162.091 78.5614 162.68C79.6072 163.268 80.5222 165.948 82.2869 165.359C84.0516 164.771 85.2281 162.418 83.398 159.869C81.5679 157.32 80.2607 154.902 81.5679 152.81L81.764 152.549Z" fill="#B4EBF6"/>
<path d="M78.7586 150.784C78.7586 150.784 77.3207 149.935 74.837 150.065C73.922 150.131 72.8109 150.327 71.569 150.784C71.569 150.784 70.5886 153.595 74.3795 153.66C78.105 153.791 78.7586 150.784 78.7586 150.784Z" fill="#B4EBF6"/>
<path d="M64.2483 159.281C64.2483 159.281 63.3986 158.562 62.4182 158.562C61.4378 158.562 62.2221 160.392 62.4182 160.719C62.6143 161.046 64.4443 161.895 64.6404 161.111C64.8365 160.327 64.379 159.281 64.2483 159.281Z" fill="#1CACC8"/>
<path d="M69.4779 158.497C69.4779 158.497 67.1903 158.758 66.9288 159.542C66.6674 160.327 66.406 161.438 66.9288 161.569C67.4517 161.699 71.8962 160.719 72.4844 159.935C73.0726 159.15 72.419 158.431 71.8962 158.301C71.3733 158.17 69.8046 158.301 69.4779 158.497Z" fill="#1CACC8"/>
<path d="M68.5617 162.68C68.5617 162.68 66.9277 163.529 66.9277 164.967C66.9277 166.405 67.1892 167.974 67.5813 168.17C67.9735 168.366 68.8232 168.431 68.8232 169.02C68.8232 169.608 69.4768 170.915 71.1107 169.869C72.7447 168.824 74.0519 166.928 73.333 164.575C72.614 162.222 70.1303 161.373 68.5617 162.68Z" fill="#B4EBF6"/>
<path d="M68.3652 165.817C68.4306 165.49 68.6267 165.294 68.8227 165.098C69.0188 164.902 69.2803 164.771 69.6071 164.706C69.8685 164.641 70.1953 164.641 70.4567 164.706C70.7182 164.771 70.9796 164.902 71.1757 165.163C70.8489 165.294 70.6528 165.294 70.3914 165.359C70.1953 165.425 69.9339 165.49 69.7378 165.49C69.411 165.686 68.9535 165.752 68.3652 165.817Z" fill="#1CACC8"/>
<path d="M64.2477 165.359C63.7249 165.229 63.4634 165.163 63.202 165.163C63.0713 165.163 62.9406 165.098 62.7445 165.098C62.5484 165.098 62.3523 165.033 62.1562 164.967C62.287 164.51 62.8098 164.248 63.3327 164.314C63.8556 164.379 64.2477 164.837 64.2477 165.359Z" fill="#1CACC8"/>
<path d="M61.438 171.961C61.438 171.961 58.8236 171.765 57.8433 172.484C56.8629 173.203 57.255 174.118 57.8433 174.837C58.4315 175.556 59.2158 176.34 60.0655 176.078C60.9151 175.817 63.2681 173.987 61.438 171.961Z" fill="#1CACC8"/>
<path d="M65.6871 173.595C65.9037 173.595 66.0792 173.419 66.0792 173.203C66.0792 172.986 65.9037 172.81 65.6871 172.81C65.4705 172.81 65.2949 172.986 65.2949 173.203C65.2949 173.419 65.4705 173.595 65.6871 173.595Z" fill="#1CACC8"/>
<path d="M67.648 173.399C67.8646 173.399 68.0402 173.223 68.0402 173.007C68.0402 172.79 67.8646 172.614 67.648 172.614C67.4314 172.614 67.2559 172.79 67.2559 173.007C67.2559 173.223 67.4314 173.399 67.648 173.399Z" fill="#1CACC8"/>
<path d="M66.7984 175.229C67.015 175.229 67.1906 175.053 67.1906 174.837C67.1906 174.62 67.015 174.444 66.7984 174.444C66.5818 174.444 66.4062 174.62 66.4062 174.837C66.4062 175.053 66.5818 175.229 66.7984 175.229Z" fill="#1CACC8"/>
<path d="M80.0647 180.261C77.6464 180.784 75.1627 182.876 75.6856 184.641C76.2085 186.405 78.1693 186.144 78.1693 186.144C78.1693 186.144 78.5614 187.582 80.5876 187.32C82.6137 187.124 89.4111 184.967 89.4111 184.967C89.4111 184.967 88.6268 181.307 86.1431 180.915C83.6595 180.523 82.9405 181.634 82.0255 181.111C81.1104 180.588 80.0647 180.261 80.0647 180.261Z" fill="#B4EBF6"/>
<path d="M79.4127 177.647C79.6088 177.255 79.7395 176.863 79.7395 176.471C79.8048 175.556 79.3473 174.967 79.3473 174.967C79.3473 174.967 77.2558 173.137 76.8637 172.157C76.8637 172.157 75.4258 174.444 76.8637 176.078C78.3016 177.647 79.4127 177.647 79.4127 177.647Z" fill="#B4EBF6"/>
<path d="M68.8241 185.425C67.9744 185.425 67.1248 185.294 66.6019 184.837C66.2097 184.51 66.0137 183.987 66.0137 183.333C66.0137 181.111 67.5169 180.458 67.5823 180.458C67.7784 180.392 68.0398 180.458 68.1705 180.654C68.2359 180.85 68.1705 181.111 67.9091 181.176C67.8437 181.176 66.8633 181.634 66.8633 183.268C66.8633 183.66 66.9941 183.922 67.1901 184.118C67.8437 184.706 69.6084 184.51 70.5235 184.379C71.3731 184.248 72.4843 183.203 73.7915 182.026C74.9026 180.98 76.1444 179.804 77.5823 178.889C78.3013 178.431 78.8241 177.908 79.0856 177.386C79.2817 177.059 79.347 176.732 79.347 176.405C79.4124 175.686 79.0856 175.163 79.0856 175.163C78.9549 174.967 79.0202 174.706 79.2163 174.575C79.4124 174.444 79.6738 174.51 79.8045 174.706C79.8045 174.706 80.3274 175.49 80.262 176.471C80.262 176.928 80.1313 177.386 79.8699 177.843C79.4777 178.497 78.8895 179.15 78.1052 179.673C76.7326 180.588 75.5562 181.699 74.445 182.68C73.0071 184.052 71.8307 185.098 70.7196 185.294C70.066 185.359 69.4124 185.425 68.8241 185.425Z" fill="#1CACC8"/>
<path d="M66.0785 184.641C65.4249 184.641 64.5752 184.379 63.9216 183.399C63.5295 182.876 63.3988 182.288 63.5295 181.699C63.7909 180.392 65.2942 179.477 65.3595 179.412C65.5556 179.281 65.8171 179.346 65.9478 179.542C66.0785 179.739 66.0132 180 65.8171 180.131C65.8171 180.131 64.6406 180.85 64.3792 181.83C64.3138 182.222 64.3792 182.549 64.6406 182.876C65.4249 184.052 66.4053 183.726 66.536 183.726C66.7321 183.66 66.9935 183.725 67.0589 183.987C67.1243 184.183 67.0589 184.444 66.7975 184.51C66.6667 184.575 66.4053 184.641 66.0785 184.641Z" fill="#1CACC8"/>
<path d="M61.3733 179.673C60.9812 179.673 59.674 179.542 58.3668 178.039C56.7328 176.275 57.5825 173.66 57.6478 173.529C57.6478 173.464 57.7132 173.464 57.7132 173.399C57.7132 173.399 59.5433 170.915 61.5041 168.497C62.7459 166.993 62.8112 163.791 62.8112 161.503C62.8112 160.261 62.8766 159.281 63.0073 158.693C63.4648 157.124 66.7982 152.157 71.4387 150.392C72.5498 150 73.7263 149.739 74.8374 149.673C75.2295 149.673 75.6217 149.673 76.0138 149.673C77.7132 149.804 78.8243 150.327 79.0204 150.392C80.1969 150.85 81.2426 151.438 82.0923 152.157C86.0139 155.359 86.0139 160.065 86.0139 162.353V162.418C86.0139 164.706 87.3211 167.386 88.3668 168.954C88.6282 169.346 89.8701 171.242 89.4125 173.399C89.1511 174.641 88.3668 175.686 87.0596 176.471C82.6152 179.15 78.4975 174.706 77.3864 173.268C75.6871 171.176 76.0792 167.386 76.3406 164.902C76.406 164.183 76.4714 163.595 76.4714 163.203C76.4714 161.503 75.4256 160.327 75.4256 160.327C75.2949 160.131 75.2949 159.869 75.491 159.739C75.6871 159.608 75.9485 159.608 76.0792 159.804C76.1446 159.869 77.321 161.242 77.321 163.268C77.321 163.725 77.2557 164.314 77.1903 165.033C76.9289 167.386 76.6021 170.98 78.04 172.81C79.0857 174.118 82.8112 178.17 86.6675 175.817C87.7786 175.163 88.4322 174.314 88.6282 173.268C88.955 171.83 88.3668 170.327 87.7132 169.477C86.5367 167.778 85.1642 164.902 85.1642 162.484V162.418C85.1642 160.261 85.1642 155.817 81.5694 152.876C80.7197 152.222 79.7393 151.634 78.6936 151.242H78.6282C78.6282 151.242 77.6478 150.719 76.0138 150.588C75.687 150.588 75.2949 150.588 74.9681 150.588C73.9224 150.654 72.8766 150.85 71.8308 151.242C67.7132 152.81 64.3799 157.386 63.9223 158.954C63.7916 159.412 63.7263 160.392 63.7263 161.569C63.6609 163.987 63.5956 167.32 62.223 169.085C60.4583 171.307 58.8243 173.529 58.4975 173.922C58.3668 174.314 57.9093 176.209 59.0857 177.516C60.3929 178.954 61.4387 178.824 61.5041 178.824C61.7655 178.758 61.9616 178.954 61.9616 179.216C61.9616 179.477 61.8309 179.673 61.5694 179.673C61.5041 179.673 61.4387 179.673 61.3733 179.673Z" fill="#1CACC8"/>
<path d="M80.0651 187.712C79.9344 187.712 79.8037 187.712 79.6729 187.712C78.8886 187.582 78.235 187.124 77.9082 186.34C77.5161 185.359 77.7122 184.118 78.3657 183.268C79.4115 181.961 80.588 181.83 80.588 181.83C80.8494 181.83 81.0455 181.961 81.0455 182.222C81.0455 182.484 80.9148 182.68 80.6533 182.68C80.6533 182.68 79.8037 182.81 78.954 183.856C78.4965 184.444 78.3004 185.359 78.6272 186.078C78.7579 186.405 79.0193 186.797 79.6729 186.928C81.2416 187.124 87.6468 185.49 90.9148 184.052C94.052 182.68 95.6206 180.915 95.686 180.131C95.7514 179.673 95.4899 179.085 95.1631 178.366C94.9017 177.712 94.5749 176.993 94.3788 176.144C93.9213 174.314 92.0912 165.425 92.0912 165.359C92.0259 165.098 92.222 164.902 92.418 164.837C92.6795 164.771 92.8756 164.967 92.9409 165.163C92.9409 165.229 94.771 174.118 95.2285 175.948C95.4246 176.732 95.686 177.451 95.9474 178.039C96.2742 178.824 96.6011 179.542 96.5357 180.196C96.405 181.373 94.5749 183.333 91.3069 184.771C88.4311 186.013 82.3527 187.712 80.0651 187.712Z" fill="#1CACC8"/>
<path d="M77.9749 186.601C77.1252 186.601 75.7527 186.209 75.2952 184.771C75.0991 184.183 75.2298 183.464 75.622 182.81C76.4063 181.503 78.171 180.261 80.001 179.869C82.2886 179.346 86.537 178.039 87.7135 177.32C87.9749 177.19 87.9749 177.059 87.9749 176.928C88.0403 176.536 87.5827 176.078 87.3867 175.882C87.1906 175.752 87.1906 175.425 87.3867 175.294C87.5174 175.098 87.8442 175.098 87.9749 175.294C88.0403 175.36 88.8899 176.144 88.8246 176.993C88.8246 177.255 88.6285 177.712 88.171 178.039C86.8638 178.824 82.6154 180.196 80.1971 180.719C78.6285 181.046 76.9945 182.157 76.4063 183.268C76.1448 183.726 76.0795 184.183 76.2102 184.575C76.6677 185.948 78.171 185.817 78.2363 185.817C78.4978 185.817 78.6938 185.948 78.6938 186.209C78.6938 186.471 78.5631 186.667 78.3017 186.667C78.171 186.601 78.1056 186.601 77.9749 186.601Z" fill="#1CACC8"/>
<path d="M129.738 125.948C127.582 120.719 125.49 116.928 125.49 116.928C128.627 114.641 130.588 106.601 130.588 103.529C130.588 100.458 128.301 101.373 127.451 104.837C126.601 108.301 123.006 113.333 121.568 114.641C120.131 115.948 117.974 115.294 117.974 115.294C117.974 115.294 114.379 117.451 116.144 121.046C117.908 124.641 122.353 122.876 123.66 125.49C124.967 128.105 128.562 130.719 129.738 127.32V125.948Z" fill="#B4EBF6"/>
<path d="M108.693 146.863C109.477 152.157 111.634 155.752 114.249 158.17C116.405 160.196 118.628 161.438 119.673 162.418C119.673 162.418 123.595 161.765 123.137 158.17C122.68 154.575 120.981 150.327 122.157 146.863C123.334 143.399 122.68 140.654 120.523 139.346C118.366 138.039 118.562 135.229 117.059 134.118C115.556 133.007 106.732 133.464 108.693 146.863Z" fill="#B4EBF6"/>
<path d="M104.249 127.124C102.288 133.529 94.1184 143.333 89.87 144.314C85.6216 145.294 82.4844 148.235 82.4844 148.235C82.4844 148.235 84.6412 150.523 88.236 151.046C91.8308 151.569 90.8504 152.876 93.4648 156.274C96.0791 159.673 101.635 157.451 101.308 153.137C100.981 148.823 100.785 143.987 103.269 141.699C105.752 139.412 108.171 134.314 104.903 128.627L104.249 127.124Z" fill="#B4EBF6"/>
<path d="M111.176 179.673C110.85 179.673 110.261 179.608 109.935 179.15C109.542 178.627 109.608 177.909 110.065 176.928C110.85 175.294 114.379 173.529 117.516 171.961C119.02 171.176 120.98 170.261 121.176 169.869C121.699 168.889 121.438 164.706 119.281 162.68C118.889 162.288 118.235 161.83 117.516 161.373C116.471 160.588 115.163 159.673 113.856 158.497C110.327 155.229 108.497 151.438 108.17 146.928C108.17 146.667 108.301 146.471 108.562 146.471C108.824 146.471 109.02 146.601 109.02 146.863C109.281 151.176 111.046 154.771 114.444 157.843C115.686 159.02 116.993 159.935 118.039 160.654C118.758 161.176 119.412 161.634 119.869 162.026C122.222 164.248 122.68 168.889 121.895 170.196C121.569 170.719 120.327 171.373 117.908 172.614C115.163 173.987 111.438 175.882 110.784 177.19C110.392 178.105 110.458 178.431 110.588 178.562C110.719 178.758 111.176 178.758 111.373 178.758C111.569 178.693 111.83 178.889 111.83 179.085C111.895 179.346 111.699 179.542 111.503 179.542C111.503 179.673 111.373 179.673 111.176 179.673Z" fill="#1CACC8"/>
<path d="M94.6396 175.556C94.4435 175.556 94.3128 175.425 94.2475 175.294C94.1821 175.098 94.3128 174.837 94.5089 174.771C94.5743 174.771 102.875 171.765 106.993 163.725C110.064 157.712 111.372 155.621 111.437 155.49C111.568 155.294 111.829 155.229 112.025 155.359C112.221 155.49 112.287 155.752 112.156 155.948C112.156 155.948 110.783 158.105 107.777 164.052C103.529 172.418 95.1625 175.425 94.7703 175.556C94.705 175.556 94.6396 175.556 94.6396 175.556Z" fill="#1CACC8"/>
<path d="M114.706 181.83C114.444 181.83 114.183 181.83 113.987 181.765C112.353 181.373 111.372 180.392 111.438 179.15C111.503 177.909 112.614 176.797 113.856 176.667C114.052 176.667 114.313 176.797 114.313 177.059C114.313 177.32 114.183 177.516 113.921 177.516C113.137 177.582 112.353 178.366 112.287 179.216C112.222 180.065 112.876 180.654 114.117 180.98C117.647 181.765 128.954 174.771 129.281 173.791C129.346 173.268 129.215 173.007 128.889 172.549C128.627 172.157 128.3 171.634 127.974 170.719C127.516 169.281 127.255 167.059 126.993 164.51C126.862 163.399 126.797 162.222 126.601 161.046C126.209 157.647 126.47 156.536 126.863 154.967C126.928 154.641 127.059 154.248 127.124 153.856C127.32 152.876 128.039 151.569 128.823 150.065C130 147.843 131.503 145.098 131.699 142.81C132.026 139.216 131.438 131.503 129.281 126.144C127.189 120.98 125.098 117.255 125.032 117.19C124.902 116.993 124.967 116.797 125.163 116.667C128.235 114.444 130.065 106.471 130.065 103.595C130.065 102.614 129.804 102.157 129.608 102.157C129.215 102.092 128.3 102.941 127.778 105.033C126.928 108.497 123.398 113.595 121.764 115.033C120.261 116.34 118.235 115.882 117.843 115.817C112.091 115.817 106.666 120.523 104.575 127.255C102.549 133.922 94.3135 143.66 89.869 144.706C85.8168 145.621 82.7449 148.497 82.7449 148.497C82.5488 148.627 82.2874 148.627 82.1566 148.497C82.0259 148.301 82.0259 148.039 82.1566 147.909C82.2874 147.778 85.4246 144.902 89.7383 143.856C93.856 142.876 101.895 133.268 103.791 126.993C105.947 119.869 111.764 114.902 117.908 114.902C117.974 114.902 117.974 114.902 118.039 114.902C118.039 114.902 119.934 115.49 121.242 114.314C122.745 113.007 126.209 107.974 126.993 104.706C127.516 102.549 128.627 101.046 129.738 101.176C130.13 101.242 130.915 101.503 130.915 103.464C130.915 106.275 129.215 114.183 125.947 116.993C126.47 118.039 128.3 121.373 130.065 125.686C132.287 131.176 132.876 138.954 132.549 142.68C132.353 145.163 130.849 147.974 129.608 150.261C128.823 151.699 128.17 153.007 127.974 153.791C127.908 154.183 127.778 154.575 127.712 154.902C127.32 156.405 127.124 157.386 127.516 160.654C127.647 161.895 127.778 163.072 127.908 164.183C128.17 166.732 128.366 168.889 128.823 170.261C129.085 171.046 129.412 171.503 129.608 171.895C129.934 172.418 130.261 172.81 130.13 173.725C130.13 173.922 130.065 174.379 128.039 175.752C124.836 178.235 118.039 181.83 114.706 181.83Z" fill="#1CACC8"/>
<path d="M85.5551 162.484C85.5551 160.327 85.6205 155.621 81.7643 152.549C80.9799 151.895 79.9342 151.307 78.7577 150.85C78.7577 150.85 77.712 150.261 75.9473 150.131C75.9473 150.131 77.908 146.536 79.7381 146.078C81.5682 145.621 85.6205 148.039 87.1237 152.288C88.627 156.536 88.1041 160 87.2544 161.569C86.4048 163.072 85.5551 162.484 85.5551 162.484Z" fill="#1CACC8"/>
<path d="M96.6659 160.458C90.1953 160.458 86.4698 159.281 86.4698 159.281C86.2738 159.216 86.143 158.954 86.2084 158.758C86.2738 158.562 86.5352 158.431 86.7313 158.497C86.862 158.562 97.9731 162.092 115.489 156.601C144.836 147.516 169.28 120.654 184.574 99.8039C184.705 99.6079 184.967 99.5425 185.163 99.7386C185.359 99.8693 185.424 100.131 185.228 100.327C169.803 121.373 145.228 148.301 115.62 157.451C108.038 159.739 101.568 160.458 96.6659 160.458Z" fill="#1CACC8"/>
</svg>
