<svg width="20" height="20" viewBox="0 0 20 20" fill="none" xmlns="http://www.w3.org/2000/svg">
<path fill-rule="evenodd" clip-rule="evenodd" d="M15.7066 19L2 17.3998L4.27581 1L13.4947 2.035L17.3953 7.04814L15.7066 19ZM12.6454 3.02937L5.33892 2.29684L3.26874 16.3496L14.6434 17.7365L16.018 8.26136L11.6347 7.67357L12.6454 3.02937ZM6.54108 13.8672C6.46174 13.7637 5.75931 13.1775 5.62731 12.9962C7.49671 10.9221 12.0622 10.9479 13.33 13.6919C13.1186 13.7694 12.1753 14.1763 11.9905 14.2798C11.4614 12.7491 8.3634 12.266 6.54085 13.8672H6.54108ZM10.0564 8.19703L9.28611 8.77482L8.12769 7.38467L6.55039 8.22807L5.91386 7.16744L7.34844 6.45013L6.39762 5.30945L7.55297 4.53914L8.47513 5.88687L10.1178 5.06553L10.6129 6.0556L9.13243 6.84741L10.0564 8.19703Z" fill="#898A8A"/>
</svg>
