<svg width="16" height="16" viewBox="0 0 16 16" fill="none" xmlns="http://www.w3.org/2000/svg">
<path fill-rule="evenodd" clip-rule="evenodd" d="M1.33339 7.99952C1.33339 4.32019 4.32006 1.33286 8.00006 1.33286C11.6867 1.33286 14.6667 4.32019 14.6667 7.99952C14.6667 11.6802 11.6867 14.6662 8.00006 14.6662C4.32006 14.6662 1.33339 11.6802 1.33339 7.99952ZM7.41339 5.47285C7.41339 5.15352 7.68006 4.88619 8.00006 4.88619C8.32006 4.88619 8.58006 5.15352 8.58006 5.47285V8.41952C8.58006 8.74019 8.32006 8.99952 8.00006 8.99952C7.68006 8.99952 7.41339 8.74019 7.41339 8.41952V5.47285ZM8.00672 11.1202C7.68005 11.1202 7.42005 10.8535 7.42005 10.5335C7.42005 10.2135 7.68005 9.95352 8.00005 9.95352C8.32672 9.95352 8.58672 10.2135 8.58672 10.5335C8.58672 10.8535 8.32672 11.1202 8.00672 11.1202Z" fill="#313232"/>
</svg>
