<svg width="84" height="80" viewBox="0 0 84 80" fill="none" xmlns="http://www.w3.org/2000/svg">
<path opacity="0.31" d="M19.5984 78.5562C16.375 77.9082 13.1745 77.0867 10.0085 76.1957C7.03169 75.3626 3.89431 74.356 1.89258 71.984C-4.12981 64.8622 5.68956 57.5089 10.886 54.4427C15.1304 51.9376 20.1835 48.9928 25.248 49.7334C28.1215 50.1499 30.8287 51.3359 33.4729 52.5509C42.2885 56.6006 51.0984 61.1537 60.6998 62.4612C62.713 62.7331 79.3922 63.1786 78.6293 65.9209C78.4974 66.4011 78.1017 66.7598 77.7174 67.078C74.2129 69.9417 69.8424 71.4691 65.5636 72.9212C54.7577 76.5776 43.6708 80.1182 32.2741 79.9967C28.0068 79.9562 23.7797 79.4008 19.5984 78.5562Z" fill="#DFE3E8"/>
<path d="M25.5282 57.1109C24.1287 59.6912 26.314 61.5541 28.1379 63.2897C28.6369 63.7641 29.1761 64.2154 29.8013 64.4873C30.891 64.9559 32.1299 64.846 33.3115 64.7129C41.7772 63.7641 50.4036 62.6129 58.7259 60.8078C60.6818 60.3855 62.6204 59.8648 64.5705 59.4193C67.1114 58.8408 69.7555 57.7242 72.1817 56.7465C74.648 55.7572 76.948 54.3571 78.9669 52.6215C79.0013 52.5926 79.0357 52.5579 79.0701 52.5289C79.42 52.3149 79.724 52.0603 79.9649 51.6264C81.0088 50.423 81.7315 48.9246 81.1292 47.5246C80.4352 45.9104 78.4105 45.4476 76.6727 45.3088C71.4819 44.8922 66.2797 45.4592 61.1464 46.2344C57.6878 46.7609 54.2579 47.5014 50.7821 47.9353C47.249 48.375 43.8764 47.9816 40.3605 48.0626C34.2922 48.213 28.4534 51.719 25.5282 57.1109Z" fill="#686B70"/>
<path d="M40.6074 44.3645C38.4565 43.5082 36.2426 44.3124 35.0611 41.842C34.6309 40.9511 34.4301 39.9676 34.1204 39.0303C33.1454 36.1261 31.0117 33.6441 28.2988 32.2556C30.4152 30.2481 33.2486 29.2415 35.8239 27.8877C38.187 26.6496 40.3837 25.076 42.3223 23.2362C44.1119 21.5411 46.8822 17.9079 45.4024 15.2698C44.2094 13.1465 41.2498 13.8118 39.3341 14.3036C36.667 14.9921 34.3441 15.1193 31.9352 16.7045C29.618 18.2319 27.7137 20.2915 25.8439 22.3511C22.9245 25.562 16.558 31.8391 20.722 36.3459C23.0794 38.8973 25.5113 41.3387 28.3561 43.3347C29.1591 43.8958 29.985 44.4339 30.8741 44.8273C32.6406 45.6141 33.3232 47.0662 35.0955 47.8646C36.5695 48.5299 38.1411 49.0159 39.7585 49.0969C40.9573 49.1548 42.9016 48.8771 43.0164 47.4191C43.1139 46.0538 41.7316 44.8157 40.6074 44.3645Z" fill="white" stroke="#686B70" stroke-miterlimit="10"/>
<path d="M70.6503 40.4308C69.6064 41.8251 67.8571 42.7392 66.188 42.3458C64.4214 41.9293 63.2514 40.2688 62.2992 38.7068C60.7908 36.2249 59.3798 33.6388 58.6227 30.8271C57.791 27.7319 57.401 22.8086 60.4466 20.7547C62.6147 19.291 66.1536 20.1241 67.8284 21.9928C71.4418 26.031 73.8336 34.8248 71.0403 39.8349C70.9199 40.0374 70.7937 40.2399 70.6503 40.4308Z" fill="white" stroke="#686B70" stroke-miterlimit="10"/>
<path d="M65.1268 15.7038C62.4482 12.8458 59.265 10.7399 55.0895 10.8498C53.9653 10.8787 52.8468 11.0639 51.7227 11.1044C47.7766 11.2432 43.8706 10.2539 40.0679 11.7813C36.0128 13.4185 32.2503 15.7558 28.6942 18.2898C28.4074 18.4923 35.3475 28.0961 36.0874 28.9696C38.9609 26.8464 38.2727 36.8493 38.2268 38.2031C38.1121 41.5702 38.0318 44.9778 38.7143 48.2928C38.8806 48.0614 39.0756 47.8069 39.351 47.749C39.6894 47.6738 39.9016 48.0846 40.2056 48.1598C40.8479 48.3218 41.7542 48.154 42.4195 48.1482C43.6928 48.1424 44.9718 48.1482 46.2509 48.1366C49.1933 48.1135 52.1414 48.1019 55.0551 47.6854C56.5807 47.4713 58.0892 47.2515 59.6034 47.2746C60.4006 44.4803 60.1253 41.1132 60.1999 38.3362C60.2802 35.6633 60.068 33.0483 60.2745 30.3871C64.0313 29.4498 67.725 28.2465 71.3155 26.7885C71.5335 26.7018 69.5948 22.2586 69.3826 21.8305C68.5567 20.1643 67.5701 18.5733 66.3829 17.1385C65.9757 16.6468 65.5569 16.1666 65.1268 15.7038Z" fill="#686B70"/>
<path d="M44.2045 65.581C43.6597 66.1306 32.1827 68.6704 32.1827 68.6704L31.6436 62.7867L42.3175 58.9336L44.2045 65.581Z" fill="white" stroke="#686B70" stroke-miterlimit="10"/>
<path d="M73.238 58.5514C74.5801 57.7761 75.9165 57.0009 77.3619 56.4513C78.8933 55.8727 80.5853 55.514 81.7668 54.3743C83.0115 53.1652 83.4072 51.337 83.7399 49.6245C84.1127 47.7211 84.107 45.5863 83.585 43.7061C82.8451 41.0332 80.7 38.7885 77.9985 38.1695C76.3696 37.7992 74.6145 38.0133 73.1175 38.7711C72.0163 39.3323 71.0757 40.1654 69.9859 40.7497C69.0797 41.2357 68.0874 41.5423 67.1296 41.9184C64.2159 43.0639 61.5373 44.7706 58.8875 46.3905C56.2204 48.0162 53.8344 50.0584 51.2591 51.8172C50.2439 52.5114 39.5527 57.7472 39.5527 57.7472C40.9408 60.8597 42.151 64.0648 43.4185 67.2352C50.33 66.2922 56.9947 64.0996 63.7169 62.2772C65.0475 61.9185 66.2864 61.3746 67.6228 61.068C69.1313 60.7209 70.5422 60.0498 71.8901 59.3093C72.3432 59.0663 72.7906 58.8059 73.238 58.5514Z" fill="#686B70"/>
<path d="M31.7916 69.2894C29.6751 69.7117 27.5529 69.2547 25.2702 69.0059C23.4921 68.815 21.6682 69.1448 19.8959 68.8671C17.5328 68.5026 15.6974 66.8132 15.5254 64.4354C15.4279 63.0932 15.3762 61.6006 16.2538 60.5882C16.9707 59.7609 18.158 59.4832 19.242 59.5873C20.3261 59.6857 21.3528 60.108 22.3852 60.4667C24.146 61.0799 25.9642 61.5196 27.7881 61.9072C29.2622 62.2254 30.5355 62.966 31.998 62.2312C32.0783 62.1907 32.1644 62.1502 32.2504 62.1792C32.3365 62.2081 32.3823 62.3122 32.411 62.399C32.933 63.8801 33.4033 65.3727 33.8162 66.8885C34.0342 67.6753 34.3898 68.1323 33.7531 68.6183C33.2542 68.9943 32.3995 69.1679 31.7916 69.2894Z" fill="#686B70"/>
<path d="M54.6602 65.581C55.205 66.1306 66.682 68.6704 66.682 68.6704L67.2211 62.7867L56.5472 58.9336L54.6602 65.581Z" fill="white" stroke="#686B70" stroke-miterlimit="10"/>
<path d="M25.2368 59.2399C23.0286 58.4011 20.8835 57.4118 18.8531 56.1795C18.1705 55.7629 17.4937 55.3117 17.0062 54.6753C16.3179 53.7785 16.0885 52.6157 15.8763 51.4991C15.0905 47.3394 13.9836 44.169 16.9718 40.6341C19.4037 37.7588 23.3154 36.6422 26.6248 38.7192C28.7757 40.0672 30.2211 42.5144 32.6071 43.3648C33.8919 43.8219 35.3659 43.7293 36.6048 44.3136C37.7462 44.8459 38.8761 45.7311 39.9716 46.3964C42.6387 48.0221 45.0247 50.0643 47.6 51.8231C48.6152 52.5173 59.3064 57.7531 59.3064 57.7531C57.9183 60.8656 56.7081 64.0707 55.4406 67.2411C48.5291 66.2981 41.8644 64.1054 35.1422 62.283C31.8156 61.3805 28.4602 60.4664 25.2368 59.2399Z" fill="#686B70"/>
<path d="M67.0722 69.2898C69.1886 69.7121 71.3108 69.2551 73.5935 69.0063C75.3716 68.8154 77.1955 69.1452 78.9621 68.8675C81.199 68.5204 83.7456 66.2814 83.8488 63.892C83.8775 63.1457 83.6882 62.4052 83.4072 61.711C83.258 61.3465 83.086 60.9878 82.8451 60.6812C82.3002 59.9869 81.4398 59.5819 80.5623 59.5009C79.2202 59.3737 77.878 59.8133 76.6105 60.1894C75.3027 60.577 74.0983 60.7853 72.8307 61.3349C71.2075 62.0407 69.3893 62.2953 67.6342 62.0581C67.1754 61.9944 66.7051 61.9019 66.2634 62.0349C65.2712 62.33 65.3687 63.8342 65.2941 64.6615C65.1794 65.9054 65.122 67.1839 64.623 68.3468C65.4375 68.8328 66.252 69.122 67.0722 69.2898Z" fill="#686B70"/>
<path d="M61.9509 20.9053C61.9509 20.8879 61.9509 20.8706 61.9509 20.8532C61.9222 20.3673 61.8935 19.8755 61.8649 19.3895C61.8477 19.135 61.8362 18.8804 61.8763 18.6316C61.9968 17.868 62.599 17.2894 63.1611 16.7687C63.5913 16.3753 67.1933 12.8231 67.4686 13.0314C68.5927 13.8934 69.2868 13.124 70.1069 12.2388C70.3593 11.9669 70.6117 11.6487 70.6059 11.2784C70.5945 10.9082 70.1528 10.561 69.8603 10.7809C70.5142 10.0519 71.1508 9.3056 71.7645 8.54772C72.3094 7.87661 72.8486 7.46585 72.4758 6.58069C71.8793 5.1517 70.6346 4.07562 69.2581 3.39873C68.1683 2.86069 66.419 2.10859 65.1801 2.20115C63.8092 2.30529 63.1038 3.46815 62.0771 4.17975C62.0312 4.20868 61.9796 4.24339 61.928 4.23761C61.8649 4.23182 61.8132 4.17975 61.7616 4.13347C61.3831 3.78635 60.7579 3.84999 60.3449 4.1624C59.932 4.46902 59.6968 4.96078 59.5075 5.44097C59.3871 5.74759 59.2838 6.08314 59.3412 6.40713C59.4043 6.73111 59.6911 7.03773 60.018 7.00302C59.7599 7.04352 59.3355 9.01055 59.2666 9.26511C58.9168 10.5147 58.1539 11.2206 57.2879 12.1867C56.5078 13.0603 55.5614 14.0033 54.3971 13.9513C53.8809 13.9281 53.2385 13.7546 52.9403 14.1827C52.837 14.3273 52.8141 14.5067 52.7969 14.686C52.5904 17.2605 54.2308 19.5457 56.2899 20.8995C57.3681 21.5995 62.0541 23.5376 61.9509 20.9053Z" fill="white" stroke="#686B70" stroke-miterlimit="10"/>
<path d="M61.2335 51.2606H31.8672C31.3395 51.2606 30.915 50.8324 30.915 50.3002V32.4291C30.915 31.8969 31.3395 31.4688 31.8672 31.4688H61.2392C61.7669 31.4688 62.1913 31.8969 62.1913 32.4291V50.3002C62.1856 50.8324 61.7612 51.2606 61.2335 51.2606Z" fill="#B0B3B9"/>
<path d="M46.5511 42.6068C47.5679 42.6068 48.3922 41.7753 48.3922 40.7497C48.3922 39.724 47.5679 38.8926 46.5511 38.8926C45.5343 38.8926 44.71 39.724 44.71 40.7497C44.71 41.7753 45.5343 42.6068 46.5511 42.6068Z" fill="#686B70"/>
<path d="M75.2795 3.08611C75.2508 2.8952 75.1992 2.69849 75.1303 2.51915C74.9411 2.03318 74.6141 1.59927 74.1553 1.36207C73.7997 1.17694 73.3982 1.1133 73.0024 1.08437C72.5379 1.04387 72.0733 1.03809 71.6087 1.06702C71.1613 1.09016 70.7139 1.14801 70.2666 1.11908C69.5668 1.0728 68.9015 0.824031 68.2534 0.569474C67.5995 0.320702 66.9342 0.0603594 66.2402 0.00829099C64.7948 -0.107417 63.7681 1.00916 62.8963 2.03318C61.9212 3.18447 61.1756 4.5151 60.4701 5.84574C59.0936 8.42024 58.6749 11.608 61.2674 13.6097C64.6629 16.2305 68.7065 12.6551 71.2473 10.4683C71.7693 10.0228 72.3543 9.72195 72.8189 9.19548C73.3351 8.61694 73.7309 7.94005 74.0922 7.25738C74.4478 6.59206 74.7747 5.90938 75.0156 5.19199C75.2393 4.5151 75.3827 3.79193 75.2795 3.08611ZM63.7222 11.7584C63.2003 11.6369 62.6267 11.4691 62.1966 11.1336C61.8868 10.8964 62.2424 10.3873 62.5407 10.636C62.902 10.9369 63.4354 11.0526 63.8771 11.1741C64.204 11.2666 64.0492 11.8336 63.7222 11.7584ZM71.8152 7.24002C71.7177 7.61028 71.4997 7.94005 71.2588 8.25825C70.1862 9.68724 68.6319 11.4923 67.0718 12.3832C67.0145 12.4179 66.9514 12.4469 66.894 12.4758C66.4696 11.0063 65.9419 9.55417 64.6055 8.68637C63.4354 7.92848 62.0474 7.80699 60.6996 7.98634C61.1813 5.94988 62.7242 2.82577 65.0816 2.79685C65.9591 2.78527 66.785 3.19604 67.502 3.69937C68.2189 4.20848 68.8613 4.81594 69.5955 5.29613C70.4329 5.84574 72.1593 5.94409 71.8152 7.24002Z" fill="#686B70"/>
<path d="M66.7789 14.0499C66.8477 13.8706 66.928 13.697 67.0083 13.5234C67.6449 12.187 69.0559 11.6316 70.1514 10.677C70.8282 10.0927 71.5222 9.62988 72.2277 9.08606C72.5661 8.82571 72.8414 8.43231 73.197 8.21246C73.4264 8.07361 73.7419 8.04469 73.9426 8.22982C74.0975 8.36867 74.1434 8.60008 74.1549 8.80836C74.2466 10.1853 73.4838 11.2556 72.8185 12.3664C72.2334 13.3383 71.3215 13.9458 70.7135 14.8888C70.117 15.8145 70.2145 17.012 70.3349 18.1113C70.5357 19.9568 70.7364 21.8023 70.9372 23.6479C71.1264 25.3777 71.5566 26.824 71.9639 28.5018C72.5948 31.0705 72.5546 34.0616 72.6005 36.6939C72.6521 39.3378 70.9142 42.5082 68.1956 43.0636C62.7238 44.1802 63.911 36.3815 63.7677 33.2458C63.6529 30.7523 64.2437 28.2068 64.8001 25.8058C65.3851 23.295 65.4482 20.6973 65.8095 18.1518C66.0045 16.7748 66.2569 15.3458 66.7789 14.0499Z" fill="white" stroke="#686B70" stroke-miterlimit="10"/>
<path d="M66.7628 40.2682C66.7685 40.4997 66.7628 40.7195 66.7284 40.9162C66.6481 41.4022 66.304 41.8766 65.8222 41.9518C65.306 42.0328 64.8414 41.651 64.4915 41.2633C63.0977 39.7129 62.375 37.7053 62.398 35.6226C62.4037 35.0325 62.4668 34.4077 62.8052 33.9275C63.1436 33.4473 63.8376 33.1696 64.3366 33.482C64.675 33.6903 64.8356 34.0952 64.9733 34.4713C65.4379 35.7325 65.9025 36.9995 66.367 38.2607C66.5621 38.8045 66.7399 39.5856 66.7628 40.2682Z" fill="white"/>
<path d="M68.7016 40.7492C68.4378 40.9228 68.151 41.0443 67.8355 41.0096C67.6004 40.9807 67.5717 41.3451 67.7839 41.4088C68.2542 41.5476 68.6959 41.4377 68.9941 41.0385C69.1203 40.8707 68.868 40.6393 68.7016 40.7492Z" fill="#686B70"/>
<path d="M21.4908 33.6338C21.2556 33.4081 21.1065 33.0957 21.1524 32.7602C21.1868 32.5172 21.0893 32.2742 20.8369 32.199C20.6247 32.1354 20.315 32.2742 20.2806 32.5172C20.1831 33.1767 20.3609 33.8131 20.8484 34.2759C21.2786 34.6809 21.9152 34.033 21.4908 33.6338Z" fill="#686B70"/>
<path d="M38.7393 63.7285C41.5956 64.4343 44.4806 65.0187 47.3886 65.4815" stroke="white" stroke-miterlimit="10"/>
<path d="M57.9526 60.9737C58.3426 60.0596 58.7498 59.1513 59.18 58.2546C55.4576 56.1487 51.8327 53.904 48.1504 51.7402" stroke="white" stroke-miterlimit="10"/>
<path d="M33.972 61.8013C31.2648 61.1475 28.6035 60.2913 26.0225 59.2441" stroke="white" stroke-miterlimit="10"/>
</svg>
