<svg width="20" height="20" viewBox="0 0 20 20" fill="none" xmlns="http://www.w3.org/2000/svg">
<g id="Bold/Order">
<g id="Paper">
<path id="Paper_2" fill-rule="evenodd" clip-rule="evenodd" d="M7.10658 13.951H12.1759C12.558 13.951 12.8748 13.645 12.8748 13.276C12.8748 12.907 12.558 12.61 12.1759 12.61H7.10658C6.72452 12.61 6.40769 12.907 6.40769 13.276C6.40769 13.645 6.72452 13.951 7.10658 13.951ZM10.2563 8.11H7.10658C6.72452 8.11 6.40769 8.416 6.40769 8.785C6.40769 9.154 6.72452 9.451 7.10658 9.451H10.2563C10.6383 9.451 10.9552 9.154 10.9552 8.785C10.9552 8.416 10.6383 8.11 10.2563 8.11ZM16.9064 7.32305C17.1255 7.32063 17.364 7.318 17.5807 7.318C17.8136 7.318 18 7.498 18 7.723V14.959C18 17.191 16.127 19 13.816 19H6.39837C3.97554 19 2 17.101 2 14.761V5.059C2 2.827 3.88235 1 6.20268 1H11.1788C11.4211 1 11.6075 1.189 11.6075 1.414V4.312C11.6075 5.959 13.0146 7.309 14.7199 7.318C15.1182 7.318 15.4693 7.32085 15.7766 7.32334C16.0157 7.32528 16.2283 7.327 16.4158 7.327C16.5485 7.327 16.7204 7.3251 16.9064 7.32305ZM17.1634 6.0094C16.3974 6.0121 15.4944 6.0094 14.8449 6.0031C13.8143 6.0031 12.9654 5.1832 12.9654 4.1878V1.8154C12.9654 1.4275 13.4527 1.2349 13.7313 1.5148C14.2357 2.02132 14.9289 2.71759 15.6188 3.41066C16.3068 4.10177 16.9917 4.7897 17.483 5.2831C17.7551 5.5558 17.5557 6.0085 17.1634 6.0094Z" fill="#111212"/>
</g>
</g>
</svg>
