<svg width="32" height="32" viewBox="0 0 32 32" fill="none" xmlns="http://www.w3.org/2000/svg">
<path d="M18 32C25.732 32 32 25.732 32 18C32 10.268 25.732 4 18 4C10.268 4 4 10.268 4 18C4 25.732 10.268 32 18 32Z" fill="#E8EAF6"/>
<path d="M10.0313 14.9977L29.9688 14.9977C30.538 14.9977 31 15.4457 31 15.9977C31 16.5497 30.538 16.9977 29.9688 16.9977L10.0312 16.9977C9.462 16.9977 9 16.5497 9 15.9977C9 15.4457 9.462 14.9977 10.0313 14.9977Z" fill="#9FA8DA"/>
<path d="M13.9096 10C14.1888 10 14.468 10.0922 14.6804 10.2778C15.1065 10.6479 15.1065 11.2478 14.6804 11.6178L9.63358 16.0002L14.6804 20.3825C15.1065 20.7525 15.1065 21.3524 14.6804 21.7225C14.2542 22.0925 13.5634 22.0925 13.1373 21.7225L7.31961 16.6708C6.89346 16.3007 6.89346 15.7008 7.31961 15.3308L13.1373 10.2791C13.3511 10.0922 13.6303 10 13.9096 10Z" fill="#9FA8DA"/>
<path d="M15.4667 32C8.62647 32 2.58732 28.0175 0.0787703 21.8531C-0.149689 21.2945 0.135885 20.6604 0.714549 20.4393C1.29171 20.2211 1.94853 20.4931 2.17699 21.056C4.34285 26.3782 9.55985 29.8182 15.4667 29.8182C23.3396 29.8182 29.7455 23.6189 29.7455 16C29.7455 8.38109 23.3396 2.18182 15.4667 2.18182C9.55985 2.18182 4.34285 5.62182 2.17699 10.944C1.94703 11.5069 1.29171 11.7789 0.714549 11.5607C0.135885 11.3396 -0.149689 10.7055 0.0787703 10.1469C2.58732 3.98255 8.62647 0 15.4667 0C24.5826 0 32 7.17818 32 16C32 24.8218 24.5826 32 15.4667 32Z" fill="#9FA8DA"/>
</svg>
