<svg width="36" height="35" viewBox="0 0 36 35" fill="none" xmlns="http://www.w3.org/2000/svg">
<path d="M28.3657 4.27418L10.8636 12.584V17.9175L7.80872 16.5486V11.2151L25.3164 2.90531L19.4374 0.264119C18.6498 -0.0880396 17.3615 -0.0880396 16.5738 0.264119L2.09283 6.76201C0.939522 7.27889 0 8.74432 0 10.0223L0.0337556 25.2617C0.0393815 26.551 1.00141 28.0165 2.17159 28.522L16.6132 34.7529C17.3727 35.0824 18.6216 35.0824 19.3811 34.7529L33.8284 28.522C35.0042 28.0165 35.9662 26.5454 35.9662 25.2617L36 10.0223C36.0056 8.75 35.0604 7.27889 33.9071 6.76201L28.3657 4.27418ZM32.7313 16.4691L31.8818 16.8667L31.865 22.8875C31.865 23.1487 31.6343 23.4611 31.353 23.5861L30.0816 24.137C29.8059 24.2563 29.5809 24.1484 29.5809 23.8871V17.9459L28.7595 18.3321C28.3713 18.5139 28.1294 18.2299 28.3207 17.8209L30.2841 13.6405C30.481 13.2201 30.9761 12.9759 31.1786 13.2031L33.1927 15.5205C33.3896 15.7534 33.1364 16.2816 32.7313 16.4691ZM24.4501 26.1364C24.4501 26.3863 24.2419 26.6874 23.9775 26.801L22.8017 27.3122C22.5429 27.4258 22.3347 27.3122 22.3291 27.0679L22.2616 21.3766L21.5021 21.7344C21.142 21.8991 20.917 21.6265 21.0914 21.2403L22.8748 17.27C23.0548 16.8667 23.5162 16.6452 23.7018 16.8667L25.6034 19.1159C25.7946 19.3375 25.564 19.843 25.187 20.0134L24.405 20.3826L24.4501 26.1364ZM34.1322 24.4835C34.1322 24.6142 34.014 24.7732 33.8678 24.8357L20.4332 30.5327C20.3094 30.5838 20.2025 30.5327 20.2025 30.4077L20.1913 29.7432C20.1913 29.6182 20.2869 29.4762 20.4163 29.4251L33.879 23.6372C34.0253 23.5747 34.1378 23.6315 34.1378 23.7622L34.1322 24.4835Z" fill="#F58B88"/>
</svg>
