<svg width="76" height="24" viewBox="0 0 76 24" fill="none" xmlns="http://www.w3.org/2000/svg">
<path d="M3.77631 4.5235H0.000243875V22.1055C-0.00427468 22.3126 0.0540861 22.5163 0.167908 22.6908C0.281729 22.8653 0.445872 23.0026 0.639473 23.0854C0.800173 23.152 0.975327 23.178 1.14893 23.1611C1.32253 23.1442 1.48904 23.0849 1.63324 22.9885C1.77744 22.8922 1.89473 22.762 1.97439 22.6098C2.05406 22.4575 2.09355 22.2882 2.08927 22.1171V17.71H3.76972C4.26571 17.7101 4.75688 17.6145 5.21516 17.4284C5.67345 17.2423 6.08987 16.9695 6.44065 16.6256C6.79143 16.2816 7.06969 15.8733 7.25954 15.4238C7.44939 14.9744 7.5471 14.4926 7.5471 14.0061V8.22217C7.54571 7.24164 7.14798 6.30167 6.44112 5.60833C5.73426 4.91499 4.77596 4.52487 3.77631 4.5235ZM5.45807 14.0074C5.45807 14.4449 5.28089 14.8645 4.9655 15.1739C4.6501 15.4832 4.22234 15.657 3.77631 15.657H2.09586V6.57257H3.77631C3.99716 6.57257 4.21585 6.61524 4.41989 6.69814C4.62393 6.78104 4.80933 6.90255 4.9655 7.05573C5.12166 7.20891 5.24554 7.39076 5.33006 7.5909C5.41458 7.79104 5.45807 8.00554 5.45807 8.22217V14.0074Z" fill="#00A4FF"/>
<path d="M11.464 4.42397C11.2144 4.46929 10.9894 4.60012 10.8291 4.79312C10.6688 4.98611 10.5837 5.22871 10.5889 5.47759V16.7469C10.5836 16.9959 10.6687 17.2387 10.829 17.4319C10.9893 17.6251 11.2143 17.7562 11.464 17.8018C11.6143 17.8273 11.7685 17.8202 11.9156 17.7809C12.0628 17.7416 12.1994 17.671 12.3157 17.5742C12.432 17.4774 12.5252 17.3567 12.5887 17.2206C12.6522 17.0846 12.6844 16.9365 12.6831 16.7869V5.43881C12.6847 5.28913 12.6526 5.14095 12.5891 5.0048C12.5257 4.86865 12.4325 4.74785 12.3162 4.651C12.1998 4.55414 12.0631 4.48359 11.9159 4.44435C11.7686 4.40512 11.6143 4.39816 11.464 4.42397Z" fill="#00A4FF"/>
<path d="M11.9953 0.174571C11.7691 0.112716 11.5303 0.110937 11.3032 0.169416C11.0761 0.227894 10.8689 0.344529 10.7029 0.507374C10.5369 0.670219 10.418 0.873422 10.3584 1.09617C10.2987 1.31892 10.3006 1.55321 10.3636 1.77505C10.4234 1.98968 10.5392 2.18532 10.6996 2.34265C10.86 2.49999 11.0595 2.61359 11.2783 2.67224C11.5044 2.73381 11.7431 2.73536 11.97 2.67676C12.1969 2.61815 12.4038 2.50148 12.5696 2.33868C12.7355 2.17588 12.8543 1.97279 12.9138 1.75019C12.9734 1.52759 12.9716 1.29347 12.9087 1.07177C12.8493 0.857111 12.7338 0.661393 12.5736 0.504016C12.4134 0.346639 12.2141 0.233071 11.9953 0.174571Z" fill="#00A4FF"/>
<path d="M19.8228 4.5235H16.0468V16.7572C16.043 16.9879 16.1179 17.2132 16.2598 17.3973C16.4016 17.5814 16.6021 17.7137 16.8294 17.7732C17.0566 17.8326 17.2977 17.8158 17.5141 17.7254C17.7305 17.635 17.9099 17.4762 18.0238 17.2743C18.105 17.1198 18.1449 16.9477 18.1397 16.774V6.57257H19.8215C20.0424 6.57257 20.2611 6.61524 20.4651 6.69814C20.6691 6.78104 20.8545 6.90255 21.0107 7.05573C21.1669 7.20891 21.2907 7.39076 21.3753 7.5909C21.4598 7.79104 21.5033 8.00554 21.5033 8.22217V16.7546C21.5005 16.9612 21.5595 17.164 21.6728 17.3381C21.7862 17.5123 21.949 17.65 22.1412 17.7345C22.3624 17.8258 22.6088 17.8403 22.8395 17.7757C23.0703 17.711 23.2717 17.5711 23.4104 17.379C23.5381 17.1952 23.604 16.9769 23.5989 16.7546V8.22217C23.5975 7.24075 23.199 6.29999 22.4911 5.6065C21.7831 4.91301 20.8234 4.5235 19.8228 4.5235Z" fill="#00A4FF"/>
<path d="M26.4168 8.22217V14.0022C26.4162 14.489 26.5135 14.971 26.7031 15.4208C26.8926 15.8706 27.1706 16.2794 27.5213 16.6238C27.872 16.9681 28.2885 17.2413 28.7469 17.4277C29.2053 17.614 29.6966 17.71 30.1928 17.71H31.8746V19.4682C31.8732 19.9087 31.6942 20.3307 31.3766 20.6422C31.059 20.9537 30.6287 21.1293 30.1796 21.1307C29.6669 21.1307 29.2465 20.8502 28.9829 20.6136C28.7839 20.435 28.5227 20.338 28.253 20.3426C27.9833 20.3472 27.7257 20.4529 27.5331 20.6381C27.4343 20.7268 27.355 20.8344 27.3002 20.9542C27.2453 21.074 27.2161 21.2036 27.2141 21.3349C27.2123 21.4748 27.2391 21.6136 27.2929 21.743C27.3468 21.8725 27.4267 21.9901 27.5278 22.0886C28.075 22.6159 28.7712 22.9695 29.5259 23.1035C30.2807 23.2374 31.0591 23.1455 31.7599 22.8398C33.1056 22.2528 33.9755 20.9006 33.9755 19.3777V4.5235H30.1928C29.1923 4.5235 28.2326 4.91301 27.5246 5.6065C26.8166 6.29999 26.4181 7.24075 26.4168 8.22217ZM31.8746 15.6518H30.1928C29.972 15.6518 29.7534 15.6092 29.5494 15.5262C29.3455 15.4433 29.1601 15.3218 29.0041 15.1686C28.848 15.0154 28.7243 14.8335 28.6399 14.6334C28.5555 14.4333 28.5122 14.2188 28.5124 14.0022V8.22217C28.5122 8.0056 28.5555 7.79113 28.6399 7.591C28.7243 7.39086 28.848 7.209 29.0041 7.05581C29.1601 6.90261 29.3455 6.78108 29.5494 6.69817C29.7534 6.61525 29.972 6.57257 30.1928 6.57257H31.8746V15.6518Z" fill="#00A4FF"/>
<path d="M41.0005 4.5235H37.2244V22.1055C37.222 22.3121 37.2812 22.515 37.3948 22.6891C37.5083 22.8632 37.6713 23.001 37.8637 23.0854C37.993 23.1389 38.1319 23.1666 38.2722 23.1668C38.4624 23.166 38.6489 23.1152 38.8123 23.0197C38.9757 22.9242 39.1101 22.7875 39.2014 22.6239C39.2841 22.4698 39.3249 22.2975 39.3201 22.1236V17.71H41.0018C42.0033 17.71 42.9637 17.3197 43.6719 16.6251C44.38 15.9305 44.7779 14.9884 44.7779 14.0061V8.22217C44.7765 7.24052 44.3778 6.29957 43.6696 5.60604C42.9613 4.91252 42.0013 4.52316 41.0005 4.5235ZM42.6823 14.0074C42.6823 14.4449 42.5051 14.8645 42.1897 15.1739C41.8743 15.4832 41.4465 15.657 41.0005 15.657H39.3187V6.57257H41.0005C41.2213 6.57257 41.44 6.61524 41.6441 6.69814C41.8481 6.78104 42.0335 6.90255 42.1897 7.05573C42.3458 7.20891 42.4697 7.39076 42.5542 7.5909C42.6388 7.79104 42.6823 8.00554 42.6823 8.22217V14.0074Z" fill="#00A4FF"/>
<path d="M50.6233 4.46273C48.7873 4.75878 47.4851 6.39029 47.4851 8.21183V14.0074C47.4851 15.8328 48.7873 17.463 50.6233 17.7565C51.1647 17.8467 51.7197 17.82 52.2496 17.6784C52.7795 17.5368 53.2716 17.2836 53.6916 16.9365C54.1116 16.5894 54.4494 16.1566 54.6816 15.6684C54.9138 15.1802 55.0347 14.6482 55.036 14.1095V8.11487C55.0352 7.57579 54.9147 7.04335 54.6828 6.55462C54.4509 6.06589 54.1132 5.63262 53.6931 5.28497C53.2731 4.93733 52.7809 4.68368 52.2507 4.54167C51.7205 4.39967 51.1651 4.37273 50.6233 4.46273ZM52.943 14.041C52.943 14.8878 52.2444 15.6984 51.3824 15.7553C51.1515 15.7738 50.9191 15.7449 50.7001 15.6704C50.4812 15.5958 50.2805 15.4774 50.1108 15.3225C49.9412 15.1677 49.8063 14.9798 49.7148 14.771C49.6233 14.5621 49.5772 14.3368 49.5794 14.1095V8.11487C49.5772 7.88756 49.6233 7.66229 49.7148 7.45344C49.8063 7.24458 49.9412 7.05674 50.1108 6.90188C50.2805 6.74702 50.4812 6.62856 50.7001 6.55405C50.9191 6.47954 51.1515 6.45063 51.3824 6.46915C52.2444 6.52603 52.943 7.33661 52.943 8.18339V14.041Z" fill="#00A4FF"/>
<path d="M61.8501 4.5235H58.0675V16.7572C58.065 16.9639 58.1242 17.1667 58.2378 17.3408C58.3514 17.5149 58.5143 17.6527 58.7067 17.7371C58.9286 17.8282 59.1757 17.8421 59.4068 17.7765C59.6379 17.7109 59.8392 17.5697 59.9772 17.3764C60.1035 17.1926 60.1684 16.9749 60.1631 16.7533V6.57257H61.8501C62.071 6.57257 62.2897 6.61524 62.4937 6.69814C62.6977 6.78104 62.8831 6.90255 63.0393 7.05573C63.1955 7.20891 63.3193 7.39076 63.4039 7.5909C63.4884 7.79104 63.5319 8.00554 63.5319 8.22217V16.7546C63.5275 16.9617 63.586 17.1653 63.6998 17.3398C63.8136 17.5142 63.9776 17.6516 64.1711 17.7345C64.3004 17.7881 64.4393 17.8158 64.5797 17.816C64.77 17.8151 64.9567 17.7642 65.1201 17.6684C65.2836 17.5727 65.4178 17.4357 65.5089 17.2717C65.5916 17.1177 65.6325 16.9454 65.6275 16.7714V8.22217C65.6261 7.24052 65.2275 6.29957 64.5192 5.60604C63.8109 4.91252 62.8509 4.52316 61.8501 4.5235Z" fill="#00A4FF"/>
<path d="M68.4438 8.22217V14.0022C68.4433 14.489 68.5406 14.971 68.7302 15.4208C68.9197 15.8707 69.1977 16.2794 69.5484 16.6238C69.8991 16.9681 70.3156 17.2413 70.774 17.4277C71.2324 17.614 71.7237 17.71 72.2199 17.71H73.9017V19.4682C73.9003 19.9089 73.7211 20.3312 73.4033 20.6427C73.0854 20.9542 72.6548 21.1297 72.2054 21.1307C71.694 21.1307 71.2723 20.8502 71.0087 20.6136C70.8095 20.4352 70.5482 20.3384 70.2785 20.3432C70.0089 20.3481 69.7513 20.4541 69.5589 20.6394C69.4601 20.7282 69.3808 20.8358 69.3258 20.9556C69.2707 21.0754 69.2411 21.2049 69.2386 21.3362C69.237 21.4762 69.264 21.615 69.3181 21.7445C69.3722 21.8739 69.4523 21.9914 69.5536 22.0899C70.1002 22.6181 70.7966 22.9722 71.5516 23.1059C72.3067 23.2397 73.0853 23.1469 73.7857 22.8398C75.1314 22.2541 76 20.9006 76 19.379V4.5235H72.2199C71.2194 4.5235 70.2597 4.91301 69.5517 5.6065C68.8437 6.29999 68.4452 7.24075 68.4438 8.22217ZM73.9017 15.6518H72.2199C71.7739 15.6518 71.3461 15.478 71.0307 15.1687C70.7153 14.8593 70.5382 14.4397 70.5382 14.0022V8.22217C70.5382 8.00554 70.5817 7.79104 70.6662 7.5909C70.7507 7.39076 70.8746 7.20891 71.0307 7.05573C71.1869 6.90255 71.3723 6.78104 71.5763 6.69814C71.7804 6.61524 71.9991 6.57257 72.2199 6.57257H73.9017V15.6518Z" fill="#00A4FF"/>
</svg>
