<svg width="76" height="24" viewBox="0 0 76 24" fill="none" xmlns="http://www.w3.org/2000/svg">
<g style="mix-blend-mode:luminosity" opacity="0.3">
<path d="M3.82365 4.66666H0.0565177V22.8C0.0520099 23.0136 0.110232 23.2237 0.223785 23.4037C0.337337 23.5836 0.501091 23.7253 0.694234 23.8107C0.854554 23.8793 1.02929 23.9062 1.20248 23.8887C1.37567 23.8713 1.54179 23.8101 1.68565 23.7108C1.82951 23.6114 1.94652 23.4771 2.026 23.3201C2.10547 23.1631 2.14487 22.9884 2.1406 22.812V18.2667H3.81707C4.31189 18.2668 4.80189 18.1682 5.25909 17.9763C5.71629 17.7844 6.13173 17.503 6.48168 17.1483C6.83163 16.7935 7.10924 16.3724 7.29863 15.9088C7.48803 15.4453 7.58551 14.9484 7.58551 14.4467V8.48132C7.58412 7.47004 7.18734 6.50059 6.48215 5.78551C5.77697 5.07042 4.82093 4.66807 3.82365 4.66666ZM5.50143 14.448C5.50143 14.8992 5.32467 15.332 5.01002 15.651C4.69537 15.9701 4.26862 16.1493 3.82365 16.1493H2.14718V6.77999H3.82365C4.04398 6.77999 4.26215 6.824 4.46571 6.9095C4.66927 6.995 4.85422 7.12032 5.01002 7.2783C5.16582 7.43628 5.2894 7.62384 5.37372 7.83025C5.45803 8.03667 5.50143 8.2579 5.50143 8.48132V14.448Z" fill="#00A4FF"/>
<path d="M11.4934 4.564C11.2445 4.61075 11.02 4.74568 10.8601 4.94473C10.7001 5.14378 10.6152 5.39398 10.6203 5.65067V17.2733C10.6151 17.5302 10.7 17.7806 10.8599 17.9798C11.0199 18.1791 11.2444 18.3143 11.4934 18.3613C11.6434 18.3877 11.7972 18.3804 11.944 18.3398C12.0908 18.2992 12.2271 18.2265 12.3431 18.1266C12.4591 18.0268 12.5521 17.9023 12.6154 17.762C12.6788 17.6217 12.711 17.469 12.7097 17.3147V5.61067C12.7112 5.45629 12.6792 5.30347 12.6159 5.16305C12.5526 5.02263 12.4596 4.89805 12.3436 4.79815C12.2275 4.69826 12.0911 4.6255 11.9442 4.58503C11.7973 4.54456 11.6434 4.53738 11.4934 4.564Z" fill="#00A4FF"/>
<path d="M12.0233 0.181348C11.7977 0.117553 11.5594 0.115718 11.3328 0.176031C11.1063 0.236343 10.8996 0.356636 10.734 0.524587C10.5683 0.692539 10.4497 0.902115 10.3902 1.13185C10.3308 1.36158 10.3326 1.60322 10.3955 1.83201C10.4551 2.05338 10.5707 2.25515 10.7307 2.41742C10.8907 2.57969 11.0897 2.69685 11.308 2.75735C11.5335 2.82084 11.7717 2.82245 11.998 2.762C12.2244 2.70156 12.4308 2.58123 12.5963 2.41332C12.7617 2.24542 12.8802 2.03596 12.9397 1.80638C12.9991 1.5768 12.9973 1.33534 12.9345 1.10668C12.8753 0.885293 12.7601 0.683436 12.6003 0.521124C12.4404 0.358812 12.2415 0.241682 12.0233 0.181348Z" fill="#00A4FF"/>
<path d="M19.8323 4.66666H16.0652V17.284C16.0614 17.5219 16.1362 17.7543 16.2777 17.9442C16.4192 18.1341 16.6192 18.2705 16.8459 18.3318C17.0727 18.3931 17.3131 18.3758 17.5291 18.2826C17.745 18.1894 17.924 18.0256 18.0375 17.8173C18.1185 17.658 18.1584 17.4805 18.1532 17.3013V6.77999H19.831C20.0513 6.77999 20.2695 6.824 20.4731 6.9095C20.6766 6.995 20.8616 7.12032 21.0174 7.2783C21.1732 7.43628 21.2968 7.62384 21.3811 7.83025C21.4654 8.03667 21.5088 8.2579 21.5088 8.48132V17.2813C21.5061 17.4944 21.5649 17.7036 21.678 17.8832C21.791 18.0627 21.9535 18.2049 22.1452 18.292C22.3659 18.3861 22.6117 18.4011 22.8419 18.3344C23.0721 18.2678 23.273 18.1234 23.4114 17.9253C23.5388 17.7358 23.6045 17.5106 23.5995 17.2813V8.48132C23.5981 7.46912 23.2006 6.49886 22.4942 5.78362C21.7879 5.06839 20.8305 4.66666 19.8323 4.66666Z" fill="#00A4FF"/>
<path d="M26.4106 8.48132V14.4427C26.4101 14.9446 26.5072 15.4418 26.6963 15.9057C26.8854 16.3697 27.1628 16.7912 27.5126 17.1464C27.8625 17.5015 28.2779 17.7833 28.7352 17.9755C29.1925 18.1677 29.6827 18.2667 30.1778 18.2667H31.8555V20.08C31.8542 20.5343 31.6756 20.9696 31.3588 21.2909C31.0419 21.6121 30.6127 21.7932 30.1646 21.7947C29.6531 21.7947 29.2337 21.5053 28.9707 21.2613C28.7722 21.0772 28.5116 20.9771 28.2426 20.9819C27.9735 20.9866 27.7165 21.0956 27.5243 21.2867C27.4258 21.3781 27.3467 21.489 27.292 21.6126C27.2373 21.7362 27.2081 21.8699 27.2061 22.0053C27.2043 22.1495 27.231 22.2927 27.2848 22.4262C27.3385 22.5598 27.4182 22.681 27.5191 22.7827C28.0649 23.3265 28.7595 23.6911 29.5125 23.8293C30.2655 23.9674 31.042 23.8727 31.7412 23.5573C33.0836 22.952 33.9515 21.5573 33.9515 19.9867V4.66666H30.1778C29.1796 4.66666 28.2222 5.06839 27.5159 5.78362C26.8096 6.49886 26.412 7.46912 26.4106 8.48132ZM31.8555 16.144H30.1778C29.9575 16.144 29.7394 16.1 29.5359 16.0145C29.3324 15.9289 29.1476 15.8036 28.9919 15.6456C28.8362 15.4876 28.7127 15.3 28.6285 15.0936C28.5444 14.8872 28.5011 14.666 28.5013 14.4427V8.48132C28.5011 8.25796 28.5444 8.03676 28.6285 7.83035C28.7127 7.62394 28.8362 7.43638 28.9919 7.27838C29.1476 7.12038 29.3324 6.99504 29.5359 6.90952C29.7394 6.82401 29.9575 6.77999 30.1778 6.77999H31.8555V16.144Z" fill="#00A4FF"/>
<path d="M40.9598 4.66666H37.1927V22.8C37.1903 23.0132 37.2493 23.2224 37.3626 23.402C37.4759 23.5815 37.6385 23.7236 37.8304 23.8107C37.9594 23.8659 38.098 23.8944 38.238 23.8947C38.4278 23.8938 38.6138 23.8414 38.7768 23.7429C38.9399 23.6444 39.0739 23.5034 39.165 23.3347C39.2474 23.1758 39.2882 22.9981 39.2834 22.8187V18.2667H40.9611C41.9602 18.2667 42.9184 17.8642 43.6249 17.1478C44.3314 16.4314 44.7282 15.4598 44.7282 14.4467V8.48132C44.7269 7.46889 44.3292 6.49843 43.6226 5.78315C42.916 5.06788 41.9582 4.6663 40.9598 4.66666ZM42.6376 14.448C42.6376 14.8992 42.4608 15.332 42.1462 15.651C41.8315 15.9701 41.4048 16.1493 40.9598 16.1493H39.282V6.77999H40.9598C41.1801 6.77999 41.3983 6.824 41.6019 6.9095C41.8054 6.995 41.9904 7.12032 42.1462 7.2783C42.302 7.43628 42.4256 7.62384 42.5099 7.83025C42.5942 8.03667 42.6376 8.2579 42.6376 8.48132V14.448Z" fill="#00A4FF"/>
<path d="M50.5597 4.60399C48.7281 4.90932 47.429 6.59199 47.429 8.47065V14.448C47.429 16.3307 48.7281 18.012 50.5597 18.3147C51.0999 18.4076 51.6536 18.3802 52.1822 18.2341C52.7109 18.088 53.2018 17.8269 53.6208 17.4689C54.0398 17.1109 54.3768 16.6646 54.6084 16.1611C54.84 15.6576 54.9607 15.1089 54.9619 14.5533V8.37065C54.9612 7.81467 54.841 7.26553 54.6096 6.76147C54.3783 6.25742 54.0413 5.81056 53.6223 5.45201C53.2033 5.09347 52.7122 4.83186 52.1833 4.6854C51.6543 4.53894 51.1003 4.51116 50.5597 4.60399ZM52.8739 14.4827C52.8739 15.356 52.177 16.192 51.3171 16.2507C51.0866 16.2698 50.8548 16.2399 50.6364 16.1631C50.4179 16.0862 50.2177 15.9641 50.0484 15.8043C49.8792 15.6446 49.7446 15.4509 49.6533 15.2355C49.5621 15.0201 49.5161 14.7878 49.5183 14.5533V8.37065C49.5161 8.13622 49.5621 7.90388 49.6533 7.68848C49.7446 7.47308 49.8792 7.27934 50.0484 7.11962C50.2177 6.95991 50.4179 6.83773 50.6364 6.76089C50.8548 6.68404 51.0866 6.65422 51.3171 6.67332C52.177 6.73199 52.8739 7.56799 52.8739 8.44132V14.4827Z" fill="#00A4FF"/>
<path d="M61.7599 4.66666H57.9862V17.284C57.9837 17.4971 58.0428 17.7064 58.1561 17.8859C58.2694 18.0655 58.432 18.2076 58.6239 18.2947C58.8453 18.3886 59.0918 18.4029 59.3223 18.3353C59.5529 18.2676 59.7537 18.122 59.8914 17.9226C60.0173 17.7331 60.0821 17.5085 60.0768 17.28V6.77999H61.7599C61.9802 6.77999 62.1984 6.824 62.4019 6.9095C62.6055 6.995 62.7904 7.12031 62.9462 7.2783C63.102 7.43628 63.2256 7.62383 63.3099 7.83025C63.3942 8.03666 63.4376 8.2579 63.4376 8.48132V17.2813C63.4333 17.4949 63.4916 17.7049 63.6051 17.8849C63.7187 18.0648 63.8823 18.2065 64.0754 18.292C64.2044 18.3472 64.3429 18.3758 64.483 18.376C64.6729 18.3751 64.8591 18.3225 65.0221 18.2238C65.1852 18.1251 65.3191 17.9838 65.41 17.8146C65.4925 17.6558 65.5333 17.4781 65.5283 17.2987V8.48132C65.5269 7.46889 65.1292 6.49842 64.4226 5.78315C63.716 5.06788 62.7583 4.6663 61.7599 4.66666Z" fill="#00A4FF"/>
<path d="M68.3381 8.48132V14.4427C68.3376 14.9446 68.4347 15.4418 68.6238 15.9057C68.8128 16.3697 69.0903 16.7912 69.4401 17.1464C69.79 17.5015 70.2054 17.7833 70.6627 17.9755C71.1201 18.1677 71.6102 18.2667 72.1053 18.2667H73.7831V20.08C73.7817 20.5345 73.6029 20.9701 73.2858 21.2914C72.9687 21.6127 72.5391 21.7936 72.0908 21.7947C71.5806 21.7947 71.1599 21.5053 70.8969 21.2613C70.6982 21.0773 70.4375 20.9776 70.1685 20.9825C69.8994 20.9875 69.6425 21.0968 69.4505 21.288C69.352 21.3796 69.2729 21.4905 69.218 21.614C69.1631 21.7376 69.1335 21.8712 69.131 22.0067C69.1294 22.151 69.1564 22.2941 69.2103 22.4277C69.2643 22.5612 69.3442 22.6824 69.4453 22.784C69.9906 23.3287 70.6853 23.6939 71.4385 23.8318C72.1918 23.9698 72.9686 23.8741 73.6674 23.5573C75.0099 22.9533 75.8764 21.5573 75.8764 19.988V4.66666H72.1053C71.1071 4.66666 70.1497 5.06839 69.4434 5.78362C68.737 6.49886 68.3395 7.46912 68.3381 8.48132ZM73.7831 16.144H72.1053C71.6603 16.144 71.2335 15.9647 70.9189 15.6457C70.6043 15.3266 70.4275 14.8939 70.4275 14.4427V8.48132C70.4275 8.2579 70.4709 8.03667 70.5552 7.83025C70.6395 7.62384 70.7631 7.43628 70.9189 7.2783C71.0747 7.12032 71.2597 6.995 71.4632 6.9095C71.6668 6.824 71.885 6.77999 72.1053 6.77999H73.7831V16.144Z" fill="#00A4FF"/>
</g>
</svg>
