<svg width="40" height="40" viewBox="0 0 40 40" fill="none" xmlns="http://www.w3.org/2000/svg">
<path d="M15.05 36.15L18.9333 32.8833C19.5167 32.3833 20.4833 32.3833 21.0667 32.8833L24.95 36.15C25.85 36.6 26.95 36.15 27.2833 35.1833L28.0167 32.9667C28.2 32.4333 28.0167 31.65 27.6167 31.25L23.8333 27.45C23.55 27.1833 23.3333 26.65 23.3333 26.2667V21.5167C23.3333 20.8167 23.85 20.4833 24.5 20.75L32.6833 24.2833C33.9667 24.8333 35.0167 24.15 35.0167 22.75V20.6C35.0167 19.4833 34.1833 18.2 33.15 17.7667L23.8333 13.75C23.5667 13.6333 23.3333 13.2833 23.3333 12.9833V7.98334C23.3333 6.41667 22.1833 4.56667 20.7833 3.85001C20.2833 3.60001 19.7 3.60001 19.2 3.85001C17.8 4.56667 16.65 6.43334 16.65 8.00001V13C16.65 13.3 16.4167 13.65 16.15 13.7667L6.85 17.7833C5.81667 18.2 4.98334 19.4833 4.98334 20.6V22.75C4.98334 24.15 6.03334 24.8333 7.31667 24.2833L15.5 20.75C16.1333 20.4667 16.6667 20.8167 16.6667 21.5167V26.2667C16.6667 26.65 16.45 27.1833 16.1833 27.45L12.4 31.25C12 31.65 11.8167 32.4167 12 32.9667L12.7333 35.1833C13.0333 36.15 14.1333 36.6167 15.05 36.15Z" stroke="#02BABA" stroke-width="1.5" stroke-linecap="round" stroke-linejoin="round"/>
</svg>
