<svg width="20" height="20" viewBox="0 0 20 20" fill="none" xmlns="http://www.w3.org/2000/svg">
<path fill-rule="evenodd" clip-rule="evenodd" d="M5.33024 0H14.6602C18.0602 0 20.0002 1.92 20.0002 5.33V14.67C20.0002 18.06 18.0702 20 14.6702 20H5.33024C1.92024 20 0.000244141 18.06 0.000244141 14.67V5.33C0.000244141 1.92 1.92024 0 5.33024 0ZM10.8202 10.83H13.6602C14.1202 10.82 14.4902 10.45 14.4902 9.99C14.4902 9.53 14.1202 9.16 13.6602 9.16H10.8202V6.34C10.8202 5.88 10.4502 5.51 9.99024 5.51C9.53024 5.51 9.16024 5.88 9.16024 6.34V9.16H6.33024C6.11024 9.16 5.90024 9.25 5.74024 9.4C5.59024 9.56 5.50024 9.769 5.50024 9.99C5.50024 10.45 5.87024 10.82 6.33024 10.83H9.16024V13.66C9.16024 14.12 9.53024 14.49 9.99024 14.49C10.4502 14.49 10.8202 14.12 10.8202 13.66V10.83Z" fill="white"/>
</svg>
