<svg width="20" height="20" viewBox="0 0 20 20" fill="none" xmlns="http://www.w3.org/2000/svg">
<path d="M10.004 18.3357C5.40162 18.3357 1.67065 14.6048 1.67065 10.0024C1.67065 5.40003 5.40162 1.66907 10.004 1.66907C14.6063 1.66907 18.3373 5.40003 18.3373 10.0024C18.3373 14.6048 14.6063 18.3357 10.004 18.3357ZM10.004 16.669C13.6859 16.669 16.6707 13.6843 16.6707 10.0024C16.6707 6.3205 13.6859 3.33573 10.004 3.33573C6.32209 3.33573 3.33732 6.3205 3.33732 10.0024C3.33732 13.6843 6.32209 16.669 10.004 16.669ZM10.004 5.87761L14.1288 10.0024L10.004 14.1272L5.8792 10.0024L10.004 5.87761ZM10.004 8.23463L8.23622 10.0024L10.004 11.7702L11.7718 10.0024L10.004 8.23463Z" fill="black"/>
</svg>
