<svg width="16" height="16" viewBox="0 0 16 16" fill="none" xmlns="http://www.w3.org/2000/svg">
<path d="M13.7143 1.14286C13.7143 0.512 13.2023 0 12.5714 0H3.42856C2.79771 0 2.28571 0.512 2.28571 1.14286V2.28571H13.7143V1.14286Z" fill="#313232"/>
<path d="M14.8571 3.42859H1.14286C0.512 3.42859 0 3.94059 0 4.57145V11.4286C0 12.0594 0.512 12.5714 1.14286 12.5714H2.28571V14.8572C2.28571 15.488 2.79771 16 3.42857 16H12.5714C13.2023 16 13.7143 15.488 13.7143 14.8572V12.5714H14.8571C15.488 12.5714 16 12.0594 16 11.4286V4.57145C16 3.94059 15.488 3.42859 14.8571 3.42859ZM12.5714 14.8572H3.42857V9.14287H12.5714V14.8572ZM13.7143 6.85716H11.4286V5.7143H13.7143V6.85716Z" fill="#313232"/>
<path d="M7.99998 12.5714H4.57141V13.7143H7.99998V12.5714Z" fill="#313232"/>
<path d="M11.4286 10.2857H4.57141V11.4286H11.4286V10.2857Z" fill="#313232"/>
</svg>
