<svg width="48" height="48" viewBox="0 0 48 48" fill="none" xmlns="http://www.w3.org/2000/svg">
<rect width="48" height="48" rx="12" fill="white"/>
<g clip-path="url(#clip0)">
<circle cx="25.5" cy="25.5" r="14.5" fill="#DDF3F4"/>
<path d="M15.3179 35.439L14.8066 31.826C14.7338 31.3118 14.2574 30.9528 13.7437 31.0266C13.2294 31.0993 12.8715 31.5753 12.9443 32.0895L13.0588 32.8986C12.0824 31.6937 11.3049 30.3273 10.7664 28.8546C6.95394 18.4311 16.161 7.91861 26.8956 10.2085C27.4035 10.3166 27.9032 9.99291 28.0116 9.48493C28.12 8.97695 27.7961 8.47731 27.2881 8.36891C15.1666 5.78274 4.65267 17.6153 8.9999 29.5008C9.60895 31.1661 10.4877 32.7121 11.5917 34.0762L10.683 33.9016C10.1727 33.8038 9.67993 34.1377 9.58193 34.6477C9.48393 35.1578 9.81799 35.6508 10.328 35.7488L14.129 36.479C14.8136 36.6721 15.4087 36.0794 15.3179 35.439Z" fill="#6ECECF"/>
<path d="M39.0204 18.5093C38.4113 16.844 37.5325 15.298 36.4286 13.9339L37.3374 14.1085C37.8472 14.2063 38.3404 13.8724 38.4384 13.3624C38.5364 12.8522 38.2023 12.3593 37.6923 12.2613L33.8905 11.5309C33.2147 11.3407 32.6102 11.9206 32.7024 12.571L33.2137 16.184C33.2802 16.6536 33.6826 16.9928 34.1437 16.9928C34.7186 16.9928 35.1559 16.4848 35.076 15.9204L34.9615 15.1113C35.9379 16.3163 36.7154 17.6827 37.254 19.1553C39.924 26.4554 36.1687 34.5705 28.8828 37.2452C26.3903 38.1603 23.7076 38.3525 21.1247 37.8015C20.6169 37.6931 20.1171 38.017 20.0087 38.525C19.9003 39.033 20.2243 39.5326 20.7322 39.641C23.6625 40.2663 26.7051 40.0483 29.531 39.0109C37.8094 35.972 42.0535 26.8022 39.0204 18.5093Z" fill="#6ECECF"/>
<path d="M33.7589 24.0544C33.7589 18.6697 29.3855 14.2889 24.0098 14.2889C18.6342 14.2889 14.2607 18.6697 14.2607 24.0544C14.2607 29.4391 18.6342 33.8199 24.0098 33.8199C29.3855 33.8199 33.7589 29.4391 33.7589 24.0544ZM16.1417 24.0544C16.1417 19.7069 19.6713 16.1699 24.0098 16.1699C28.3484 16.1699 31.878 19.7069 31.878 24.0544C31.878 28.4019 28.3484 31.9389 24.0098 31.9389C19.6713 31.9389 16.1417 28.4019 16.1417 24.0544Z" fill="#6ECECF"/>
<path d="M24.9508 29.3369V28.5519C26.5805 28.5519 27.7144 27.2729 27.7144 25.8329C27.7144 24.3336 26.4961 23.1139 24.9987 23.1139H23.0219C22.5616 23.1139 22.1872 22.738 22.1872 22.2758C22.1872 21.8298 22.5382 21.4378 23.035 21.4378H24.9277C25.2598 21.4411 25.5885 21.5908 25.8298 21.8488C26.1845 22.2281 26.7797 22.2479 27.1591 21.8931C27.5384 21.5383 27.5582 20.9432 27.2034 20.5639C26.6135 19.9332 25.7931 19.567 24.9508 19.5573V18.7719C24.9508 18.2525 24.5297 17.8314 24.0103 17.8314C23.4909 17.8314 23.0698 18.2525 23.0698 18.7719V19.5569C21.4401 19.5569 20.3062 20.836 20.3062 22.2759C20.3062 23.7752 21.5244 24.9949 23.0219 24.9949H24.9987C25.459 24.9949 25.8334 25.3708 25.8334 25.833C25.8334 26.2983 25.4579 26.6711 24.9988 26.6711C24.9944 26.6711 24.9899 26.671 24.9855 26.671H22.9203C22.686 26.6686 22.4368 26.5837 22.2183 26.4318C21.7917 26.1354 21.2056 26.2409 20.9092 26.6674C20.6128 27.0939 20.7183 27.6799 21.1448 27.9764C21.7887 28.4239 22.388 28.552 23.0698 28.552V29.3371C23.0698 29.8564 23.4908 30.2775 24.0102 30.2775C24.5297 30.2774 24.9508 29.8563 24.9508 29.3369Z" fill="#6ECECF"/>
</g>
<defs>
<clipPath id="clip0">
<rect width="32" height="32" fill="white" transform="translate(8 8)"/>
</clipPath>
</defs>
</svg>
