<svg width="20" height="20" viewBox="0 0 20 20" fill="none" xmlns="http://www.w3.org/2000/svg">
<path d="M5.60829 16.4166C6.29163 15.6833 7.33329 15.7416 7.93329 16.5416L8.77496 17.6666C9.44996 18.5583 10.5416 18.5583 11.2166 17.6666L12.0583 16.5416C12.6583 15.7416 13.7 15.6833 14.3833 16.4166C15.8666 18 17.075 17.475 17.075 15.2583V5.86663C17.0833 2.50829 16.3 1.66663 13.15 1.66663H6.84996C3.69996 1.66663 2.91663 2.50829 2.91663 5.86663V15.25C2.91663 17.475 4.13329 17.9916 5.60829 16.4166Z" stroke="#111212" stroke-width="2" stroke-linecap="round" stroke-linejoin="round"/>
<path d="M6.74668 9.16667H6.75417" stroke="#111212" stroke-width="2" stroke-linecap="round" stroke-linejoin="round"/>
<path d="M9.08203 9.16663H13.6654" stroke="#111212" stroke-width="2" stroke-linecap="round" stroke-linejoin="round"/>
<path d="M6.74668 5.83329H6.75417" stroke="#111212" stroke-width="2" stroke-linecap="round" stroke-linejoin="round"/>
<path d="M9.08203 5.83337H13.6654" stroke="#111212" stroke-width="2" stroke-linecap="round" stroke-linejoin="round"/>
</svg>
