<svg width="20" height="20" viewBox="0 0 20 20" fill="none" xmlns="http://www.w3.org/2000/svg">
<path d="M11.6667 6.66667C12.5871 6.66667 13.3333 5.92048 13.3333 5C13.3333 4.07953 12.5871 3.33334 11.6667 3.33334C10.7462 3.33334 10 4.07953 10 5C10 5.92048 10.7462 6.66667 11.6667 6.66667Z" stroke="#111212" stroke-width="2" stroke-linecap="round" stroke-linejoin="round"/>
<path d="M3.33331 5H9.99998" stroke="#111212" stroke-width="2" stroke-linecap="round" stroke-linejoin="round"/>
<path d="M13.3333 5H16.6666" stroke="#111212" stroke-width="2" stroke-linecap="round" stroke-linejoin="round"/>
<path d="M6.66667 11.6667C7.58714 11.6667 8.33333 10.9205 8.33333 10C8.33333 9.07953 7.58714 8.33334 6.66667 8.33334C5.74619 8.33334 5 9.07953 5 10C5 10.9205 5.74619 11.6667 6.66667 11.6667Z" stroke="#111212" stroke-width="2" stroke-linecap="round" stroke-linejoin="round"/>
<path d="M3.33331 10H4.99998" stroke="#111212" stroke-width="2" stroke-linecap="round" stroke-linejoin="round"/>
<path d="M8.33331 10H16.6666" stroke="#111212" stroke-width="2" stroke-linecap="round" stroke-linejoin="round"/>
<path d="M14.1667 16.6667C15.0871 16.6667 15.8333 15.9205 15.8333 15C15.8333 14.0795 15.0871 13.3333 14.1667 13.3333C13.2462 13.3333 12.5 14.0795 12.5 15C12.5 15.9205 13.2462 16.6667 14.1667 16.6667Z" stroke="#111212" stroke-width="2" stroke-linecap="round" stroke-linejoin="round"/>
<path d="M3.33331 15H12.5" stroke="#111212" stroke-width="2" stroke-linecap="round" stroke-linejoin="round"/>
<path d="M15.8333 15H16.6666" stroke="#111212" stroke-width="2" stroke-linecap="round" stroke-linejoin="round"/>
</svg>
