<svg width="32" height="32" viewBox="0 0 32 32" fill="none" xmlns="http://www.w3.org/2000/svg">
<rect width="32" height="32" rx="4" fill="#F6F7F7"/>
<path d="M16 19C17.6569 19 19 17.6569 19 16C19 14.3431 17.6569 13 16 13C14.3431 13 13 14.3431 13 16C13 17.6569 14.3431 19 16 19Z" stroke="#CFD0D0" stroke-width="2" stroke-miterlimit="10" stroke-linecap="round" stroke-linejoin="round"/>
<path d="M6 16.88V15.12C6 14.08 6.85 13.22 7.9 13.22C9.71 13.22 10.45 11.94 9.54 10.37C9.02 9.47 9.33 8.3 10.24 7.78L11.97 6.79C12.76 6.32 13.78 6.6 14.25 7.39L14.36 7.58C15.26 9.15 16.74 9.15 17.65 7.58L17.76 7.39C18.23 6.6 19.25 6.32 20.04 6.79L21.77 7.78C22.68 8.3 22.99 9.47 22.47 10.37C21.56 11.94 22.3 13.22 24.11 13.22C25.15 13.22 26.01 14.07 26.01 15.12V16.88C26.01 17.92 25.16 18.78 24.11 18.78C22.3 18.78 21.56 20.06 22.47 21.63C22.99 22.54 22.68 23.7 21.77 24.22L20.04 25.21C19.25 25.68 18.23 25.4 17.76 24.61L17.65 24.42C16.75 22.85 15.27 22.85 14.36 24.42L14.25 24.61C13.78 25.4 12.76 25.68 11.97 25.21L10.24 24.22C9.33 23.7 9.02 22.53 9.54 21.63C10.45 20.06 9.71 18.78 7.9 18.78C6.85 18.78 6 17.92 6 16.88Z" stroke="#CFD0D0" stroke-width="2" stroke-miterlimit="10" stroke-linecap="round" stroke-linejoin="round"/>
</svg>
