<svg width="16" height="16" viewBox="0 0 16 16" fill="none" xmlns="http://www.w3.org/2000/svg">
<path d="M13.4 6.14667C12.1933 6.14667 11.7 5.29333 12.3 4.24667C12.6466 3.64 12.44 2.86667 11.8333 2.52L10.68 1.86C10.1533 1.54666 9.47331 1.73333 9.15998 2.26L9.08665 2.38666C8.48665 3.43333 7.49998 3.43333 6.89331 2.38666L6.81998 2.26C6.51998 1.73333 5.83998 1.54666 5.31331 1.86L4.15998 2.52C3.55331 2.86667 3.34665 3.64667 3.69331 4.25333C4.29998 5.29333 3.80665 6.14667 2.59998 6.14667C1.90665 6.14667 1.33331 6.71333 1.33331 7.41333V8.58667C1.33331 9.28 1.89998 9.85333 2.59998 9.85333C3.80665 9.85333 4.29998 10.7067 3.69331 11.7533C3.34665 12.36 3.55331 13.1333 4.15998 13.48L5.31331 14.14C5.83998 14.4533 6.51998 14.2667 6.83331 13.74L6.90665 13.6133C7.50665 12.5667 8.49331 12.5667 9.09998 13.6133L9.17331 13.74C9.48665 14.2667 10.1666 14.4533 10.6933 14.14L11.8466 13.48C12.4533 13.1333 12.66 12.3533 12.3133 11.7533C11.7066 10.7067 12.2 9.85333 13.4066 9.85333C14.1 9.85333 14.6733 9.28666 14.6733 8.58667V7.41333C14.6666 6.72 14.1 6.14667 13.4 6.14667ZM7.99998 10.1667C6.80665 10.1667 5.83331 9.19333 5.83331 8C5.83331 6.80666 6.80665 5.83333 7.99998 5.83333C9.19331 5.83333 10.1666 6.80666 10.1666 8C10.1666 9.19333 9.19331 10.1667 7.99998 10.1667Z" fill="#CFD0D0"/>
</svg>
