<svg width="20" height="20" viewBox="0 0 20 20" fill="none" xmlns="http://www.w3.org/2000/svg">
<g id="Bold/Setting">
<g id="Setting">
<path id="Setting_2" fill-rule="evenodd" clip-rule="evenodd" d="M17.5179 11.422C17.8379 11.593 18.0848 11.863 18.2585 12.133C18.5969 12.691 18.5694 13.375 18.2402 13.978L17.6002 15.058C17.2619 15.634 16.6309 15.994 15.9817 15.994C15.6617 15.994 15.3051 15.904 15.0125 15.724C14.7747 15.571 14.5004 15.517 14.2078 15.517C13.3026 15.517 12.5436 16.264 12.5162 17.155C12.5162 18.19 11.675 19 10.6234 19H9.37988C8.3192 19 7.47796 18.19 7.47796 17.155C7.45968 16.264 6.70074 15.517 5.7955 15.517C5.49375 15.517 5.21944 15.571 4.99084 15.724C4.69824 15.904 4.33249 15.994 4.0216 15.994C3.36324 15.994 2.73232 15.634 2.39399 15.058L1.76307 13.978C1.42475 13.393 1.40646 12.691 1.74478 12.133C1.89108 11.863 2.1654 11.593 2.47629 11.422C2.73232 11.296 2.89691 11.089 3.05235 10.846C3.50954 10.072 3.23523 9.055 2.458 8.596C1.55276 8.083 1.26016 6.94 1.78136 6.049L2.39399 4.987C2.92434 4.096 4.05817 3.781 4.97255 4.303C5.76807 4.735 6.80132 4.447 7.26766 3.682C7.41396 3.43 7.49625 3.16 7.47796 2.89C7.45968 2.539 7.56026 2.206 7.73399 1.936C8.07231 1.378 8.68495 1.018 9.35245 1H10.6417C11.3184 1 11.931 1.378 12.2693 1.936C12.4339 2.206 12.5436 2.539 12.5162 2.89C12.4979 3.16 12.5802 3.43 12.7265 3.682C13.1929 4.447 14.2261 4.735 15.0308 4.303C15.936 3.781 17.079 4.096 17.6002 4.987L18.2128 6.049C18.7432 6.94 18.4506 8.083 17.5362 8.596C16.759 9.055 16.4846 10.072 16.951 10.846C17.0973 11.089 17.2619 11.296 17.5179 11.422ZM7.41397 10.009C7.41397 11.422 8.57523 12.547 10.0108 12.547C11.4464 12.547 12.5802 11.422 12.5802 10.009C12.5802 8.596 11.4464 7.462 10.0108 7.462C8.57523 7.462 7.41397 8.596 7.41397 10.009Z" fill="#111212"/>
</g>
</g>
</svg>
