<svg width="20" height="20" viewBox="0 0 20 20" fill="none" xmlns="http://www.w3.org/2000/svg">
<path fill-rule="evenodd" clip-rule="evenodd" d="M17.2817 6.44952L16.7568 5.55048C16.3128 4.78975 15.3286 4.52731 14.5569 4.96381V4.96381C14.1895 5.17742 13.7511 5.23803 13.3384 5.13226C12.9257 5.02649 12.5726 4.76304 12.3569 4.4C12.2182 4.16925 12.1436 3.90642 12.1408 3.6381V3.6381C12.1533 3.20791 11.9889 2.79103 11.6849 2.48244C11.381 2.17385 10.9635 1.99982 10.5275 2H9.46995C9.04279 2 8.63323 2.16801 8.3319 2.46686C8.03057 2.76571 7.86232 3.17076 7.86437 3.59238V3.59238C7.85171 4.46289 7.13311 5.16199 6.25107 5.1619C5.97922 5.15912 5.71294 5.08553 5.47916 4.94857V4.94857C4.70738 4.51207 3.72327 4.77451 3.2792 5.53524L2.71571 6.44952C2.27217 7.2093 2.53444 8.18004 3.30236 8.62095V8.62095C3.80152 8.9054 4.10902 9.43109 4.10902 10C4.10902 10.5689 3.80152 11.0946 3.30236 11.379V11.379C2.53541 11.817 2.27286 12.7854 2.71571 13.5429V13.5429L3.24833 14.4495C3.45639 14.8201 3.80549 15.0935 4.21836 15.2094C4.63124 15.3252 5.07386 15.2738 5.44828 15.0667V15.0667C5.81635 14.8547 6.25497 14.7966 6.66664 14.9053C7.0783 15.0141 7.4289 15.2806 7.64052 15.6457C7.77927 15.8765 7.85383 16.1393 7.85665 16.4076V16.4076C7.85665 17.2871 8.57895 18 9.46995 18H10.5275C11.4155 18 12.1365 17.2917 12.1408 16.4152V16.4152C12.1387 15.9923 12.308 15.5861 12.611 15.287C12.914 14.9879 13.3256 14.8208 13.7541 14.8229C14.0253 14.83 14.2905 14.9033 14.526 15.0362V15.0362C15.2958 15.474 16.2792 15.2151 16.7259 14.4571V14.4571L17.2817 13.5429C17.4968 13.1784 17.5559 12.7443 17.4458 12.3368C17.3357 11.9292 17.0655 11.5818 16.6951 11.3714V11.3714C16.3246 11.1611 16.0545 10.8137 15.9444 10.4061C15.8342 9.99854 15.8933 9.56446 16.1084 9.2C16.2483 8.95892 16.4508 8.75903 16.6951 8.62095V8.62095C17.4584 8.18028 17.72 7.21521 17.2817 6.45714V6.45714V6.44952Z" stroke="#CFD0D0" stroke-width="2" stroke-linecap="round" stroke-linejoin="round"/>
<ellipse cx="10.0026" cy="10" rx="2.22311" ry="2.19429" stroke="#CFD0D0" stroke-width="2" stroke-linecap="round" stroke-linejoin="round"/>
</svg>
