<svg width="68" height="28" viewBox="0 0 68 28" fill="none" xmlns="http://www.w3.org/2000/svg">
<g clip-path="url(#clip0)">
<path d="M38.226 8.05481H64.3503V17.0302H38.226V8.05481Z" fill="white" stroke="#111212" stroke-width="2"/>
<path d="M38.226 8.05481H42.8362V18.4493H38.226V8.05481Z" fill="#E1E2E2"/>
<path d="M55.8215 8.05481H59.6248V18.4493H55.8215V8.05481V8.05481Z" fill="#E1E2E2"/>
<path d="M49.9435 0.76712H53.7469V8.05479H49.9435V0.76712Z" fill="#E1E2E2"/>
<path d="M43.1819 0.76712H45.487V8.05479H43.1819V0.76712Z" fill="#E1E2E2"/>
<path d="M38.226 8.05481H55.7446V17.0302H38.226V8.05481Z" stroke="#111212" stroke-width="2"/>
<path d="M49.9435 0.76712H61.8915V8.05479H49.9435V0.76712Z" fill="white" stroke="#111212" stroke-width="2"/>
<path d="M42.8362 0.76712H49.9435V8.05479H42.8362V0.76712Z" fill="white" stroke="#111212" stroke-width="2"/>
<path d="M55.7446 8.05481H64.3503V17.0302H55.7446V8.05481Z" fill="white" stroke="#111212" stroke-width="2"/>
<path d="M49.1367 17.0301H2.3435C1.53672 17.0301 0.922028 17.6822 0.922028 18.4493V25.9288C0.922028 26.7342 1.57514 27.3479 2.3435 27.3479H55.1684C56.2056 27.3479 57.1661 26.926 57.896 26.1973L66.9627 14.5753C67.4621 14.0767 67.1164 13.1945 66.3864 13.1945H54.2079C53.5164 13.1945 52.8633 13.463 52.3638 13.9233L49.1367 17.0301Z" fill="#02BABA"/>
<path d="M59.8169 14.6137C60.3164 14.1151 59.9706 13.2329 59.2407 13.2329H66.4249C67.1548 13.2329 67.5006 14.1151 67.0011 14.6137L57.9345 26.2356C57.2045 26.9644 56.2057 27.3863 55.2068 27.3863H48.0226C49.0599 27.3863 50.0203 26.9644 50.7503 26.2356L59.8169 14.6137Z" fill="#009B97"/>
<path d="M49.1367 17.0301H2.3435C1.53672 17.0301 0.922029 17.6822 0.922029 18.4493V25.9288C0.922029 26.7342 1.57514 27.3479 2.3435 27.3479H55.1684C56.2056 27.3479 57.1661 26.926 57.896 26.1973L66.9627 14.5753C67.4621 14.0767 67.1164 13.1945 66.3864 13.1945H54.2079C53.5164 13.1945 52.8633 13.463 52.3638 13.9233L49.1367 17.0301Z" stroke="#111212" stroke-width="2"/>
<path d="M52.4023 17.7206C52.4023 18.526 53.0554 19.2164 53.9006 19.2164C54.7073 19.2164 55.3989 18.5644 55.3989 17.7206C55.3989 16.9151 54.7458 16.2247 53.9006 16.2247C53.0554 16.2247 52.4023 16.9151 52.4023 17.7206Z" fill="#DDF3F4"/>
<path d="M31.5413 17.0301H4.14916V6.75067H29.4667C30.6192 6.75067 31.5028 7.67122 31.5028 8.78355L31.5413 17.0301Z" fill="#02BABA"/>
<path d="M20.1311 6.75067H29.4667C30.6192 6.75067 31.5028 7.67122 31.5028 8.78355V16.9918H22.1672V8.78355C22.1672 7.67122 21.2836 6.75067 20.1311 6.75067Z" fill="#009B97"/>
<path d="M24.2418 9.81918H28.9673V17.0301H24.2418V9.81918Z" fill="#DDF3F4"/>
<path d="M7.64518 9.81918H11.3333V13.5014H7.64518V9.81918Z" fill="#DDF3F4"/>
<path d="M15.9819 9.81918H19.67V13.5014H15.9819V9.81918Z" fill="#DDF3F4"/>
<path d="M31.5413 17.0301H4.14916V6.75067H29.4667C30.6192 6.75067 31.5028 7.67122 31.5028 8.78355L31.5413 17.0301Z" stroke="#111212" stroke-width="2"/>
</g>
<defs>
<clipPath id="clip0">
<rect width="68" height="28" fill="white" transform="matrix(-1 0 0 1 68 0)"/>
</clipPath>
</defs>
</svg>
