<svg width="20" height="20" viewBox="0 0 20 20" fill="none" xmlns="http://www.w3.org/2000/svg">
<path d="M5 1.6665L2.5 4.99984V16.6665C2.5 17.1085 2.67559 17.5325 2.98816 17.845C3.30072 18.1576 3.72464 18.3332 4.16667 18.3332H15.8333C16.2754 18.3332 16.6993 18.1576 17.0118 17.845C17.3244 17.5325 17.5 17.1085 17.5 16.6665V4.99984L15 1.6665H5Z" stroke="#686B70" stroke-width="2" stroke-linecap="round" stroke-linejoin="round"/>
<path d="M2.5 5H17.5" stroke="#686B70" stroke-width="2" stroke-linecap="round" stroke-linejoin="round"/>
<path d="M13.3333 8.3335C13.3333 9.21755 12.9821 10.0654 12.357 10.6905C11.7319 11.3156 10.884 11.6668 9.99996 11.6668C9.1159 11.6668 8.26806 11.3156 7.64294 10.6905C7.01782 10.0654 6.66663 9.21755 6.66663 8.3335" stroke="#686B70" stroke-width="2" stroke-linecap="round" stroke-linejoin="round"/>
</svg>
