<svg width="22" height="22" viewBox="0 0 22 22" fill="none" xmlns="http://www.w3.org/2000/svg">
<path d="M3.96464 4.03536L3.32825 3.39896L2.69185 4.03536L3.32825 4.67175L3.96464 4.03536ZM7.42929 7.5L8.07198 8.13004L8.69579 7.4937L8.06568 6.8636L7.42929 7.5ZM4.03536 3.96464L4.67175 3.32825L4.03536 2.69185L3.39896 3.32825L4.03536 3.96464ZM7.5 7.42929L6.8636 8.06568L7.4937 8.69579L8.13004 8.07198L7.5 7.42929ZM14.5 7.42929L13.87 8.07198L14.5063 8.69579L15.1364 8.06568L14.5 7.42929ZM17.9646 3.96464L18.601 3.32825L17.9647 2.69185L17.3282 3.32825L17.9646 3.96464ZM18.0354 4.03536L18.6718 4.67175L19.3081 4.03536L18.6718 3.39897L18.0354 4.03536ZM14.5707 7.5L13.9343 6.8636L13.3042 7.4937L13.928 8.13004L14.5707 7.5ZM14.5707 14.5L13.928 13.87L13.3042 14.5063L13.9343 15.1364L14.5707 14.5ZM18.0354 17.9646L18.6718 18.601L19.3081 17.9646L18.6718 17.3282L18.0354 17.9646ZM17.9646 18.0354L17.3282 18.6718L17.9646 19.3081L18.601 18.6718L17.9646 18.0354ZM14.5 14.5707L15.1364 13.9343L14.5063 13.3042L13.87 13.928L14.5 14.5707ZM7.5 14.5707L8.13004 13.928L7.4937 13.3042L6.8636 13.9343L7.5 14.5707ZM4.03536 18.0354L3.39897 18.6718L4.03536 19.3081L4.67175 18.6718L4.03536 18.0354ZM3.96464 17.9646L3.32825 17.3282L2.69185 17.9647L3.32825 18.601L3.96464 17.9646ZM7.42929 14.5L8.06568 15.1364L8.69579 14.5063L8.07198 13.87L7.42929 14.5ZM11 21.9C17.0199 21.9 21.9 17.0199 21.9 11H20.1C20.1 16.0258 16.0258 20.1 11 20.1V21.9ZM0.1 11C0.1 17.0199 4.9801 21.9 11 21.9V20.1C5.97421 20.1 1.9 16.0258 1.9 11H0.1ZM11 0.1C4.9801 0.1 0.1 4.9801 0.1 11H1.9C1.9 5.97421 5.97421 1.9 11 1.9V0.1ZM21.9 11C21.9 4.9801 17.0199 0.1 11 0.1V1.9C16.0258 1.9 20.1 5.97421 20.1 11H21.9ZM3.32825 4.67175L6.79289 8.13639L8.06568 6.8636L4.60104 3.39896L3.32825 4.67175ZM3.39896 3.32825L3.32825 3.39896L4.60104 4.67175L4.67175 4.60104L3.39896 3.32825ZM8.13639 6.79289L4.67175 3.32825L3.39896 4.60104L6.8636 8.06568L8.13639 6.79289ZM8.13004 8.07198C8.8705 7.34609 9.88225 6.9 11 6.9V5.1C9.39229 5.1 7.93325 5.74423 6.86996 6.7866L8.13004 8.07198ZM11 6.9C12.1177 6.9 13.1295 7.34609 13.87 8.07198L15.13 6.7866C14.0668 5.74423 12.6077 5.1 11 5.1V6.9ZM17.3282 3.32825L13.8636 6.79289L15.1364 8.06568L18.601 4.60104L17.3282 3.32825ZM18.6718 3.39897L18.601 3.32825L17.3282 4.60103L17.399 4.67175L18.6718 3.39897ZM15.2071 8.13639L18.6718 4.67175L17.399 3.39896L13.9343 6.8636L15.2071 8.13639ZM13.928 8.13004C14.6539 8.8705 15.1 9.88225 15.1 11H16.9C16.9 9.39229 16.2558 7.93325 15.2134 6.86996L13.928 8.13004ZM15.1 11C15.1 12.1177 14.6539 13.1295 13.928 13.87L15.2134 15.13C16.2558 14.0668 16.9 12.6077 16.9 11H15.1ZM18.6718 17.3282L15.2071 13.8636L13.9343 15.1364L17.399 18.601L18.6718 17.3282ZM18.601 18.6718L18.6718 18.601L17.399 17.3282L17.3282 17.399L18.601 18.6718ZM13.8636 15.2071L17.3282 18.6718L18.601 17.399L15.1364 13.9343L13.8636 15.2071ZM13.87 13.928C13.1295 14.6539 12.1177 15.1 11 15.1V16.9C12.6077 16.9 14.0668 16.2558 15.13 15.2134L13.87 13.928ZM11 15.1C9.88225 15.1 8.8705 14.6539 8.13004 13.928L6.86996 15.2134C7.93325 16.2558 9.39229 16.9 11 16.9V15.1ZM4.67175 18.6718L8.13639 15.2071L6.8636 13.9343L3.39896 17.399L4.67175 18.6718ZM3.32825 18.601L3.39897 18.6718L4.67175 17.399L4.60103 17.3282L3.32825 18.601ZM6.79289 13.8636L3.32825 17.3282L4.60104 18.601L8.06568 15.1364L6.79289 13.8636ZM8.07198 13.87C7.34609 13.1295 6.9 12.1177 6.9 11H5.1C5.1 12.6077 5.74423 14.0668 6.7866 15.13L8.07198 13.87ZM6.9 11C6.9 9.88225 7.34609 8.8705 8.07198 8.13004L6.7866 6.86996C5.74423 7.93325 5.1 9.39229 5.1 11H6.9Z" fill="#37393E"/>
</svg>
