<svg width="20" height="20" viewBox="0 0 20 20" fill="none" xmlns="http://www.w3.org/2000/svg">
<path d="M10.0003 1.66663C5.40866 1.66663 1.66699 5.40829 1.66699 9.99996C1.66699 14.5916 5.40866 18.3333 10.0003 18.3333C14.592 18.3333 18.3337 14.5916 18.3337 9.99996C18.3337 5.40829 14.592 1.66663 10.0003 1.66663ZM13.9837 8.08329L9.25866 12.8083C9.14199 12.925 8.98366 12.9916 8.81699 12.9916C8.65033 12.9916 8.49199 12.925 8.37533 12.8083L6.01699 10.45C5.77533 10.2083 5.77533 9.80829 6.01699 9.56663C6.25866 9.32496 6.65866 9.32496 6.90033 9.56663L8.81699 11.4833L13.1003 7.19996C13.342 6.95829 13.742 6.95829 13.9837 7.19996C14.2253 7.44163 14.2253 7.83329 13.9837 8.08329Z" fill="#48BE78"/>
</svg>
