<svg width="40" height="40" viewBox="0 0 40 40" fill="none" xmlns="http://www.w3.org/2000/svg">
<path d="M12.9681 3.59375H17.6554V11.7969L15.5 10L12.9681 11.7969V3.59375Z" fill="#AAE1E2"/>
<path d="M30.4673 13.5024V7.1094C30.4673 5.17112 28.89 3.59377 26.9518 3.59377H19.999V12.9688C19.999 13.6156 19.474 14.1406 18.8272 14.1406L15.5 12L11.7963 14.1406C11.1494 14.1406 10.6245 13.6156 10.6245 12.9688V3.59377C5.79383 3.59432 3.44758 3.59244 3.39281 3.59612C1.51086 3.66096 0 5.21174 0 7.1094V30.5469C0 32.4852 1.57727 34.0625 3.51547 34.0625H25.1238L23.4363 32.375C16.688 25.6264 21.1312 14.1606 30.4673 13.5024ZM12.9642 29.375H5.93328C5.28641 29.375 4.76148 28.85 4.76148 28.2031C4.76148 27.5563 5.28648 27.0313 5.93328 27.0313H12.9642C13.6111 27.0313 14.136 27.5563 14.136 28.2031C14.136 28.85 13.611 29.375 12.9642 29.375ZM12.972 24.6875H5.93328C5.28641 24.6875 4.76148 24.1625 4.76148 23.5156C4.76148 22.8688 5.28648 22.3438 5.93328 22.3438H12.972C13.6189 22.3438 14.1438 22.8688 14.1438 23.5156C14.1438 24.1625 13.6188 24.6875 12.972 24.6875Z" fill="#02BABA"/>
<path d="M31.3065 23.1797C30.5398 23.1797 29.916 23.8036 29.916 24.5704C29.916 25.3372 30.5398 25.961 31.3065 25.961C32.0732 25.961 32.6971 25.3372 32.6971 24.5704C32.6971 23.8036 32.0732 23.1797 31.3065 23.1797Z" fill="#AAE1E2"/>
<path d="M37.4408 18.3702C34.0368 14.966 28.4979 14.966 25.0939 18.3702V18.3703C21.6898 21.7745 21.6898 27.3137 25.0939 30.7179L30.4388 36.0631C30.8965 36.5208 31.6384 36.5207 32.096 36.0631L37.4409 30.7179C40.8528 27.3057 40.8533 21.7828 37.4408 18.3702ZM31.3065 28.3047C29.2474 28.3047 27.5722 26.6295 27.5722 24.5703C27.5722 22.5112 29.2474 20.836 31.3065 20.836C33.3655 20.836 35.0406 22.5112 35.0406 24.5703C35.0406 26.6295 33.3654 28.3047 31.3065 28.3047Z" fill="#6ECECF"/>
</svg>
