<svg width="20" height="20" viewBox="0 0 20 20" fill="none" xmlns="http://www.w3.org/2000/svg">
<path d="M16.7085 8.8583L12.8168 7.1833L11.9501 6.81663C11.8168 6.74997 11.7001 6.57497 11.7001 6.42497V3.87497C11.7001 3.07497 11.1085 2.12497 10.3918 1.7583C10.1418 1.6333 9.8418 1.6333 9.5918 1.7583C8.88346 2.12497 8.2918 3.0833 8.2918 3.8833V6.4333C8.2918 6.5833 8.17513 6.7583 8.0418 6.82497L3.2918 8.86663C2.7668 9.0833 2.3418 9.74163 2.3418 10.3083V11.4083C2.3418 12.1166 2.87513 12.4666 3.53346 12.1833L7.70846 10.3833C8.03346 10.2416 8.30013 10.4166 8.30013 10.775V11.7V13.2C8.30013 13.3916 8.1918 13.6666 8.05846 13.8L6.12513 15.7416C5.92513 15.9416 5.83346 16.3333 5.92513 16.6166L6.30013 17.75C6.45013 18.2416 7.00846 18.475 7.4668 18.2416L9.45013 16.575C9.75013 16.3166 10.2418 16.3166 10.5418 16.575L12.5251 18.2416C12.9835 18.4666 13.5418 18.2416 13.7085 17.75L14.0835 16.6166C14.1751 16.3416 14.0835 15.9416 13.8835 15.7416L11.9501 13.8C11.8085 13.6666 11.7001 13.3916 11.7001 13.2V10.775C11.7001 10.4166 11.9585 10.25 12.2918 10.3833L16.4668 12.1833C17.1251 12.4666 17.6585 12.1166 17.6585 11.4083V10.3083C17.6585 9.74163 17.2335 9.0833 16.7085 8.8583Z" fill="#13C2C2"/>
</svg>
