<svg width="16" height="16" viewBox="0 0 16 16" fill="none" xmlns="http://www.w3.org/2000/svg">
<path d="M13.3667 7.08667L10.2534 5.74666L9.56002 5.45333C9.45335 5.4 9.36002 5.26 9.36002 5.14V3.1C9.36002 2.46 8.88669 1.7 8.31335 1.40667C8.11335 1.30667 7.87335 1.30667 7.67335 1.40667C7.10669 1.7 6.63335 2.46666 6.63335 3.10666V5.14666C6.63335 5.26666 6.54002 5.40666 6.43335 5.46L2.63335 7.09333C2.21335 7.26667 1.87335 7.79333 1.87335 8.24667V9.12666C1.87335 9.69333 2.30002 9.97333 2.82669 9.74667L6.16669 8.30666C6.42669 8.19333 6.64002 8.33333 6.64002 8.62V9.36V10.56C6.64002 10.7133 6.55335 10.9333 6.44669 11.04L4.90002 12.5933C4.74002 12.7533 4.66669 13.0667 4.74002 13.2933L5.04002 14.2C5.16002 14.5933 5.60669 14.78 5.97335 14.5933L7.56002 13.26C7.80002 13.0533 8.19335 13.0533 8.43335 13.26L10.02 14.5933C10.3867 14.7733 10.8334 14.5933 10.9667 14.2L11.2667 13.2933C11.34 13.0733 11.2667 12.7533 11.1067 12.5933L9.56002 11.04C9.44669 10.9333 9.36002 10.7133 9.36002 10.56V8.62C9.36002 8.33333 9.56669 8.2 9.83335 8.30666L13.1734 9.74667C13.7 9.97333 14.1267 9.69333 14.1267 9.12666V8.24667C14.1267 7.79333 13.7867 7.26666 13.3667 7.08667Z" fill="#CFD0D0"/>
</svg>
