<svg width="48" height="28" viewBox="0 0 48 28" fill="none" xmlns="http://www.w3.org/2000/svg">
<g clip-path="url(#clip0)">
<path fill-rule="evenodd" clip-rule="evenodd" d="M33.7294 0.277228C37.8323 1.22904 39.4033 3.63168 41.3716 6.93069H33.7294V0.277228ZM9.75842 7.20792C10.5624 7.20792 11.1446 7.59604 11.1446 8.50165C11.1446 9.26865 10.5254 9.88779 9.75842 9.88779H1.38614C0.619142 9.88779 0 10.5069 0 11.2739C0 12.0409 0.619142 12.6601 1.38614 12.6601H13.8614C14.6376 12.6601 15.2568 13.2792 15.2568 14.0462C15.2568 14.8132 14.6376 15.4323 13.8706 15.4323H1.38614C0.619142 15.4323 0 16.0515 0 16.8185C0 17.5855 0.619142 18.2046 1.38614 18.2046H4.43564V22.363C4.43564 23.13 5.05479 23.7492 5.82178 23.7492H8.61254C9.11155 26.198 11.2739 28 13.8152 28C16.3564 28 18.5281 26.198 19.0178 23.7492H33.0917C33.5908 26.198 35.7531 28 38.2944 28C40.8356 28 43.0073 26.198 43.497 23.7492H45.9274C46.6944 23.7492 47.3135 23.13 47.3135 22.363V14.0462C47.3135 9.9802 43.0257 9.71221 43.0165 9.70297H32.3432C31.5762 9.70297 30.9571 9.08383 30.9571 8.31683V0H5.82178C5.05479 0 4.43564 0.619142 4.43564 1.38614V4.43564H2.77228C2.00528 4.43564 1.38614 5.05479 1.38614 5.82178C1.38614 6.58878 2.00528 7.20792 2.77228 7.20792H9.75842ZM40.0964 20.8937C41.0851 21.8825 41.0851 23.4997 40.0964 24.4884C38.4977 26.0871 35.7624 24.9505 35.7624 22.6957C35.7624 20.4317 38.5069 19.295 40.0964 20.8937ZM15.6079 20.8937C16.5967 21.8825 16.5967 23.4997 15.6079 24.4884C14.0092 26.0871 11.2739 24.9505 11.2739 22.6957C11.2739 20.4317 14.0185 19.295 15.6079 20.8937Z" fill="#02BABA"/>
</g>
<defs>
<clipPath id="clip0">
<rect width="47.3135" height="28" fill="white"/>
</clipPath>
</defs>
</svg>
