<svg width="20" height="20" viewBox="0 0 20 20" fill="none" xmlns="http://www.w3.org/2000/svg">
<path d="M9.99935 1.66663C5.40768 1.66663 1.66602 5.40829 1.66602 9.99996C1.66602 14.5916 5.40768 18.3333 9.99935 18.3333C14.591 18.3333 18.3327 14.5916 18.3327 9.99996C18.3327 5.40829 14.591 1.66663 9.99935 1.66663ZM12.7993 11.9166C13.041 12.1583 13.041 12.5583 12.7993 12.8C12.6743 12.925 12.516 12.9833 12.3577 12.9833C12.1993 12.9833 12.041 12.925 11.916 12.8L9.99935 10.8833L8.08268 12.8C7.95768 12.925 7.79935 12.9833 7.64102 12.9833C7.48268 12.9833 7.32435 12.925 7.19935 12.8C6.95768 12.5583 6.95768 12.1583 7.19935 11.9166L9.11602 9.99996L7.19935 8.08329C6.95768 7.84163 6.95768 7.44163 7.19935 7.19996C7.44102 6.95829 7.84102 6.95829 8.08268 7.19996L9.99935 9.11663L11.916 7.19996C12.1577 6.95829 12.5577 6.95829 12.7993 7.19996C13.041 7.44163 13.041 7.84163 12.7993 8.08329L10.8827 9.99996L12.7993 11.9166Z" fill="#F5222D"/>
</svg>
