<svg width="48" height="48" viewBox="0 0 48 48" fill="none" xmlns="http://www.w3.org/2000/svg">
<rect width="48" height="48" rx="12" fill="white"/>
<g clip-path="url(#clip0)">
<path d="M42.9893 26.293C42.9214 25.4077 42.5383 24.5742 41.9106 23.9465C41.1567 23.1926 40.1138 22.7981 39.0493 22.8643C37.9851 22.9307 36.9993 23.4514 36.3447 24.293L33.8481 27.5029C33.3831 26.8626 32.6934 26.3962 31.8953 26.2205C34.4424 24.5974 36.1355 21.748 36.1355 18.5105C36.1355 13.4731 32.0374 9.375 27 9.375C21.9626 9.375 17.8645 13.4731 17.8645 18.5105C17.8645 21.6973 19.5051 24.5076 21.9856 26.1428H11V40.7222H18.0276V38.9824H34.7954L42.28 28.7761C42.8049 28.0601 43.0569 27.1782 42.9893 26.293Z" fill="#DDF3F4"/>
<path d="M39.9893 25.293C39.9214 24.4077 39.5383 23.5742 38.9106 22.9465C38.1567 22.1926 37.1138 21.7981 36.0493 21.8643C34.9851 21.9307 33.9993 22.4514 33.3447 23.293L30.8481 26.5029C30.3831 25.8626 29.6934 25.3962 28.8953 25.2205C31.4424 23.5974 33.1355 20.748 33.1355 17.5105C33.1355 12.4731 29.0374 8.375 24 8.375C18.9626 8.375 14.8645 12.4731 14.8645 17.5105C14.8645 20.6973 16.5051 23.5076 18.9856 25.1428H8V39.7222H15.0276V37.9824H31.7954L39.28 27.7761C39.8049 27.0601 40.0569 26.1782 39.9893 25.293ZM9.875 37.8472V27.0178H13.1526V37.8472H9.875ZM15.0276 27.0178H28.1875C28.9661 27.0178 29.5996 27.6511 29.5996 28.4299C29.5996 29.2085 28.9661 29.8418 28.1875 29.8418H22.7051V31.7168H28.1875C29.8833 31.7168 31.2832 30.4258 31.4563 28.7749L34.8247 24.4441C35.1541 24.0208 35.6304 23.769 36.166 23.7356C36.7019 23.7024 37.2053 23.8931 37.5847 24.2725C38.2332 24.9207 38.3101 25.928 37.7678 26.6672L30.8452 36.1074H15.0276V27.0178ZM24 10.25C28.0034 10.25 31.2605 13.5071 31.2605 17.5105C31.2605 21.5139 28.0034 24.7708 24 24.7708C19.9966 24.7708 16.7395 21.5139 16.7395 17.5105C16.7395 13.5071 19.9966 10.25 24 10.25Z" fill="#6ECECF"/>
<path d="M23.9128 19.417C23.1235 19.417 22.2217 19.1606 21.5452 18.761L20.7661 20.5239C21.3811 20.9033 22.3755 21.1799 23.4004 21.2415V22.3279H24.8457V21.1902C26.4346 20.9136 27.2339 19.95 27.2339 18.8428C27.2339 16.1985 23.2671 16.9158 23.2671 16.0549C23.2671 15.8088 23.4927 15.604 24.2 15.604C24.8252 15.604 25.4915 15.7781 26.1987 16.137L26.9265 14.384C26.3421 14.0562 25.6043 13.8613 24.8457 13.7896V12.6929H23.4004V13.8101C21.7195 14.0459 20.8789 15.0195 20.8789 16.178C20.8789 18.853 24.8457 18.1255 24.8457 19.0273C24.8457 19.2734 24.5996 19.417 23.9128 19.417Z" fill="#6ECECF"/>
</g>
<defs>
<clipPath id="clip0">
<rect width="32" height="32" fill="white" transform="translate(8 8)"/>
</clipPath>
</defs>
</svg>
