<svg width="48" height="48" viewBox="0 0 48 48" fill="none" xmlns="http://www.w3.org/2000/svg">
<g clip-path="url(#clip0)">
<path d="M36.8887 14.2075V38.9531C36.8887 41.0242 35.2097 42.7031 33.1387 42.7031H7.35742C5.28639 42.7031 3.60742 41.0242 3.60742 38.9531V4.45312C3.60742 2.38209 5.28639 0.703125 7.35742 0.703125H23.4071C24.1541 0.703125 24.8704 1.00031 25.398 1.52897L36.067 12.2209C36.5932 12.7482 36.8887 13.4627 36.8887 14.2075Z" fill="#F9F8F9"/>
<path d="M36.8892 14.2078V15.8569H27.1092C24.1608 15.8569 21.7617 13.455 21.7617 10.5037V0.703125H23.408C24.1542 0.703125 24.8705 1.00031 25.3983 1.52906L36.068 12.2213C36.5939 12.7481 36.8892 13.4625 36.8892 14.2078Z" fill="#E3E0E4"/>
<path d="M10.1699 42.7031H7.35742C5.28648 42.7031 3.60742 41.0241 3.60742 38.9531V4.45312C3.60742 2.38219 5.28648 0.703125 7.35742 0.703125H10.1699C8.09898 0.703125 6.41992 2.38219 6.41992 4.45312V38.9531C6.41992 41.0241 8.09898 42.7031 10.1699 42.7031Z" fill="#E3E0E4"/>
<path d="M20.5861 14.7656H8.98926C8.60095 14.7656 8.28613 14.4508 8.28613 14.0625C8.28613 13.6742 8.60095 13.3594 8.98926 13.3594H20.5861C20.9744 13.3594 21.2893 13.6742 21.2893 14.0625C21.2893 14.4508 20.9744 14.7656 20.5861 14.7656Z" fill="#A29AA5"/>
<path d="M20.5861 31.6406H8.98926C8.60095 31.6406 8.28613 31.3258 8.28613 30.9375C8.28613 30.5492 8.60095 30.2344 8.98926 30.2344H20.5861C20.9744 30.2344 21.2893 30.5492 21.2893 30.9375C21.2893 31.3258 20.9744 31.6406 20.5861 31.6406Z" fill="#A29AA5"/>
<path d="M29.8018 20.3906H8.80176C8.41345 20.3906 8.09863 20.0758 8.09863 19.6875C8.09863 19.2992 8.41345 18.9844 8.80176 18.9844H29.8018C30.1901 18.9844 30.5049 19.2992 30.5049 19.6875C30.5049 20.0758 30.1901 20.3906 29.8018 20.3906Z" fill="#A29AA5"/>
<path d="M29.8018 26.0156H8.80176C8.41345 26.0156 8.09863 25.7008 8.09863 25.3125C8.09863 24.9242 8.41345 24.6094 8.80176 24.6094H29.8018C30.1901 24.6094 30.5049 24.9242 30.5049 25.3125C30.5049 25.7008 30.1901 26.0156 29.8018 26.0156Z" fill="#A29AA5"/>
<path d="M36.6361 13.0444H27.1082C25.7086 13.0444 24.5732 11.9063 24.5732 10.5038V0.95816C24.877 1.09504 25.1573 1.28816 25.3973 1.5291L36.067 12.2213C36.3061 12.4613 36.4992 12.7407 36.6361 13.0444Z" fill="#A29AA5"/>
<path d="M34.8721 47.2969C40.128 47.2969 44.3888 43.0366 44.3888 37.7812C44.3888 32.5259 40.128 28.2656 34.8721 28.2656C29.6162 28.2656 25.3555 32.5259 25.3555 37.7812C25.3555 43.0366 29.6162 47.2969 34.8721 47.2969Z" fill="#9EACFA"/>
<path d="M42.4733 43.5066C40.737 45.8091 37.978 47.2969 34.872 47.2969C29.6164 47.2969 25.3555 43.0369 25.3555 37.7813C25.3555 34.6754 26.8433 31.9172 29.1458 30.181C27.943 31.7738 27.2305 33.7566 27.2305 35.9063C27.2305 41.1619 31.4914 45.4219 36.747 45.4219C38.8967 45.4219 40.8795 44.7094 42.4733 43.5066Z" fill="#4A6FF6"/>
<path d="M39.116 35.1912L35.5535 33.2224C35.3466 33.1094 35.1101 33.0461 34.8746 33.0466L34.8747 33.0469C34.6402 33.0465 34.4054 33.105 34.1932 33.2223L30.6307 35.1911C29.9509 35.5667 29.7043 36.4223 30.08 37.1021C30.4557 37.7818 31.3113 38.0284 31.991 37.6527L33.4671 36.8369V41.1093C33.4671 41.8859 34.0967 42.5156 34.8733 42.5156C35.65 42.5156 36.2796 41.8859 36.2796 41.1093V36.8369L37.7557 37.6526C38.4355 38.0282 39.2909 37.7817 39.6667 37.102C40.0423 36.4224 39.7958 35.5668 39.116 35.1912Z" fill="#F9F8F9"/>
<path d="M3.61133 24.9844C3.99973 24.9844 4.31445 24.6696 4.31445 24.2812V4.45312C4.31445 2.77312 5.68123 1.40625 7.36133 1.40625H23.411C23.5691 1.40625 23.724 1.42528 23.8745 1.45894V5.4375C23.8745 5.82581 24.1893 6.14062 24.5777 6.14062C24.9661 6.14062 25.2808 5.82581 25.2808 5.4375V2.40319L35.1977 12.3412H27.113C26.1027 12.3412 25.2808 11.5169 25.2808 10.5035V8.71875C25.2808 8.33044 24.9661 8.01562 24.5777 8.01562C24.1893 8.01562 23.8745 8.33044 23.8745 8.71875V10.5035C23.8745 12.2922 25.3273 13.7475 27.113 13.7475H36.1375C36.1707 13.897 36.1894 14.0508 36.1894 14.2076V20.3438C36.1894 20.7321 36.5041 21.0469 36.8925 21.0469C37.2809 21.0469 37.5956 20.7321 37.5956 20.3438V14.2075C37.5956 13.2698 37.2308 12.3879 36.5686 11.7243L25.8995 1.03237C25.2353 0.366656 24.3515 0 23.411 0H7.36133C4.90592 0 2.9082 1.99772 2.9082 4.45312V24.2812C2.9082 24.6696 3.22292 24.9844 3.61133 24.9844Z" fill="#37393E"/>
<path d="M8.99316 14.7656H20.59C20.9784 14.7656 21.2932 14.4508 21.2932 14.0625C21.2932 13.6742 20.9784 13.3594 20.59 13.3594H8.99316C8.60476 13.3594 8.29004 13.6742 8.29004 14.0625C8.29004 14.4508 8.60485 14.7656 8.99316 14.7656Z" fill="#37393E"/>
<path d="M8.99316 30.2344C8.60476 30.2344 8.29004 30.5492 8.29004 30.9375C8.29004 31.3258 8.60476 31.6406 8.99316 31.6406H20.59C20.9784 31.6406 21.2932 31.3258 21.2932 30.9375C21.2932 30.5492 20.9784 30.2344 20.59 30.2344H8.99316Z" fill="#37393E"/>
<path d="M29.8057 18.9844H8.80566C8.41726 18.9844 8.10254 19.2992 8.10254 19.6875C8.10254 20.0758 8.41726 20.3906 8.80566 20.3906H29.8057C30.1941 20.3906 30.5088 20.0758 30.5088 19.6875C30.5088 19.2992 30.1941 18.9844 29.8057 18.9844Z" fill="#37393E"/>
<path d="M30.5088 25.3125C30.5088 24.9242 30.1941 24.6094 29.8057 24.6094H8.80566C8.41726 24.6094 8.10254 24.9242 8.10254 25.3125C8.10254 25.7008 8.41726 26.0156 8.80566 26.0156H29.8057C30.1941 26.0156 30.5088 25.7008 30.5088 25.3125Z" fill="#37393E"/>
<path d="M37.5957 27.9315V23.625C37.5957 23.2367 37.281 22.9219 36.8926 22.9219C36.5042 22.9219 36.1895 23.2367 36.1895 23.625V27.6472C35.7583 27.5915 35.3188 27.5625 34.8726 27.5625C29.238 27.5625 24.6539 32.1466 24.6539 37.7812C24.6539 39.2847 24.9804 40.7133 25.5661 42H7.36133C5.68123 42 4.31445 40.6331 4.31445 38.9531V27.5625C4.31445 27.1742 3.99973 26.8594 3.61133 26.8594C3.22292 26.8594 2.9082 27.1742 2.9082 27.5625V38.9531C2.9082 41.4085 4.90592 43.4062 7.36133 43.4062H26.3459C28.1765 46.172 31.3149 48 34.8727 48C37.041 48 39.1124 47.3295 40.8629 46.0611C41.1773 45.8332 41.2476 45.3936 41.0197 45.0791C40.7918 44.7647 40.3521 44.6945 40.0378 44.9224C38.5286 46.0158 36.7426 46.5938 34.8726 46.5938C30.0134 46.5938 26.0601 42.6405 26.0601 37.7812C26.0601 32.922 30.0134 28.9688 34.8726 28.9688C35.5163 28.9688 36.1438 29.0388 36.7486 29.1704L36.7521 29.1712C40.7113 30.0347 43.6851 33.5669 43.6851 37.7812C43.6851 39.5473 43.1647 41.2509 42.1804 42.7079C41.963 43.0297 42.0476 43.4668 42.3695 43.6842C42.6912 43.9016 43.1283 43.817 43.3457 43.4952C44.4877 41.8048 45.0913 39.829 45.0913 37.7813C45.0914 33.0893 41.9126 29.1263 37.5957 27.9315Z" fill="#37393E"/>
<path d="M34.873 43.2189C36.0361 43.2189 36.9824 42.2727 36.9824 41.1095V38.029L37.4152 38.2682C37.7377 38.4464 38.0871 38.531 38.432 38.531C39.1754 38.531 39.8974 38.1377 40.2817 37.4423C40.5543 36.9492 40.6184 36.3794 40.4624 35.8379C40.3064 35.2965 39.9488 34.8483 39.4558 34.5758L35.8933 32.607C35.2702 32.2592 34.4754 32.257 33.8527 32.607L30.2902 34.5758C29.7971 34.8483 29.4396 35.2965 29.2836 35.8379C29.1276 36.3794 29.1918 36.9492 29.4644 37.4424C30.0271 38.4604 31.3131 38.8306 32.3308 38.2682L32.7636 38.029V41.1095C32.7636 42.2727 33.71 43.2189 34.873 43.2189ZM31.6505 37.0375C31.3115 37.225 30.8828 37.1014 30.6951 36.7621C30.5055 36.435 30.6359 35.9825 30.9706 35.8066L34.5332 33.8378C34.7507 33.7168 35.0276 33.7261 35.2402 33.8529L38.7757 35.8066C39.1102 35.9825 39.2406 36.4351 39.0512 36.762C38.8637 37.1014 38.435 37.2251 38.0957 37.0374L36.6196 36.2217C36.1737 35.9575 35.5609 36.319 35.5763 36.837V41.1095C35.5763 41.4973 35.261 41.8126 34.8732 41.8126C34.4855 41.8126 34.1701 41.4973 34.1701 41.1095V36.8371C34.186 36.3182 33.5734 35.9568 33.1268 36.2218L31.6505 37.0375Z" fill="#37393E"/>
</g>
<defs>
<clipPath id="clip0">
<rect width="48" height="48" fill="white"/>
</clipPath>
</defs>
</svg>
