<svg width="32" height="32" viewBox="0 0 32 32" fill="none" xmlns="http://www.w3.org/2000/svg">
<path d="M27 1.125H5C2.24292 1.125 0 3.36792 0 6.125V23.625C0 26.3821 2.24292 28.625 5 28.625H22.0625C22.7529 28.625 23.3125 28.0654 23.3125 27.375C23.3125 26.6846 22.7529 26.125 22.0625 26.125H17.4585L14.5845 22.3965L23.6921 10.8123L29.8232 17.5886C30.1699 17.9722 30.717 18.1023 31.1995 17.9165C31.6816 17.7305 32 17.2668 32 16.75V6.125C32 3.36792 29.7571 1.125 27 1.125V1.125ZM29.5 13.5054L24.552 8.03638C24.3049 7.76318 23.9495 7.6123 23.5818 7.62573C23.2139 7.63867 22.8701 7.81299 22.6423 8.10254L13.01 20.354L9.73999 16.1118C9.50342 15.8049 9.1377 15.625 8.75 15.625C8.74976 15.625 8.74951 15.625 8.74927 15.625C8.36157 15.6252 7.99561 15.8054 7.75928 16.1128L5.0083 19.689C4.5874 20.2363 4.6897 21.021 5.23682 21.4419C5.78418 21.863 6.56885 21.7605 6.98999 21.2134L8.75098 18.9238L14.302 26.125H5C3.62158 26.125 2.5 25.0034 2.5 23.625V6.125C2.5 4.74658 3.62158 3.625 5 3.625H27C28.3784 3.625 29.5 4.74658 29.5 6.125V13.5054Z" fill="#D4D7DD"/>
<path d="M8.75 5.625C6.68213 5.625 5 7.30713 5 9.375C5 11.4429 6.68213 13.125 8.75 13.125C10.8179 13.125 12.5 11.4429 12.5 9.375C12.5 7.30713 10.8179 5.625 8.75 5.625ZM8.75 10.625C8.06079 10.625 7.5 10.0642 7.5 9.375C7.5 8.68579 8.06079 8.125 8.75 8.125C9.43921 8.125 10 8.68579 10 9.375C10 10.0642 9.43921 10.625 8.75 10.625Z" fill="#D4D7DD"/>
<path d="M29.2798 20.0588C29.2761 20.0552 29.2725 20.0513 29.2688 20.0476C28.678 19.4526 27.8921 19.125 27.0557 19.125C26.2217 19.125 25.438 19.4507 24.8479 20.0422L22.4346 22.4226C21.9431 22.9072 21.9377 23.6987 22.4226 24.1902C22.9072 24.6816 23.6987 24.6873 24.1902 24.2024L25.8057 22.6091V29.625C25.8057 30.3154 26.3652 30.875 27.0557 30.875C27.7461 30.875 28.3057 30.3154 28.3057 29.625V22.6472L29.8518 24.2444C30.0969 24.4978 30.4233 24.625 30.75 24.625C31.0632 24.625 31.3767 24.5081 31.6194 24.2732C32.1155 23.793 32.1282 23.0017 31.6479 22.5056L29.2798 20.0588Z" fill="#D4D7DD"/>
</svg>
