<svg width="24" height="18" viewBox="0 0 24 18" fill="none" xmlns="http://www.w3.org/2000/svg">
<g clip-path="url(#clip0)">
<path fill-rule="evenodd" clip-rule="evenodd" d="M0 0H34.2V1.38516H0V0ZM0 2.77031H34.2V4.15547H0V2.77031ZM0 5.53711H34.2V6.92578H0V5.53711ZM0 8.30742H34.2V9.69258H0V8.30742ZM0 11.0777H34.2V12.4629H0V11.0777ZM0 13.8445H34.2V15.2297H0V13.8445ZM0 16.6148H34.2V18H0V16.6148Z" fill="#BD3D44"/>
<path fill-rule="evenodd" clip-rule="evenodd" d="M0 1.38513H34.2V2.77029H0V1.38513ZM0 4.15544H34.2V5.53708H0V4.15544ZM0 6.92224H34.2V8.3074H0V6.92224ZM0 9.69255H34.2V11.0777H0V9.69255ZM0 12.4629H34.2V13.848H0V12.4629ZM0 15.2297H34.2V16.6148H0V15.2297Z" fill="white"/>
<path fill-rule="evenodd" clip-rule="evenodd" d="M0 0H13.6793V9.69258H0V0Z" fill="#192F5D"/>
<path fill-rule="evenodd" clip-rule="evenodd" d="M1.13904 0.414856L1.2656 0.798058H1.66638L1.34294 1.0336L1.46599 1.42032L1.13904 1.18126L0.815601 1.41681L0.938648 1.0336L0.611694 0.798058H1.01951L1.13904 0.414856ZM3.42068 0.414856L3.54373 0.798058H3.94802L3.62107 1.0336L3.74412 1.42032L3.42068 1.18126L3.09373 1.41681L3.21677 1.0336L2.89334 0.798058H3.29412L3.42068 0.414856ZM5.6988 0.414856L5.82537 0.798058H6.22263L5.89919 1.0336L6.02224 1.42032L5.69529 1.18126L5.37185 1.41681L5.4949 1.0336L5.16794 0.798058H5.57224L5.6988 0.414856ZM7.98044 0.414856L8.10349 0.798058H8.50779L8.18084 1.0336L8.3074 1.42032L7.98044 1.18126L7.65349 1.41681L7.78005 1.0336L7.4531 0.798058H7.85388L7.98044 0.414856ZM10.2586 0.414856L10.3851 0.798058H10.7859L10.4625 1.0336L10.5855 1.42032L10.2586 1.18126L9.93513 1.41681L10.0582 1.0336L9.73474 0.798058H10.1355L10.2586 0.414856ZM12.5402 0.414856L12.6633 0.798058H13.0676L12.7406 1.0336L12.8672 1.42032L12.5402 1.18126L12.2133 1.41681L12.3398 1.0336L12.0129 0.798058H12.4172L12.5402 0.414856ZM2.28162 1.38517L2.40466 1.76837H2.80896L2.48201 2.00392L2.60154 2.38712L2.28513 2.15157L1.95818 2.38712L2.07419 2.00392L1.75779 1.76837H2.15857L2.28162 1.38517ZM4.55974 1.38517L4.6863 1.76837H5.08708L4.76013 2.00392L4.88669 2.38712L4.55974 2.15157L4.23279 2.38712L4.35935 2.00392L4.0324 1.76837H4.43669L4.55974 1.38517ZM6.84138 1.38517L6.96443 1.76837H7.36873L7.04177 2.00392L7.16482 2.38712L6.84138 2.15157L6.51443 2.38712L6.63748 2.00392L6.31404 1.76837H6.71482L6.84138 1.38517ZM9.11951 1.38517L9.24607 1.76837H9.64685L9.3199 2.00392L9.44646 2.38712L9.11951 2.15157L8.79607 2.38712L8.91912 2.00392L8.59216 1.76837H8.99998L9.11951 1.38517ZM11.4011 1.38517L11.5242 1.76837H11.9285L11.6015 2.00392L11.7246 2.38712L11.4011 2.15157L11.0742 2.38712L11.1972 2.00392L10.8738 1.76837H11.2746L11.4011 1.38517ZM1.13904 2.35196L1.2656 2.7422H1.66638L1.34294 2.97774L1.46599 3.36094L1.13904 3.12188L0.815601 3.36094L0.938648 2.97423L0.611694 2.73868H1.01951L1.13904 2.35196ZM3.42068 2.35196L3.54373 2.73868H3.94802L3.62107 2.97423L3.74412 3.35743L3.42068 3.11837L3.09373 3.35743L3.21677 2.97071L2.89334 2.73516H3.29412L3.42068 2.35196ZM5.6988 2.35196L5.82537 2.73868H6.22263L5.89919 2.97423L6.02224 3.35743L5.69529 3.11837L5.37185 3.35743L5.4949 2.97071L5.16794 2.73516H5.57224L5.6988 2.35196ZM7.98044 2.35196L8.10349 2.73868H8.50779L8.18084 2.97423L8.3074 3.35743L7.98044 3.11837L7.65349 3.35743L7.78005 2.97071L7.4531 2.73516H7.85388L7.98044 2.35196ZM10.2586 2.35196L10.3851 2.73868H10.7859L10.4625 2.97423L10.5855 3.35743L10.2586 3.11837L9.93513 3.35743L10.0582 2.97071L9.73474 2.73516H10.1355L10.2586 2.35196ZM12.5402 2.35196L12.6633 2.73868H13.0676L12.7406 2.97423L12.8672 3.35743L12.5402 3.11837L12.2133 3.35743L12.3398 2.97071L12.0129 2.73516H12.4172L12.5402 2.35196ZM2.28162 3.32227L2.40466 3.70548H2.80896L2.48201 3.94102L2.60505 4.32774L2.28162 4.08868L1.95466 4.32422L2.07771 3.94102L1.75427 3.70548H2.15505L2.28162 3.32227ZM4.55974 3.32227L4.6863 3.70548H5.08708L4.76013 3.94102L4.88669 4.32774L4.55974 4.08868L4.23279 4.32422L4.35935 3.94102L4.0324 3.70548H4.43669L4.55974 3.32227ZM6.84138 3.32227L6.96443 3.70548H7.36873L7.04177 3.94102L7.16482 4.32774L6.84138 4.08868L6.51443 4.32422L6.63748 3.94102L6.31404 3.70548H6.71482L6.84138 3.32227ZM9.11951 3.32227L9.24607 3.70548H9.64685L9.32341 3.94102L9.44646 4.32774L9.11951 4.08868L8.79607 4.32422L8.91912 3.94102L8.59216 3.70548H8.99998L9.11951 3.32227ZM11.4011 3.32227L11.5242 3.70548H11.9285L11.6015 3.94102L11.7246 4.32774L11.4011 4.08868L11.0742 4.32422L11.1972 3.94102L10.8738 3.70548H11.2746L11.4011 3.32227ZM1.13904 4.29258L1.2656 4.67579H1.66638L1.34294 4.91133L1.46599 5.29805L1.13904 5.05899L0.815601 5.29453L0.938648 4.91133L0.611694 4.67579H1.01951L1.13904 4.29258ZM3.42068 4.29258L3.54373 4.67579H3.94802L3.62107 4.91133L3.74412 5.29453L3.42068 5.05899L3.09373 5.29453L3.21677 4.91133L2.89334 4.67579H3.29412L3.42068 4.29258ZM5.6988 4.29258L5.82537 4.67579H6.22263L5.89919 4.91133L6.02224 5.29805L5.69529 5.05899L5.37185 5.29453L5.4949 4.91133L5.16794 4.67579H5.57224L5.6988 4.29258ZM7.98044 4.29258L8.10349 4.67579H8.50779L8.18084 4.91133L8.3074 5.29805L7.98044 5.05899L7.65349 5.29453L7.78005 4.91133L7.4531 4.67579H7.85388L7.98044 4.29258ZM10.2586 4.29258L10.3851 4.67579H10.7859L10.4625 4.91133L10.5855 5.29805L10.2586 5.05899L9.93513 5.29453L10.0582 4.91133L9.73474 4.67579H10.1355L10.2586 4.29258ZM12.5402 4.29258L12.6633 4.67579H13.0676L12.7406 4.91133L12.8672 5.29805L12.5402 5.05899L12.2133 5.29453L12.3398 4.91133L12.0129 4.67579H12.4172L12.5402 4.29258ZM2.28162 5.26289L2.40466 5.6461H2.80896L2.48201 5.88164L2.60505 6.26485L2.28162 6.02578L1.95466 6.26485L2.07771 5.87813L1.75427 5.64258H2.15505L2.28162 5.26289ZM4.55974 5.26289L4.6863 5.6461H5.08708L4.76013 5.88164L4.88669 6.26485L4.55974 6.02578L4.23279 6.26485L4.35935 5.87813L4.0324 5.64258H4.43669L4.55974 5.26289ZM6.84138 5.26289L6.96443 5.6461H7.36873L7.04177 5.88164L7.16482 6.26485L6.84138 6.02578L6.51443 6.26485L6.63748 5.87813L6.31404 5.64258H6.71482L6.84138 5.26289ZM9.11951 5.26289L9.24607 5.6461H9.64685L9.32341 5.88164L9.44646 6.26485L9.11951 6.02578L8.79607 6.26485L8.91912 5.87813L8.59216 5.64258H8.99998L9.11951 5.26289ZM11.4011 5.26289L11.5242 5.6461H11.9285L11.6015 5.88164L11.7246 6.26485L11.4011 6.02578L11.0742 6.26485L11.1972 5.87813L10.8738 5.64258H11.2746L11.4011 5.26289ZM1.13904 6.22969L1.2656 6.61641H1.66638L1.34294 6.85195L1.46599 7.23164L1.13904 6.99609L0.815601 7.23164L0.938648 6.84844L0.611694 6.61289H1.01951L1.13904 6.22969ZM3.42068 6.22969L3.54373 6.61641H3.94802L3.62107 6.85195L3.74763 7.23164L3.42068 6.99609L3.09373 7.23164L3.22029 6.84844L2.89334 6.61289H3.29412L3.42068 6.22969ZM5.6988 6.22969L5.82537 6.61641H6.22263L5.89919 6.85195L6.02224 7.23164L5.69529 6.99609L5.37185 7.23164L5.4949 6.84844L5.16794 6.61289H5.57224L5.6988 6.22969ZM7.98044 6.22969L8.10349 6.61641H8.50779L8.18084 6.85195L8.3074 7.23164L7.98044 6.99609L7.65349 7.23164L7.78005 6.84844L7.4531 6.61289H7.85388L7.98044 6.22969ZM10.2586 6.22969L10.3851 6.61641H10.7859L10.4625 6.85195L10.5855 7.23164L10.2586 6.99609L9.93513 7.23164L10.0582 6.84844L9.73474 6.61289H10.1355L10.2586 6.22969ZM12.5402 6.22969L12.6633 6.61641H13.0676L12.7406 6.85195L12.8672 7.23164L12.5402 6.99609L12.2133 7.23164L12.3398 6.84844L12.0129 6.61289H12.4172L12.5402 6.22969ZM2.28162 7.2L2.40466 7.5832H2.80896L2.48201 7.81875L2.60505 8.20547L2.28162 7.9664L1.95466 8.20195L2.07771 7.81875L1.75427 7.5832H2.15505L2.28162 7.2ZM4.55974 7.2L4.6863 7.5832H5.08708L4.76013 7.81875L4.88669 8.20547L4.55974 7.9664L4.23279 8.20195L4.35935 7.81875L4.0324 7.5832H4.43669L4.55974 7.2ZM6.84138 7.2L6.96443 7.5832H7.36873L7.04177 7.81875L7.16482 8.20547L6.84138 7.9664L6.51443 8.20195L6.63748 7.81875L6.31404 7.5832H6.71482L6.84138 7.2ZM9.11951 7.2L9.24607 7.5832H9.64685L9.32341 7.81875L9.44646 8.20547L9.11951 7.9664L8.79607 8.20195L8.91912 7.81875L8.59216 7.5832H8.99998L9.11951 7.2ZM11.4011 7.2L11.5242 7.5832H11.9285L11.6015 7.81875L11.7246 8.20547L11.4011 7.9664L11.0742 8.20195L11.1972 7.81875L10.8738 7.5832H11.2746L11.4011 7.2ZM1.13904 8.17031L1.2656 8.55351H1.66638L1.34294 8.78906L1.46599 9.17226L1.13904 8.93672L0.815601 9.17226L0.938648 8.78554L0.611694 8.55H1.01951L1.13904 8.17031ZM3.42068 8.17031L3.54373 8.55351H3.94802L3.62107 8.78906L3.74763 9.17226L3.42068 8.93672L3.09373 9.17226L3.22029 8.78554L2.89334 8.55H3.29412L3.42068 8.17031ZM5.6988 8.17031L5.82537 8.55351H6.22263L5.90623 8.78906L6.02927 9.17226L5.70232 8.93672L5.37888 9.17226L5.50193 8.78554L5.17498 8.55H5.57927L5.6988 8.17031ZM7.98044 8.17031L8.10349 8.55351H8.50779L8.18084 8.78906L8.3074 9.17226L7.98044 8.93672L7.65349 9.17226L7.78005 8.78554L7.4531 8.55H7.85388L7.98044 8.17031ZM10.2586 8.17031L10.3851 8.55351H10.7859L10.4625 8.78906L10.5855 9.17226L10.2586 8.93672L9.93513 9.17226L10.0582 8.78554L9.73474 8.55H10.1355L10.2586 8.17031ZM12.5402 8.17031L12.6633 8.55351H13.0676L12.7406 8.78906L12.8672 9.17226L12.5402 8.93672L12.2133 9.17226L12.3398 8.78554L12.0129 8.55H12.4172L12.5402 8.17031Z" fill="white"/>
</g>
<defs>
<clipPath id="clip0">
<rect width="24" height="18" fill="white"/>
</clipPath>
</defs>
</svg>
