<svg width="48" height="48" viewBox="0 0 48 48" fill="none" xmlns="http://www.w3.org/2000/svg">
<path d="M36.08 27.1C35.24 27.92 34.76 29.1 34.88 30.36C35.06 32.52 37.04 34.1 39.2 34.1H43V36.48C43 40.62 39.62 44 35.48 44H12.52C8.38 44 5 40.62 5 36.48V23.02C5 18.88 8.38 15.5 12.52 15.5H35.48C39.62 15.5 43 18.88 43 23.02V25.9H38.96C37.84 25.9 36.82 26.34 36.08 27.1Z" stroke="#20BDDB" stroke-width="2" stroke-linecap="round" stroke-linejoin="round"/>
<path d="M5 24.8201V15.6802C5 13.3002 6.46 11.1801 8.68 10.3401L24.56 4.34012C27.04 3.40012 29.7 5.24018 29.7 7.90018V15.5002" stroke="#20BDDB" stroke-width="2" stroke-linecap="round" stroke-linejoin="round"/>
<path d="M45.1176 27.9403V32.0604C45.1176 33.1604 44.2376 34.0603 43.1176 34.1003H39.1976C37.0376 34.1003 35.0576 32.5204 34.8776 30.3604C34.7576 29.1004 35.2376 27.9203 36.0776 27.1003C36.8176 26.3403 37.8376 25.9004 38.9576 25.9004H43.1176C44.2376 25.9404 45.1176 26.8403 45.1176 27.9403Z" stroke="#20BDDB" stroke-width="2" stroke-linecap="round" stroke-linejoin="round"/>
<path d="M14 24H28" stroke="#20BDDB" stroke-width="2" stroke-linecap="round" stroke-linejoin="round"/>
</svg>
