<svg width="20" height="20" viewBox="0 0 20 20" fill="none" xmlns="http://www.w3.org/2000/svg">
<g id="Bold/Wallet">
<g id="Wallet">
<path id="Wallet_2" fill-rule="evenodd" clip-rule="evenodd" d="M15.192 6.78382H19C19 3.76408 17.168 2 14.064 2H5.936C2.832 2 1 3.76408 1 6.74531V13.2547C1 16.2359 2.832 18 5.936 18H14.064C17.168 18 19 16.2359 19 13.2547V12.9774H15.192C13.4247 12.9774 11.992 11.5978 11.992 9.896C11.992 8.19421 13.4247 6.81464 15.192 6.81464V6.78382ZM15.192 8.10881H18.328C18.6991 8.10881 19 8.39852 19 8.7559V11.0053C18.9957 11.3609 18.6973 11.6482 18.328 11.6524H15.264C14.3693 11.664 13.5869 11.0741 13.384 10.235C13.2824 9.71404 13.425 9.1765 13.7738 8.76642C14.1225 8.35633 14.6416 8.11562 15.192 8.10881ZM15.328 10.4738H15.624C16.004 10.4738 16.312 10.1772 16.312 9.81127C16.312 9.44538 16.004 9.14877 15.624 9.14877H15.328C15.1463 9.14671 14.9713 9.21479 14.842 9.33781C14.7127 9.46083 14.64 9.62856 14.64 9.80356C14.64 10.1707 14.9468 10.4695 15.328 10.4738ZM5.26398 6.78382H10.344C10.724 6.78382 11.032 6.48721 11.032 6.12133C11.032 5.75544 10.724 5.45883 10.344 5.45883H5.26398C4.88711 5.45881 4.58037 5.75075 4.57598 6.11362C4.57596 6.48078 4.88272 6.7796 5.26398 6.78382Z" fill="#111212"/>
</g>
</g>
</svg>
