<svg width="12" height="12" viewBox="0 0 12 12" fill="none" xmlns="http://www.w3.org/2000/svg">
<path d="M10.1875 10.1875C12.5 7.87499 12.5 4.12499 10.1875 1.81249C7.875 -0.500008 4.125 -0.500008 1.8125 1.81249C-0.5 4.12499 -0.5 7.87499 1.8125 10.1875C4.125 12.5 7.875 12.5 10.1875 10.1875ZM5.3375 3.13749C5.4875 2.81249 5.8375 2.63749 6.1875 2.72499C6.525 2.81249 6.75 3.13749 6.725 3.49999C6.7125 3.73749 6.7 3.96249 6.6875 4.19999C6.6375 5.07499 6.5875 5.94999 6.55 6.81249C6.5375 7.09999 6.3 7.32499 6.0125 7.32499C5.7125 7.32499 5.4875 7.09999 5.475 6.78749C5.4625 6.61249 5.4625 6.43749 5.45 6.26249C5.4125 5.69999 5.3875 5.13749 5.35 4.56249C5.325 4.19999 5.3125 3.83749 5.2875 3.47499C5.275 3.37499 5.2875 3.24999 5.3375 3.13749ZM6 7.83749C6.4 7.83749 6.725 8.16249 6.7375 8.56249C6.7375 8.96249 6.4125 9.28749 6.0125 9.28749C5.625 9.28749 5.2875 8.96249 5.2875 8.57499C5.275 8.17499 5.6 7.83749 6 7.83749Z" fill="#FFD591"/>
</svg>
