<svg width="16" height="16" viewBox="0 0 16 16" fill="none" xmlns="http://www.w3.org/2000/svg">
<path d="M13.5832 13.5833C16.6665 10.5 16.6665 5.49999 13.5832 2.41666C10.4998 -0.666677 5.49984 -0.666677 2.4165 2.41666C-0.666829 5.49999 -0.666829 10.5 2.4165 13.5833C5.49984 16.6667 10.4998 16.6667 13.5832 13.5833ZM7.1165 4.18332C7.3165 3.74999 7.78317 3.51666 8.24984 3.63332C8.69984 3.74999 8.99984 4.18332 8.9665 4.66666C8.94984 4.98332 8.93317 5.28332 8.9165 5.59999C8.84984 6.76666 8.78317 7.93332 8.73317 9.08332C8.7165 9.46666 8.39984 9.76666 8.0165 9.76666C7.6165 9.76666 7.3165 9.46666 7.29984 9.04999C7.28317 8.81666 7.28317 8.58332 7.2665 8.34999C7.2165 7.59999 7.18317 6.84999 7.13317 6.08332C7.09984 5.59999 7.08317 5.11666 7.04984 4.63332C7.03317 4.49999 7.04984 4.33332 7.1165 4.18332ZM7.99984 10.45C8.53317 10.45 8.9665 10.8833 8.98317 11.4167C8.98317 11.95 8.54984 12.3833 8.0165 12.3833C7.49984 12.3833 7.04984 11.95 7.04984 11.4333C7.03317 10.9 7.4665 10.45 7.99984 10.45Z" fill="#FFD591"/>
</svg>
