<svg width="20" height="20" viewBox="0 0 20 20" fill="none" xmlns="http://www.w3.org/2000/svg">
<path d="M16.2586 4.87496L11.3086 2.01663C10.5003 1.54996 9.50026 1.54996 8.68359 2.01663L3.74193 4.87496C2.93359 5.34163 2.43359 6.20829 2.43359 7.14996V12.85C2.43359 13.7833 2.93359 14.65 3.74193 15.125L8.69193 17.9833C9.50026 18.45 10.5003 18.45 11.3169 17.9833L16.2669 15.125C17.0753 14.6583 17.5753 13.7916 17.5753 12.85V7.14996C17.5669 6.20829 17.0669 5.34996 16.2586 4.87496ZM9.37526 6.45829C9.37526 6.11663 9.65859 5.83329 10.0003 5.83329C10.3419 5.83329 10.6253 6.11663 10.6253 6.45829V10.8333C10.6253 11.175 10.3419 11.4583 10.0003 11.4583C9.65859 11.4583 9.37526 11.175 9.37526 10.8333V6.45829ZM10.7669 13.8583C10.7253 13.9583 10.6669 14.05 10.5919 14.1333C10.4336 14.2916 10.2253 14.375 10.0003 14.375C9.89193 14.375 9.78359 14.35 9.68359 14.3083C9.57526 14.2666 9.49193 14.2083 9.40859 14.1333C9.33359 14.05 9.27526 13.9583 9.22526 13.8583C9.18359 13.7583 9.16693 13.65 9.16693 13.5416C9.16693 13.325 9.25026 13.1083 9.40859 12.95C9.49193 12.875 9.57526 12.8166 9.68359 12.775C9.99193 12.6416 10.3586 12.7166 10.5919 12.95C10.6669 13.0333 10.7253 13.1166 10.7669 13.225C10.8086 13.325 10.8336 13.4333 10.8336 13.5416C10.8336 13.65 10.8086 13.7583 10.7669 13.8583Z" fill="#FA8C16"/>
</svg>
