<svg width="1000" height="500" viewBox="0 0 1000 500" fill="none" xmlns="http://www.w3.org/2000/svg">
<circle cx="500" cy="500" r="500" fill="#008E89"/>
<path d="M816.052 740.68C810.44 738.06 805.408 734.18 800.183 731.076C796.312 728.845 791.281 728.748 786.926 728.36C776.766 727.39 767.961 725.644 758.381 722.346C750.64 719.63 743.383 716.235 735.738 714.295C736.609 711.288 736.706 707.796 735.835 703.43C733.416 691.014 722.095 678.792 709.225 681.993C688.131 676.852 666.262 671.031 655.425 650.758C646.426 633.879 625.719 646.102 612.172 647.848C599.979 649.4 593.69 636.886 582.272 636.789C571.821 636.692 560.694 636.304 550.34 638.147C535.438 640.766 526.343 656.772 510.57 657.257C506.409 657.354 501.958 655.996 497.701 655.511C496.346 653.086 493.54 651.728 490.734 653.862C490.25 654.25 489.766 654.444 489.379 654.735C486.089 654.541 482.799 654.444 479.412 654.541C468.962 654.929 460.834 654.735 455.608 642.415C454.157 638.923 459.285 630.193 460.447 626.313C462.188 620.396 458.124 612.054 452.222 610.21C441.384 606.815 430.934 609.434 420.29 604.099C411.968 599.928 423.193 580.625 424.451 573.543C424.934 570.827 423.773 567.335 420.677 566.85C406.259 564.425 398.808 567.238 386.326 575.483C378.778 580.431 370.747 587.318 361.458 588.288C346.072 589.84 335.719 579.266 331.655 565.589C325.365 544.442 329.913 517.185 352.072 508.26C368.425 501.664 388.358 503.895 405.485 504.865C408.678 505.059 410.613 502.246 410.904 499.433C412.936 481.876 451.157 499.045 460.834 501.179C464.801 513.983 473.026 532.899 484.734 532.899C491.992 532.899 494.12 524.654 495.281 519.028C497.991 505.156 483.38 494.292 487.927 483.137C489.96 480.905 492.088 478.674 494.12 476.443C506.022 472.563 517.053 467.519 526.73 459.371C536.019 457.043 543.663 450.932 543.179 440.455C546.76 435.314 550.243 430.076 554.114 425.226C566.209 410.19 584.11 401.266 601.818 394.961C604.334 394.088 606.753 391.178 605.592 388.268C600.173 374.881 627.557 367.606 641.201 366.054C641.297 366.83 641.491 367.703 641.685 368.673C642.168 370.807 644.684 372.941 646.91 372.65C662.295 370.71 675.648 363.144 690.647 359.458C697.323 357.421 694.614 347.235 687.744 348.981C672.552 353.54 664.811 340.542 653.877 333.364C648.651 329.969 643.136 327.738 637.33 325.992C640.717 323.47 643.91 320.851 647.297 318.813C652.328 317.455 657.36 316.291 662.489 315.224C663.747 315.321 664.908 315.515 666.166 315.709C666.359 315.709 666.456 315.806 666.649 315.806C664.037 316 661.908 318.716 661.908 321.239C661.908 324.44 664.424 326.38 667.327 326.671C669.262 326.865 671.971 328.223 674.003 329.484C680.1 333.073 685.518 323.664 679.519 320.074C678.068 319.201 676.616 318.522 675.068 317.843C675.261 317.843 675.358 317.94 675.552 317.94C679.616 318.813 682.132 315.806 682.228 312.702C685.518 312.605 688.905 312.508 692.292 312.508C697.904 312.508 703.516 312.993 709.032 314.448C711.161 315.03 712.225 316 712.515 317.358C712.322 318.037 712.225 318.91 712.322 319.783C710.87 324.343 704.387 330.357 702.549 332.2C699.065 335.789 701.775 341.221 706.419 341.512C719.773 342.482 731.094 349.272 743.77 352.57C748.415 353.735 752.285 348.787 749.866 344.519C746.576 338.699 739.803 334.819 733.9 330.745C733.803 328.611 732.642 326.574 730.223 325.604C727.417 324.925 725.482 323.276 724.127 320.85C727.707 309.792 730.029 296.794 721.805 287.481C711.354 275.647 697.323 270.894 688.034 258.09C685.131 246.449 680.97 235.1 674.778 224.236C672.745 220.743 667.327 220.646 665.392 224.236C658.134 237.331 647.297 229.28 638.491 220.549C638.395 218.415 638.588 216.184 639.072 213.759C639.749 210.752 638.201 207.939 635.298 207.066C633.073 206.387 630.847 205.805 628.525 205.32C626.009 203.671 623.396 202.022 620.687 200.567C620.3 199.597 619.526 198.724 618.365 198.142C614.688 196.299 610.14 193.874 605.592 192.516C603.753 191.74 601.818 191.061 599.786 190.673C597.657 190.284 595.722 191.158 594.367 192.613C593.883 192.807 593.303 193.098 592.819 193.389C589.432 191.158 584.207 192.613 584.207 197.56C584.207 198.821 584.207 200.082 584.207 201.44C578.498 208.036 573.757 216.281 574.047 224.139C574.144 227.34 576.176 230.25 577.917 232.772C585.175 243.442 568.918 255.373 561.855 261.194C556.629 265.559 551.888 270.215 548.695 276.229C547.243 279.042 546.082 281.952 544.824 284.862C544.341 285.832 543.857 286.802 543.373 287.773C541.244 293.787 536.599 293.108 529.632 285.735C529.923 273.416 532.632 264.686 519.376 258.963C513.473 256.441 507.087 254.112 500.7 251.59C499.249 250.814 497.797 250.038 496.056 249.456C495.669 249.262 495.185 249.262 494.798 249.165C481.831 243.733 469.542 236.846 461.705 225.109C442.739 196.59 511.731 166.713 534.084 161.087C533.6 162.736 532.922 164.191 532.245 165.452C530.407 168.944 532.632 173.794 536.987 173.697C545.018 173.309 552.178 174.473 559.726 176.995C565.532 178.935 569.499 169.72 563.887 167.004C560.113 165.161 557.017 163.124 554.694 160.602C554.694 160.117 554.597 159.535 554.307 159.05C553.63 157.497 553.049 155.945 552.469 154.296C552.178 152.647 552.372 151.386 552.952 150.125C558.952 154.393 567.757 146.924 571.918 143.529C579.466 137.515 578.111 117.435 589.626 117.435C590.787 117.435 591.658 117.144 592.432 116.659C592.819 116.756 593.303 116.853 593.69 116.95C594.948 118.599 597.173 119.181 599.302 118.696C606.753 121.703 612.365 126.942 608.301 135.09C605.689 140.328 610.817 144.693 615.752 142.559C624.557 138.776 627.557 140.91 623.59 148.864C619.622 156.721 610.914 160.408 602.592 160.99C596.69 161.378 594.948 170.108 601.141 171.66C621.945 176.995 638.298 192.904 658.037 201.052C661.424 202.41 664.134 199.694 664.714 196.59C664.908 196.784 665.198 196.881 665.392 197.075C670.423 200.664 674.681 193.971 672.842 189.605C668.681 179.711 661.327 170.787 658.037 160.699C663.166 164.676 667.714 169.235 671.197 175.249C673.326 178.741 678.551 178.838 680.583 175.249C688.034 162.445 681.745 154.587 670.52 147.118C658.521 139.164 667.52 138.097 663.553 128.494C660.263 120.733 655.328 116.853 647.974 112.779C631.428 103.661 614.784 83.9692 595.238 81.7381C587.207 80.8651 579.369 81.8351 573.079 84.9392C575.014 82.0291 574.531 76.985 570.37 76.3059C522.278 69.0307 573.757 122.091 545.018 128.979C544.631 126.553 544.244 124.031 543.953 121.606C543.663 119.278 540.857 117.532 538.728 117.629C535.438 117.726 530.6 115.204 526.246 112.876C532.632 99.2957 535.535 82.7081 550.533 76.403C556.823 73.7839 554.694 64.3746 547.63 65.9266C540.857 67.3817 534.084 68.8367 527.117 69.8067C523.633 70.2918 522.666 67.6727 520.053 64.1806C518.118 61.3675 514.15 60.3975 511.538 63.1135C506.506 68.3517 501.861 73.7839 497.701 79.7981C496.152 82.0291 497.12 86.1032 499.636 87.2673C505.345 89.7894 510.086 90.9534 514.924 90.4684C510.086 99.7807 501.861 106.28 490.637 108.414C487.54 108.996 486.283 112.391 486.863 115.107C488.411 123.352 469.736 122.673 457.447 122.673C456.286 118.987 455.221 115.204 454.157 111.421C455.318 112.1 456.673 112.294 458.221 112.003C464.511 110.839 470.897 109.772 477.187 108.511C481.638 107.638 481.831 102.303 479.606 99.3927C478.058 95.6095 477.477 92.2144 477.864 89.3044C479.315 86.1033 481.154 83.2902 483.96 80.2831C485.508 78.634 485.799 76.791 485.315 75.1419C485.702 74.8509 486.089 74.4629 486.476 74.1719C490.637 70.7768 486.186 63.1135 481.154 65.0536C475.639 67.1877 471.381 70.3888 468.381 74.2689C465.865 75.3359 463.253 75.7239 460.543 74.5599C454.351 71.8438 455.608 66.1206 454.254 61.0765C452.899 56.0323 448.448 53.1222 443.803 51.8612C431.224 48.3691 416.71 58.9424 405.001 63.4045C404.614 63.5015 404.324 63.6956 403.937 63.7926C403.453 63.9866 403.066 64.0836 402.582 64.2776C402.098 64.4716 401.711 64.5686 401.227 64.7626C395.518 67.2847 399.582 76.597 405.388 74.7539C406.066 74.5599 406.743 74.2689 407.324 74.0749C410.904 73.0078 414.387 72.6198 417.871 72.9108C416.226 78.537 416.613 83.7752 418.935 88.5283C417.58 88.2373 416.226 88.0433 414.871 87.6553C411.775 86.7823 407.614 89.3044 408.001 92.8935C409.936 110.16 424.064 108.705 437.707 108.317C436.933 109.869 436.256 111.421 435.482 112.973C434.321 114.234 433.159 115.592 432.095 117.047C431.224 117.047 430.353 117.144 429.579 117.629C419.613 115.689 410.033 114.719 399.679 116.077H399.582C399.099 116.174 398.615 116.174 398.131 116.271C397.454 116.368 396.97 116.562 396.486 116.853H396.389C396.293 116.756 396.293 116.659 396.196 116.659C397.357 115.01 398.518 113.264 399.97 111.615C401.518 109.869 402.195 107.153 400.84 105.019C394.551 95.3185 386.036 91.1474 375.682 91.4384C375.101 90.5654 374.521 89.5954 374.134 88.6253C372.876 86.2002 370.844 85.5212 368.908 86.0062C368.812 85.6182 368.715 85.2302 368.618 84.7452C367.941 81.8351 364.748 80.1861 361.942 80.9621C350.523 83.8722 340.847 84.4542 331.461 82.9992C330.493 82.2231 329.236 81.7381 327.978 81.6411C326.72 81.5441 325.462 81.4471 324.204 81.4471C319.075 80.0891 313.85 78.052 308.431 75.5299C308.238 74.1719 308.141 72.8138 307.948 71.5528C312.399 68.1577 308.915 60.3974 303.206 61.9495C301.948 62.3375 300.594 62.6285 299.336 63.0165C298.078 63.3075 296.82 63.6956 295.562 64.0836C273.306 70.3888 249.986 77.761 233.537 94.4455C232.472 95.5125 232.085 96.9676 232.085 98.3256C229.86 100.46 227.44 102.4 225.021 104.34C223.376 102.497 220.667 101.527 218.248 103.079C211.958 107.056 205.765 111.227 199.476 115.398C198.702 115.204 197.928 115.301 197.057 115.495C194.638 116.271 192.993 117.726 191.251 119.472C188.735 121.897 189.412 125.195 191.444 127.136C166.963 140.716 144.321 159.341 132.806 185.143C132.709 185.24 132.709 185.337 132.612 185.434C132.419 185.822 132.225 186.307 132.032 186.695C130.774 189.605 132.516 191.934 135.031 192.904C132.806 195.911 130.58 198.821 128.355 201.828C124.194 207.454 133.58 212.886 137.741 207.357C142.676 200.761 147.514 194.359 152.062 187.665C153.9 188.926 156.416 189.023 158.448 186.792C159.222 186.016 159.996 185.143 160.77 184.367C162.415 185.822 164.931 186.21 167.35 184.658C168.995 185.628 171.221 185.919 172.963 185.046C174.995 184.076 177.027 183.106 179.059 182.039C179.93 182.718 180.994 183.203 182.349 183.203C182.736 183.203 183.123 183.203 183.51 183.203C180.607 188.538 187.864 193.195 192.219 189.411C192.993 188.732 193.767 187.956 194.444 187.277C194.831 188.538 195.218 189.799 195.605 191.061C195.315 196.881 195.121 202.798 195.025 208.618C193.864 208.909 192.896 209.782 192.219 211.237C192.025 211.625 191.831 212.11 191.638 212.498V212.595C189.316 217.93 187.284 223.266 185.639 228.989C185.058 230.735 185.639 232.481 186.8 233.742C184.381 234.712 182.639 237.719 183.123 240.532C183.316 242.957 183.607 245.285 183.8 247.71C183.897 249.747 185.155 251.396 186.897 252.366C186.8 252.657 186.8 252.948 186.703 253.239C186.606 253.239 186.606 253.336 186.509 253.336C184.477 254.306 183.22 257.314 183.994 259.448C184.381 260.515 184.865 261.776 185.252 263.231C185.058 264.686 184.768 266.044 184.671 267.499C184.477 269.245 185.252 270.603 186.413 271.573C186.122 275.841 186.026 280.012 186.316 284.28C185.058 287.19 182.736 289.325 178.865 289.81C175.188 290.198 171.608 294.272 174.124 298.055C188.929 319.783 177.898 340.057 166.576 360.331C161.061 370.128 156.706 379.634 153.513 389.723C151.481 390.305 149.836 392.051 150.126 394.767C150.32 396.707 150.514 398.647 150.804 400.587C150.32 403.012 149.836 405.437 149.546 407.959C147.611 421.831 148.578 436.284 156.416 448.215C160.867 454.909 168.705 458.595 175.478 463.057C179.349 469.556 181.865 476.346 184.09 483.331C181.478 507.29 207.41 533.384 216.506 553.173C219.216 558.993 227.731 554.725 226.473 549.002C222.989 534.063 213.797 522.908 205.959 510.103C201.701 503.119 199.089 495.553 196.67 487.89C197.541 488.278 198.605 488.375 199.573 488.278C202.669 489.636 205.765 491.673 208.572 494.195C212.055 504.186 218.151 512.14 224.925 519.61C230.44 531.832 241.471 544.539 252.018 550.457C255.212 555.501 257.921 560.351 260.146 565.492C260.146 566.365 260.146 567.335 260.243 568.208C260.63 580.431 261.114 591.489 272.242 589.937C279.209 595.175 288.982 598.279 295.562 600.704C313.657 607.3 328.655 610.211 347.911 610.502C371.037 610.89 384.487 624.567 404.808 632.327C424.935 639.99 438.772 652.116 456.189 663.659C467.22 670.934 478.832 672.292 489.669 667.054C490.347 667.248 491.121 667.345 491.798 667.248C494.507 667.442 497.12 667.733 499.733 668.218C499.249 669.479 499.346 670.934 500.41 672.389C505.345 678.986 506.119 687.134 505.442 695.379C499.733 702.751 490.637 709.542 486.089 715.556C482.605 720.115 480.864 724.189 479.219 729.621C476.606 738.642 482.509 742.814 476.896 752.902C475.348 755.715 476.413 758.625 478.832 760.371C479.122 760.565 479.412 760.759 479.799 761.05C480.573 762.99 482.315 764.542 484.734 764.445C488.702 767.064 492.572 769.489 496.249 772.205C504.28 782.003 513.86 797.814 516.666 801.5C524.02 810.91 533.116 814.79 543.663 819.64C555.952 825.266 560.694 833.511 562.919 845.637C560.79 851.845 560.21 859.023 559.436 864.455C557.887 875.805 557.307 887.251 556.146 898.6C553.92 906.167 551.598 913.636 549.759 921.299C549.275 923.433 548.888 926.44 548.598 929.932C544.147 939.439 539.889 947.975 539.889 958.16C538.148 959.13 537.374 960.876 537.47 962.719C536.89 963.495 536.503 964.368 536.503 965.533C536.309 969.801 536.406 973.972 536.503 978.24C536.599 980.762 538.148 982.702 540.47 983.478C545.115 985.127 549.179 985.709 554.21 985.515C557.887 985.418 560.113 982.12 559.436 978.628C561.274 975.621 563.113 972.711 564.951 969.704C566.306 968.346 567.564 966.988 569.015 965.629C571.241 963.495 570.854 960.488 569.305 958.548C570.757 957.966 572.112 956.802 572.692 955.056C578.691 951.37 583.53 946.132 588.368 940.991C590.11 941.864 592.238 941.67 594.077 939.73C599.496 933.619 606.076 929.544 613.236 926.246C615.075 928.089 618.074 928.671 620.397 926.052C626.009 919.747 627.751 914.606 635.879 912.084C637.137 912.181 638.298 911.89 639.362 911.017C643.039 909.95 646.619 908.107 650.103 905.779C650.877 905.779 651.651 905.488 652.522 905.003C667.907 895.399 680.196 881.431 693.453 869.112C695.098 869.596 696.936 869.305 698.581 867.753C702.645 864.067 706.322 859.993 709.709 855.725C711.257 854.658 712.902 853.591 714.547 852.621C715.612 853.203 716.87 853.494 718.515 853.203C725.578 852.039 731.481 849.614 737.19 846.219C738.351 846.413 739.512 846.219 740.673 845.346C765.058 828.079 774.347 798.299 798.732 780.936C806.182 775.601 815.181 769.295 818.762 760.565C821.277 755.23 822.922 743.881 816.052 740.68Z" fill="#009B97"/>
<path d="M562.339 29.9391C564.854 31.1031 565.628 34.2072 567.564 36.1472C569.596 38.0873 571.918 39.6393 574.627 40.6094C576.659 41.2884 578.595 41.6764 580.627 41.9674C580.627 42.1614 580.627 42.3554 580.724 42.5494C580.82 42.7434 580.917 43.0345 580.917 43.2285C579.659 43.5195 578.498 44.2955 577.917 45.6535C577.724 46.0416 577.627 46.3326 577.53 46.7206C576.079 47.1086 574.627 47.4966 573.079 48.2726C569.499 49.8247 566.693 49.2427 563.693 48.2726C561.758 46.7206 559.049 46.1386 555.855 46.3326C548.888 46.7206 548.888 56.8089 555.855 57.1969C555.855 58.5549 556.146 60.107 556.823 61.368C558.468 64.4721 560.887 65.7332 564.08 67.0912C572.982 70.8743 584.981 71.4563 594.464 72.2324C601.431 72.7174 601.431 61.853 594.464 61.368C592.916 61.271 582.562 60.398 574.918 58.943C578.014 57.8759 581.207 56.9059 584.013 57.7789C585.658 58.1669 587.11 57.7789 588.174 57.0999C588.755 57.2939 589.335 57.5849 590.013 57.7789C590.4 57.8759 591.174 58.0699 592.045 58.1669C592.819 58.4579 593.593 58.5549 594.464 58.4579C597.754 58.8459 601.528 59.428 602.399 60.592C606.366 66.3152 615.655 60.98 611.785 55.0628C611.494 54.6748 611.398 54.1898 611.301 53.8018C611.494 53.6078 611.785 53.5108 611.978 53.3168C616.139 49.8247 620.203 45.3625 619.913 40.5124C620.493 40.7064 621.074 40.8034 621.751 40.8034C622.525 40.8034 623.203 40.8034 623.977 40.8034C626.88 40.8034 628.621 38.9603 629.105 36.8263C632.782 36.8263 636.556 32.9461 634.234 28.678C632.008 24.7009 626.106 23.7309 622.138 22.5668C615.752 20.6268 609.462 18.6867 602.786 17.4257C596.883 16.2616 587.013 13.9336 581.304 17.4257C579.949 17.2317 578.595 17.1347 577.047 17.3287C574.337 17.6197 572.112 20.0447 571.725 22.4698C569.886 20.8208 567.854 20.2388 565.241 19.9477C559.726 19.1717 557.597 27.708 562.339 29.9391Z" fill="#009B97"/>
<path d="M463.059 42.1608C463.64 41.9668 464.22 41.7728 464.801 41.6758C464.994 41.6758 466.156 41.4818 466.059 41.4818C466.639 41.3848 467.22 41.2878 467.704 41.0938C467.897 41.3848 467.994 41.6758 468.188 41.9668C466.543 42.2578 465.091 43.4219 464.317 44.7799C462.479 47.981 464.414 52.5401 467.897 53.5102C469.155 53.8982 470.316 53.7042 471.381 53.3162C471.478 53.3162 471.574 53.4132 471.671 53.4132C472.058 53.6072 472.445 53.8012 472.832 53.8982C473.703 54.9652 475.058 55.6442 476.606 55.7412C481.154 55.8383 485.605 56.8083 490.056 56.3233C492.475 56.0323 494.507 55.2562 496.539 53.8982C496.926 53.6072 497.313 53.3162 497.7 52.9282C498.281 53.1222 498.862 53.2192 499.442 53.1222C500.7 52.9282 502.055 52.7342 503.313 52.4432C508.635 51.3761 508.054 44.8769 504.377 42.6458C503.41 40.2208 501.184 38.4747 498.184 39.5417C494.701 40.8028 492.862 43.2279 489.863 45.2649C488.895 45.9439 487.347 46.0409 485.702 46.0409C484.25 43.5189 483.283 40.9968 481.928 38.8627C481.734 38.4747 481.638 38.0867 481.347 37.6987C488.024 37.4077 487.927 26.8344 481.057 26.8344C480.96 26.8344 480.767 26.8344 480.67 26.8344C480.477 26.8344 480.186 26.8344 479.993 26.8344C478.057 26.8344 476.606 27.7074 475.735 28.9684C474.961 29.0654 474.187 29.2594 473.51 29.5504C471.478 28.2894 468.865 28.1924 466.543 28.6774C463.833 29.2594 461.124 30.9085 458.802 32.4605C456.77 33.8186 455.608 36.1466 456.286 38.5717C457.157 40.9968 460.35 43.2279 463.059 42.1608Z" fill="#009B97"/>
<path d="M513.57 51.0852C513.666 51.1822 513.763 51.2792 513.763 51.2792C515.215 52.7342 517.343 53.1222 519.279 52.5402C519.666 53.8983 520.246 55.1593 521.02 56.3234C522.859 59.0394 527.117 60.2035 529.536 57.3904C529.632 57.2934 529.729 57.1964 529.729 57.0994C530.794 57.2934 531.858 57.1964 532.922 56.8084C532.439 59.0394 533.406 61.4645 535.438 62.7255C538.148 64.3746 541.147 64.5686 544.244 63.8896C547.147 63.3076 548.792 59.9125 548.017 57.1964C547.243 54.1893 544.244 52.7342 541.341 53.4133C542.308 53.2193 540.276 53.3163 541.534 53.5103C541.438 53.5103 541.341 53.5103 541.244 53.5103C541.147 53.4133 541.05 53.4133 540.954 53.3163C539.793 52.6372 538.438 52.4432 537.18 52.7342C538.341 50.5032 538.438 47.8841 536.89 45.653C534.954 42.8399 531.955 41.4819 528.568 41.7729C526.439 41.9669 524.504 43.1309 523.633 44.974C523.246 45.071 522.859 45.168 522.472 45.265C522.182 44.683 521.891 44.101 521.407 43.616C521.311 43.519 521.214 43.422 521.214 43.422C519.085 41.2879 515.602 41.2879 513.57 43.422C511.538 45.556 511.538 49.0481 513.57 51.0852Z" fill="#009B97"/>
<path d="M536.406 36.5347C539.018 37.8927 542.308 37.2137 543.857 34.5946C544.05 34.2066 544.244 33.8186 544.34 33.4306C544.34 33.6246 544.244 33.8186 544.244 34.0126C544.244 36.4377 545.598 38.0868 547.534 38.8628C547.437 41.3849 549.082 43.4219 551.501 44.2949C551.598 44.2949 551.694 44.3919 551.694 44.3919C553.92 45.653 556.533 45.75 558.468 43.8099C559.532 42.7429 560.113 40.9968 560.016 39.4448C560.21 39.2508 560.5 39.0568 560.597 38.7658C562.048 36.2437 561.274 32.6546 558.661 31.2965C555.759 29.7445 552.856 28.9685 549.566 28.5805C547.147 28.2894 545.115 30.3265 544.34 32.5576C544.631 30.4235 543.663 28.0954 541.728 27.1254C540.76 26.6404 539.696 26.0584 538.728 25.4764C538.244 25.1854 537.761 24.8943 537.277 24.5063C538.051 24.9913 536.793 23.9243 536.599 23.7303C534.761 21.4022 530.794 21.7902 528.955 23.7303C526.73 25.9614 527.117 29.0655 528.955 31.3935C530.987 33.8186 533.89 35.2737 536.406 36.5347Z" fill="#009B97"/>
<path d="M499.055 35.3706C499.829 35.5646 500.7 35.5646 501.571 35.7586C504.184 36.4377 506.893 35.0796 507.957 32.6545C508.441 32.6545 509.022 32.6545 509.506 32.4605C509.989 32.2665 510.377 32.1695 510.86 31.9755C513.666 30.9085 515.505 28.2894 514.634 25.2823C513.86 22.5662 510.764 20.4322 507.957 21.4992C507.474 21.6932 507.087 21.7902 506.603 21.9842C505.055 22.5662 503.797 23.6333 503.119 25.0883C502.926 25.0883 502.732 24.9913 502.635 24.9913C502.055 24.7003 501.281 24.6033 500.603 24.7003C500.603 24.7003 500.603 24.7003 500.507 24.7003C498.088 24.9913 495.959 26.1553 495.281 28.6774C494.507 31.3935 496.152 34.6916 499.055 35.3706Z" fill="#009B97"/>
<path d="M811.891 126.165C800.28 108.899 788.765 94.6395 771.444 82.8051C762.735 76.7909 749.382 66.8966 737.48 66.3146C712.031 45.362 676.229 28.0954 642.942 32.8486C638.491 33.4306 638.201 39.2508 640.523 41.9669C640.136 43.2279 639.749 44.3919 639.459 45.653C633.653 43.5189 629.879 52.7342 635.298 55.6443C635.491 56.0323 635.685 56.5173 635.782 56.9053C635.201 58.6514 635.491 60.1064 636.266 61.1735C636.459 61.9495 636.846 62.7255 637.524 63.5015C652.038 80.089 679.422 68.5457 694.13 88.4313C699.936 96.3855 700.226 107.153 707.871 114.04C709.419 115.495 711.451 116.756 713.096 118.017C715.418 119.666 717.644 121.412 719.772 123.255C720.256 124.128 720.74 124.71 721.127 125.001C719.772 126.747 719.289 129.173 720.643 131.113C722.966 134.702 727.417 137.224 730.61 140.328C730.707 140.619 730.803 140.91 730.997 141.201C731.481 141.977 731.868 142.753 732.352 143.529C732.835 144.402 733.416 144.984 734.093 145.469C734.287 146.051 734.48 146.633 734.577 147.215C733.223 147.991 732.255 149.349 731.771 150.804C731.771 150.804 731.771 150.901 731.674 150.901C729.255 155.945 729.642 159.826 731.868 165.064C735.351 173.309 737.964 181.942 741.447 190.09C745.995 200.47 753.059 205.32 760.607 213.371C766.799 219.87 780.25 238.107 791.474 234.324C805.698 229.474 800.57 210.461 802.215 198.724C802.795 194.359 814.601 188.538 817.697 183.979C822.922 176.316 832.695 173.018 836.469 164.579C842.468 151.386 817.697 134.799 811.891 126.165Z" fill="#009B97"/>
<path d="M867.434 198.821C867.143 198.045 866.756 197.366 866.176 196.784C863.95 194.552 861.628 193.194 858.435 193C855.435 192.806 853.016 195.62 853.016 198.433C853.016 201.246 855.048 203.283 857.66 203.768C857.951 203.962 858.144 204.253 858.435 204.544C859.499 205.611 860.854 206.096 862.208 206.096C862.595 208.327 864.24 210.364 866.369 210.752C866.563 211.14 866.853 211.431 867.24 211.722C872.755 216.087 878.368 221.907 885.625 223.071C889.689 223.75 895.011 219.385 891.721 215.02C886.689 208.133 877.4 194.941 867.434 198.821Z" fill="#009B97"/>
<path d="M551.791 180.681C544.824 180.681 544.824 191.546 551.791 191.546C558.758 191.546 558.758 180.681 551.791 180.681Z" fill="#009B97"/>
<path d="M571.144 196.105C578.111 196.105 578.111 185.24 571.144 185.24C564.177 185.24 564.177 196.105 571.144 196.105Z" fill="#009B97"/>
<path d="M588.948 175.928C581.981 175.928 581.981 186.792 588.948 186.792C596.012 186.889 596.012 175.928 588.948 175.928Z" fill="#009B97"/>
<path d="M551.211 256.149C553.146 257.604 555.855 257.604 558.081 257.022C560.984 256.246 562.629 253.142 561.855 250.329C561.177 247.71 558.662 246.158 556.049 246.352C553.727 245.091 550.437 246.449 549.179 248.583C547.63 251.493 548.888 254.306 551.211 256.149Z" fill="#009B97"/>
<path d="M953.843 327.156C953.456 328.902 953.843 330.939 955.295 332.103C959.649 335.595 960.907 341.415 961.584 346.653C961.971 349.563 965.745 351.212 968.261 350.436C968.938 350.242 969.422 349.951 969.906 349.66C971.744 348.399 972.422 346.071 972.131 343.743C971.164 336.662 968.745 328.902 963.036 324.343C962.358 323.761 961.584 323.373 960.81 323.179C958.972 322.5 956.94 322.791 955.295 324.343C955.295 324.343 955.295 324.343 955.295 324.44C955.391 324.052 955.391 323.761 955.391 323.373C955.004 309.113 949.102 296.6 943.877 283.504C941.264 277.102 930.814 279.915 933.426 286.414C938.168 298.443 944.167 310.18 944.554 323.373C944.651 328.611 950.94 329.969 953.843 327.156Z" fill="#009B97"/>
<path d="M971.164 400.684C969.809 401.169 968.745 402.333 968.454 404.273C965.455 421.152 969.132 442.298 978.711 456.752C981.614 461.02 988.968 459.662 988.871 454.036C988.581 445.402 988.581 436.866 987.807 428.33C986.936 419.502 982.485 411.645 981.808 402.818C981.324 397.192 974.938 395.64 971.648 400.102C971.357 400.296 971.261 400.49 971.164 400.684Z" fill="#009B97"/>
<path d="M992.549 524.072C991.871 518.058 991 511.946 990.71 505.932C990.517 503.216 990.517 500.403 990.613 497.687C990.807 493.419 991 489.054 991.097 484.786C991.291 480.711 991.387 476.734 991.097 472.66C991.097 472.369 991 472.078 991 471.787C991.097 471.205 991.194 470.623 991.291 469.944C992.355 463.057 981.808 460.147 980.84 467.034C977.26 491.188 967.39 512.819 958.391 535.227C954.23 545.606 951.037 556.277 948.715 567.238C946.973 575.483 947.263 584.408 946.005 592.847C945.522 593.429 945.038 594.108 944.747 594.884C940.49 606.233 935.845 616.322 936.329 628.544C936.523 633.976 939.329 639.602 941.361 644.646C944.651 652.795 944.651 662.786 944.941 671.516C945.038 675.881 951.037 679.277 954.23 675.396C960.423 667.733 965.842 661.816 970.1 654.056C971.551 651.34 972.906 648.333 974.067 644.937C980.163 626.798 983.163 607.494 986.743 588.773C990.033 571.409 994.097 553.949 993.71 536.197C993.419 532.22 992.936 528.146 992.549 524.072Z" fill="#009B97"/>
</svg>
