<svg width="20" height="20" viewBox="0 0 20 20" fill="none" xmlns="http://www.w3.org/2000/svg">
<path d="M12.5 6.66675H12.5083" stroke="#909398" stroke-width="2" stroke-linecap="round" stroke-linejoin="round"/>
<path d="M14.1667 3.33325H5.83334C4.45263 3.33325 3.33334 4.45254 3.33334 5.83325V14.1666C3.33334 15.5473 4.45263 16.6666 5.83334 16.6666H14.1667C15.5474 16.6666 16.6667 15.5473 16.6667 14.1666V5.83325C16.6667 4.45254 15.5474 3.33325 14.1667 3.33325Z" stroke="#909398" stroke-width="1.5" stroke-linecap="round" stroke-linejoin="round"/>
<path d="M3.33334 12.5L6.66668 9.16663C7.04672 8.80092 7.47784 8.6084 7.91668 8.6084C8.35552 8.6084 8.78663 8.80092 9.16668 9.16663L13.3333 13.3333" stroke="#909398" stroke-width="1.5" stroke-linecap="round" stroke-linejoin="round"/>
<path d="M11.6667 11.6667L12.5 10.8334C12.88 10.4677 13.3111 10.2751 13.75 10.2751C14.1888 10.2751 14.6199 10.4677 15 10.8334L16.6667 12.5" stroke="#909398" stroke-width="1.5" stroke-linecap="round" stroke-linejoin="round"/>
</svg>
