<svg width="184" height="188" viewBox="0 0 184 188" fill="none" xmlns="http://www.w3.org/2000/svg">
<g clip-path="url(#clip0)">
<path d="M108.446 178.931H40.532V188.075H108.446V178.931Z" fill="#090909"/>
<path d="M120.389 120.286C122.201 120.335 123.415 118.425 122.608 116.79L109.952 91.0824C109.683 90.4357 109.376 89.8078 109.029 89.2062V89.2024C106.418 84.6829 101.677 81.5471 96.1335 81.2312L60.2786 79.2008L60.2674 79.1858L60.0022 79.1895L59.9462 79.1858C59.9088 79.1858 59.8677 79.1895 59.8304 79.1895L53.8906 79.3024C43.5092 79.5016 34.1514 86.2659 31.2824 96.3088C31.1666 96.7149 31.062 97.1248 30.9649 97.5384L23.5309 122.93C23.0191 124.671 24.2631 126.438 26.0674 126.528L43.9276 127.434L38.1785 175.464C37.9543 177.348 39.415 179.003 41.2977 179.003H108.962C110.493 179.003 111.726 177.743 111.704 176.201L111.678 120.031L120.389 120.286Z" fill="#80B7FF"/>
<path d="M108.954 179.198H41.2903C40.3377 179.198 39.43 178.788 38.7986 178.07C38.1673 177.352 37.8722 176.397 37.9843 175.449L43.711 127.618L26.0488 126.723C25.1336 126.678 24.3005 126.22 23.7701 125.464C23.2396 124.712 23.0827 123.772 23.3442 122.884L30.7782 97.4932C30.8716 97.0871 30.9799 96.6697 31.0957 96.2636C33.9199 86.3711 43.2889 79.3211 53.8795 79.1218L59.8678 79.0052C59.8939 79.0052 59.9163 79.0015 59.9425 79.0015L60.006 79.0052L60.2637 79.0015C60.2899 78.9977 60.3235 79.009 60.3497 79.0203L96.141 81.0469C101.573 81.3552 106.451 84.367 109.19 89.1121C109.537 89.7175 109.855 90.3567 110.127 91.0147L122.78 116.711C123.187 117.538 123.135 118.497 122.642 119.275C122.149 120.053 121.297 120.512 120.389 120.478L111.864 120.234L111.891 176.209C111.902 177.002 111.603 177.75 111.046 178.318C110.486 178.886 109.743 179.198 108.954 179.198ZM59.9313 79.3775L59.8902 79.3812C59.8678 79.3812 59.8453 79.385 59.8229 79.385L53.8832 79.4978C43.457 79.6971 34.2336 86.6343 31.4506 96.3689C31.3348 96.7675 31.2302 97.1811 31.1368 97.5872L23.7028 122.99C23.4749 123.764 23.6132 124.588 24.0764 125.246C24.5396 125.904 25.2681 126.306 26.0675 126.347L43.9277 127.254C43.98 127.257 44.0286 127.28 44.0622 127.321C44.0958 127.363 44.1107 127.411 44.1033 127.464L38.3541 175.494C38.2532 176.337 38.5147 177.186 39.0751 177.822C39.6354 178.457 40.4423 178.822 41.2866 178.822H108.951C109.642 178.822 110.288 178.551 110.77 178.055C111.256 177.559 111.517 176.904 111.506 176.213L111.48 120.042C111.48 119.993 111.498 119.944 111.536 119.907C111.573 119.873 111.618 119.85 111.67 119.854L120.389 120.102C121.177 120.136 121.895 119.737 122.321 119.072C122.743 118.406 122.788 117.583 122.44 116.876L109.784 91.1688C109.511 90.5146 109.205 89.8904 108.865 89.3039C106.186 84.6678 101.423 81.7237 96.1149 81.4229L60.26 79.3925C60.2376 79.3925 60.2189 79.385 60.1965 79.3775L59.9948 79.3812L59.9313 79.3775Z" fill="#090909"/>
<path d="M131.133 97.0269C133.326 92.9849 134.073 88.0969 132.1 83.8105L129.579 84.7354C129.579 84.7354 127.166 77.7343 126.773 72.6207C125.806 70.8798 118.79 74.5496 118.79 74.5496C118.79 74.5496 119.485 72.6395 119.836 71.6882C120.206 70.6768 120.58 69.5977 120.359 68.5449C120.139 67.4921 119.063 66.5445 118.047 66.8792C117.046 67.2101 115.148 71.3874 114.55 72.3688C110.953 78.287 110.998 86.0251 111.629 92.7179C111.965 96.2824 110.363 132.999 110.975 134.627C114.67 144.471 128.432 144.67 132.399 134.935C132.904 133.021 133.195 131.062 133.266 129.1C133.367 126.445 128.996 102.697 128.929 101.892C128.835 100.764 129.366 99.7679 129.982 98.8241C130.378 98.2075 130.812 97.6172 131.133 97.0269Z" fill="#F8EEE2"/>
<path d="M121.764 142.309C121.704 142.309 121.644 142.309 121.581 142.309C116.665 142.237 112.537 139.319 110.8 134.691C110.475 133.822 110.706 124.919 111.098 111.435C111.353 102.637 111.595 94.3234 111.442 92.7329C110.848 86.4424 110.646 78.4299 114.39 72.2672C114.532 72.0304 114.763 71.5904 115.028 71.0791C116.153 68.9133 117.225 66.9468 117.987 66.6949C118.428 66.5483 118.921 66.6122 119.369 66.8716C119.952 67.21 120.4 67.8342 120.539 68.4997C120.778 69.639 120.352 70.8084 120.008 71.7484L119.126 74.1623C120.77 73.3388 126.019 70.8798 126.934 72.5267C126.949 72.5492 126.956 72.5756 126.956 72.6056C127.304 77.1816 129.314 83.3592 129.691 84.491L132.033 83.63C132.123 83.5961 132.227 83.6375 132.268 83.7277C134.099 87.7133 133.744 92.5938 131.293 97.1133C131.066 97.5344 130.778 97.9631 130.498 98.3767C130.374 98.5572 130.255 98.7376 130.135 98.9219C129.459 99.9596 129.026 100.858 129.112 101.873C129.131 102.08 129.456 103.945 129.908 106.525C131.17 113.725 133.524 127.133 133.449 129.103C133.374 131.085 133.079 133.063 132.575 134.98C130.729 139.522 126.598 142.309 121.764 142.309ZM118.473 66.9957C118.353 66.9957 118.23 67.0145 118.103 67.0559C117.419 67.2815 116.078 69.8684 115.357 71.2558C115.077 71.7935 114.857 72.2184 114.707 72.4665C111.02 78.5314 111.222 86.465 111.812 92.6991C111.965 94.3159 111.722 102.637 111.468 111.446C111.166 121.877 110.822 133.698 111.147 134.559C112.828 139.037 116.829 141.865 121.584 141.933C126.344 141.985 130.419 139.293 132.224 134.864C132.713 132.995 133.004 131.047 133.079 129.092C133.15 127.163 130.804 113.781 129.541 106.592C129.071 103.904 128.757 102.129 128.738 101.907C128.637 100.719 129.201 99.6739 129.822 98.7188C129.941 98.5346 130.064 98.3504 130.188 98.1699C130.475 97.745 130.744 97.3464 130.965 96.9404C133.326 92.5825 133.699 87.8976 132 84.0473L129.639 84.9121C129.594 84.9272 129.541 84.9272 129.493 84.9046C129.448 84.882 129.414 84.8444 129.396 84.7956C129.373 84.7241 126.983 77.7531 126.587 72.6808C125.877 71.598 121.495 73.3464 118.872 74.7188C118.805 74.7526 118.719 74.7451 118.663 74.6924C118.603 74.6398 118.585 74.5608 118.611 74.4856L119.657 71.6243C119.982 70.7294 120.389 69.6164 120.172 68.5824C120.057 68.026 119.668 67.4845 119.179 67.2025C119.007 67.0972 118.76 66.9957 118.473 66.9957Z" fill="#090909"/>
<path d="M117.401 78.4712L123.931 85.0211L128.809 75.482L127.767 71.1467L118.902 74.463L117.401 78.4712Z" fill="#090909"/>
<path d="M127.759 88.3599C126.011 88.6644 124.353 87.4838 124.05 85.7279L121.102 68.5372C120.8 66.7775 121.973 65.108 123.717 64.8035C125.466 64.4989 127.124 65.6796 127.427 67.4355L130.374 84.6262C130.677 86.3859 129.508 88.0553 127.759 88.3599Z" fill="#FFD591"/>
<path d="M127.207 88.5969C126.512 88.5969 125.836 88.3825 125.257 87.9727C124.517 87.4463 124.024 86.6605 123.867 85.7618L120.92 68.5711C120.766 67.6725 120.968 66.7663 121.491 66.0181C122.014 65.2736 122.795 64.7773 123.688 64.6193C124.58 64.4652 125.481 64.6682 126.224 65.1946C126.964 65.721 127.457 66.5069 127.614 67.4055L130.561 84.5962C130.879 86.4537 129.639 88.2246 127.793 88.548C127.595 88.5781 127.401 88.5969 127.207 88.5969ZM124.27 64.9427C124.099 64.9427 123.923 64.9577 123.751 64.9878C122.955 65.1269 122.261 65.5669 121.794 66.2324C121.327 66.8979 121.147 67.7025 121.286 68.5034L124.233 85.6941C124.371 86.495 124.808 87.1944 125.47 87.6644C126.131 88.1344 126.93 88.3149 127.726 88.1757C129.37 87.89 130.475 86.3145 130.191 84.6601L127.244 67.4694C127.106 66.6685 126.669 65.9692 126.008 65.5029C125.492 65.1345 124.891 64.9427 124.27 64.9427Z" fill="#090909"/>
<path d="M127.255 67.5035L121.338 68.53C120.098 68.7443 118.921 67.9096 118.708 66.6613L118.48 65.334C118.267 64.0857 119.097 62.9013 120.337 62.687L126.254 61.6605C127.495 61.4462 128.671 62.2809 128.884 63.5292L129.112 64.8565C129.325 66.1048 128.496 67.2892 127.255 67.5035Z" fill="#FFF9F3"/>
<path d="M120.95 68.7555C119.773 68.7555 118.731 67.902 118.522 66.6988L118.294 65.3715C118.062 64.0254 118.962 62.7395 120.303 62.5064L126.221 61.4799C127.558 61.2468 128.836 62.153 129.067 63.5028L129.295 64.8301C129.527 66.1762 128.626 67.4621 127.285 67.6952L121.368 68.7217C121.23 68.7442 121.088 68.7555 120.95 68.7555ZM126.643 61.8146C126.523 61.8146 126.407 61.8258 126.284 61.8446L120.367 62.8711C119.231 63.0666 118.465 64.1608 118.663 65.3038L118.891 66.6311C119.089 67.7742 120.169 68.5412 121.308 68.3457L127.226 67.3192C128.361 67.1237 129.127 66.0295 128.929 64.8865L128.701 63.5592C128.526 62.5402 127.64 61.8146 126.643 61.8146Z" fill="#090909"/>
<path d="M111.259 59.5585L109.533 59.8593C108.693 60.0059 107.89 59.4382 107.744 58.5884L107.688 58.2688C107.542 57.4228 108.106 56.6144 108.951 56.4678L110.676 56.167L111.259 59.5585Z" fill="#F8EEE2"/>
<path d="M109.268 60.0699C108.913 60.0699 108.566 59.9608 108.271 59.7503C107.893 59.4833 107.639 59.081 107.561 58.6223L107.505 58.3027C107.341 57.3552 107.976 56.449 108.921 56.2836L110.647 55.9828C110.695 55.9752 110.744 55.9865 110.785 56.0128C110.826 56.0429 110.852 56.0843 110.863 56.1332L111.446 59.5247C111.453 59.5736 111.442 59.6224 111.412 59.6638C111.383 59.7052 111.341 59.7315 111.293 59.739L109.567 60.0398C109.466 60.0586 109.365 60.0699 109.268 60.0699ZM110.523 56.3851L108.984 56.652C108.245 56.7799 107.748 57.4905 107.875 58.235L107.931 58.5546C107.994 58.9156 108.189 59.2314 108.487 59.442C108.783 59.6525 109.145 59.7352 109.503 59.6713L111.043 59.4044L110.523 56.3851Z" fill="#090909"/>
<path d="M128.947 63.8936L119.903 65.4653C115.484 66.2323 111.285 63.2506 110.523 58.8025L110.235 57.1256C109.473 52.6775 112.436 48.4513 116.855 47.6842L125.899 46.1125L128.947 63.8936Z" fill="#FFD591"/>
<path d="M118.518 65.7737C114.554 65.7737 111.035 62.9011 110.336 58.8365L110.049 57.1596C109.272 52.6175 112.309 48.2859 116.822 47.5001L125.866 45.9284C125.966 45.9096 126.064 45.9773 126.082 46.0826L129.131 63.8636C129.138 63.9125 129.127 63.9614 129.101 64.0028C129.071 64.0441 129.03 64.0704 128.981 64.078L119.937 65.6496C119.459 65.7324 118.988 65.7737 118.518 65.7737ZM125.746 46.3307L116.889 47.8686C112.578 48.6168 109.679 52.7566 110.422 57.0919L110.71 58.7688C111.453 63.1079 115.563 66.0256 119.874 65.2774L128.731 63.7396L125.746 46.3307Z" fill="#090909"/>
<path d="M125.899 46.1128L128.947 63.8938C135.948 62.6756 143.162 63.7209 149.613 66.883L163.891 73.8842L155.489 24.9102L144.372 36.3218C139.348 41.4805 132.9 44.8983 125.899 46.1128Z" fill="#F8EEE2" stroke="#090909" stroke-miterlimit="10" stroke-linecap="round" stroke-linejoin="round"/>
<path d="M164.434 73.9129C167.711 73.3435 168.479 61.8656 166.148 48.2763C163.817 34.687 159.271 24.1323 155.994 24.7017C152.717 25.2711 151.949 36.749 154.28 50.3383C156.611 63.9276 161.157 74.4823 164.434 73.9129Z" fill="#FFF9F3" stroke="#090909" stroke-miterlimit="10" stroke-linecap="round" stroke-linejoin="round"/>
<path d="M160.219 68.9021C162.891 68.9021 165.056 59.9177 165.056 48.8349C165.056 37.7522 162.891 28.7678 160.219 28.7678C157.547 28.7678 155.381 37.7522 155.381 48.8349C155.381 59.9177 157.547 68.9021 160.219 68.9021Z" fill="#F8EEE2"/>
<path d="M150.058 46.2181L156.39 45.1164C158.975 44.6689 161.433 46.4136 161.881 49.0155C162.326 51.6174 160.592 54.0915 158.007 54.5427L151.675 55.6444L150.058 46.2181Z" fill="#FFD591" stroke="#090909" stroke-miterlimit="10" stroke-linecap="round" stroke-linejoin="round"/>
<path d="M160.219 68.9021C162.891 68.9021 165.056 59.9177 165.056 48.8349C165.056 37.7522 162.891 28.7678 160.219 28.7678C157.547 28.7678 155.381 37.7522 155.381 48.8349C155.381 59.9177 157.547 68.9021 160.219 68.9021Z" stroke="#090909" stroke-miterlimit="10" stroke-linecap="round" stroke-linejoin="round"/>
<path d="M130.726 63.8224C130.636 63.8224 130.558 63.7584 130.543 63.6644L127.584 45.7631C127.569 45.6616 127.636 45.5638 127.737 45.545C127.838 45.5262 127.935 45.5976 127.954 45.6992L130.913 63.6005C130.928 63.702 130.86 63.7998 130.759 63.8186C130.748 63.8224 130.737 63.8224 130.726 63.8224Z" fill="#090909"/>
<path d="M134.313 74.2827L134.335 74.3542C134.694 75.4935 134.062 76.723 132.931 77.0877L126.483 79.1482C125.351 79.5091 124.129 78.8737 123.767 77.7344L123.745 77.663C123.386 76.5237 124.017 75.2942 125.149 74.9295L131.597 72.869C132.733 72.5043 133.954 73.1435 134.313 74.2827Z" fill="#F8EEE2"/>
<path d="M125.828 79.4376C125.458 79.4376 125.089 79.3474 124.749 79.1707C124.188 78.8811 123.777 78.3886 123.591 77.7907L123.568 77.7193C123.176 76.4785 123.863 75.1437 125.096 74.7527L131.544 72.6922C132.78 72.2974 134.099 72.9855 134.491 74.23L134.514 74.3015C134.906 75.5423 134.218 76.8771 132.986 77.2681L126.538 79.3286C126.306 79.4038 126.067 79.4376 125.828 79.4376ZM132.253 72.9516C132.056 72.9516 131.854 72.9817 131.656 73.0456L125.208 75.1061C124.17 75.437 123.594 76.5575 123.923 77.6027L123.945 77.6742C124.102 78.178 124.45 78.5916 124.92 78.836C125.391 79.0804 125.925 79.1293 126.426 78.9676L132.874 76.9071C133.912 76.5763 134.487 75.4558 134.159 74.4105L134.136 74.3391C133.867 73.4931 133.09 72.9516 132.253 72.9516Z" fill="#090909"/>
<path d="M133.042 69.8985L133.064 69.9699C133.423 71.1092 132.792 72.3387 131.66 72.7034L125.212 74.7639C124.08 75.1249 122.859 74.4894 122.496 73.3501L122.474 73.2787C122.115 72.1394 122.747 70.9099 123.878 70.5452L130.326 68.4847C131.458 68.12 132.68 68.7592 133.042 69.8985Z" fill="#F8EEE2"/>
<path d="M124.554 75.0572C124.185 75.0572 123.815 74.9669 123.475 74.7902C122.915 74.5007 122.504 74.0081 122.317 73.4103L122.294 73.3388C122.104 72.741 122.16 72.098 122.451 71.5378C122.739 70.9738 123.228 70.5602 123.822 70.3722L130.27 68.3117C131.503 67.9169 132.829 68.6088 133.217 69.8496L133.24 69.921C133.43 70.5189 133.374 71.1618 133.083 71.722C132.795 72.286 132.306 72.6997 131.712 72.8877L125.264 74.9481C125.033 75.0196 124.794 75.0572 124.554 75.0572ZM130.98 68.5712C130.782 68.5712 130.58 68.6012 130.382 68.6652L123.934 70.7257C123.434 70.8873 123.023 71.2333 122.78 71.707C122.537 72.1808 122.489 72.7185 122.649 73.2223L122.672 73.2937C122.829 73.7976 123.176 74.2112 123.647 74.4556C124.117 74.7 124.652 74.7488 125.152 74.5872L131.6 72.5267C132.101 72.365 132.511 72.0191 132.754 71.5453C132.997 71.0716 133.046 70.5339 132.885 70.03L132.863 69.9586C132.597 69.1088 131.817 68.5712 130.98 68.5712Z" fill="#090909"/>
<path d="M134.335 78.7797L134.343 78.7985C134.698 79.9265 134.074 81.1372 132.953 81.4982L128.552 82.9044C127.432 83.2616 126.229 82.6337 125.87 81.5057L125.863 81.4869C125.508 80.3589 126.132 79.1482 127.252 78.7872L131.649 77.381C132.774 77.0238 133.98 77.6517 134.335 78.7797Z" fill="#F8EEE2"/>
<path d="M127.909 83.1901C126.923 83.1901 126.008 82.5546 125.694 81.562C125.302 80.3137 125.978 78.9977 127.199 78.6066L131.596 77.2004C132.186 77.0124 132.814 77.0688 133.367 77.3546C133.92 77.6441 134.327 78.1254 134.514 78.7194L134.521 78.7382C134.708 79.3323 134.656 79.964 134.368 80.5205C134.08 81.0769 133.602 81.4868 133.012 81.6748L128.611 83.081C128.38 83.1562 128.144 83.1901 127.909 83.1901ZM132.298 77.4674C132.1 77.4674 131.902 77.4974 131.712 77.5614L127.315 78.9676C126.291 79.2947 125.724 80.4002 126.049 81.4304C126.381 82.4794 127.479 83.0509 128.499 82.7238L132.9 81.3176C133.393 81.1597 133.796 80.8175 134.039 80.3513C134.278 79.885 134.323 79.3549 134.166 78.8586L134.159 78.8397C134.002 78.3434 133.662 77.9374 133.195 77.693C132.915 77.5426 132.608 77.4674 132.298 77.4674Z" fill="#090909"/>
<path d="M135.537 82.9344L135.56 83.0058C135.918 84.1451 135.287 85.3746 134.155 85.7393L131.977 86.4349C130.845 86.7959 129.624 86.1604 129.261 85.0212L129.239 84.9497C128.88 83.8104 129.512 82.5809 130.644 82.2162L132.821 81.5206C133.957 81.1559 135.179 81.7951 135.537 82.9344Z" fill="#F8EEE2"/>
<path d="M131.324 86.7245C130.954 86.7245 130.584 86.6343 130.244 86.4576C129.684 86.168 129.273 85.6755 129.086 85.0776L129.063 85.0062C128.873 84.4084 128.929 83.7654 129.22 83.2052C129.508 82.6412 129.997 82.2276 130.591 82.0396L132.769 81.344C134.002 80.9492 135.328 81.641 135.72 82.8818L135.743 82.9532C135.933 83.5511 135.877 84.1903 135.586 84.7543C135.298 85.3183 134.809 85.7319 134.215 85.9199L132.037 86.6155C131.802 86.6907 131.563 86.7245 131.324 86.7245ZM133.475 81.6072C133.277 81.6072 133.076 81.6372 132.878 81.7012L130.7 82.3968C130.199 82.5584 129.788 82.9044 129.545 83.3781C129.303 83.8519 129.254 84.3896 129.415 84.8934L129.437 84.9648C129.594 85.4687 129.941 85.8823 130.412 86.1267C130.883 86.3711 131.417 86.42 131.918 86.2583L134.095 85.5627C134.596 85.401 135.007 85.0551 135.25 84.5813C135.493 84.1076 135.541 83.5699 135.38 83.066L135.358 82.9946C135.093 82.1448 134.312 81.6072 133.475 81.6072Z" fill="#090909"/>
<path d="M118.693 74.9182C118.693 74.9182 119.489 72.6396 119.836 71.6846C120.206 70.6731 120.58 69.594 120.359 68.5412C120.139 67.4884 119.063 66.5409 118.047 66.8755C117.046 67.2064 115.148 71.3838 114.551 72.3651" fill="#F8EEE2"/>
<path d="M118.869 74.9782L118.518 74.8541C118.518 74.8541 119.313 72.5756 119.661 71.6205C119.986 70.7256 120.393 69.6127 120.176 68.5787C120.061 68.0222 119.672 67.4808 119.183 67.1988C118.932 67.0521 118.54 66.9092 118.103 67.0521C117.419 67.2777 116.078 69.8646 115.357 71.252C115.077 71.7897 114.857 72.2146 114.707 72.4628C114.651 72.553 114.536 72.5793 114.45 72.5267C114.36 72.474 114.334 72.3575 114.386 72.2672C114.528 72.0304 114.76 71.5904 115.025 71.0791C116.149 68.9133 117.221 66.9468 117.984 66.6949C118.424 66.5483 118.917 66.6122 119.366 66.8716C119.948 67.21 120.397 67.8342 120.535 68.4997C120.774 69.639 120.348 70.8084 120.005 71.7484C119.665 72.7034 118.869 74.9782 118.869 74.9782Z" fill="#090909"/>
<path d="M116.926 81.1898C116.822 81.1898 116.74 81.1033 116.74 80.998C116.762 78.93 118.45 75.0083 118.521 74.8429C118.563 74.7489 118.675 74.7038 118.768 74.7451C118.861 74.7865 118.906 74.8993 118.865 74.9933C118.846 75.0347 117.135 79.009 117.113 81.0018C117.113 81.107 117.027 81.1898 116.926 81.1898Z" fill="#090909"/>
<path d="M104.023 32.0653C104.109 31.9449 104.188 31.8209 104.24 31.678C105.249 30.5312 105.917 29.0648 106.071 27.4217C106.452 23.2969 103.437 19.646 99.3426 19.2625C98.9952 19.2286 98.6552 19.2324 98.319 19.2474C94.7066 16.1078 92.1888 12.7125 85.8531 13.5322C83.41 13.8481 81.1424 15.1152 79.7528 17.1606C79.5585 17.4464 79.3904 17.7509 79.2335 18.0668C79.1102 18.3187 75.8789 18.6834 75.4493 18.8037C72.4309 19.646 68.5719 20.8943 67.0665 23.9061C66.4015 25.2371 66.1886 26.7373 66.1363 28.2376C63.8613 30.0574 62.9348 33.276 63.8501 36.1862L66.2222 43.71C66.7191 43.5859 67.2346 43.5107 67.7688 43.5107H70.7947C70.9814 43.8303 71.1645 44.1461 71.3475 44.4733C72.2852 46.1427 72.8941 47.9212 72.8231 49.8651C76.7381 44.3567 95.4724 45.793 99.6302 45.793C103.788 45.793 107.158 42.4015 107.158 38.2166C107.161 35.6786 105.921 33.4414 104.023 32.0653Z" fill="#090909"/>
<path d="M72.8269 50.0494C72.8082 50.0494 72.7858 50.0457 72.7671 50.0381C72.6887 50.0118 72.6364 49.9366 72.6401 49.8539C72.7036 48.1431 72.2292 46.4135 71.1907 44.5636C71.0263 44.2703 70.862 43.9845 70.6938 43.6988H67.7763C67.2907 43.6988 66.7826 43.7627 66.2746 43.8943C66.1774 43.9169 66.0803 43.8642 66.0504 43.7702L63.6783 36.2465C62.7406 33.2761 63.6559 30.0312 65.957 28.1474C66.0056 26.9893 66.1588 25.3161 66.9059 23.8272C68.3516 20.9395 71.8482 19.6235 75.4083 18.6309C75.5614 18.5895 75.9985 18.5256 76.5476 18.4429C77.3545 18.3225 78.8413 18.1007 79.0879 17.9616C79.2597 17.6157 79.4278 17.3224 79.6034 17.0629C80.9744 15.0401 83.2457 13.6902 85.8345 13.3556C91.3633 12.6412 94.0903 15.1416 96.978 17.7924C97.4337 18.2097 97.9044 18.6421 98.39 19.067C98.7561 19.052 99.0662 19.0595 99.365 19.0858C101.397 19.2738 103.231 20.2514 104.535 21.8306C105.839 23.4098 106.452 25.4064 106.265 27.4481C106.115 29.0649 105.477 30.5651 104.412 31.7833C104.378 31.8623 104.337 31.945 104.289 32.024C106.213 33.4904 107.359 35.7915 107.359 38.2129C107.359 42.4956 103.9 45.9773 99.6452 45.9773C99.0961 45.9773 98.3079 45.951 97.3067 45.9209C91.0308 45.7254 76.331 45.2667 72.9913 49.9705C72.9427 50.0231 72.8867 50.0494 72.8269 50.0494ZM67.7726 43.3228H70.7984C70.8657 43.3228 70.9255 43.3566 70.9591 43.4168C71.1459 43.7364 71.3289 44.056 71.512 44.3793C72.4795 46.0977 72.9726 47.722 73.0137 49.3275C76.9847 44.9133 90.6348 45.3381 97.303 45.5449C98.3004 45.575 99.0849 45.6013 99.6303 45.6013C103.68 45.6013 106.971 42.285 106.971 38.2129C106.971 35.8479 105.828 33.6069 103.911 32.2195C103.87 32.1894 103.844 32.1443 103.837 32.0954C103.829 32.0465 103.84 31.9939 103.87 31.9563C103.96 31.8322 104.023 31.7232 104.065 31.6141C104.072 31.5916 104.083 31.5728 104.098 31.5577C105.122 30.3921 105.738 28.9596 105.88 27.4105C106.059 25.4665 105.477 23.5677 104.236 22.0675C102.996 20.5635 101.252 19.6385 99.3202 19.4581C99.0214 19.4317 98.7038 19.4242 98.3228 19.443C98.2742 19.4468 98.2294 19.428 98.1921 19.3979C97.684 18.9542 97.1909 18.5068 96.7165 18.0706C93.7728 15.3672 91.2325 13.0322 85.8718 13.7278C83.3914 14.0474 81.2172 15.3409 79.9023 17.2773C79.7304 17.5292 79.566 17.8187 79.3979 18.1609C79.3008 18.3564 78.9011 18.4729 76.5925 18.8189C76.0956 18.8941 75.6287 18.9617 75.4979 18.9993C72.02 19.9694 68.6093 21.2441 67.2309 24.0039C66.6743 25.1169 66.3866 26.4667 66.3194 28.2565C66.3157 28.3129 66.2932 28.3617 66.2484 28.3956C64.0182 30.1778 63.1254 33.2911 64.0257 36.1412L66.3455 43.4995C66.8312 43.3792 67.3093 43.3228 67.7726 43.3228Z" fill="#090909"/>
<path d="M89.2375 32.8137C88.4605 32.3964 87.6797 31.9264 86.8056 31.7985C84.6501 31.4827 82.6777 33.3025 80.4998 33.2424C78.9345 33.201 77.4552 32.0617 77.0069 30.554C78.2883 37.2016 76.7417 44.3532 72.8267 49.8616C72.8977 47.9176 72.2925 46.1429 71.3511 44.4697C71.1681 44.1464 70.9851 43.8268 70.7983 43.5072H67.7724C67.2382 43.5072 66.7227 43.5824 66.2258 43.7064C63.4427 44.4096 61.3657 46.9476 61.3657 49.9556V50.5835C61.3657 54.1292 64.2497 57.0319 67.7724 57.0319H69.4833L67.7724 78.5654C67.2718 84.8596 71.9376 90.3718 78.1911 90.8756L79.2969 90.9659C85.5504 91.4697 91.0269 86.7735 91.5275 80.4792L92.1737 72.3689C97.8258 72.2749 102.383 67.6388 102.383 61.9274V36.7316C102.383 35.6337 102.208 34.5809 101.894 33.592C101.39 33.9004 100.855 34.156 100.303 34.3478C96.6752 35.5999 92.6183 34.626 89.2375 32.8137Z" fill="#F8EEE2"/>
<path d="M80.2197 91.199C79.9059 91.199 79.5958 91.1877 79.2783 91.1614L78.1726 91.0712C75.0981 90.823 72.3038 89.3867 70.3015 87.0216C68.3029 84.6566 67.3354 81.6523 67.582 78.5579L69.2779 57.2274H67.7687C64.1339 57.2274 61.1753 54.2495 61.1753 50.591V49.9631C61.1753 46.9212 63.2299 44.2742 66.1773 43.5297C66.719 43.3943 67.2532 43.3229 67.7725 43.3229H70.7984C70.8656 43.3229 70.9254 43.3568 70.959 43.4169C71.1458 43.7365 71.3288 44.0561 71.5119 44.3795C72.4645 46.0752 72.9576 47.677 73.0136 49.2599C76.626 43.8869 78.0493 36.9535 76.824 30.5878C76.8053 30.49 76.8651 30.3923 76.9622 30.3697C77.0593 30.3471 77.1565 30.4035 77.1863 30.4975C77.6159 31.9376 79.0131 33.013 80.5073 33.0544C81.501 33.0807 82.4686 32.6934 83.41 32.3211C84.5082 31.885 85.6439 31.4375 86.8356 31.6105C87.6387 31.7271 88.3597 32.1219 89.0583 32.5016L89.3272 32.6483C91.5686 33.8515 95.9618 35.645 100.239 34.1673C100.77 33.9831 101.293 33.7349 101.793 33.4304C101.842 33.4003 101.901 33.3965 101.958 33.4153C102.01 33.4341 102.051 33.4792 102.07 33.5356C102.402 34.5847 102.57 35.66 102.57 36.7316V61.9312C102.57 67.6388 98.0015 72.3689 92.3457 72.5569L91.7143 80.498C91.4678 83.5925 90.0408 86.405 87.691 88.4204C85.5804 90.2289 82.9579 91.199 80.2197 91.199ZM67.7725 43.6989C67.2868 43.6989 66.7788 43.7628 66.2707 43.8944C63.4914 44.5976 61.5526 47.0904 61.5526 49.9631V50.591C61.5526 54.0427 64.3431 56.8514 67.7725 56.8514H69.4834C69.5357 56.8514 69.5843 56.874 69.6216 56.9116C69.6552 56.9492 69.6739 57.0018 69.6702 57.0544L67.9593 78.5879C67.7202 81.5809 68.6578 84.4911 70.5929 86.7772C72.528 89.0633 75.2326 90.4545 78.2099 90.6952L79.3157 90.7854C82.2893 91.026 85.1807 90.086 87.4519 88.1346C89.7232 86.1869 91.1054 83.4647 91.3445 80.4679L91.9908 72.3576C91.9982 72.2599 92.0767 72.1847 92.1738 72.1847C97.7026 72.0907 102.2 67.4922 102.2 61.9312V36.7316C102.2 35.7728 102.062 34.814 101.786 33.874C101.322 34.1372 100.848 34.3553 100.362 34.5245C95.9543 36.0473 91.4491 34.2124 89.1554 32.9791L88.8827 32.8325C88.214 32.4678 87.5229 32.0918 86.7833 31.9827C85.6887 31.8211 84.6502 32.2347 83.5482 32.6708C82.5694 33.0581 81.5571 33.4567 80.4999 33.4304C79.2783 33.3965 78.1128 32.7347 77.3993 31.7459C78.2772 38.0627 76.6671 44.7893 72.9837 49.9706C72.9352 50.0383 72.8492 50.0646 72.7708 50.0383C72.6923 50.012 72.64 49.9368 72.6438 49.854C72.7073 48.1432 72.2329 46.4136 71.1943 44.5637C71.03 44.2704 70.8656 43.9847 70.6975 43.6989H67.7725Z" fill="#090909"/>
<path d="M71.0036 57.0544L68.9864 62.6117L67.72 57.0356L71.0036 57.0544Z" fill="#090909"/>
<path d="M68.9865 62.7997C68.9828 62.7997 68.9791 62.7997 68.9753 62.7997C68.8932 62.796 68.8222 62.7358 68.8035 62.6531L67.5371 57.077C67.5259 57.0206 67.5371 56.9605 67.5745 56.9191C67.6118 56.874 67.6791 56.8514 67.7202 56.8477L71.0038 56.8665C71.0636 56.8665 71.1196 56.8965 71.157 56.9454C71.1906 56.9943 71.1981 57.0582 71.1794 57.1184L69.1621 62.6757C69.1322 62.7509 69.065 62.7997 68.9865 62.7997ZM67.9555 57.2274L69.0276 61.9537L70.7386 57.2462L67.9555 57.2274Z" fill="#090909"/>
<path d="M66.8833 48.2036L69.233 50.8356L67.0327 52.2795" fill="#F8EEE2"/>
<path d="M67.0328 52.4674C66.973 52.4674 66.9132 52.4373 66.8759 52.3809C66.8199 52.2944 66.8423 52.1778 66.9319 52.1214L68.9492 50.7979L66.7451 48.3276C66.6779 48.2486 66.6816 48.1321 66.7601 48.0606C66.8348 47.993 66.9543 47.9967 67.0253 48.0757L69.3751 50.7077C69.4124 50.749 69.4273 50.8017 69.4199 50.8581C69.4124 50.9145 69.3825 50.9596 69.3377 50.9897L67.1374 52.4335C67.1038 52.4561 67.0701 52.4674 67.0328 52.4674Z" fill="#090909"/>
<path d="M92.1177 53.4787H90.3208C90.2162 53.4787 90.134 53.396 90.134 53.2907C90.134 53.1855 90.2162 53.1027 90.3208 53.1027H92.1177C92.7079 53.1027 93.2682 52.8396 93.6455 52.3846C94.0266 51.9296 94.1872 51.3318 94.0826 50.7452L92.9731 44.4021C92.9545 44.3006 93.0217 44.2028 93.1263 44.184C93.2234 44.1652 93.3243 44.2329 93.343 44.3382L94.4525 50.6813C94.5757 51.3769 94.3852 52.0876 93.9332 52.629C93.4812 53.1704 92.82 53.4787 92.1177 53.4787Z" fill="#090909"/>
<path d="M96.7088 49.2788C97.4288 49.2788 98.0125 48.6913 98.0125 47.9665C98.0125 47.2418 97.4288 46.6543 96.7088 46.6543C95.9887 46.6543 95.405 47.2418 95.405 47.9665C95.405 48.6913 95.9887 49.2788 96.7088 49.2788Z" fill="#090909"/>
<path d="M90.982 65.4844C90.9222 65.4994 90.8587 65.4956 90.7989 65.4693C90.7391 65.443 89.3009 64.8076 88.2362 65.9431C88.1317 66.0521 87.9635 66.0559 87.8515 65.9544C87.7431 65.8491 87.7357 65.6761 87.8403 65.5671C89.1776 64.1421 91.0081 64.9617 91.0268 64.973C91.1613 65.0369 91.2211 65.1986 91.1613 65.334C91.1239 65.4092 91.0567 65.4618 90.982 65.4844Z" fill="#090909"/>
<path d="M80.5184 42.8724C81.1684 42.9476 81.8931 42.6468 82.6067 42.3987C83.3202 42.1317 84.0449 41.8835 84.6837 41.6918C85.3225 41.4963 86.0621 41.297 86.8055 41.1203C87.5377 40.9285 88.3073 40.7706 88.8004 40.3495C89.2786 39.9509 89.301 39.2139 88.4044 38.5898C87.5564 37.9769 85.6998 37.5934 83.5854 38.2326C81.4785 38.8831 80.171 40.2291 79.8273 41.2067C79.4538 42.2144 79.8946 42.8085 80.5184 42.8724Z" fill="#090909"/>
<path d="M100.721 41.7965C100.235 41.8905 99.7011 41.6724 99.1706 41.4994C98.6401 41.3114 98.1022 41.1385 97.6278 41.0031C97.1533 40.8715 96.6042 40.7399 96.0551 40.6271C95.5097 40.4993 94.9381 40.4053 94.5757 40.0744C94.2246 39.7623 94.2097 39.1494 94.8821 38.5892C95.5171 38.0365 96.9031 37.6304 98.472 38.0665C100.037 38.5102 101.001 39.5743 101.251 40.3714C101.52 41.1986 101.188 41.7137 100.721 41.7965Z" fill="#090909"/>
<path d="M85.2068 49.5157C85.9949 49.5157 86.6338 48.8726 86.6338 48.0794C86.6338 47.2861 85.9949 46.6431 85.2068 46.6431C84.4187 46.6431 83.7798 47.2861 83.7798 48.0794C83.7798 48.8726 84.4187 49.5157 85.2068 49.5157Z" fill="#090909"/>
<path d="M83.7312 49.5873C83.7312 49.5873 85.0051 48.6661 86.2453 49.764L83.7312 49.5873Z" fill="#F8EEE2"/>
<path d="M86.2452 49.952C86.2003 49.952 86.1555 49.937 86.1219 49.9031C85.0161 48.9218 83.888 49.7038 83.8432 49.7377C83.761 49.7978 83.6414 49.7791 83.5817 49.6926C83.5219 49.6099 83.5406 49.4895 83.6228 49.4294C83.6377 49.4181 85.0348 48.433 86.3685 49.6174C86.4469 49.6851 86.4544 49.8054 86.3834 49.8843C86.3498 49.9332 86.2975 49.952 86.2452 49.952Z" fill="#090909"/>
<path d="M95.6926 49.4933C95.6926 49.4933 96.8469 48.9707 97.9153 49.5159L95.6926 49.4933Z" fill="#F8EEE2"/>
<path d="M97.9155 49.7076C97.8856 49.7076 97.8595 49.7001 97.8296 49.6888C96.8546 49.1925 95.7787 49.6662 95.7712 49.67C95.6779 49.7114 95.5658 49.67 95.5247 49.576C95.4836 49.482 95.5247 49.3692 95.6181 49.3278C95.6667 49.3053 96.8658 48.7751 98.0014 49.3542C98.0948 49.3993 98.1284 49.5158 98.0836 49.6061C98.05 49.67 97.9827 49.7076 97.9155 49.7076Z" fill="#090909"/>
<path d="M83.3499 53.7721C83.843 53.4413 84.5005 53.524 84.9413 53.9263C85.7407 54.6633 87.4778 55.968 89.9658 56.2237C90.5784 56.2876 90.8922 57.002 90.6307 57.5622C90.0554 58.7917 88.5088 60.6868 85.2962 59.1677C81.3737 57.3178 82.0611 54.6332 83.3499 53.7721Z" fill="#FFF9F3"/>
<path d="M87.4854 59.9122C86.8391 59.9122 86.0845 59.7468 85.2103 59.3369C82.685 58.145 82.2143 56.6824 82.1583 55.9154C82.0911 55.0054 82.5169 54.103 83.2454 53.618C83.802 53.2458 84.5491 53.3172 85.0647 53.7909C85.8604 54.5241 87.5563 55.7875 89.9808 56.0394C90.3058 56.0733 90.5897 56.2613 90.7541 56.5621C90.9408 56.8967 90.9558 57.299 90.7952 57.6449C90.5 58.2691 89.5288 59.9122 87.4854 59.9122ZM83.4508 53.9301C82.9839 54.2421 82.4609 54.9453 82.5281 55.889C82.6141 57.0697 83.6227 58.1751 85.3672 58.9985C88.6023 60.5251 90.0032 58.4458 90.4552 57.4833C90.5635 57.2502 90.5523 56.9681 90.4291 56.7463C90.3207 56.5545 90.1489 56.4342 89.9434 56.4154C87.4106 56.156 85.6399 54.8362 84.8144 54.0729C84.4259 53.7082 83.8655 53.6518 83.4508 53.9301Z" fill="#090909"/>
<path d="M92.1028 72.4367C92.1028 72.4367 80.4289 73.1962 77.5449 68.436C77.5449 68.436 80.1412 76.2869 91.5798 79.0167L92.1028 72.4367Z" fill="#090909"/>
<path d="M91.5798 79.201C91.5649 79.201 91.55 79.201 91.535 79.1973C80.1263 76.475 77.3918 68.5752 77.3657 68.4925C77.3358 68.4023 77.3769 68.3045 77.4628 68.2632C77.5487 68.2256 77.6496 68.2556 77.7019 68.3346C80.4924 72.9444 91.9721 72.2563 92.0879 72.245C92.1439 72.2412 92.1962 72.26 92.2336 72.3014C92.2709 72.339 92.2896 72.3954 92.2859 72.448L91.7629 79.0243C91.7592 79.0807 91.7293 79.1296 91.6882 79.1597C91.6583 79.1897 91.6209 79.201 91.5798 79.201ZM78.3407 69.6769C79.6257 71.9893 83.1821 76.7495 91.4117 78.7761L91.9011 72.6323C90.3956 72.7112 81.9418 72.9744 78.3407 69.6769Z" fill="#090909"/>
<path d="M26.4412 153.701L27.4797 126.626L55.7213 127.539C55.7101 127.705 58.411 107.427 58.396 107.593L55.7213 127.539L51.9632 127.423L51.5859 136.432C51.5859 136.432 77.1901 123.253 79.3792 120.598C79.3792 120.598 86.7908 113.161 89.7494 111.142C90.0669 110.924 90.3957 110.713 90.7655 110.616C91.1353 110.518 91.5612 110.555 91.8563 110.8C92.2411 111.119 92.3046 111.683 92.2822 112.187C92.2149 113.744 91.6023 115.207 90.9896 116.647C91.169 116.59 109.881 110.349 110.912 110.089C112.686 109.638 112.6 112.101 111.342 113.439C109.739 115.146 102.286 119.094 101.883 119.192C103.68 119.124 105.402 118.76 105.831 121.708C106.127 123.742 104.341 124.31 102.525 124.52C103.672 124.561 104.655 124.949 104.759 126.317C105.211 128.634 103.299 129.574 101.39 129.81C101.334 129.818 101.322 129.893 101.379 129.916C102.944 130.532 101.86 133.428 99.5593 134.27L86.6862 139.733C85.3637 140.335 50.9023 166.719 50.9023 166.719C46.9126 169.531 42.2766 170.159 38.1114 169.091C31.2004 167.309 26.4673 160.883 26.4412 153.701Z" fill="#F8EEE2"/>
<path d="M42.0077 169.768C40.7002 169.768 39.3815 169.602 38.0666 169.264C31.1406 167.486 26.2805 161.086 26.2544 153.701C26.2544 153.698 26.2544 153.698 26.2544 153.694L27.2929 126.618C27.2966 126.517 27.3751 126.438 27.4872 126.438L55.5607 127.344L58.1084 108.337C58.1383 108.13 58.1569 107.969 58.1756 107.841L58.213 107.562H58.2242C58.269 107.382 58.3138 107.39 58.4184 107.397C58.5193 107.408 58.594 107.499 58.5865 107.6L57.4995 115.692C57.4509 116.064 57.3986 116.436 57.35 116.808L56.0351 126.622C55.9977 126.893 55.9716 127.096 55.9454 127.254L55.9043 127.566C55.9006 127.607 55.8782 127.645 55.852 127.675C55.8147 127.742 55.7736 127.739 55.7026 127.731C55.6989 127.731 55.6989 127.731 55.6951 127.731L52.1388 127.622L51.7839 136.123C54.6006 134.668 77.2163 122.93 79.2335 120.482C79.3195 120.395 86.7011 112.996 89.6411 110.992C89.981 110.758 90.321 110.54 90.717 110.439C91.1877 110.315 91.6584 110.398 91.9759 110.661C92.342 110.965 92.5026 111.469 92.4727 112.199C92.4092 113.665 91.8825 115.026 91.3259 116.342C91.438 116.304 91.5687 116.259 91.7219 116.21C106.792 111.195 110.449 110.014 110.867 109.909C111.711 109.691 112.1 110.104 112.253 110.371C112.716 111.168 112.361 112.631 111.48 113.571C110.176 114.958 104.965 117.876 102.824 118.963C104.266 118.914 105.645 119.106 106.018 121.681C106.119 122.381 105.992 122.975 105.637 123.437C105.185 124.031 104.412 124.343 103.65 124.524C104.449 124.806 104.871 125.396 104.942 126.306C105.107 127.148 104.972 127.893 104.539 128.494C103.896 129.386 102.757 129.773 101.797 129.942C102.129 130.201 102.305 130.608 102.298 131.111C102.283 132.273 101.278 133.841 99.619 134.446L86.7572 139.906C85.7299 140.372 62.9274 157.747 51.0144 166.869C48.2911 168.783 45.1905 169.768 42.0077 169.768ZM26.628 153.705C26.6578 160.917 31.3984 167.166 38.1599 168.899C42.5606 170.027 47.0471 169.196 50.7977 166.557C52.1986 165.482 85.2853 140.154 86.6115 139.553L99.4883 134.089C100.983 133.544 101.916 132.112 101.931 131.1C101.935 130.75 101.834 130.288 101.315 130.085C101.21 130.044 101.151 129.938 101.162 129.829C101.177 129.72 101.263 129.634 101.371 129.619C102.716 129.449 103.736 128.972 104.244 128.265C104.614 127.75 104.726 127.107 104.58 126.347C104.494 125.265 103.844 124.749 102.522 124.701C102.425 124.697 102.346 124.618 102.342 124.52C102.339 124.422 102.41 124.336 102.507 124.325C103.99 124.152 104.89 123.794 105.346 123.2C105.641 122.813 105.742 122.332 105.652 121.726C105.282 119.2 103.993 119.264 102.354 119.35C102.2 119.358 102.047 119.365 101.894 119.373C101.793 119.369 101.715 119.305 101.704 119.211C101.689 119.117 101.752 119.027 101.846 119.004C102.335 118.869 109.657 114.962 111.215 113.308C112.036 112.432 112.275 111.134 111.939 110.555C111.76 110.247 111.431 110.153 110.968 110.27C110.557 110.375 106.907 111.552 91.8489 116.564C91.3632 116.726 91.0793 116.82 91.0569 116.827C90.9897 116.85 90.9112 116.831 90.8627 116.774C90.8141 116.722 90.7991 116.643 90.829 116.575C91.423 115.173 92.0394 113.721 92.1066 112.18C92.1328 111.574 92.017 111.172 91.748 110.946C91.5239 110.762 91.1765 110.706 90.8216 110.8C90.4854 110.886 90.1753 111.086 89.8615 111.3C86.9514 113.285 79.5959 120.659 79.5212 120.734C77.3433 123.377 52.7253 136.063 51.6793 136.605C51.6195 136.635 51.5486 136.631 51.4925 136.597C51.4365 136.56 51.4029 136.499 51.4066 136.432L51.7764 127.607L27.6702 126.829L26.628 153.705Z" fill="#090909"/>
<path d="M51.6346 131.784L40.5322 142.316L51.586 136.627L51.6346 131.784Z" fill="#090909"/>
<path d="M90.829 116.884L83.8657 120.151C83.8657 120.151 90.3919 114.936 91.7069 114.519L90.829 116.884Z" fill="#090909"/>
<path d="M98.0061 120.392C98.0061 120.392 102.239 118.978 102.975 118.948L98.0061 120.392Z" fill="#F8EEE2"/>
<path d="M98.0052 120.579C97.9268 120.579 97.852 120.531 97.8296 120.452C97.796 120.354 97.852 120.249 97.9492 120.215C98.121 120.158 102.215 118.793 102.966 118.76C103.067 118.756 103.157 118.835 103.16 118.94C103.164 119.045 103.086 119.132 102.981 119.136C102.398 119.162 99.2342 120.181 98.065 120.572C98.0426 120.576 98.0239 120.579 98.0052 120.579Z" fill="#090909"/>
<path d="M98.9728 125.878C98.8943 125.878 98.8196 125.825 98.7934 125.746C98.7636 125.648 98.8196 125.543 98.9167 125.509L102.847 124.272C102.947 124.242 103.048 124.298 103.082 124.396C103.112 124.494 103.056 124.599 102.959 124.633L99.0288 125.87C99.0101 125.878 98.9914 125.878 98.9728 125.878Z" fill="#090909"/>
<path d="M98.9915 130.641C98.9093 130.641 98.8346 130.589 98.8122 130.506C98.7823 130.404 98.8421 130.303 98.9392 130.273L101.072 129.656C101.173 129.626 101.274 129.686 101.304 129.784C101.334 129.886 101.274 129.987 101.177 130.017L99.0438 130.634C99.0251 130.638 99.0102 130.641 98.9915 130.641Z" fill="#090909"/>
</g>
<defs>
<clipPath id="clip0">
<rect width="184" height="188" fill="white"/>
</clipPath>
</defs>
</svg>
