<svg width="20" height="20" viewBox="0 0 20 20" fill="none" xmlns="http://www.w3.org/2000/svg">
<path d="M11.6667 2.5V5.83333C11.6667 6.05435 11.7545 6.26631 11.9107 6.42259C12.067 6.57887 12.279 6.66667 12.5 6.66667H15.8333" stroke="#909398" stroke-width="1.5" stroke-linecap="round" stroke-linejoin="round"/>
<path d="M4.16666 10.8333V4.16667C4.16666 3.72464 4.34225 3.30072 4.65481 2.98816C4.96737 2.67559 5.3913 2.5 5.83332 2.5H11.6667L15.8333 6.66667V15.8333C15.8333 16.2754 15.6577 16.6993 15.3452 17.0118C15.0326 17.3244 14.6087 17.5 14.1667 17.5H9.58332M1.66666 15.8333H7.49999M7.49999 15.8333L4.99999 13.3333M7.49999 15.8333L4.99999 18.3333" stroke="#909398" stroke-width="1.5" stroke-linecap="round" stroke-linejoin="round"/>
</svg>
