<svg width="16" height="16" viewBox="0 0 16 16" fill="none" xmlns="http://www.w3.org/2000/svg">
<path d="M8 14C11.3137 14 14 11.3137 14 8C14 4.68629 11.3137 2 8 2C4.68629 2 2 4.68629 2 8C2 11.3137 4.68629 14 8 14Z" stroke="#0554F2" stroke-width="1.5" stroke-linecap="round" stroke-linejoin="round"/>
<path d="M8 11.3333V11.34" stroke="#0554F2" stroke-width="1.5" stroke-linecap="round" stroke-linejoin="round"/>
<path d="M7.99999 9.00003C7.98772 8.78361 8.04609 8.56906 8.16633 8.3887C8.28657 8.20834 8.46216 8.07194 8.66666 8.00003C8.91724 7.9042 9.14216 7.75152 9.3237 7.554C9.50525 7.35648 9.63847 7.11951 9.71287 6.86175C9.78728 6.604 9.80083 6.33249 9.75248 6.06861C9.70412 5.80472 9.59517 5.55566 9.4342 5.34104C9.27323 5.12642 9.06464 4.95209 8.82485 4.83177C8.58506 4.71146 8.32062 4.64846 8.05234 4.64771C7.78406 4.64697 7.51927 4.70851 7.27882 4.82749C7.03837 4.94647 6.82881 5.11963 6.66666 5.33336" stroke="#0554F2" stroke-width="1.5" stroke-linecap="round" stroke-linejoin="round"/>
</svg>
